<?xml version="1.0" encoding="UTF-8"?>
<!DOCTYPE svg PUBLIC "-//W3C//DTD SVG 1.1//EN" "http://www.w3.org/Graphics/SVG/1.1/DTD/svg11.dtd">
<!-- Creator: CorelDRAW X6 -->
<svg xmlns="http://www.w3.org/2000/svg" xml:space="preserve" width="1.68666in" height="3.12666in" version="1.1" style="shape-rendering:geometricPrecision; text-rendering:geometricPrecision; image-rendering:optimizeQuality; fill-rule:evenodd; clip-rule:evenodd"
viewBox="0 0 40 75"
 xmlns:xlink="http://www.w3.org/1999/xlink">
 <defs>
  <style type="text/css">
   <![CDATA[
    .fil58 {fill:#77746B}
    .fil57 {fill:#79766B}
    .fil52 {fill:#817D71}
    .fil84 {fill:#858175}
    .fil48 {fill:#878579}
    .fil86 {fill:#8B8982}
    .fil89 {fill:#8C8B83}
    .fil56 {fill:#8D8A7E}
    .fil4 {fill:#928F88}
    .fil61 {fill:#949286}
    .fil68 {fill:#94938C}
    .fil81 {fill:#9B988F}
    .fil49 {fill:#9D9A91}
    .fil26 {fill:#A19D95}
    .fil82 {fill:#A3A097}
    .fil90 {fill:#A3A29B}
    .fil59 {fill:#A7A49B}
    .fil79 {fill:#AAA7A0}
    .fil80 {fill:#ACA9A2}
    .fil54 {fill:#AEABA4}
    .fil38 {fill:#B0ADA6}
    .fil94 {fill:#B1AEA7}
    .fil87 {fill:#B4B3AE}
    .fil60 {fill:#B5B2AB}
    .fil66 {fill:#B5B5AE}
    .fil53 {fill:#B6B3AC}
    .fil19 {fill:#BAB8B3}
    .fil51 {fill:#BCB8B3}
    .fil91 {fill:#BDBCB7}
    .fil11 {fill:#BEBBB6}
    .fil93 {fill:#BFBEB9}
    .fil55 {fill:#C2C1BC}
    .fil6 {fill:#C2C1BD}
    .fil70 {fill:#C3C2BD}
    .fil71 {fill:#C4C3BE}
    .fil32 {fill:#C5C4BF}
    .fil92 {fill:#C6C5C0}
    .fil39 {fill:#C7C6C1}
    .fil28 {fill:#C8C7C2}
    .fil63 {fill:#C9C8C3}
    .fil14 {fill:#CAC9C4}
    .fil65 {fill:#CCCBC6}
    .fil1 {fill:#CDCBC7}
    .fil62 {fill:#CDCCC8}
    .fil77 {fill:#CECDC8}
    .fil50 {fill:#CECDC9}
    .fil33 {fill:#D0CECB}
    .fil64 {fill:#D1D0CC}
    .fil12 {fill:#D2D1CD}
    .fil3 {fill:#D3D2CE}
    .fil7 {fill:#D4D3CF}
    .fil67 {fill:#D5D4CF}
    .fil45 {fill:#D6D5D1}
    .fil72 {fill:#D6D7D2}
    .fil43 {fill:#D8D7D3}
    .fil69 {fill:#D8D7D5}
    .fil13 {fill:#D9D8D4}
    .fil83 {fill:#D9D9D6}
    .fil78 {fill:#DAD9D5}
    .fil17 {fill:#DBDAD6}
    .fil88 {fill:#DBDAD8}
    .fil75 {fill:#DCDBD9}
    .fil10 {fill:#DEDDDA}
    .fil5 {fill:#DFDEDC}
    .fil37 {fill:#E0DFDD}
    .fil41 {fill:#E1E0DE}
    .fil76 {fill:#E2E1DF}
    .fil2 {fill:#E2E2DF}
    .fil74 {fill:#E3E3E1}
    .fil20 {fill:#E5E4E1}
    .fil18 {fill:#E5E5E3}
    .fil21 {fill:#E6E5E3}
    .fil35 {fill:#E7E7E5}
    .fil31 {fill:#E8E8E7}
    .fil44 {fill:#EAE9E7}
    .fil34 {fill:#EAEAE8}
    .fil9 {fill:#EBEBE8}
    .fil24 {fill:#ECECE9}
    .fil27 {fill:#EEEEEC}
    .fil40 {fill:#EFEFED}
    .fil16 {fill:#EFEFEE}
    .fil23 {fill:#F0F0F0}
    .fil8 {fill:#F1F1F1}
    .fil25 {fill:#F2F2F0}
    .fil15 {fill:#F3F3F3}
    .fil22 {fill:#F4F4F4}
    .fil29 {fill:whitesmoke}
    .fil42 {fill:#F7F7F7}
    .fil36 {fill:#F8F8F8}
    .fil30 {fill:#FAFAFA}
    .fil73 {fill:#FBFBFB}
    .fil85 {fill:#FCFCFC}
    .fil0 {fill:#FDFDFD}
    .fil46 {fill:#FEFEFE}
    .fil47 {fill:white}
   ]]>
  </style>
 </defs>
 <g id="Layer_x0020_1">
  <metadata id="CorelCorpID_0Corel-Layer"/>
  <g id="_2449374560">
   <g>
    <path class="fil0" d="M16 11c0,0 0,0 0,0 0,0 -2,0 -2,0 0,0 0,0 0,0 0,0 1,0 1,0 0,0 0,0 0,0 0,0 1,0 1,0z"/>
    <path class="fil0" d="M29 27l0 0 0 0 0 0c0,0 0,0 1,0 -1,0 -1,0 -1,0 0,0 0,0 0,0 0,0 0,0 0,0z"/>
   </g>
   <g>
    <path class="fil1" d="M28 23c0,0 0,1 0,1 0,1 -1,0 -1,0 0,1 0,0 0,1l1 0c1,0 0,0 0,0 0,0 0,1 0,1 0,0 0,0 0,1l0 0c1,-1 1,-2 0,-2 0,-1 1,-2 0,-2l0 0z"/>
    <path class="fil1" d="M11 63l0 0c-1,0 -1,0 -1,1l1 0c0,0 0,0 0,0 0,0 0,-1 0,-1 0,0 0,0 0,0l0 0c0,0 0,0 0,1 0,0 0,0 1,0l-1 0 0 -1 1 0 0 0 0 0c0,0 0,-1 -1,-1l0 1c0,0 0,0 0,0 0,0 0,0 0,0z"/>
    <path class="fil1" d="M10 61l0 0c0,0 0,0 0,0 0,0 0,0 0,0 0,1 0,0 0,1 0,0 0,0 0,-1 0,0 0,0 0,0 0,0 0,0 0,-1l0 1z"/>
   </g>
   <g>
    <path class="fil2" d="M17 20c-1,0 -1,0 -1,0 -1,0 -1,0 -1,0l0 0c0,0 0,0 0,0l0 0c-1,0 -1,0 -1,0 -1,0 0,0 -1,0 0,0 0,0 0,0 0,0 -1,0 -1,0 0,0 0,0 0,0l1 0c-1,0 -1,0 -1,0l0 0c1,0 2,0 4,0 0,0 0,0 0,0 1,0 1,0 1,0 0,0 0,1 0,0z"/>
    <path class="fil2" d="M14 22l0 0c0,0 0,0 0,0 0,0 0,0 -1,0 0,0 0,0 0,0 0,0 0,0 -1,0 1,0 1,0 1,0 0,0 0,0 0,0 1,1 0,0 1,0z"/>
    <path class="fil2" d="M12 30l0 0c0,0 0,0 0,0 0,0 0,0 0,0 -1,-1 0,0 -1,-1l0 1c1,0 0,0 1,0 0,0 0,0 0,0z"/>
   </g>
   <g>
    <path class="fil3" d="M12 29l0 0 1 0 1 0c0,0 -1,0 -1,0 0,0 0,-1 0,-1l-1 0c0,0 0,0 0,0 0,0 0,0 1,0l2 0c-1,0 -2,0 -3,0l0 0c0,0 0,0 0,0 0,0 0,0 0,0 -1,0 -1,-1 -1,-1 0,1 0,1 0,1 1,0 1,0 1,1l0 0z"/>
    <path class="fil3" d="M12 31l1 0 0 0c1,0 1,0 1,0l0 0c0,0 0,0 -1,0 0,0 1,0 0,0 0,0 0,0 0,0 0,0 0,0 -1,0l0 0c0,0 0,0 0,-1 0,0 0,1 0,0 0,0 0,0 1,0 0,0 0,0 0,0 0,0 0,0 0,0l-1 0c0,0 0,0 -1,0 0,0 0,0 1,0l-1 1c1,0 0,-1 0,0l1 0c0,0 -1,0 0,0 0,0 0,0 0,0z"/>
   </g>
   <g>
    <path class="fil4" d="M16 68c1,0 1,0 1,0 0,0 1,-1 1,-1 0,0 1,0 1,1l0 0c1,-1 1,-1 1,-1l3 0c1,0 1,0 2,0 1,0 0,0 1,0 1,0 1,0 1,0 0,0 0,0 -1,0 0,0 -1,0 -2,0 0,0 0,0 0,0l-6 0c0,0 -2,0 -2,1z"/>
    <path class="fil4" d="M28 7c0,0 0,0 0,0 0,0 0,0 -1,0 1,0 1,0 1,0z"/>
   </g>
   <g>
    <path class="fil5" d="M26 18c0,0 0,0 0,0 0,0 0,0 0,0 0,0 1,-1 1,0 -1,0 0,0 0,0 -1,0 -1,0 -2,0 0,0 0,0 -1,0 -1,0 0,0 0,0 0,0 1,0 1,0l2 0c0,0 0,0 0,0l1 0c0,-1 0,0 0,0l0 -1 0 0 0 0c0,1 -1,1 -2,1z"/>
    <path class="fil5" d="M26 16l0 0c0,0 1,0 1,0 0,0 0,0 0,0l0 0c0,0 0,0 0,0 0,0 -1,0 -1,0 1,0 1,0 2,0 0,0 0,0 0,0 0,0 0,0 0,0 0,0 0,0 0,-1 0,1 -1,1 -2,1z"/>
    <path class="fil5" d="M28 13c0,1 0,0 0,1 0,0 0,-1 -1,-1l-1 0c0,0 0,0 0,0 1,1 1,0 1,1 0,0 0,0 0,0 0,0 -1,0 -1,0l2 0c0,0 0,0 0,0 0,-1 0,0 0,-1 0,0 0,0 0,0z"/>
   </g>
   <g>
    <path class="fil6" d="M28 67l-1 0c0,0 0,0 -1,0 -1,0 0,0 -1,0 -1,0 -1,0 -2,0l-3 0c0,0 0,0 -1,1l3 0c0,0 0,0 1,0l0 0c0,-1 0,-1 0,-1 1,0 1,0 1,0 0,0 1,0 1,0 0,0 2,0 2,0 0,0 0,0 1,0 0,0 1,0 1,0l0 -1c0,0 0,0 0,0 0,0 0,0 0,0 0,0 0,0 0,0 0,1 0,1 0,1l-1 0z"/>
    <path class="fil6" d="M29 32c1,0 0,0 0,0 1,0 1,0 1,0l-1 0c1,0 1,0 1,0l-1 -1c0,0 0,0 0,0 0,0 0,0 0,0 0,1 0,0 0,1z"/>
   </g>
   <g>
    <path class="fil7" d="M21 61l0 0 1 0c0,0 0,0 0,0 0,0 1,0 1,0 0,0 0,0 1,0l0 0 0 1c0,-1 1,0 1,0l0 0c0,0 0,0 0,0l0 0c0,0 0,0 0,0l1 0c0,0 0,0 0,0 0,0 -1,0 -1,0 0,0 0,0 0,0l0 -1c0,0 0,0 0,0 0,0 0,0 0,0 0,0 0,0 0,0l0 0c-1,0 0,0 -1,0 0,0 0,0 -1,0l0 0c0,0 0,0 0,0 -1,0 -1,0 -1,0 0,0 0,0 0,0 0,0 0,0 -1,0 0,0 1,0 0,0 0,0 0,-1 0,0z"/>
    <path class="fil7" d="M28 27l0 1 0 0c0,0 0,0 0,0 0,0 0,0 -1,0 0,0 0,0 0,0 0,0 0,0 0,0l0 0c0,0 0,0 0,0 0,0 0,1 0,0 0,0 0,1 0,1 0,0 -1,0 -1,0 -1,0 0,-1 -1,0l0 0 3 0c0,0 0,0 0,0l0 0c0,0 0,0 0,0l1 0c-1,-1 -1,0 0,-1 0,0 -1,-1 -1,-1l0 0z"/>
    <path class="fil7" d="M27 62l0 0c0,1 0,0 0,1 0,0 0,0 0,0 0,0 0,0 0,0 0,0 0,0 0,-1 0,1 0,1 1,1 0,0 0,0 0,0l0 0 0 -1 0 0c0,0 0,0 0,1l-1 0c0,0 0,0 0,-1 0,0 0,0 0,0l0 0z"/>
    <path class="fil7" d="M26 16l0 0 1 0c0,0 1,0 1,0l0 0c0,0 0,0 0,-1 0,0 0,0 0,0l0 0c0,1 0,1 0,1 0,0 0,0 0,0 0,0 0,0 0,0 -1,0 -1,0 -2,0z"/>
    <path class="fil7" d="M26 22c0,0 1,0 0,0 0,0 -1,0 -1,0 0,0 1,1 1,0z"/>
   </g>
   <g>
    <path class="fil8" d="M29 11l0 1 0 1c0,1 0,0 0,1 0,0 0,1 0,1l0 0c0,0 0,0 0,0l1 0c-1,-1 -1,0 -1,-1l0 0c0,-1 0,-1 0,-1 0,0 0,0 0,0 0,0 0,0 0,0 0,-1 0,0 0,-1l0 0 0 0c0,0 0,0 0,-1 0,0 0,1 0,0 0,0 0,0 0,0l0 0c0,0 0,0 0,0z"/>
    <path class="fil8" d="M25 37c0,1 0,0 0,1l0 0c1,0 1,0 2,0l0 -1c-1,0 0,0 -1,0l2 0 0 0c-1,0 0,0 -1,0l0 0 -2 0z"/>
    <path class="fil8" d="M12 23c-1,0 -1,0 -1,0 0,1 0,0 0,1 1,0 1,0 1,0l0 0c0,-1 -1,0 0,-1 0,0 0,0 0,0 0,0 0,0 0,0l0 0 0 0 0 0z"/>
    <path class="fil8" d="M25 20c0,0 0,0 0,0l-1 0 1 0c0,0 0,0 0,0z"/>
    <path class="fil8" d="M11 17c0,0 0,0 0,0 0,0 0,0 0,0 0,0 0,0 0,0l0 0z"/>
   </g>
   <g>
    <path class="fil9" d="M12 24c0,0 0,0 0,0l1 0c0,0 0,0 0,0 0,0 0,0 0,0 0,0 0,0 0,0 0,0 0,0 1,0l0 0c0,0 2,1 2,0l0 0c0,0 0,0 0,0 0,0 0,0 0,0 0,0 0,0 0,0 0,0 0,0 0,0 0,0 0,0 -1,0 0,0 0,0 0,0l-3 0z"/>
    <path class="fil9" d="M26 35c0,0 -1,0 -1,0 0,1 1,0 1,0l-2 1c0,0 3,0 3,0 0,-1 0,0 0,-1 0,0 1,0 1,0 0,0 -1,0 -2,0z"/>
    <path class="fil9" d="M28 39c0,0 0,0 0,0l-1 0c0,0 0,0 0,0l0 1 1 0 -1 -1c1,0 1,0 1,0z"/>
   </g>
   <g>
    <path class="fil10" d="M14 27c2,0 4,0 6,0 0,0 1,0 1,0 0,0 0,0 0,0l-3 0 0 0 -4 0 -1 0c0,-1 0,-1 0,-1 0,0 0,0 0,0l1 0 0 0c0,0 0,0 -1,0 0,0 0,0 -1,0l0 0c0,0 0,0 0,1l3 0c0,0 0,0 0,0 -1,0 0,0 -1,0 0,0 0,0 0,0z"/>
    <path class="fil10" d="M28 24l0 0 -1 0c0,0 0,0 0,0 0,0 0,0 1,0 0,0 -1,0 -1,0 0,0 0,0 -1,0 -1,0 -1,0 -1,0 0,0 0,0 0,0 -1,1 -1,0 -2,0 0,1 0,1 -1,0 0,0 -1,1 -1,1 0,0 1,0 1,0 1,0 1,0 2,0 1,0 1,0 1,0 1,0 1,0 2,0 0,-1 0,0 0,-1 0,0 1,1 1,0 0,0 0,-1 0,-1 0,0 0,1 0,0 0,0 0,0 0,1z"/>
    <path class="fil10" d="M28 36c0,0 0,0 0,0 0,0 0,1 0,1l0 0 0 0 0 0c0,0 0,0 0,0 0,0 0,1 0,1l0 0 0 0c0,0 0,0 0,0 1,0 1,-2 0,-2 0,-1 1,-2 1,-3 -1,0 0,0 -1,0 0,0 0,1 0,1 0,1 1,0 0,1l0 0c0,0 0,0 0,1l0 -1 0 1z"/>
    <path class="fil10" d="M13 31l0 0c0,0 0,-1 0,-1 0,0 0,1 0,0l0 0c0,0 0,0 0,0 0,0 0,0 0,0 -1,0 -1,0 -1,0 0,1 0,0 0,0 0,1 0,1 0,1l0 0c1,0 1,0 1,0 0,0 0,0 0,0 1,0 0,0 0,0z"/>
    <path class="fil10" d="M11 38l0 0 0 0c0,-1 0,0 0,-1l0 0 0 0c0,0 0,1 0,1z"/>
   </g>
   <g>
    <path class="fil11" d="M14 64c0,0 0,0 0,0 1,0 1,0 1,0 0,0 0,0 0,0 0,0 0,0 0,0l1 0c0,0 0,0 0,0 0,0 0,0 0,0 1,0 0,0 1,0 0,0 -1,0 0,0l0 0 0 0c1,0 1,0 1,0 0,0 0,0 0,0l1 0c0,0 0,0 -1,-1 0,0 -1,1 -1,0l0 1c0,0 0,0 0,0l-1 0 0 0c0,0 0,-1 0,-1 -1,0 0,1 -1,1 0,0 0,0 -1,0 0,0 1,0 0,0 0,0 0,0 0,0z"/>
    <path class="fil11" d="M11 65l0 -1c0,1 0,1 0,1 0,-1 0,-1 -1,-1 0,1 0,1 1,1l0 1c0,-1 0,0 0,-1l0 1c1,-1 0,-1 1,-1 0,0 0,0 1,0 0,0 0,0 0,0l0 0 1 0c0,-1 0,-1 0,-1 0,0 0,0 0,0 0,0 0,0 0,0 0,0 -1,0 -1,0 0,0 0,0 0,0l0 0c0,0 0,0 0,0 0,0 0,0 0,0 0,1 0,0 0,1 -1,0 0,0 -1,0 0,0 0,0 0,-1 0,1 0,1 0,1l0 0 0 0c0,0 0,0 -1,0l0 0c0,0 0,0 0,0 0,0 0,0 0,0z"/>
   </g>
   <g>
    <path class="fil12" d="M10 63c0,0 0,1 0,1 0,0 0,0 0,0 0,-1 0,-1 1,-1l0 0c-1,0 -1,0 -1,0 0,-1 1,-1 1,-1 0,0 0,0 -1,0l1 0c0,0 0,0 0,0 0,0 0,0 0,0 0,0 0,0 0,0 0,0 1,0 1,0 0,0 0,0 0,0 0,0 0,0 0,0l0 -1c0,0 1,1 1,0l0 0c-1,0 0,0 0,0 -1,0 0,0 -1,0 0,0 0,0 0,0 0,0 0,0 0,0 0,0 -1,0 -1,0l0 0 0 0 0 0c0,0 0,0 0,1 0,-1 0,-1 0,-1l-1 0c0,0 0,0 0,1 0,0 0,0 0,0l0 0c0,0 0,0 0,0l0 1z"/>
    <path class="fil12" d="M11 15c0,0 0,0 0,0l0 -1c0,0 0,0 0,0l0 -1c0,0 0,0 0,0 0,0 0,1 0,1 0,0 0,0 0,1 0,0 0,0 0,0z"/>
    <path class="fil12" d="M18 61c0,0 0,0 0,0 1,0 0,0 1,0l0 0c0,0 0,0 0,0l0 0c0,0 0,0 0,0 0,0 0,0 0,0 0,0 0,0 -1,0 0,0 0,0 0,0 0,0 0,0 0,0l0 0z"/>
   </g>
   <g>
    <path class="fil13" d="M28 30c-1,0 0,0 -1,0 0,0 0,0 0,0l1 0c0,1 0,0 -1,0 0,1 0,1 0,1 0,0 -1,0 -1,0l-3 0c0,0 -1,0 -1,0l-2 0c0,0 0,0 0,0l2 0c1,0 5,0 6,0l0 0 0 0c0,0 1,1 0,1l0 0c0,0 0,0 0,0 -1,0 -1,0 -1,0 0,0 0,0 1,0 0,0 0,0 0,1l0 0c0,-1 1,-1 1,-2 0,0 -1,0 -1,-1 0,0 0,0 0,0 0,0 0,0 0,0z"/>
    <path class="fil13" d="M11 25l0 0 0 0c0,0 0,0 0,0 0,0 1,0 1,0l1 0c0,0 2,0 2,0 1,0 1,0 1,0 1,0 1,0 1,0 -1,0 -1,0 -2,0 0,-1 0,0 -1,0 -1,0 -1,0 -2,-1 0,0 0,0 0,0 0,0 0,0 0,0l0 0c0,0 0,0 -1,0 0,0 0,0 0,-1l0 1c1,0 0,0 1,0 0,1 0,0 0,1 -1,0 -1,0 -1,0z"/>
    <path class="fil13" d="M11 32c0,0 0,0 0,1 1,0 1,0 1,0 0,0 0,0 0,0 0,0 0,0 0,0l0 0 0 0 4 0c0,0 0,0 0,0l0 0 -1 0c-1,0 -1,0 -2,0 0,0 0,0 -1,0 0,-1 0,0 0,-1 0,0 1,0 1,0 0,0 0,0 0,0 -1,0 -1,1 -1,0l0 0 0 0 -1 0c0,0 0,-1 0,-1l1 0 0 0 -1 0 0 1z"/>
    <path class="fil13" d="M28 13c0,1 0,0 0,1 0,0 0,0 0,0l-2 0c0,0 0,0 0,0l2 0c0,0 0,0 0,-1 0,0 0,-1 0,-1l0 0 0 1z"/>
    <path class="fil13" d="M11 30c1,0 1,0 1,0 0,0 0,0 0,0 0,0 0,0 0,0 -1,0 0,0 -1,0l0 -1c0,0 0,0 0,0 0,0 0,0 0,0 0,0 1,0 1,0 0,0 0,0 0,0l0 0c-1,0 -1,0 -1,0 0,0 0,1 0,1z"/>
   </g>
   <g>
    <path class="fil14" d="M12 63l0 0 -1 0 0 1 1 0c0,0 0,0 0,-1 0,0 0,0 0,0l0 0c0,0 0,0 0,0 1,0 1,0 1,0 0,0 0,0 0,0l0 0c0,0 0,0 1,0l0 0c0,0 0,0 0,0 0,-1 0,-1 0,-1 0,0 0,0 0,1 1,0 0,0 1,0l0 0c0,0 0,-1 0,-1 0,1 1,1 1,0 0,0 0,0 0,0 0,0 0,0 0,0l0 0c0,1 0,0 1,0l0 0c0,0 0,0 0,0l0 0c0,0 1,0 1,0l0 0c-1,0 -1,0 -1,0 1,0 0,0 0,0l0 0c0,0 0,0 0,0 -1,0 -1,0 -1,0 0,0 0,0 0,0l-1 0c0,0 0,0 0,0 0,0 0,0 0,0 0,0 0,0 0,0 0,0 0,0 -1,0l0 0c0,0 0,0 0,0l0 0c0,0 0,0 0,0 0,0 0,0 -1,0l-1 0c0,0 0,0 0,0 0,1 0,0 0,1l0 0z"/>
    <path class="fil14" d="M20 62l1 0c0,0 0,1 1,0l0 0c0,0 0,0 0,0 0,0 0,0 1,1 0,0 0,0 0,0 0,0 0,0 0,0 0,0 0,0 0,0 0,0 0,-1 0,-1l0 1c1,-1 0,-1 1,0l0 0 0 -1c0,0 0,0 0,0 0,1 0,0 0,1l0 -1c0,0 0,0 0,0l0 0c0,0 0,0 0,0l0 0c0,0 0,0 0,0l0 0 -1 0c-1,0 -1,0 -1,0 0,0 0,0 0,0l0 0c-1,0 -1,0 -1,0l0 0c-1,0 0,0 -1,0 0,0 0,0 0,0 1,0 0,0 0,0 0,0 0,0 0,0z"/>
    <path class="fil14" d="M10 64c0,0 0,0 0,0 0,0 0,0 0,0 0,0 0,0 0,0 0,0 0,0 0,0 1,0 1,0 1,0 0,0 0,0 0,0l1 0c-1,0 -1,0 -1,0 0,-1 0,-1 0,-1l0 0c0,0 0,0 0,0 0,0 0,1 0,1 0,0 0,0 0,0l-1 0z"/>
    <path class="fil14" d="M11 17c0,-1 0,-1 1,-1l-1 0c0,0 0,0 0,0l0 0c0,0 0,0 0,0 0,0 0,0 0,0l0 1z"/>
   </g>
   <g>
    <path class="fil15" d="M17 52c1,0 1,0 1,0l6 0c0,0 2,0 3,0 0,0 0,0 0,0 0,0 0,0 1,0 0,1 0,1 0,2 0,0 0,0 0,-1 0,-1 0,0 0,-2l0 0c0,1 0,1 0,1 0,0 -2,0 -2,0 -1,0 -1,0 -2,0 0,0 0,0 0,0 -1,0 -1,0 -1,0 -1,0 -2,0 -2,0l-2 0c0,0 0,0 0,0 -1,0 -1,0 -1,0 1,0 0,0 1,0 0,0 0,0 0,0 0,0 0,0 0,0l-1 0c0,0 0,0 0,0l0 0c-1,0 -1,0 -1,0 0,0 0,0 0,0 0,0 0,0 0,0 0,0 0,0 0,0l0 0z"/>
    <path class="fil15" d="M20 29l1 0c0,0 0,0 0,-1 0,0 1,1 1,1 0,-1 0,-1 0,-1l0 0c-1,0 0,0 0,0 -1,0 -1,0 -2,0 -1,0 -1,0 -1,0l0 1 0 -1c0,0 0,0 0,0 1,1 1,1 1,1z"/>
    <path class="fil15" d="M29 8c0,0 0,0 0,0l0 0 0 1c0,0 0,0 0,0l0 -1c0,0 1,0 1,0 -1,0 -1,0 -1,0 0,0 0,0 0,0 0,-1 0,-1 0,-1l0 0 0 0c0,0 0,0 0,0 0,0 0,0 0,0l0 1 0 -1c0,0 0,0 0,0 0,1 0,1 0,1z"/>
    <path class="fil15" d="M13 68l0 0c0,0 0,0 0,0 1,0 1,0 1,0l-2 0c0,0 0,0 0,0l0 0 -1 0c1,0 1,0 1,0 1,0 0,0 1,0 0,0 0,0 0,0z"/>
    <path class="fil15" d="M28 24c0,-1 0,-1 0,-1 0,1 0,0 0,0l0 0 0 0 0 0 -1 0c1,0 1,0 1,0l0 1z"/>
    <path class="fil15" d="M23 43c0,0 0,0 0,0 0,0 0,0 0,0 0,0 0,0 0,0z"/>
   </g>
   <g>
    <path class="fil16" d="M15 35c0,1 0,0 0,1 0,0 0,0 0,0l-2 0c0,0 0,0 0,0 1,0 1,0 1,0 1,0 1,0 1,0l0 0c0,0 0,0 0,-1 1,1 1,1 1,1 0,0 0,-1 0,0 0,0 3,0 3,0 1,0 4,0 4,0 0,0 0,0 0,0l-2 0c-1,0 -1,0 -1,0 -1,0 -1,0 -1,-1 0,0 0,0 0,0 1,0 1,0 1,0 0,0 2,0 3,0 1,0 0,0 1,0 0,0 0,0 0,0 0,0 -4,0 -5,0 -1,0 -1,0 -1,0l0 0c0,1 -1,1 -2,1 1,-1 1,0 1,0 0,0 0,0 0,-1 0,0 0,0 0,0l-2 0z"/>
    <path class="fil16" d="M17 16c0,0 0,0 0,0l-1 0c0,0 0,0 0,0 0,0 0,0 0,0 1,0 2,0 2,0 1,0 2,0 3,0 0,0 0,0 0,0 0,0 0,0 0,0 0,0 0,0 0,0 1,0 0,0 1,0 -1,0 -1,0 -1,0 -1,0 0,0 -1,0 0,0 -1,0 -1,0l0 0 0 0 -2 0z"/>
    <path class="fil16" d="M18 27l0 0 0 -1c0,0 0,0 0,0 0,0 0,0 -1,0l0 0c0,0 0,0 0,0 1,1 1,0 1,1z"/>
    <path class="fil16" d="M18 18l-1 0c0,0 0,0 0,0 0,0 -1,0 0,0 0,0 0,0 0,0 1,0 0,0 1,0l0 0 0 0 0 0z"/>
    <path class="fil16" d="M29 10c0,0 0,0 0,-1 0,0 0,0 0,0 0,0 0,0 0,0l0 0c0,0 0,1 0,1z"/>
    <path class="fil16" d="M21 47l0 0c1,1 1,1 1,0l0 0 -1 0z"/>
   </g>
   <g>
    <path class="fil17" d="M10 60c0,0 0,0 0,0l0 0c1,0 1,0 1,0 0,0 0,0 0,0 0,0 1,0 1,0 0,0 0,0 -1,1 1,0 1,0 1,-1 0,0 0,0 0,0 0,0 0,0 0,0l0 0c0,0 0,0 0,0 1,0 1,0 1,0 0,0 0,0 0,0 0,0 0,0 0,1 0,0 0,-1 0,-1l1 0c0,0 0,0 0,0 1,1 1,0 1,0 1,1 0,0 1,0 1,0 1,0 1,0 -1,0 0,0 -1,0 0,0 0,0 0,0 0,0 0,0 0,0 -1,0 0,-1 -1,0 0,0 0,0 0,0 0,0 0,0 0,0 0,0 0,0 0,0 -1,0 -1,0 -2,0 0,0 0,-1 0,0 -1,0 0,0 0,0 -1,0 -1,0 -1,0 -1,0 -1,0 -1,0l-1 0c0,0 0,0 0,0 0,0 0,0 0,0 0,0 0,0 0,0l0 0z"/>
    <path class="fil17" d="M21 60c0,0 1,0 1,0 0,0 0,0 0,0l0 0 1 0c0,0 0,0 0,0 0,0 0,0 0,0 0,0 0,0 0,0l0 0c1,0 1,0 1,0 0,0 0,0 0,0 0,0 0,0 0,0 0,0 0,0 0,0 0,1 1,1 1,1l1 -1c0,1 0,0 0,1l0 0c0,0 0,0 0,0l1 0c0,0 0,0 0,0l0 1c1,0 0,0 0,0l0 0c1,0 1,0 1,0 -1,-1 -1,-1 0,-1 -1,0 -1,0 -1,0 0,0 0,0 0,0 0,-1 0,0 0,-1 0,0 0,0 -1,0l1 0c0,0 0,0 0,0 0,0 0,0 0,0 -1,0 -1,0 -1,0 -1,0 -1,0 -1,0 -1,0 -1,0 -1,0 0,0 0,0 0,0l-1 0 0 0c0,0 0,-1 0,0 -1,0 -1,0 -1,0 0,0 -1,0 -1,-1 1,1 0,1 0,1l0 0c0,0 0,0 0,0z"/>
    <path class="fil17" d="M12 23l0 0c1,0 2,0 2,0 1,0 1,0 2,0 1,0 2,0 4,0l0 -1c0,0 0,0 0,0 0,0 0,1 1,0l-2 0 -3 0 0 0c0,0 0,0 -1,0 0,0 0,0 -1,0 -1,0 0,1 -1,0 0,0 0,0 0,0 0,0 0,0 -1,0 1,0 1,0 1,0 1,0 0,0 1,0 -1,0 -2,0 -2,0 0,0 0,0 0,0l-1 0 0 0 1 0c0,0 0,0 0,0 0,1 0,1 1,1 0,0 -1,0 -1,0l0 0c0,0 0,0 0,0z"/>
    <path class="fil17" d="M11 9c0,0 0,1 0,1 0,0 0,0 0,0l0 0 0 0 1 -1c0,0 0,0 0,0 0,0 0,0 0,0 0,0 0,0 0,0 0,0 0,0 0,0 1,0 0,0 1,0 0,0 0,0 0,0 0,0 0,0 0,0l0 0c0,0 1,0 1,0 0,0 0,0 0,0 0,0 0,0 0,0 0,0 0,0 0,0 0,0 0,0 0,0 0,0 1,0 1,0 1,0 0,0 1,0 -1,0 -1,0 -1,0 0,0 0,0 0,0 0,0 0,0 -1,0 0,0 0,0 0,0 0,-1 0,-1 -1,0l0 0c-1,0 -1,0 -1,0l0 0c-1,0 0,0 -1,0 0,1 0,0 0,0l0 0z"/>
    <path class="fil17" d="M17 60l0 0 0 0c0,0 1,0 1,0 0,0 0,0 0,0 0,0 0,0 0,0l0 0c1,0 1,0 1,0l0 0c0,0 0,0 1,0 0,0 0,0 0,0 1,0 1,0 1,0 -1,0 -1,0 -1,0l0 0 0 -1c0,1 0,1 -1,1 0,0 0,0 0,-1l0 1c-1,0 -1,0 -2,0 0,0 0,0 0,0 -1,0 0,0 0,0z"/>
    <path class="fil17" d="M24 20c0,0 1,0 1,0 0,1 1,0 1,0 1,1 1,1 2,1 0,-1 0,-1 0,-1 0,0 0,0 0,0l0 0 0 -1 0 1c0,0 0,0 0,0l0 0c0,0 0,0 0,0l0 0c-1,0 0,0 -1,0 0,0 0,0 0,0 -1,0 -1,0 -2,0 0,0 -1,0 -1,0l0 0z"/>
    <path class="fil17" d="M17 6l0 0 3 0c0,0 0,0 -1,0 0,0 0,0 0,0 -1,0 0,0 -1,0l0 0c0,0 -1,0 -2,0 0,0 0,0 -1,0 0,0 0,-1 0,0l0 0c1,0 1,0 1,0 1,0 1,0 1,0z"/>
   </g>
   <g>
    <path class="fil18" d="M19 32c1,0 1,0 2,0 0,0 2,0 3,0 0,0 0,0 0,0 1,0 0,0 1,0 0,1 0,1 -1,1 -1,0 -3,0 -4,0 0,0 0,0 0,0 -1,0 0,0 -1,0l-2 0c0,0 0,0 -1,0 0,0 0,0 0,0l6 0c0,0 1,0 1,0l5 0c0,-1 0,-1 0,-1 -1,0 -1,0 -1,0 0,0 0,0 1,0 0,0 0,0 0,0 -1,0 -3,0 -4,0 -2,0 -3,0 -5,0z"/>
    <path class="fil18" d="M23 31l3 0c0,0 1,0 1,0 0,0 0,0 0,-1 1,0 1,1 1,0l-1 0c0,0 0,0 0,0 1,0 0,0 1,0l-2 0 0 0 0 0 0 0c0,0 0,0 0,0 -1,0 0,0 -1,0l0 1 0 0 0 -1c0,0 0,0 0,0 -1,0 0,0 -1,0 0,0 0,0 0,0l0 1c0,0 0,-1 -1,0z"/>
    <path class="fil18" d="M23 20l0 1c1,0 0,0 1,-1l-1 0c0,0 0,0 -1,0 -1,0 -1,0 -1,0l2 0z"/>
    <path class="fil18" d="M29 28c0,0 0,0 0,0 0,0 1,0 1,0l-1 -1c0,0 0,0 0,0l0 0 0 0 0 1z"/>
   </g>
   <g>
    <path class="fil19" d="M12 7c-1,0 -1,1 -1,1 0,0 0,0 0,0 1,0 1,0 1,0 0,0 0,-1 0,-1 1,0 1,1 1,0l2 0c0,1 0,0 1,1 1,0 1,0 1,0l1 0c0,0 1,0 1,0 1,0 1,0 1,0 1,0 1,0 1,0l1 0c1,0 0,0 1,0 0,0 0,0 0,0 1,0 4,0 4,0l0 0c0,0 1,0 1,1 0,0 0,0 0,0 0,0 0,0 0,-1 -1,0 0,0 -1,0 0,0 0,0 0,0 0,0 0,0 0,0l-5 0c0,0 0,0 -1,0 0,0 -1,0 -1,0l-3 -1c0,0 0,0 0,0 -1,0 0,0 -1,0 0,0 0,0 0,0l-2 0c-1,0 -2,0 -2,0z"/>
    <path class="fil19" d="M29 46c0,0 0,3 0,4 0,1 0,2 0,2l0 3c0,1 0,1 0,2l0 6c0,1 0,1 0,1 0,0 0,-2 0,-2 0,-1 0,-1 0,-2 0,-2 0,-3 0,-4 0,-1 0,-1 0,-2 0,0 0,-2 0,-3l0 -5c0,0 0,-1 0,-1 0,0 0,-1 0,-2 0,-2 0,-3 0,-5 0,0 0,-1 0,-2 0,0 0,-1 0,-2l0 -1 0 0c0,1 0,2 0,3 0,2 0,4 0,7 0,1 0,2 0,2 0,0 0,0 0,1z"/>
    <path class="fil19" d="M10 64c0,1 0,1 1,2 0,-1 0,0 0,0l0 0c0,0 0,0 0,0l0 0c0,0 0,0 0,0l1 0c0,0 0,0 0,0 0,0 0,0 0,-1 1,0 0,0 0,0 1,0 1,0 1,0l0 0c0,0 0,0 0,0 -1,0 -1,0 -1,0 -1,0 0,0 -1,1l0 -1c0,1 0,0 0,1l0 -1c-1,0 -1,0 -1,-1 0,0 0,0 0,0 0,0 0,0 0,0 0,0 0,0 0,0 0,0 0,0 0,0z"/>
    <path class="fil19" d="M29 30l0 0c0,0 0,0 0,0 0,-1 0,-1 0,-2l0 0 0 0 0 -1 0 0c0,0 0,0 0,-1 0,0 0,0 0,0 0,1 0,1 0,1 0,1 0,1 0,1 0,1 0,2 0,2z"/>
   </g>
   <g>
    <path class="fil20" d="M28 54c0,0 0,1 0,1 0,0 0,1 0,1 0,0 0,1 0,2l0 1c-1,0 -1,0 -1,-1l0 1 0 0c0,0 0,0 -1,0 0,0 0,0 0,0 0,0 0,0 0,0l0 0c-1,0 -1,0 -1,0 0,0 0,0 0,0 0,0 0,0 0,0l0 0c-1,0 -1,0 -1,0l0 0 -1 0c0,0 0,0 0,0l0 0c0,0 0,0 0,0l-1 0c0,0 0,0 0,0 0,0 0,0 0,0 -1,0 -1,0 -1,0 0,0 0,0 0,0l0 0c0,0 0,0 0,0 0,0 0,0 0,0l1 0c0,0 0,0 0,0 0,-1 0,1 0,0 0,0 0,0 0,0l1 0c0,0 0,0 0,0 0,0 0,0 0,0 0,0 0,0 0,0l0 0c0,0 0,0 0,0 1,0 2,0 2,0 1,0 1,0 1,0l0 0c0,1 0,0 0,1 1,0 1,0 1,0 0,0 0,0 0,0 0,0 0,0 0,0 0,0 0,0 0,0 0,0 0,0 0,0 0,0 0,0 0,0 1,1 0,0 1,0 0,0 0,0 0,0l-1 0c1,-1 1,0 1,-1 -1,0 -1,0 -1,0l1 0 0 0 0 0c0,-1 0,-3 0,-3 0,-1 0,-2 0,-2l0 -3 0 0c0,2 0,1 0,2 0,1 0,1 0,1z"/>
    <path class="fil20" d="M13 30c0,1 0,0 0,0 0,0 0,1 0,1l0 0c1,0 1,0 1,0l0 0c0,0 0,0 -1,0l5 0c0,0 0,0 0,0l-1 0c0,0 0,0 0,0 -1,0 -1,0 -2,0 0,0 0,0 0,0 0,0 0,0 0,-1 0,0 0,0 0,0 0,0 0,0 0,0l-2 0z"/>
    <path class="fil20" d="M26 24c1,0 1,0 1,0 0,0 1,0 1,0 -1,0 -1,0 -1,0 0,0 0,0 0,0l-1 0c0,0 0,0 0,0 1,0 0,0 1,0 0,0 0,0 0,0 0,0 0,0 0,0 -1,0 0,0 -1,0l0 0 0 0z"/>
    <path class="fil20" d="M29 31c0,0 0,0 0,0l1 1c0,-1 0,-1 0,-1 0,0 0,0 0,0l-1 0z"/>
   </g>
   <g>
    <path class="fil21" d="M18 24c0,0 0,0 0,0 1,0 1,0 2,0 1,0 1,0 1,0 1,0 1,0 1,0 0,0 1,0 0,0 0,0 0,0 -1,0 0,0 0,0 0,0 0,0 0,0 0,0 0,0 0,0 0,0 0,0 0,0 0,0l-1 0 0 0c0,0 0,0 0,0 0,0 0,0 0,0 -1,0 -1,0 -1,0 0,0 -1,0 -1,0 0,0 0,0 0,0l0 0c0,0 0,0 0,0 -1,0 0,1 -1,0l0 0c0,0 0,0 0,0 0,0 0,0 0,0l0 0c0,0 0,0 0,0 -1,0 -1,0 -1,0 0,1 -2,0 -2,0l0 0c-1,0 -1,0 -1,0 0,0 0,0 0,0 0,0 0,0 0,0 0,0 0,0 0,0l-1 0c0,0 0,0 0,0 1,1 1,1 2,1 1,0 1,-1 1,0 1,0 1,0 2,0 0,0 0,0 -1,0 0,0 0,0 -1,0 1,0 2,0 3,0 1,0 2,0 3,0 0,0 1,-1 1,-1 1,1 1,1 1,0 0,0 0,0 0,0 0,0 0,0 0,0 -1,0 -1,0 -1,0 1,0 1,0 1,0l1 0 -1 0c1,0 1,0 1,0 0,0 0,0 1,0 1,0 0,0 0,0 0,0 0,0 0,0 0,0 0,0 1,0 0,0 0,0 0,0l0 0c0,0 0,0 0,0 -1,0 -2,0 -3,0 -1,0 -1,0 -1,0l-4 0z"/>
    <path class="fil21" d="M15 33c-1,0 0,0 -1,0 0,0 0,0 0,0 0,-1 0,-1 0,-1 0,0 1,0 1,0 0,0 0,0 0,0l-3 0c0,1 0,0 1,0 0,0 0,0 0,0 0,0 -1,0 -1,0 0,1 0,0 0,1 1,0 1,0 1,0 1,0 1,0 2,0z"/>
    <path class="fil21" d="M11 38l2 0c0,0 0,0 0,0l-1 0c0,-1 0,0 0,-1 0,0 1,0 1,0l-2 0 0 0c0,1 0,0 0,1z"/>
    <path class="fil21" d="M28 34l0 0 0 0 0 0c0,0 0,0 0,1 0,0 0,0 0,0l0 0 0 0c0,0 -1,0 -1,0 0,1 0,0 0,1l1 0 0 -1 0 1c0,-1 0,-1 0,-1l0 0c1,-1 0,0 0,-1 0,0 0,-1 0,-1 0,0 0,0 0,0l0 1 0 0z"/>
    <path class="fil21" d="M14 27l0 -1 0 0c0,0 0,0 0,0l-1 0c0,0 0,0 0,0 0,0 0,0 0,1l1 0z"/>
    <path class="fil21" d="M11 21l0 1 0 0c0,0 0,0 0,0l0 -1 0 0c1,0 1,0 1,0l-1 0 0 0z"/>
    <path class="fil21" d="M28 31c0,0 0,1 0,1 1,0 0,-1 0,-1l0 0z"/>
    <path class="fil21" d="M12 34l0 0c0,0 0,0 0,0 0,-1 0,-1 -1,-1l1 0c0,0 0,0 0,0l-1 0c0,0 0,0 0,1l1 0c0,0 0,0 0,0z"/>
    <path class="fil21" d="M11 23c0,1 0,1 0,1 0,-1 0,0 0,-1 0,0 0,0 1,0l-1 0 0 0z"/>
   </g>
   <g>
    <path class="fil22" d="M18 11l2 0c0,0 0,0 -1,0l-2 0c-1,0 0,0 0,0 0,1 1,1 1,1 0,-1 1,0 1,0l0 0c0,0 0,0 0,0 0,0 0,0 0,0 0,0 0,0 0,0l1 0 0 0c0,0 0,0 0,0l0 0c0,0 0,0 0,0 0,0 0,0 0,0 0,-1 0,-1 0,-1 1,1 1,0 2,0l0 0c2,0 0,0 1,0 1,0 1,1 2,0l0 0c0,0 0,0 1,0 0,0 0,0 0,0l-1 0c0,0 0,0 1,0 0,0 0,0 0,0 0,0 0,0 0,0 -1,0 0,0 -1,0 0,0 -1,0 -1,0 0,0 -1,0 -1,0 0,0 0,0 -1,0 0,0 -1,0 -2,0 0,0 -2,0 -2,0z"/>
    <path class="fil22" d="M28 40c0,-1 0,0 0,0 0,-1 0,0 0,-1 0,0 0,0 -1,0l1 1 -1 0 0 -1c0,0 0,0 0,0 -1,0 -1,0 -2,0 1,0 1,0 1,0 0,1 -4,1 -4,1 0,0 -1,0 -1,0 0,0 0,0 0,0 -2,0 -2,0 -3,0 0,0 0,0 0,0l1 -1 -1 0 -2 0c0,1 0,0 0,1 0,-1 0,-1 0,-1l0 1c-1,0 -1,0 -1,0 0,0 0,0 0,0 0,0 0,0 0,0 0,0 1,0 1,0 0,0 1,0 2,0 1,0 0,0 2,0l2 0c1,0 2,0 3,0 0,0 1,0 1,0 1,0 2,0 2,0 0,0 0,0 0,0 0,0 0,0 0,0z"/>
    <path class="fil22" d="M26 41c0,1 0,0 0,1 1,0 1,0 2,0l0 0c0,0 0,0 0,-1 0,0 0,0 0,0 0,0 0,0 0,0 -1,0 -1,0 -2,0l0 0c0,0 0,0 0,0z"/>
    <path class="fil22" d="M29 28l0 0c0,1 0,1 0,2 0,0 0,0 0,0l0 0 0 0 0 0c0,0 1,0 1,0 -1,0 -1,0 -1,0 1,0 0,0 1,0 0,-1 0,0 0,-1 0,0 0,0 0,-1 -1,0 0,0 -1,0 0,0 0,0 0,0l0 0z"/>
    <path class="fil22" d="M13 38l1 0c0,0 0,0 -1,0 0,0 0,0 0,0 0,0 0,-1 1,-1l-1 0c0,0 -1,0 -1,0 0,1 0,0 0,1l1 0c0,0 0,0 0,0z"/>
    <path class="fil22" d="M18 6l0 0c1,0 0,0 1,0 0,0 0,0 0,0 1,0 1,0 1,0l0 0c0,0 0,0 0,0l0 0c0,0 0,0 0,-1 0,0 0,1 0,1 -1,0 0,0 -1,0 0,0 -1,-1 -1,-1 0,1 0,1 0,1z"/>
    <path class="fil22" d="M12 27l0 0c0,0 0,0 0,1 0,0 0,-1 0,0 0,0 0,0 0,0l0 0c0,0 0,0 0,0 0,-1 0,-1 0,-1 0,0 0,0 0,0l0 0c0,0 1,0 1,0 0,0 0,0 0,0l0 0c0,0 0,0 0,0l-1 0z"/>
    <path class="fil22" d="M29 32l0 0 0 0c1,1 1,0 1,1 0,0 -1,0 -1,0l0 0c0,0 0,0 1,0l0 -1c0,0 0,0 -1,0l0 0z"/>
    <path class="fil22" d="M12 25c0,0 0,0 0,0 0,0 0,0 0,0 0,0 0,0 0,0 0,0 0,0 -1,0l1 1 0 0c0,-1 0,-1 0,-1l1 0c0,0 0,0 0,0l-1 0z"/>
    <path class="fil22" d="M29 40c1,-1 0,-1 1,-1 -1,0 0,0 -1,0 0,0 0,0 0,0 0,0 0,0 0,1z"/>
    <path class="fil22" d="M29 6l0 0 0 0 0 0 0 0c0,0 0,0 0,0 0,0 0,0 0,0z"/>
    <path class="fil22" d="M28 27l0 0c0,0 1,0 1,0 -1,0 0,0 -1,0l0 0 0 0c0,0 0,0 0,0l0 0z"/>
   </g>
   <g>
    <path class="fil23" d="M11 10l0 0 1 0c1,1 1,0 2,0 0,0 3,0 4,0 0,0 1,0 2,0 1,0 0,0 1,0 0,0 1,0 1,0 0,0 0,0 0,0 1,0 1,0 1,0 0,0 0,0 1,0 0,0 0,0 0,0 0,0 1,0 1,0 0,0 0,0 0,0 0,0 -1,0 -1,0 0,0 0,0 -1,0l-1 0c0,0 0,0 -1,0 0,0 0,0 0,0 -1,0 -1,0 -1,0l-1 0c0,0 0,0 0,0 -1,0 -1,0 -1,0l0 0c0,0 0,0 0,0 -1,0 -1,0 -1,0 0,0 0,0 0,0l0 0c-1,0 -1,0 -1,0 -1,0 0,0 -1,0 0,0 0,0 0,0l-2 0c0,0 0,0 0,0 0,0 0,0 0,0 0,0 0,0 0,0 0,0 -2,0 -2,0z"/>
    <path class="fil23" d="M15 55l2 0c0,-1 1,-1 1,0 1,0 2,-1 3,-1 2,1 4,0 6,0l0 0c0,0 -1,0 -1,0l0 0 0 0c-1,0 0,0 -1,0 0,0 0,-1 0,0 0,0 0,0 0,0l0 0c0,0 0,0 0,0 -1,0 -1,0 -2,0 0,0 0,0 0,0 0,0 0,0 -1,0l0 0c0,0 0,0 -1,0 1,0 0,0 1,0 0,0 0,0 -1,0 0,0 0,0 1,0l-1 -1c0,1 0,1 0,1 0,0 0,0 0,0 0,0 0,0 0,0 -1,0 -1,0 -1,0 0,0 0,0 0,0 0,0 0,0 0,0l0 0c0,0 0,0 0,0 -1,0 0,0 -1,0 0,0 -1,0 -1,0 0,0 0,0 -1,0 0,0 1,0 0,0 0,0 0,0 0,0 0,0 0,0 0,0 0,0 0,0 -1,0l0 0c-1,1 0,0 -1,0 0,0 0,0 0,1z"/>
    <path class="fil23" d="M20 12c0,0 0,0 1,0 0,0 0,0 1,0 0,-1 0,0 0,-1 0,0 0,1 0,1 0,0 0,0 1,0 0,0 0,0 1,0l0 0c0,0 0,0 0,0l1 -1c0,1 0,1 0,1 0,-1 0,-1 0,-1l0 0 0 0c-1,1 -1,0 -2,0 -1,0 1,0 -1,0l0 0c-1,0 -1,1 -2,0 0,0 0,0 0,1 0,0 0,0 0,0 0,0 0,0 0,0l0 0c0,0 0,0 0,0z"/>
    <path class="fil23" d="M17 31c1,0 1,0 2,0 0,-1 0,0 -1,-1 1,1 1,0 1,0l0 0c-1,0 0,0 -1,0 0,0 -1,0 -1,0 -1,0 -1,0 -2,0 0,0 0,0 0,0 0,0 0,0 0,0 0,1 0,1 0,1 0,0 0,0 0,0 1,0 1,0 2,0 0,0 0,0 0,0z"/>
    <path class="fil23" d="M18 28l-3 0 0 0c0,0 -1,0 -1,0 0,0 0,0 1,0 0,0 0,0 0,0 0,0 0,0 0,0 0,0 0,0 0,0 0,1 0,0 0,0 1,1 1,1 1,1 0,-1 0,-1 1,-1 0,0 0,0 0,0 0,0 0,0 0,0l0 1c0,-1 0,-1 0,-1 0,1 0,1 0,1 1,0 1,0 1,0 0,0 0,0 1,0l0 -1 -1 0c0,0 0,0 0,0l0 0 0 0 -1 0 1 0z"/>
    <path class="fil23" d="M21 26l0 0c0,0 0,0 -1,0l0 0c0,0 0,0 0,0 0,0 1,0 1,0l0 0c0,0 0,0 0,0l0 0c0,0 0,0 0,0 0,0 0,0 0,0l1 0 0 0c0,0 -1,0 -1,0 1,0 1,0 1,0l0 0c1,0 1,0 1,0l-2 0 0 0z"/>
    <path class="fil23" d="M28 35l0 0c0,0 0,0 0,0 0,-1 0,-1 0,-1l0 0 0 0c0,0 0,0 0,0 0,0 0,0 0,0l-1 0c0,0 0,0 0,0 0,0 0,0 0,0l0 0c0,0 0,0 0,0 0,0 0,0 -1,0 0,0 0,0 1,0 -1,0 -1,0 -1,1 1,0 1,0 1,0l0 0 1 0 0 0z"/>
    <path class="fil23" d="M24 16c1,0 0,0 1,0l0 0c0,0 -1,0 -1,0 0,0 0,-1 1,0 0,0 0,0 0,0 1,0 0,0 1,0l-3 0 1 0c-1,0 -1,0 -1,0 -1,0 -1,0 -1,0l1 0c0,0 0,0 0,0 0,0 0,0 1,0 0,0 0,0 0,0 0,0 0,0 0,0 0,0 0,0 0,0 0,0 0,0 0,0z"/>
    <path class="fil23" d="M11 46c0,0 0,0 0,0l0 0c-1,0 0,0 0,0 0,0 1,0 2,0 0,0 0,0 0,0l0 0c0,0 0,0 0,0 0,0 0,0 0,0 0,-1 -1,-1 -1,-1 -1,1 -1,0 -2,0 1,1 0,1 0,1l1 0z"/>
    <path class="fil23" d="M23 26c1,1 0,0 1,0 0,0 1,1 1,0 0,0 0,0 0,0 0,0 0,0 0,0 -1,0 -1,0 -2,0 0,0 0,0 0,0 0,0 0,0 0,0z"/>
    <path class="fil23" d="M12 34l0 0c0,0 0,0 0,0 0,-1 0,-1 0,-1l0 0 0 0c0,0 0,0 0,0l-1 0c1,0 1,0 1,1 0,0 0,0 0,0z"/>
    <path class="fil23" d="M29 16c0,0 0,0 0,0l0 -1c0,0 0,0 0,0 0,0 0,0 0,0l0 0c0,1 0,1 0,1 0,0 0,0 0,1l0 -1z"/>
    <path class="fil23" d="M20 18l0 0c1,0 0,0 1,0 0,0 0,0 0,0 0,0 0,0 0,0 0,0 0,0 0,0 0,0 -1,0 -1,0 0,0 0,0 0,0z"/>
    <path class="fil23" d="M10 54l0 0 0 0c0,0 0,0 0,0 0,0 0,0 0,0 0,0 0,0 0,0 0,0 0,0 0,0z"/>
    <path class="fil23" d="M27 44l0 0c0,0 0,0 0,0 0,0 0,0 0,0z"/>
   </g>
   <g>
    <path class="fil24" d="M18 28l-1 0 1 0 0 0 0 0c0,0 0,0 0,0l1 0 0 1c-1,0 -1,0 -1,0 0,0 0,0 -1,0 0,0 0,0 0,-1 0,0 0,0 0,1l0 -1c0,0 0,0 0,0 0,0 0,0 0,0 -1,0 -1,0 -1,1 0,0 0,0 -1,-1 0,0 0,1 0,0 0,0 0,0 0,0 0,0 0,0 0,0 0,0 0,0 0,0 -1,0 -1,0 -1,0 0,0 1,0 1,0l0 0 -3 0c1,0 2,0 3,0l-2 0c0,0 0,0 0,0l0 0 0 1c1,-1 1,-1 1,-1 0,1 0,0 0,1 1,-1 0,0 1,0 1,0 1,0 3,0 0,0 1,0 1,0 0,0 0,0 0,0l0 0c0,0 2,0 2,0 0,0 0,0 -1,0 0,0 0,0 -1,0 0,0 1,0 1,0 0,0 0,0 -1,-1 0,0 0,0 0,0l0 1 0 -1c0,0 0,0 1,0 1,0 1,0 2,0 0,0 -1,0 0,0l0 0c0,0 0,0 0,1 0,0 -1,-1 -1,-1 0,1 0,1 0,1 0,0 1,0 1,0 1,0 1,0 1,-1 1,1 1,1 1,1 1,-1 1,0 1,-1 0,0 0,0 1,0 -1,0 -2,0 -2,0 1,0 1,0 2,0l0 0 0 0 0 0c0,0 0,0 0,0l-2 0c-2,0 -5,0 -6,0z"/>
    <path class="fil24" d="M21 16c0,0 1,0 1,0 1,0 1,0 1,0 0,0 1,0 1,0l0 0 0 0c0,0 0,0 0,0 0,0 0,0 0,0 0,0 0,0 0,0 0,0 0,0 0,0 -1,0 -1,0 -1,0 0,0 0,0 0,0l-1 0c0,0 0,0 1,0 0,0 0,0 1,0l-1 0 -4 0 0 0 0 0c0,0 1,0 1,0 1,0 0,0 1,0 0,0 0,0 1,0 -1,0 0,0 -1,0 0,0 0,0 0,0 0,0 0,0 0,0 0,0 0,0 0,0z"/>
    <path class="fil24" d="M18 32c0,0 -1,0 -1,0l0 0c0,0 0,0 0,1 1,0 1,-1 1,-1 1,0 1,1 1,0l-1 0z"/>
    <path class="fil24" d="M11 27c0,0 0,1 1,1 0,0 0,0 0,0 0,-1 0,0 0,0 0,-1 0,-1 0,-1l0 0c0,0 0,0 -1,0l0 0z"/>
   </g>
   <g>
    <path class="fil25" d="M16 11c0,0 -1,0 -1,0 0,0 0,0 0,0 0,0 -1,0 -1,0 0,0 0,0 0,0 0,0 2,0 2,0 0,0 0,0 0,0zm-4 0c0,1 0,1 0,1 0,0 0,0 1,0l0 0 2 0c0,0 0,0 0,0 0,0 0,0 0,0l0 0c0,0 0,0 0,0 0,0 1,0 1,0 1,0 0,0 1,0 0,0 0,0 0,0 0,0 0,0 0,0 1,0 1,0 1,0l2 0c0,0 0,0 0,0l-1 0c0,0 0,0 0,0 0,0 0,0 0,0 0,0 0,0 0,0l0 0c0,0 -1,-1 -1,0 0,0 -1,0 -1,-1 0,0 -1,0 0,0l2 0c1,0 1,0 1,0l-2 0c-1,0 -1,0 -1,0 -1,0 -1,0 -2,0 -1,0 -1,0 -2,0 0,0 -1,0 -2,0 1,0 0,0 1,0 0,0 0,0 0,0 1,0 1,0 1,0 0,0 0,1 -1,0z"/>
    <path class="fil25" d="M14 13l0 1c0,0 0,0 0,0l2 0c0,0 0,0 -1,0 0,0 0,0 0,0 1,0 1,0 1,0 0,0 0,0 0,0 1,0 0,0 2,0 0,0 0,0 1,0l0 0c0,0 1,0 1,0 1,0 0,0 1,0 0,0 0,0 0,0 0,0 0,0 0,0l0 0c0,0 0,0 1,0l0 0c0,0 0,0 0,0l0 -1c-1,1 -1,1 -1,1l0 -1 -2 0c0,0 0,0 -1,0 0,0 0,0 0,0l-4 0z"/>
    <path class="fil25" d="M16 32l0 0c0,0 0,0 0,0 0,1 0,0 -1,0 0,0 0,0 0,0 0,0 0,0 0,0 0,1 0,1 0,1 0,0 0,-1 0,0l1 0 0 0c1,0 1,0 1,0l2 0c1,0 0,0 1,0 0,0 0,0 0,0 1,0 3,0 4,0 1,0 1,0 1,-1 -1,0 0,0 -1,0 0,0 0,0 0,0 -1,0 -3,0 -3,0 -1,0 -1,0 -2,0l-1 0 1 0c0,1 0,0 -1,0 0,0 0,1 -1,1 0,-1 0,-1 0,-1l0 0c0,0 -1,0 -1,0z"/>
    <path class="fil25" d="M12 48c-1,0 -1,-1 -1,0 1,0 0,0 1,0 0,0 0,0 0,0 0,0 0,0 1,0 0,0 0,0 0,0 0,0 0,0 0,0 -1,0 0,0 -2,0 0,0 0,0 0,0 -1,0 0,0 -1,0l0 0c1,0 1,0 1,0 0,0 0,0 0,0l-1 -1c0,1 0,1 0,1l0 0c1,0 2,0 3,0 1,0 1,0 2,0 1,0 1,0 1,0 1,0 1,0 1,0 0,0 0,0 0,0 0,0 1,0 0,0 -1,0 -3,0 -4,0 0,0 0,0 0,0l1 0c0,0 0,0 0,0 0,0 -1,0 -1,0 -1,0 -1,-1 -1,0z"/>
    <path class="fil25" d="M18 54c0,0 1,0 1,0 0,0 0,0 0,0 0,0 0,0 0,0l0 0c0,0 0,0 0,0 -1,0 -1,0 -1,0 0,0 0,0 0,0 0,0 0,0 0,0z"/>
    <path class="fil25" d="M26 23c0,0 0,0 0,0 1,0 1,0 1,0 0,0 0,0 0,0 0,-1 0,-1 -1,0z"/>
    <path class="fil25" d="M28 29c0,0 0,0 1,0 0,0 0,0 0,0l-1 0c0,0 0,0 0,0l0 0c0,0 0,0 0,0 0,0 0,0 0,0l0 0z"/>
    <path class="fil25" d="M14 37c0,0 0,0 0,0 0,0 0,0 0,0z"/>
   </g>
   <g>
    <path class="fil26" d="M11 7c0,0 0,0 0,1l0 0 0 0c0,0 0,-1 1,-1 0,0 2,0 3,0 1,0 3,0 4,0 0,0 1,0 1,0l5 0c0,0 0,1 1,1 0,0 1,0 1,0 1,0 1,0 1,0 0,0 0,1 0,1 0,1 0,1 0,2l0 1c0,0 0,0 0,0 0,-1 0,-2 0,-2 0,-1 0,-1 0,-2 0,0 0,0 0,0 0,0 0,0 -1,-1 0,0 0,0 0,0 0,0 -1,0 -1,0 -1,0 0,0 -1,0 0,0 -1,0 -1,0 -1,0 -1,0 -1,0 -1,0 -1,0 -2,0 0,0 0,0 -1,0 -1,0 -1,0 -1,0 -1,0 -3,0 -4,0 -1,0 -1,0 -2,0 0,0 0,0 -1,0 -1,0 -1,1 -1,1 0,0 0,0 0,0l0 -1z"/>
    <path class="fil26" d="M30 28l0 -1 -1 0c0,0 0,0 0,0l1 1z"/>
   </g>
   <g>
    <path class="fil27" d="M23 30c0,0 1,0 1,0 0,0 0,0 0,0 0,1 0,1 0,0 -1,0 -1,1 -1,0zm2 0c0,0 -1,0 -1,0 1,0 1,0 1,0 0,0 0,0 0,0 0,0 0,0 0,0zm-6 0l0 0c0,0 0,1 -1,0 1,1 1,0 1,1 -1,0 -1,0 -2,0l1 0c0,0 0,0 0,0 1,0 8,0 10,0 -1,0 -5,0 -6,0l-2 0c0,0 0,0 0,0l2 0c0,0 1,0 1,0 1,-1 1,0 1,0l0 -1c0,0 0,0 0,0 1,0 0,0 1,0 0,0 0,0 0,0l0 1 0 0 0 -1c1,0 0,0 1,0 0,0 0,0 0,0l0 0 0 0 0 0c-1,0 0,0 -1,0 -1,0 0,0 -1,0l-3 0c-1,0 -1,0 -2,0z"/>
    <path class="fil27" d="M16 22l3 0c0,0 0,0 0,0 0,0 0,0 0,0l0 0c0,0 0,0 0,0 1,0 1,0 1,0l1 0c0,0 0,0 1,0 0,0 0,0 1,0 0,0 0,0 0,0 1,0 0,0 1,0 0,0 0,0 0,0 1,0 0,0 1,0 -1,0 0,0 -1,0 0,0 0,0 1,0 0,0 0,0 0,0 0,0 0,0 0,0 0,0 0,0 0,0 0,0 0,0 1,0 0,0 0,0 0,0l0 0c0,0 0,0 0,0 0,0 0,0 -1,0 0,0 0,0 0,0 0,0 0,0 -1,0 0,0 0,0 0,0 0,0 0,0 -1,0 0,0 0,0 0,0l-1 0c0,0 -1,0 -1,0l-2 0c0,0 0,0 0,0l-3 0c0,0 0,0 0,0 0,0 0,0 0,0 0,0 0,0 0,0 0,0 0,0 0,0l0 0c0,0 0,0 0,0z"/>
    <path class="fil27" d="M19 20l0 0c0,0 0,0 0,0 0,1 0,0 0,1 0,0 0,0 1,0 0,-1 0,0 1,0 0,0 0,-1 1,-1 0,1 0,1 1,0l-2 0c0,0 0,0 1,0 1,0 1,0 1,0l1 0c0,0 0,0 0,0 0,0 0,0 0,0 0,0 0,0 0,0 0,0 -1,0 -1,0 0,0 -1,0 -1,0 0,0 0,0 0,0 -1,0 -1,0 -1,0 -1,0 -1,0 -2,0 0,0 0,0 0,0l0 0c0,0 0,0 0,0l0 0z"/>
    <path class="fil27" d="M16 24c0,0 0,0 0,0 0,0 0,0 0,0 0,0 0,0 0,0 0,0 0,0 0,0l0 0c0,0 0,0 1,0 0,0 0,0 0,0l0 0c0,0 0,0 0,0 0,0 0,0 0,0l0 0c1,1 0,0 1,0 0,0 0,0 0,0l0 0c0,0 0,0 0,0 0,0 1,0 1,0 0,0 0,0 1,0 0,0 0,0 0,0 0,0 0,0 0,0l0 0 1 0c0,0 0,0 0,0 0,0 0,0 0,0 0,0 0,0 0,0 0,0 0,0 0,0 1,0 1,0 1,0 1,0 0,0 0,0 0,0 0,0 -1,0 0,0 0,0 -1,0 -1,0 -1,0 -2,0 0,0 0,0 0,0 0,0 -1,0 -1,0 0,0 0,0 -1,0l0 0z"/>
    <path class="fil27" d="M23 24c1,0 1,1 2,0 0,0 0,0 0,0 0,0 0,0 1,0l0 0 0 0c1,0 0,0 1,0 0,0 0,0 0,0 0,0 0,0 0,0 -1,0 0,0 -1,0 0,0 0,0 0,0l-4 0c0,0 0,0 1,0 1,0 2,0 3,0 0,0 0,0 0,0l0 0c0,0 0,0 0,0 -1,0 -1,0 -1,0 0,0 0,0 0,0 0,0 1,0 0,0 -1,0 -1,0 -1,0 0,0 0,0 -1,0l1 0 -1 0c0,0 0,0 -1,0 0,0 0,0 1,0 0,0 0,0 0,0 0,0 0,0 0,0z"/>
    <path class="fil27" d="M22 14c1,0 1,0 1,0 1,0 0,0 1,0 0,0 0,0 0,0 0,0 0,0 -1,-1l-2 0 0 1c0,0 0,0 1,-1l0 1c0,0 0,0 0,0z"/>
    <path class="fil27" d="M26 11c0,0 0,0 0,0 -1,0 -1,0 -1,0l0 0c0,0 0,0 0,1l0 0c0,0 0,0 0,0 1,0 0,0 1,0 0,0 0,0 0,-1l1 0 0 0 0 0c0,0 0,0 0,0 0,0 0,0 0,0 0,0 0,0 0,0 0,0 0,0 0,0 0,0 -1,0 -1,0z"/>
    <path class="fil27" d="M12 14l0 0 1 0 1 0 0 0c0,0 0,0 0,0l0 -1 -1 0c0,1 0,1 -1,1z"/>
    <path class="fil27" d="M12 12c1,0 0,0 1,0 -1,0 -1,0 -1,0l1 0 0 0c-1,0 -1,0 -1,0 0,0 0,0 0,-1l-1 0 0 0 0 0c0,1 0,0 0,0 0,1 0,0 0,1 0,0 0,0 0,0l0 0 1 0z"/>
    <path class="fil27" d="M15 33l1 0 -1 0c0,-1 0,0 0,0 0,0 0,0 0,-1 0,0 0,0 0,0 0,0 0,0 0,0 1,0 1,1 1,0 0,0 0,0 0,0l0 0 -1 0c0,0 0,0 0,0 0,0 -1,0 -1,0 0,0 0,0 0,1 0,0 0,0 0,0 1,0 0,0 1,0z"/>
    <path class="fil27" d="M16 14l0 0 0 0c0,0 0,0 0,0 0,0 0,0 0,0 0,0 0,0 -1,0 0,0 0,0 0,0 1,0 1,0 1,0z"/>
    <path class="fil27" d="M11 19c0,0 0,0 0,0 0,0 0,0 0,0l0 0c0,0 0,0 1,0 0,0 1,0 1,0l-2 0z"/>
    <path class="fil27" d="M12 35c0,0 0,0 -1,0 1,0 0,0 1,0 0,0 0,0 0,0l0 0 0 -1 0 0c0,0 0,0 -1,0 0,1 0,1 0,1l1 0z"/>
    <path class="fil27" d="M13 54c0,0 0,0 0,0 1,0 0,0 0,0 0,0 0,0 0,0z"/>
   </g>
   <g>
    <path class="fil28" d="M28 62l0 1c0,1 0,1 -1,1l0 -1c0,0 0,0 0,0l0 0c0,0 0,0 0,0 -1,0 0,0 -1,0l0 0c0,0 0,0 0,0 0,0 0,0 0,0 0,0 -1,-1 -1,-1l-1 0c0,0 0,0 0,1 0,-1 0,0 0,-1 0,0 0,0 0,0l0 1 0 0c0,0 0,0 0,0l0 0 1 0 0 1c0,-1 0,-1 0,-1 1,1 1,0 1,1 0,0 0,0 0,0 0,0 0,0 0,0 1,0 1,0 1,0 0,0 1,1 1,1l0 -1c0,1 0,0 0,1 0,-1 0,-3 0,-3 0,-1 0,-2 0,-3 0,-1 0,-4 0,-5 0,-1 0,-1 0,-2 0,0 0,1 0,1 0,1 0,1 0,2 0,2 0,3 0,6 0,0 0,1 0,1z"/>
    <path class="fil28" d="M11 36c0,0 0,-1 0,-2 0,0 0,0 0,-1 0,0 0,0 0,0l1 0 0 0c0,0 0,0 0,0 0,0 0,0 0,0 0,0 0,0 -1,0 0,-1 0,-1 0,-1 0,0 0,0 0,1 0,0 0,0 0,1 0,0 0,1 0,2z"/>
   </g>
   <g>
    <path class="fil29" d="M25 38l0 0c0,-1 0,0 0,-1l-2 0c0,0 0,0 0,0 0,0 1,0 1,0 0,0 0,0 1,0 0,0 0,0 -1,1 0,0 -2,-1 -3,0l-1 0c0,0 0,0 0,-1l1 0c0,0 0,0 0,0l0 0c-1,0 -3,0 -3,0l0 0c-1,0 -2,0 -2,0 0,0 0,1 0,1 0,0 0,0 -1,0 0,0 0,0 0,0 0,0 0,0 0,0l3 0c1,0 1,0 1,0l4 0c1,0 1,0 2,0z"/>
    <path class="fil29" d="M29 19c0,-1 0,-1 0,-2l0 0c0,0 0,1 0,1 0,0 0,0 0,0l0 0 0 0 0 1c0,0 0,-1 0,0 1,0 0,0 0,0l0 1c0,-1 0,0 0,-1l0 0c0,1 0,1 0,1l0 0 0 0 0 2 0 -1c0,0 0,0 0,0 0,0 0,0 0,0 0,0 0,0 0,-1 0,1 0,0 0,1 0,0 0,0 0,0 0,0 0,0 0,1 0,0 0,0 0,0 0,1 0,0 0,0 0,1 0,0 0,0l0 1 0 0c0,0 0,0 0,0 0,1 0,0 0,1 0,0 0,0 0,0 0,0 0,0 0,1 0,0 0,0 0,0 0,0 0,0 1,0 0,0 -1,0 -1,0 1,0 0,-1 1,-1 -1,-1 0,0 0,-1 0,0 -1,0 0,-1 0,0 -1,0 -1,0 1,-1 1,-2 1,-3 0,-1 -1,0 -1,-1 0,0 1,-1 0,-1 0,0 1,0 0,-1l0 1c0,-1 0,-1 0,-1 0,0 0,0 0,-1l0 0c0,0 0,0 0,0 0,0 0,0 0,0l0 1c1,0 0,0 0,-1 0,0 0,0 0,0 0,0 0,0 0,0l0 0c0,0 0,-1 0,-1 0,-1 0,0 0,-1l0 -1c0,1 0,3 0,4 0,0 0,1 0,1 0,1 0,1 0,2z"/>
    <path class="fil29" d="M17 44c0,0 1,0 1,-1 0,0 0,0 0,1 0,0 0,0 0,0 0,0 0,0 -1,0zm-4 -1l-1 1c0,0 -1,0 -1,0l0 0c0,0 0,0 0,0 0,0 0,0 0,0 1,0 1,0 1,0 1,0 0,0 1,0 0,0 0,0 0,0 0,0 0,0 0,0l4 0c1,0 1,0 2,0 1,0 1,0 2,0 0,0 0,0 0,0 0,0 -1,0 -2,0 0,0 0,0 1,0l-1 -1 0 0c0,1 0,1 0,1l-1 0c0,-1 0,0 0,-1l-1 0c0,1 0,1 0,1 -1,0 -1,0 -1,0 1,-1 1,0 1,-1l-1 0 0 1c0,0 0,0 0,0l0 0c-1,0 0,0 -1,0 0,0 0,0 0,0 0,-1 0,0 0,-1 -1,0 0,0 -1,0 0,0 -1,0 -1,0z"/>
    <path class="fil29" d="M10 52c0,0 0,0 0,0l0 0 0 0 0 0c0,0 0,0 0,0 0,1 0,0 0,1 0,-1 1,-1 2,-1 0,0 0,0 0,0 1,0 1,0 1,0 1,0 1,0 2,0 0,0 1,0 1,0l0 0c0,0 0,0 0,0 -1,0 -1,0 -1,0l0 0c0,0 -1,0 -1,0 -1,0 -1,0 -1,0 0,0 0,0 -1,0 0,0 0,0 0,0 -1,0 -2,0 -2,0l0 0z"/>
    <path class="fil29" d="M17 68c0,0 0,0 1,0 0,0 0,0 1,0 0,0 0,0 -1,0 0,0 0,0 0,0 1,0 1,0 1,0 0,0 0,0 0,0l0 0c0,0 0,0 1,0 -1,0 0,1 -1,0 1,0 1,0 1,0 1,0 1,0 1,0l0 0c0,0 1,0 1,0 0,0 0,0 0,0 0,0 0,0 1,0 0,0 0,0 0,0 1,0 0,0 1,0 0,0 0,0 0,0 0,0 0,0 0,0 -1,0 0,0 -1,0 -1,0 0,0 -1,0 1,0 1,0 1,0 -1,0 -1,0 -1,0l-3 0 0 0c0,0 0,0 0,0l0 0c-2,0 -1,0 -2,0z"/>
    <path class="fil29" d="M27 44c0,0 0,0 0,0 0,0 0,0 0,0l1 0 0 1c0,-1 0,-1 0,-2 0,0 0,0 0,0 0,0 0,0 0,0 -1,0 -1,0 -2,0 0,0 0,0 -1,0 0,1 1,0 0,1 0,0 -1,0 -2,0 0,0 -1,0 -2,0 1,0 0,0 1,0 1,0 2,0 3,0 1,0 1,0 2,0z"/>
    <path class="fil29" d="M13 54c0,0 0,0 0,0 0,0 0,0 0,0 0,0 1,0 0,0zm-3 0c0,0 0,0 0,0 0,0 0,0 0,0 0,0 0,0 0,0 0,0 0,0 0,0l0 0 0 0c1,1 1,0 1,0 1,0 1,1 1,1l3 0c0,-1 0,-1 0,-1l-1 0c0,0 1,0 0,0 0,0 0,0 0,0 -1,0 -1,0 -1,0 0,0 0,0 0,0l-1 0c0,0 0,0 0,0l0 0c0,0 0,0 -1,0 0,0 0,0 0,0 -1,0 -1,0 -1,0l0 0 0 0z"/>
    <path class="fil29" d="M28 47l0 0 0 -2c0,0 0,0 0,0 -1,0 -1,0 -2,0 0,0 0,0 0,0l0 0c0,0 0,0 0,0 0,0 0,0 0,0 0,0 0,0 1,0 0,1 0,1 0,1 0,0 0,0 -1,0 0,0 0,0 -1,0 0,0 0,0 -1,0l-3 0c0,0 0,0 0,0l4 0c1,0 2,0 3,0l0 1z"/>
    <path class="fil29" d="M12 50c0,0 0,0 0,0 0,0 0,0 0,0l0 0c0,0 0,0 1,0 0,0 1,0 1,0l0 0 0 0c0,-1 0,0 0,0l-2 0z"/>
    <path class="fil29" d="M24 68c0,0 0,0 0,0 0,0 1,0 1,0l-1 0c1,0 1,0 1,0 1,0 1,0 1,0 0,0 1,0 1,0l1 0c0,0 0,0 0,0 -1,0 -1,0 -2,0 0,0 0,0 0,0 -1,0 -1,0 -1,0 0,0 0,0 0,0 1,-1 1,0 1,0 1,0 1,0 1,-1 0,0 -2,0 -2,0 0,1 -1,1 -1,1z"/>
    <path class="fil29" d="M15 46c-1,0 0,0 0,0l0 0 2 0c1,0 0,0 0,0 0,0 0,0 -1,0 0,0 0,0 0,0 0,-1 0,0 0,0 0,0 0,0 0,0 1,0 1,0 1,-1 0,0 -2,1 -2,0 0,1 0,1 0,1l0 0z"/>
    <path class="fil29" d="M12 35l0 1c0,0 0,0 0,0l1 0 2 0c0,0 0,0 0,0 0,-1 0,0 0,-1 0,0 -1,0 -1,0 -1,0 -1,0 -2,0l0 0z"/>
    <path class="fil29" d="M29 66l0 1c0,0 -1,0 -1,0 -1,0 -1,0 -1,0l0 1c1,-1 2,-1 2,0 0,0 0,0 0,0 0,0 0,0 0,0 -1,0 -1,0 -1,0 1,0 1,0 1,0 0,0 1,0 1,0 0,0 0,-1 0,-1 -1,0 0,0 -1,0l0 0c0,0 0,0 0,0 1,0 0,0 1,0 0,0 0,0 0,0 0,-1 0,0 0,-1 0,0 0,0 0,0l0 0 -1 0c0,0 1,0 0,0 0,1 0,0 0,1 0,-1 0,-1 0,-1z"/>
    <path class="fil29" d="M12 31l-1 1 1 0 0 0c0,0 0,0 0,0 0,0 0,0 0,0 0,-1 0,0 0,-1 0,0 0,0 0,0 0,0 0,0 0,0 1,0 1,0 1,0 0,0 0,0 0,0l0 0 -1 0 0 0 0 0z"/>
    <path class="fil29" d="M11 21c1,0 1,0 1,0 0,0 0,0 0,0 0,0 0,0 0,0l0 0c0,0 0,0 -1,0l0 0z"/>
    <path class="fil29" d="M23 56l0 0c0,0 0,0 0,0 0,1 0,0 0,0 0,0 0,0 0,0l0 0z"/>
    <path class="fil29" d="M28 59l0 0 0 0 -1 0c0,0 0,0 1,0z"/>
    <path class="fil29" d="M12 49l0 0 0 0c0,0 0,0 0,0z"/>
   </g>
   <g>
    <path class="fil30" d="M15 52l0 0c0,0 0,0 1,0 0,0 0,0 0,0l0 0c0,0 1,0 1,0l0 0c0,0 0,0 0,0 0,0 0,0 0,0 0,0 0,0 0,0 0,0 0,0 1,0l0 0c0,0 0,0 0,0l1 0c0,0 0,0 0,0 0,0 0,0 0,0 -1,0 0,0 -1,0 0,0 0,0 1,0 0,0 0,0 0,0l2 0c0,0 1,0 2,0 0,0 0,0 1,0 0,0 0,0 0,0 1,0 1,0 2,0 0,0 2,0 2,0 0,0 0,0 0,-1 0,1 0,1 0,1 0,0 0,0 0,0l-1 -1c0,1 0,1 0,1 0,0 -1,0 -1,0l0 0c0,-1 0,-1 -1,0l0 0c0,0 0,0 0,0 -1,0 -1,0 -1,0 0,0 0,0 0,0 0,0 0,0 0,0 -1,0 -1,-1 -2,-1 0,1 0,0 -1,0 0,1 1,0 0,1 0,0 0,0 0,0 0,0 0,-1 -1,0l0 0 -1 -1 0 1c0,-1 0,0 0,0 0,-1 0,-1 -1,-1 0,1 0,0 -1,0 0,0 -1,1 -1,1 0,0 0,-1 -1,0 0,0 0,0 0,0z"/>
    <path class="fil30" d="M18 57c1,0 2,0 3,0 1,0 2,0 3,0 0,0 0,0 0,0l0 -1c1,0 1,1 1,1 1,-1 0,0 1,-1 -1,1 -1,0 -1,0 -1,0 0,0 -1,0 0,0 0,0 0,0l-1 0 1 0c-1,0 -1,0 -1,0l0 0c0,0 0,0 0,0 0,0 0,1 0,0 0,0 0,0 0,0l-3 0c0,0 1,0 1,0 0,0 0,0 0,0l-1 0c0,0 0,0 0,0 0,0 0,0 0,0 0,0 -1,0 -1,0 0,0 0,0 0,0 0,0 0,0 0,0 1,1 1,0 1,1 0,0 -1,0 -2,0z"/>
    <path class="fil30" d="M29 25c0,0 1,0 1,0 0,0 0,0 0,0 -1,0 -1,1 -1,0zm0 -3c0,0 0,2 0,3l0 1c0,0 0,0 0,0 0,1 0,1 0,1 0,0 0,0 0,0 0,0 0,0 0,0 0,0 0,0 1,0 -1,0 -1,0 -1,0l1 0 0 1c0,0 -1,0 -1,0 0,0 0,0 0,0l0 0 0 0c0,0 0,0 0,0 1,0 0,0 1,0 0,0 0,0 0,0 0,-1 0,-1 0,-2 0,0 0,0 0,0 0,-1 -1,-1 0,-2l0 0c0,0 0,0 0,0 0,-1 0,-1 0,-1 0,0 0,-1 0,-1l0 0c0,0 0,0 -1,0 0,0 1,0 1,0 -1,1 0,1 0,1 0,1 -1,0 0,1 -1,0 0,1 -1,1 0,0 1,0 1,0 -1,0 -1,0 -1,0 0,0 0,0 0,0 0,-1 0,-1 0,-1 0,0 0,0 0,0 0,-1 0,0 0,-1 0,0 0,0 0,0l0 0 0 -1c0,0 0,1 0,0 0,0 0,1 0,0 0,0 0,0 0,0 0,-1 0,-1 0,-1 0,0 0,0 0,0 0,-1 0,0 0,-1 0,1 0,1 0,1 0,0 0,0 0,0 0,0 0,0 0,0l0 1z"/>
   </g>
   <g>
    <path class="fil31" d="M23 13c1,1 1,1 1,1 0,0 0,0 0,0 -1,0 0,0 -1,0 0,0 0,0 -1,0l0 0c-1,0 -1,0 -1,0l0 0c0,0 0,0 0,0 0,0 0,0 0,0 -1,0 0,0 -1,0 0,0 -1,0 -1,0l0 0c-1,0 -1,0 -1,0 -2,0 -1,0 -2,0 0,0 0,0 0,0l0 0c0,0 0,0 0,0 0,0 0,0 0,0l2 0c1,0 1,0 1,0 0,0 1,0 2,0 2,0 2,0 4,0 1,0 1,0 2,0 0,0 1,0 1,0 0,1 0,1 0,1 0,0 0,0 0,0l0 0 0 -1 -2 0c0,0 0,0 0,0 0,0 1,0 1,0 0,0 0,0 0,0 0,-1 0,0 -1,-1 0,0 0,0 0,0l-3 0z"/>
    <path class="fil31" d="M24 20l1 0c0,0 0,0 0,0 0,0 0,0 0,0l-1 0zm-11 0c0,0 0,0 0,0 1,0 0,0 1,0 0,0 0,0 1,0l0 0c0,0 0,0 0,0l0 0c0,0 0,0 1,0 0,0 0,0 1,0l2 0 0 0c0,0 0,0 0,0l0 0c0,0 0,0 0,0 1,0 1,0 2,0 0,0 0,0 1,0 0,0 0,0 0,0 0,0 1,0 1,0 0,0 1,0 1,0 0,0 0,0 0,0 0,0 0,0 0,0 0,0 0,0 0,0l-1 0 1 0c-1,1 0,1 -1,1 1,0 1,0 1,-1l0 0c0,0 1,0 1,0 1,0 1,0 2,0 0,0 0,0 0,0 1,0 0,0 1,0l0 0c0,0 0,0 0,0l0 0c0,0 0,0 0,0l0 -1 0 0 0 0c0,1 0,1 -1,1l-9 0c0,0 0,0 0,0 -1,0 -1,0 -1,0 0,0 -1,0 -1,0 0,0 0,0 0,0 0,0 0,0 0,0 -1,0 -2,0 -3,0z"/>
    <path class="fil31" d="M13 14l1 0c-1,0 -1,0 -1,0l1 0 -1 0 -1 0 0 0 0 0c0,0 0,0 0,0 0,0 0,0 0,0 0,0 0,0 0,0l0 0c0,0 0,0 0,0 0,0 0,0 0,0 0,0 0,0 0,0l1 0c0,0 0,0 0,0 0,0 0,0 0,0 0,0 0,0 0,0z"/>
    <path class="fil31" d="M11 40l0 0 0 0 2 0c0,0 -2,0 -2,0l0 -1c0,1 0,1 0,0 0,0 0,0 0,0l0 1z"/>
    <path class="fil31" d="M13 41l-2 0 0 0c0,0 2,1 2,0z"/>
    <path class="fil31" d="M12 32l-1 0 1 -1 -1 0c0,0 0,1 0,1l1 0z"/>
   </g>
   <g>
    <path class="fil32" d="M11 8l0 0 0 1c0,0 0,0 0,-1 0,0 1,0 1,0l1 0c0,0 0,0 1,0 0,0 0,0 0,0 1,0 1,0 1,0l0 0c0,0 0,0 0,0 1,0 1,0 1,0 0,0 0,0 1,0 1,0 1,0 2,0l0 0c1,0 1,0 2,0l0 0c0,0 0,0 0,0 0,0 0,0 1,0 0,0 0,0 0,0 1,0 2,0 2,0l1 0c1,0 0,0 1,0 0,0 0,0 0,0 0,0 0,0 0,0 1,1 0,1 1,0 0,1 0,1 0,1 0,0 0,0 0,0 0,0 0,0 1,0 0,0 0,0 0,0 0,1 0,3 0,3 0,0 0,1 0,1 0,1 0,1 0,1l0 1c0,0 0,0 0,0 0,1 0,1 0,1 0,-1 0,-3 0,-4l0 -2c0,-1 0,-1 0,-1 0,0 0,0 0,0 0,-1 -1,-1 -1,-1l0 0c0,0 -3,0 -4,0 0,0 0,0 0,0 -1,0 0,0 -1,0l-1 0c0,0 0,0 -1,0 0,0 0,0 -1,0 0,0 -1,0 -1,0l-1 0c0,0 0,0 -1,0 -1,-1 -1,0 -1,-1l-2 0c0,1 0,0 -1,0 0,0 0,1 0,1 0,0 0,0 -1,0 0,0 0,0 0,0z"/>
    <path class="fil32" d="M13 6l2 0 0 0c-1,0 -2,0 -3,0 0,0 0,0 0,0 0,0 0,0 0,0 0,0 1,0 1,0z"/>
    <path class="fil32" d="M11 19l0 0 0 -1c0,0 0,0 0,0 0,0 0,0 0,0l0 -1 0 0c0,1 0,1 0,1 0,0 0,0 0,1z"/>
   </g>
   <g>
    <path class="fil33" d="M11 9c0,1 0,1 0,2 0,0 0,1 0,2l0 0 0 0c0,-1 0,-1 0,-1 1,0 1,0 1,0 0,0 1,0 0,0l0 0c-1,0 -1,0 -1,-1 0,0 0,0 0,0l0 0 0 -1 0 0 0 0c0,0 0,-1 0,-1 0,0 0,0 0,0 1,0 0,0 1,-1 0,0 0,0 0,0 0,0 0,0 0,1l0 -1c1,0 1,0 2,0 0,0 0,0 0,0 0,0 0,0 1,0l0 0c0,0 0,0 1,0 0,0 0,0 0,0l0 0c1,0 1,0 1,0 1,0 1,0 1,1l0 -1c0,0 0,0 1,0 0,0 0,0 0,1 1,0 0,-1 1,-1 0,0 0,1 0,0l1 1c0,0 0,0 0,0l1 0c0,0 0,0 0,0 1,0 0,0 1,0l0 0c0,0 0,0 0,0 1,-1 1,0 1,0 0,0 0,0 0,0 0,0 1,0 1,0l0 0c0,0 0,0 1,0 0,0 0,0 0,0l1 0 -1 0c0,0 0,0 0,0 0,0 0,0 0,0l0 0c-1,-1 -1,-1 -1,0l0 -1c-1,0 -1,0 -1,1 0,-1 0,-1 0,-1 0,0 0,0 -1,0l0 0c0,0 0,0 -1,0l-1 0c0,0 0,0 0,0l0 0c-1,0 -1,0 -2,0l0 0c-1,0 -1,0 -2,0 -1,0 -1,0 -1,0 0,0 0,0 -1,0 0,0 0,0 0,0l0 0c0,0 0,0 -1,0 0,0 0,0 0,0 -1,0 -1,0 -1,0l-1 0c0,0 -1,0 -1,0 0,1 0,1 0,1z"/>
    <path class="fil33" d="M29 25c0,-1 0,-3 0,-3l0 -2 0 0 0 0c0,0 0,0 0,-1 0,0 0,0 0,0 0,0 0,3 0,4 0,1 0,1 0,2z"/>
   </g>
   <g>
    <path class="fil34" d="M23 26c0,0 0,0 0,0 0,0 0,0 0,0 1,0 1,0 2,0 0,0 0,0 0,0 0,0 0,0 0,0 0,1 -1,0 -1,0 -1,0 0,1 -1,0zm-2 0l0 0 2 0c0,0 0,0 -1,0l0 0c0,0 0,0 -1,0 0,0 1,0 1,0l0 0 -1 0c0,0 0,0 0,0 0,0 0,0 0,0l0 0c0,0 0,0 0,0l0 0c0,0 -1,0 -1,0 0,0 0,0 0,0l0 0c1,0 1,0 1,0 -2,0 -3,0 -5,0 -1,0 -1,0 -2,0 -1,0 -2,0 -2,0 0,0 0,0 0,0 0,0 0,0 0,0 1,0 1,0 1,0 1,0 1,0 1,0l0 0c0,0 0,0 0,0l0 0 0 1 4 0c0,-1 0,0 -1,-1 0,0 0,0 0,0l0 0c1,0 1,0 1,0 0,0 0,0 0,0l0 1 3 0c0,0 0,0 0,0 0,0 -1,0 -1,0l2 0c0,0 2,0 2,0 1,0 0,0 1,0 0,0 0,0 0,0 0,-1 0,0 0,0l1 -1c0,0 1,0 1,0l0 0 -2 0c1,0 0,0 0,0l-4 0z"/>
    <path class="fil34" d="M10 58l0 1 0 0c0,0 0,0 0,0 0,0 0,0 0,0 0,0 0,0 0,0 0,0 0,0 0,0 1,0 1,0 1,-1l0 0c0,0 0,0 0,0 0,0 -1,0 -1,0l0 0c0,0 0,0 0,0z"/>
   </g>
   <g>
    <path class="fil35" d="M11 58c0,1 0,1 -1,1 0,0 0,0 0,0 0,0 0,0 0,0 0,0 0,0 1,0 0,0 0,0 0,0 0,0 1,0 1,0l0 0c0,0 0,0 0,0l2 0 1 0c0,0 0,0 0,0 0,0 0,0 0,0 0,0 0,0 0,0l3 0c0,0 0,0 0,0l1 0c0,0 0,0 1,0 0,0 0,0 0,0 0,0 0,0 0,0 1,0 1,0 1,0 0,0 0,0 1,0 0,0 0,0 0,0 0,0 0,0 0,0l1 0c0,0 0,0 0,0l0 0c0,0 0,0 0,0l1 0 0 0c0,0 0,0 1,0l0 0c0,0 0,0 0,0 0,0 0,0 0,0 0,0 0,0 1,0l0 0c0,0 0,0 0,0 0,0 0,0 0,0 1,0 1,0 1,0l-1 -1 0 0c-1,0 0,0 -1,0l-1 0c-1,0 -1,0 -1,0 0,0 0,0 0,0l0 0 -1 0c-1,0 0,1 -1,1 0,-1 0,-1 0,-1 0,1 0,0 0,1 0,0 0,0 0,0l-1 -1c0,0 0,0 0,0 0,0 0,0 0,1 0,-1 0,-1 0,-1l-1 0c-1,1 -1,1 -1,1l0 -1c0,0 0,0 -1,0l0 1c0,-1 0,-1 0,-1 0,0 0,0 -1,0 0,0 0,0 0,0l0 0c0,0 0,0 -1,0l0 0c0,0 0,0 0,0 0,0 0,0 0,0 -1,1 -1,0 -1,1 0,0 0,0 -1,-1 0,0 0,0 0,0l-1 0c-1,1 0,0 -1,0z"/>
    <path class="fil35" d="M11 10c0,0 2,0 2,0 0,0 0,0 0,0 0,0 0,0 0,0 0,0 0,0 0,0l2 0c0,0 0,0 0,0 1,0 0,0 1,0 0,0 0,0 1,0l0 0c0,0 0,0 0,0 0,0 0,0 1,0 0,0 0,0 0,0l0 0c0,0 0,0 1,0 0,0 0,0 0,0l1 0c0,0 0,0 1,0 0,0 0,0 0,0 1,0 1,0 1,0l1 0c1,0 1,0 1,0 0,0 1,0 1,0 0,0 0,0 0,0 0,0 -1,0 -1,0 0,0 0,0 0,0 -1,0 -1,0 -1,0 0,0 0,0 -1,0 0,0 0,0 0,0 0,0 -1,0 -1,0 -1,0 0,0 -1,0 -1,0 -2,0 -2,0 -1,0 -4,0 -4,0 -1,0 -1,1 -2,0 0,1 -1,0 -1,0l0 1c0,-1 1,0 2,0l1 -1c1,0 8,0 8,0l2 0c0,0 0,0 0,0 1,0 0,0 1,0l1 0c1,0 0,0 0,0 0,0 1,0 0,0 0,0 -3,0 -3,0 0,0 0,0 0,0 -1,0 -1,0 -2,0 0,0 0,0 0,0 0,0 0,0 0,0 0,0 -1,0 -1,0 0,-1 0,0 0,-1 0,0 0,0 0,1 0,0 0,0 -1,0 0,0 0,0 -1,0 0,0 -1,0 -1,0l0 0 0 0c-1,-1 -1,0 -2,-1 -1,0 -1,0 -1,1 0,0 0,0 0,-1 -1,1 -1,1 -1,0 -1,0 0,1 -1,1 0,0 0,-1 -1,0l0 0c0,0 0,0 0,0z"/>
    <path class="fil35" d="M26 11c0,0 0,0 0,0 -1,0 -1,0 -1,0l1 0c0,0 1,0 1,0 0,0 0,0 0,0 0,0 0,0 0,0 0,0 0,0 0,0 0,0 0,0 0,0l0 0 0 0 -1 0c0,1 0,1 0,1 -1,0 0,0 -1,0 0,0 0,0 0,0l0 0c0,0 0,0 0,-1l-1 1c0,0 0,0 0,0l0 0c-1,0 -1,0 -1,0 -1,0 -1,0 -1,0 0,0 0,-1 0,-1 0,1 0,0 0,1 -1,0 -1,0 -1,0 -1,0 -1,0 -1,0l0 0c0,0 0,0 0,0l-2 0c0,0 0,0 -1,0 0,0 0,0 0,0 0,0 0,0 0,0 -1,0 0,0 -1,0 0,0 -1,0 -1,0 0,0 0,0 0,0l0 0c0,0 0,0 0,0 0,0 0,0 0,0l-2 0 -1 0c0,0 0,0 1,0 -1,0 0,0 -1,0l0 0 0 0c1,0 0,0 0,0 1,0 9,0 10,0 1,0 1,0 2,0 1,0 3,0 4,0l0 0c0,0 -1,0 -1,0 -1,0 -1,0 -1,0 0,0 0,0 -1,0 1,0 2,0 2,0 0,-1 0,0 0,-1 0,0 0,0 1,0l0 0c0,0 0,-1 -1,-1l1 1c0,0 0,0 -1,0 0,0 0,0 -1,0z"/>
    <path class="fil35" d="M26 22c0,1 -1,0 -1,0 0,0 1,0 1,0 1,0 0,0 0,0zm-7 0c0,0 0,0 0,0l2 0c0,0 1,0 1,0l1 0c0,0 0,0 0,0 1,0 1,0 1,0 0,0 0,0 0,0 1,0 1,0 1,0 0,0 0,0 0,0 1,0 1,0 1,0 0,0 0,0 0,0l0 0c0,0 0,0 0,0 -1,0 -1,0 -1,0 0,0 0,0 0,0 0,0 0,0 0,0 0,0 0,0 0,0 -1,0 -1,0 -1,0 1,0 0,0 1,0 -1,0 0,0 -1,0 0,0 0,0 0,0 -1,0 0,0 -1,0 0,0 0,0 0,0 -1,0 -1,0 -1,0 -1,0 -1,0 -1,0l-1 0c0,0 0,0 -1,0 0,0 0,0 0,0l0 0c0,0 0,0 0,0 0,0 0,0 0,0l2 0c-1,1 -1,0 -1,0 0,0 0,0 0,0l0 1c2,-1 0,0 2,0 0,0 0,0 1,0 0,0 0,0 1,0 0,0 0,0 1,0 0,0 1,0 1,0 1,-1 1,-1 1,0l0 0 0 0c0,-1 0,-1 0,-1 0,0 0,0 0,0 0,0 0,0 -1,0l0 0c0,0 0,0 0,0 1,0 0,0 2,0l-5 0c-2,0 -2,0 -4,0z"/>
    <path class="fil35" d="M10 48c0,0 0,0 0,-1l0 0c0,0 0,0 0,-1 0,0 0,0 1,0l-1 0c0,0 1,0 0,-1 0,0 0,-1 1,-1l0 0c0,0 1,0 1,0l1 -1c-1,0 -1,0 -2,0 -1,0 0,0 0,-1 -1,1 -1,1 -1,1 0,0 0,0 0,0l0 -2c0,0 0,3 0,4 0,0 0,1 0,1 0,1 0,2 0,2z"/>
    <path class="fil35" d="M28 41c0,0 0,0 0,0 0,0 0,0 0,0 0,1 0,1 0,1l0 0c0,0 0,0 0,0 0,0 0,0 0,0 0,0 0,0 0,0 0,0 0,0 0,0 0,0 0,0 0,0l0 -1c0,0 0,0 0,0z"/>
    <path class="fil35" d="M11 42l0 0 0 0 0 0 0 0 0 -1 0 0c0,0 0,0 0,-1 -1,1 0,1 0,1 0,1 0,1 0,1z"/>
    <path class="fil35" d="M11 29l0 0c1,0 1,0 1,0l0 0c0,0 -1,0 -1,0 0,0 0,0 0,0 0,0 0,0 0,0z"/>
    <path class="fil35" d="M12 25c0,0 0,0 0,0 0,0 0,0 0,0 0,0 0,0 0,0 0,0 -1,0 -1,0l0 0 0 0c1,0 1,0 1,0 0,0 0,0 0,0z"/>
    <path class="fil35" d="M27 13c1,0 1,1 1,1 0,-1 0,0 0,-1l-1 0z"/>
   </g>
   <g>
    <path class="fil36" d="M27 49c0,0 0,0 1,1 0,0 0,0 0,0l-1 0 0 -1zm-13 1c0,0 0,-1 0,0l0 0 0 0c1,0 1,0 1,0 0,0 4,0 4,0 1,0 1,0 1,0l0 0c1,0 2,0 3,0 1,0 1,0 1,0 1,0 2,0 2,0 0,0 2,0 2,0 0,0 0,0 0,1l0 -2c0,0 -1,0 -1,0 -1,1 -1,0 -2,0l0 1c1,0 1,0 1,0 0,0 0,0 1,0 0,0 0,0 -1,0l-1 0c0,0 0,0 0,0 -1,0 -2,0 -3,0 -1,0 0,0 -1,0 1,0 1,0 1,0 1,0 2,0 2,0 1,0 1,0 1,0 0,0 0,0 0,0 0,-1 0,0 0,-1 0,0 -1,1 -1,1l0 -1c0,0 0,0 0,0 0,0 0,0 0,0 0,0 -1,0 -1,0 0,0 0,0 0,0l0 0c-1,1 -3,0 -4,1 -2,0 -2,-1 -3,0l0 0c0,0 0,0 -1,0 0,0 0,-1 -1,0 0,0 0,0 0,0l0 0z"/>
    <path class="fil36" d="M29 34c0,1 0,2 0,2 0,1 0,2 0,2 0,2 0,3 0,5 0,0 0,-1 0,-1 0,0 0,0 0,-1 0,0 0,0 0,-1l0 1c0,0 0,0 0,0 0,0 0,0 0,-1 1,0 1,0 1,1 0,-1 0,-1 -1,-1 0,0 0,0 0,0l0 -2c0,0 0,0 0,0 0,0 0,0 0,1 1,-1 0,0 0,-1 1,0 0,0 1,0 0,0 0,-3 0,-3 0,0 0,0 0,0l0 0c0,0 0,-1 0,-1l-1 0 1 0 -1 -1c1,1 0,0 0,1l0 0 1 0c-1,0 -1,0 -1,0 0,1 0,0 0,0 0,0 0,0 0,0l0 0z"/>
    <path class="fil36" d="M13 68l0 0c0,0 0,0 0,1 1,-1 0,-1 1,-1 0,0 0,0 0,0 0,0 0,0 0,0 0,0 0,0 0,0l3 0c0,0 0,0 0,0 0,0 0,0 0,0 0,0 1,0 1,0 0,0 0,0 0,0 0,0 0,0 0,0 0,0 0,0 0,0 0,0 0,0 0,0 1,0 1,0 1,0 -1,0 -1,0 -1,0 -1,0 -1,0 -1,0 0,0 -3,0 -3,0 0,0 0,0 -1,0 0,0 0,0 0,0l0 0z"/>
    <path class="fil36" d="M27 6l1 0c0,1 0,0 0,1 1,0 0,0 1,0l0 0 -1 0c1,0 1,1 1,1 0,0 0,0 0,0l0 0c0,0 0,0 0,-1 0,0 0,0 0,0l0 1 0 -1c0,0 0,0 0,0 0,0 0,0 0,0l0 0c0,-1 0,-1 0,-1 0,0 0,0 0,0 0,0 0,0 0,0l0 0 0 0c0,-1 -1,-1 -1,0l0 0c0,0 0,0 0,0l-1 0c0,0 0,0 0,0 0,0 0,0 0,0 0,0 0,0 0,0z"/>
    <path class="fil36" d="M20 6c0,0 0,0 0,0l1 0c0,0 1,0 1,0 0,0 1,0 1,0 1,0 2,0 3,0l-1 0c1,-1 0,-1 1,-1 -1,0 0,0 -1,1 0,0 0,0 0,0l0 0c0,0 0,0 0,0 0,0 -2,-1 -2,0 -1,0 -2,-1 -3,0z"/>
    <path class="fil36" d="M29 10l0 0c0,0 0,0 0,1 0,0 0,0 0,0 0,0 0,0 0,0 0,0 0,0 0,0 0,1 0,0 0,0 0,1 0,1 0,1l0 0c1,0 0,0 0,0 0,0 0,-1 0,-1l1 -2c0,0 0,0 0,0l-1 0 0 0c0,0 0,0 0,0l0 0c0,0 0,0 0,0 0,0 0,0 0,0 0,1 0,1 0,1z"/>
    <path class="fil36" d="M12 50l0 0c0,0 0,0 0,0 0,0 0,0 0,0l-1 0 0 0c0,0 0,0 0,0 0,0 0,0 0,0 0,0 0,0 -1,0 0,0 0,0 0,0 0,0 0,0 0,0 0,0 0,-1 0,-1l0 0c0,0 0,0 0,1l0 1c1,-1 1,-1 2,-1z"/>
    <path class="fil36" d="M12 48l-1 0c0,0 0,0 0,0 0,0 0,0 -1,0l0 0c1,0 0,0 1,0 0,0 0,0 0,0 2,0 1,0 2,0 0,0 0,0 0,0 0,0 0,0 0,0 -1,0 -1,0 -1,0 0,0 0,0 0,0 -1,0 0,0 -1,0 0,-1 0,0 1,0z"/>
    <path class="fil36" d="M24 38l1 0c0,0 0,0 0,0 1,0 0,0 1,1 0,-1 0,-1 0,-1 0,0 0,0 0,0l0 1 1 -1 0 1 0 -1c0,0 0,0 1,0 -1,0 -2,0 -2,0 0,0 0,0 -1,0 0,0 -1,0 -1,0z"/>
    <path class="fil36" d="M13 46c0,0 0,0 0,0 0,0 0,0 0,0l0 0c0,0 0,0 1,0 0,0 0,0 1,0l0 0c0,0 -1,0 0,0l-1 0c0,0 0,0 0,0 1,0 1,0 1,-1 -1,0 -1,1 -2,1z"/>
    <path class="fil36" d="M30 65c0,1 0,1 0,1 0,-2 0,0 -1,-2 0,0 0,0 0,0l0 2 1 -1z"/>
    <path class="fil36" d="M12 11c1,1 1,0 1,0 0,0 0,0 -1,0 0,0 0,0 0,0 -1,0 0,0 -1,0 1,0 2,0 2,0 -1,0 -1,0 -2,0l0 0 0 0 1 0z"/>
    <path class="fil36" d="M11 29c1,1 0,0 1,1 0,0 0,0 0,0 0,0 0,0 0,0l0 0c0,0 0,0 0,0l0 -1 0 0 0 0c0,0 0,0 -1,0l0 0z"/>
    <path class="fil36" d="M26 28c0,0 0,0 1,0l-1 0 0 0 0 0z"/>
    <path class="fil36" d="M16 49l0 0c0,0 0,0 0,0l1 0c0,0 0,0 -1,0z"/>
    <path class="fil36" d="M30 68c0,0 0,0 0,0 0,0 -1,0 0,0 0,0 0,0 0,0z"/>
   </g>
   <g>
    <path class="fil37" d="M19 59l0 0c-1,0 0,0 -1,0 0,0 0,1 0,0l-1 0c0,0 0,0 0,0 0,0 0,0 0,0 0,0 0,0 0,0 -1,1 -1,1 -1,0 0,1 0,1 0,1 0,-1 0,-1 0,-1 0,0 0,0 0,0 -1,0 0,0 -1,0 0,0 0,0 0,1l0 -1c0,0 0,1 0,1 0,0 0,0 0,0 0,0 0,0 0,0 0,0 0,0 0,0 1,-1 0,0 1,0 0,0 0,0 0,0 0,0 0,0 0,0 1,0 0,0 1,0l0 0c0,0 -1,0 0,0 0,0 0,0 0,0 1,0 1,0 2,0l0 -1c0,1 0,1 0,1 1,0 1,0 1,-1l0 1 0 0c0,0 0,0 1,0l0 0c0,0 0,0 0,0 0,0 0,0 0,0l0 0c0,0 1,0 0,-1 0,1 1,1 1,1 0,0 0,0 1,0 0,-1 0,0 0,0l0 0 1 0c0,0 0,0 0,0 0,0 0,0 1,0 0,0 0,0 1,0 0,0 0,0 1,0 0,0 0,0 0,0 0,0 0,0 0,0l-1 0c1,0 1,0 1,0 0,1 0,0 0,1 0,0 0,0 0,0 0,0 0,0 1,0 -1,0 -1,0 0,1 0,0 0,0 0,0 0,-1 0,-1 0,-2 0,0 0,0 0,-1l0 0 0 0c0,1 0,0 -1,1l1 0c0,0 0,0 0,0 -1,0 0,1 -1,0 0,0 0,0 0,0 0,0 0,0 0,0 0,0 0,0 0,0 0,0 0,0 0,0 0,0 0,0 0,0 0,0 0,0 -1,0 0,-1 0,0 0,-1l0 0c0,0 0,0 -1,0 0,0 -1,0 -2,0 0,0 0,0 0,0l0 0c0,0 0,0 0,0 0,0 0,0 0,0 0,0 0,0 0,0l-1 0c0,0 0,0 0,0 0,1 0,-1 0,0 0,0 0,0 0,0l-1 0c0,0 0,0 0,0 0,0 0,0 0,0l0 0c0,0 0,0 0,0 0,0 0,0 -1,0 0,0 0,0 0,0 0,0 0,0 0,0 -1,0 -1,0 -1,0z"/>
    <path class="fil37" d="M12 17l9 -1c1,0 2,0 2,0 1,0 1,0 2,0 0,0 1,0 2,0l-1 0 0 0c0,0 0,0 0,0 -1,0 -1,0 -1,0l-1 0c0,0 -1,0 -1,0 0,0 0,0 -1,0 0,0 -1,0 -1,0 -1,0 -2,0 -3,0 0,0 -1,0 -2,0 0,0 0,0 0,0 0,0 -1,0 -1,0 0,0 0,0 -1,0 -2,0 -1,0 -1,0 -1,0 -1,0 -1,0 0,0 0,0 0,0 -1,0 -1,0 -1,0 1,0 1,0 1,0l0 1z"/>
    <path class="fil37" d="M13 29l6 0 0 0c0,0 0,0 0,0 0,0 -1,0 -1,0 -2,0 -2,0 -3,0 -1,0 0,-1 -1,0 0,-1 0,0 0,-1 0,0 0,0 -1,1l0 -1 0 0c0,0 0,0 0,0 -1,0 -1,0 -1,0 0,0 0,0 0,0l1 0c0,0 0,1 0,1 0,0 1,0 1,0l-1 0z"/>
    <path class="fil37" d="M28 22c-2,0 -1,0 -2,0 0,0 0,0 0,0l0 0c1,0 1,0 1,0 0,0 0,0 0,0 0,0 0,0 0,1l0 -1 1 0 0 0 0 0c0,0 0,0 0,0 0,0 0,0 0,0 0,0 0,0 0,0l0 -1c0,1 0,1 0,1z"/>
    <path class="fil37" d="M12 12l0 0 -1 0 0 0c0,0 0,0 0,0 0,-1 0,0 0,-1 0,0 0,1 0,0l0 0c0,0 0,0 0,0 0,1 0,1 1,1z"/>
   </g>
   <g>
    <path class="fil38" d="M12 7c0,0 1,0 2,0l2 0c0,0 0,0 0,0 1,0 0,0 1,0 0,0 0,0 0,0l3 1c0,0 1,0 1,0 1,0 1,0 1,0l5 0c0,0 0,0 0,0 0,0 0,0 0,0 1,0 0,0 1,0 0,1 0,1 0,1 0,0 0,0 0,1l0 2c0,1 0,3 0,4l0 0 0 1 0 1 0 0c0,1 0,1 0,1 0,1 0,1 0,1 0,1 1,2 0,3l0 0c1,0 0,1 0,2 1,0 1,1 0,2 1,0 0,0 1,0 0,0 -1,0 -1,0 0,0 1,1 1,1 -1,1 -1,0 0,1 0,0 0,0 0,1 0,1 0,6 0,7 0,-1 0,-8 0,-8 0,-1 0,-3 0,-4 0,-1 -1,-3 0,-4l-1 -9c0,0 0,0 0,0l0 -1c0,-1 0,-1 0,-2 0,0 0,-1 0,-1 0,0 0,0 -1,0 0,0 -1,0 -1,0 -1,0 -1,-1 -1,-1l-5 0c0,0 -1,0 -1,0 -1,0 -3,0 -4,0 -1,0 -3,0 -3,0z"/>
    <path class="fil38" d="M29 31l0 0 0 0 0 0c0,0 1,0 1,0 -1,0 0,0 0,0 -1,0 0,0 -1,0l1 0c0,0 0,0 0,0 0,-1 0,-1 -1,-1l0 1z"/>
   </g>
   <g>
    <path class="fil39" d="M11 64l1 0 -1 0c0,0 0,0 0,0 0,0 0,0 -1,0 0,0 0,0 0,0 0,0 0,0 0,0 1,0 1,0 1,1 0,0 0,0 0,-1l0 1c0,0 0,0 1,0 0,-1 0,-1 0,-1 0,0 0,0 0,0 0,0 0,0 1,0 0,0 0,0 0,-1l0 0c0,0 0,0 1,0 0,0 0,0 0,0l1 0c0,0 -1,0 -1,0 1,0 1,0 1,0 0,0 0,0 0,0 0,0 1,0 1,0 0,-1 1,0 1,0 0,0 0,0 0,0 0,0 0,0 1,0l0 0c0,0 0,0 0,0 0,0 0,0 1,0l0 0c0,0 0,0 0,0 0,0 0,0 1,0l0 0 0 0c0,0 0,0 0,0l0 0 1 0c0,0 0,0 1,0l0 0c0,0 0,0 0,0 0,0 0,0 0,0 0,0 1,0 1,0l0 0c0,0 0,0 0,0 0,0 0,0 0,0 0,0 0,0 0,0l0 0 1 0c-1,-1 0,-1 -1,0l0 -1c0,0 0,1 0,1 0,0 0,0 0,0 0,0 0,0 0,0 0,0 0,0 0,0 -1,-1 -1,-1 -1,-1 0,0 0,0 0,0l0 0c-1,1 -1,0 -1,0l-1 0c0,0 0,0 0,0 0,0 0,0 0,0l0 0c0,0 0,0 0,0 -1,0 -1,0 -1,0l0 0c0,0 0,0 0,0l0 0c0,0 0,0 0,0l-1 0c0,0 0,0 0,0 0,0 0,0 0,0 0,0 0,0 0,0 0,0 0,0 0,0 0,0 0,0 0,0 0,0 0,0 0,0 0,0 0,0 0,0 0,0 -1,0 -1,0 0,0 1,0 0,0 0,0 0,0 1,0l0 0c0,0 -1,0 -1,0l0 0c0,0 0,0 0,0l0 0c-1,0 -1,1 -1,0l0 0c0,0 0,0 0,0 0,0 0,0 0,0 0,1 -1,1 -1,0 0,0 0,1 0,1l0 0c-1,0 0,0 -1,0 0,-1 0,-1 0,-1 0,0 0,0 0,1 0,0 0,0 0,0l0 0c-1,0 -1,0 -1,0l0 0c0,0 0,0 0,0 0,0 0,0 -1,0 0,0 0,0 0,0l0 0c0,0 0,0 0,0 0,1 0,1 0,1l-1 0z"/>
    <path class="fil39" d="M28 29l0 1c0,1 1,1 1,1 0,1 -1,1 -1,2l0 0 -5 0c0,0 -1,0 -1,0 1,0 6,0 6,0 0,0 0,0 0,0 1,0 0,0 1,0 0,1 -1,2 -1,3 1,0 1,2 0,2l0 0c1,1 0,1 0,3 0,0 0,0 0,0 0,0 0,0 0,0l0 0 0 1c0,0 0,1 0,1 0,1 0,1 0,2 0,1 0,2 0,3l0 -3c0,-1 1,-6 1,-8 0,-1 0,-6 0,-7 0,-1 0,-1 0,-1 0,0 0,0 0,0 -1,0 -1,0 -1,0z"/>
    <path class="fil39" d="M28 19l0 0 0 1 0 0c0,0 0,0 0,0 0,0 0,0 0,1 0,0 0,0 0,0 0,1 0,1 0,1 0,0 0,0 0,0l0 1 0 0c1,-1 0,-2 0,-3 0,0 0,0 0,-1 0,0 0,0 0,-1l0 1z"/>
    <path class="fil39" d="M10 41l0 2c0,0 0,0 0,0 0,0 0,0 1,-1l0 0c0,0 0,0 0,-1 0,0 -1,0 0,-1l0 0 0 0 0 0c0,0 0,0 0,0l-1 1z"/>
   </g>
   <g>
    <path class="fil40" d="M10 58c0,0 0,0 0,0l0 0c0,0 1,0 1,0 0,0 0,0 0,0l0 0c1,0 0,1 1,0l1 0c0,0 0,0 0,0 1,1 1,1 1,1 0,-1 0,0 1,-1 0,0 0,0 0,0 0,0 0,0 0,0l0 0c1,0 1,0 1,0l0 0c0,0 0,0 0,0 1,0 1,0 1,0 0,0 0,0 0,1l0 -1c1,0 1,0 1,0l0 1c0,0 0,0 1,-1l1 0c0,0 0,0 0,1 0,-1 0,-1 0,-1 0,0 0,0 0,0l1 1c0,0 0,0 0,0 0,-1 0,0 0,-1 0,0 0,0 0,1 1,0 0,-1 1,-1l1 0 0 0c0,0 0,0 0,0 0,0 0,0 1,0l1 0c1,0 0,0 1,0l0 0 1 1 0 0 0 -1c0,1 0,1 1,1l0 -1 -1 0c0,0 0,0 0,0 0,0 0,0 0,0 0,0 -1,0 -2,0l0 0c0,0 0,0 0,0 -1,0 -1,0 -1,0 0,0 0,0 -1,0 0,0 -1,0 -1,0 -1,0 0,0 -1,0 -1,0 -1,0 -1,0 0,0 -1,0 -1,0 -1,0 -1,0 -1,0 0,0 0,0 -1,0l0 0c0,0 -1,0 -1,0 0,0 -1,0 -1,0 0,0 0,0 0,0 0,0 0,0 -1,0l0 0c0,0 0,0 -1,0l0 0 0 0c-1,0 -1,0 -1,0l0 0c0,0 0,0 0,0 0,0 0,0 0,0l-1 0c0,0 0,0 0,0 -1,0 0,0 -1,0l0 0c0,0 0,0 0,0 0,0 0,0 0,0 0,0 0,0 0,0z"/>
    <path class="fil40" d="M11 50c0,0 -1,0 -1,-1 0,0 0,1 0,1 0,0 0,0 0,0 0,0 0,0 0,0 1,0 1,0 1,0 0,0 0,0 0,0 0,0 0,0 0,0l0 0z"/>
    <path class="fil40" d="M11 25c0,1 0,1 1,1l-1 -1c1,0 1,0 1,0 0,0 0,0 0,0 0,0 0,0 -1,0l0 0 0 0c0,0 0,0 0,0z"/>
    <path class="fil40" d="M10 52l0 0 0 0c0,0 0,0 0,0l0 0z"/>
   </g>
   <g>
    <path class="fil41" d="M16 9c-1,0 0,0 -1,0 0,0 -1,0 -1,0 0,0 0,0 0,0 0,0 0,0 0,0 0,0 0,0 0,0 0,0 0,0 0,0 0,0 -1,0 -1,0l0 0c0,0 0,0 0,0 0,0 0,0 0,0 -1,0 0,0 -1,0 0,0 0,0 0,0 0,0 0,0 0,0 0,0 0,0 0,0 0,0 0,0 0,0l-1 1 0 0 0 0c0,0 0,0 0,0l0 0 0 0c0,0 1,1 1,0l-1 0 0 0c0,0 0,0 0,0l0 0c1,-1 1,0 1,0 1,0 0,-1 1,-1 0,1 0,1 1,0 0,1 0,1 0,1 0,-1 0,-1 1,-1 1,1 1,0 2,1l0 0 0 0c0,0 1,0 1,0 1,0 1,0 1,0 1,0 1,0 1,0 0,-1 0,-1 0,-1 0,1 0,0 0,1 0,0 1,0 1,0 0,0 0,0 0,0 0,0 0,0 0,0 1,0 1,0 2,0 0,0 0,0 0,0 0,0 3,0 3,0 1,0 0,0 0,0 0,0 1,0 0,0l-1 0c-1,0 0,0 -1,0 0,0 0,0 0,0 1,0 3,0 3,0l0 0c1,0 1,0 1,0 0,0 0,0 0,0 -1,0 -1,0 -1,0 0,-1 0,0 0,0 -1,0 -1,0 -1,0 0,0 1,0 0,0 0,0 0,-1 0,0 0,0 0,0 0,0 -1,0 0,0 -1,-1 0,0 0,0 0,0 -1,0 -1,0 -2,0l0 0c-1,0 0,0 0,0 -1,0 -3,0 -3,0l0 0c-1,0 -1,0 -1,0 0,0 0,0 -1,0 -1,0 0,0 -1,0 0,0 0,0 0,0l0 0c0,0 0,0 0,0l0 0 -1 0 0 0c0,0 0,0 0,0z"/>
    <path class="fil41" d="M10 59c0,0 0,0 0,0 0,0 0,0 0,0l0 1c0,0 -1,1 0,1l0 0 0 -1 0 0c0,0 0,0 0,0 0,0 0,0 0,0 0,0 0,0 0,0l1 0c0,0 0,0 1,0 0,0 0,0 1,0 0,0 -1,0 0,0 0,-1 0,0 0,0 1,0 1,0 2,0 0,0 0,-1 0,-1l0 1c0,-1 0,-1 0,-1 1,0 0,0 1,0 0,0 0,0 0,0 0,0 0,0 0,1 0,0 0,0 0,-1 0,1 0,1 1,0 0,0 0,0 0,0 0,0 0,0 0,0 0,0 0,0 0,0l1 0c0,1 0,0 0,0 1,0 0,0 1,0l0 0 -1 0c0,0 0,0 0,0l-3 0c0,0 0,0 0,0 0,0 0,0 0,0 0,0 0,0 0,0l-1 0 -2 0c0,0 0,0 0,0l0 0c0,0 -1,0 -1,0 0,0 0,0 0,0 -1,0 -1,0 -1,0z"/>
    <path class="fil41" d="M26 28l0 0 1 0c-1,0 -1,0 -1,0 -1,0 -1,0 -2,0 0,0 1,0 2,0 -1,0 -1,0 -1,0 0,1 0,0 -1,1 0,0 0,0 -1,-1 0,1 0,1 -1,1 0,0 -1,0 -1,0l-1 0c0,0 -1,0 -1,0 1,0 1,0 1,0 1,0 1,0 1,0 1,0 1,0 1,0 1,0 1,0 1,0 1,0 2,0 2,0l0 0c1,-1 0,0 1,0 0,0 1,0 1,0 0,0 0,-1 0,-1 0,1 0,0 0,0 0,0 0,0 0,0l0 0c0,0 0,0 0,0 0,0 0,0 0,0 1,0 1,0 1,0 0,0 0,0 0,0l0 0c0,0 0,0 0,0l-1 0c-1,0 -1,0 -1,0z"/>
    <path class="fil41" d="M11 15c0,0 1,0 1,0 0,0 1,-1 1,-1 0,0 0,0 0,0 0,0 0,0 0,0 0,0 0,0 0,0l-1 0c0,0 0,0 0,0 0,0 0,0 0,0 0,0 0,0 0,0l0 0c0,0 0,0 0,0 0,0 0,0 0,0 0,0 0,0 0,0l0 0c1,0 1,0 1,-1 -1,0 -1,0 -1,0 -1,0 -1,0 -1,0l0 1c0,0 0,0 0,0l0 1z"/>
    <path class="fil41" d="M25 26c0,0 1,0 0,0l2 0 0 0c0,0 -1,0 -1,0 1,0 1,0 1,0 1,0 1,1 1,0 0,0 0,0 0,0 -1,0 0,0 0,0 -1,0 -1,0 -1,0 1,0 1,0 1,0 0,0 -2,0 -3,0z"/>
    <path class="fil41" d="M11 36c1,0 2,0 2,0 0,0 0,0 0,0l-1 0c0,0 0,0 0,0l0 -1c0,0 0,0 -1,1l1 0c0,0 -1,0 -1,0 0,0 0,0 0,0z"/>
    <path class="fil41" d="M27 12l1 0 0 -1c-1,0 -1,0 -1,0 0,1 0,0 0,1z"/>
   </g>
   <g>
    <path class="fil42" d="M26 56c0,0 0,0 0,1 0,0 0,0 0,0 0,0 0,0 0,0 0,0 0,0 1,0 0,0 0,0 0,0 1,-1 0,-1 0,-1 1,0 1,0 1,0 0,0 0,0 0,0 0,1 0,1 0,1 0,0 0,0 0,1 -1,0 -2,0 -2,0 0,-1 0,-1 0,-1 -1,0 -1,0 -1,0 -1,1 -3,1 -3,1 -1,0 -1,0 -1,0 0,0 -1,0 -1,0 1,-1 0,0 1,-1 0,0 0,0 0,0l-1 0 0 1c0,0 -1,0 -1,0 0,0 0,0 0,0 0,0 0,0 0,-1 0,0 0,0 0,0 -1,1 -1,0 -1,0 -2,0 -1,0 -1,0l0 1c0,0 0,0 0,0 0,0 0,0 0,0 -1,0 -1,0 -1,0l-1 0c0,0 0,0 0,0 0,-1 0,0 -1,-1 0,1 0,1 0,1 0,0 -2,0 -2,0 0,0 1,0 1,0 0,0 -1,-1 -2,0 0,0 0,0 0,0 0,0 -1,0 -1,0 0,0 0,0 0,0l0 0c0,0 0,0 0,0 0,0 0,0 0,0 0,0 0,1 0,1l0 -1c0,0 0,0 0,0 0,0 0,0 0,0 0,0 0,0 0,0l0 0c1,0 0,0 1,0 0,0 0,0 0,0l1 0c0,0 0,0 0,0 0,0 0,0 0,0l0 0c0,0 0,0 1,0l0 0 0 0c1,0 1,0 1,0l0 0c1,0 1,0 1,0 0,0 0,0 0,0 0,0 1,0 1,0 0,0 1,0 1,0l0 0c1,0 1,0 1,0 0,0 0,0 1,0 0,0 1,0 1,0 0,0 0,0 1,0 1,0 0,0 1,0 0,0 1,0 1,0 1,0 1,0 1,0 0,0 0,0 1,0 0,0 0,0 0,0l0 0c1,0 2,0 2,0 0,0 0,0 0,0 0,0 0,0 0,0l1 0c0,-1 0,-2 0,-2l0 0c-1,0 -1,0 -1,0 0,0 -1,0 -1,0 0,0 0,0 0,0 -1,0 -1,0 -1,0 -1,0 -1,0 -1,0l-1 0 1 0c0,0 0,0 0,0 1,0 0,0 1,0 0,0 0,1 1,0z"/>
    <path class="fil42" d="M15 56c1,0 1,1 1,1 1,0 1,-1 1,0 0,0 0,0 -1,0 0,0 0,0 0,0 0,0 0,0 -1,-1 0,0 0,0 0,0zm-5 0l0 1c0,0 0,0 0,0 0,0 0,0 1,0 0,0 0,0 1,0l1 0c1,0 1,0 1,0 -1,0 -1,0 -1,0 -1,0 -1,0 -1,0 0,0 0,0 1,0 0,0 0,0 1,0 0,0 0,0 1,0 0,0 0,0 0,0 1,0 0,0 1,0l-2 0c1,0 1,0 2,0 0,0 0,0 1,0 0,0 0,0 0,0 1,0 1,0 2,0l4 0c1,0 1,0 2,0l0 0c0,0 0,0 -1,0 0,0 0,0 0,0 -1,0 -2,0 -3,0 -1,0 -2,0 -3,0 -1,0 0,0 -1,0 1,-1 1,-1 1,-1l0 0c1,0 0,0 1,0 -1,1 -1,0 -1,0 0,1 0,0 1,1 0,-1 0,-1 0,-1 -1,0 -2,0 -2,0 -1,0 0,0 -1,0 0,0 -3,0 -3,0 -1,0 -2,0 -2,0 -1,0 0,0 -1,0 0,0 0,0 0,0z"/>
    <path class="fil42" d="M22 47l0 0c0,1 0,1 -1,0l0 0c0,0 0,0 0,0 0,0 0,0 0,0 0,0 0,0 0,0 -1,0 -1,0 -1,0 -1,0 -2,1 -2,0 -1,0 -1,1 -2,0 0,0 0,1 -1,1 0,0 0,0 0,0 0,0 0,0 0,0 -1,0 -1,0 -1,0 0,0 0,0 0,0l-1 0c0,0 0,0 0,0 1,0 3,0 4,0 1,0 0,0 0,0 1,0 1,0 2,0l3 0c0,0 0,0 1,0l3 0c1,0 1,0 2,0 0,1 0,0 0,1 0,-1 0,-1 0,-2 0,0 0,0 0,0l0 0 0 0c0,0 0,0 0,0 -1,0 -1,0 -2,0 0,0 0,0 0,0 -1,0 -1,0 -1,0 0,1 1,1 1,1l0 -1 0 0c1,0 0,0 1,0 0,0 0,0 0,0 0,1 0,1 -1,1 -1,0 -2,0 -3,0 0,0 0,0 -1,0 0,0 -1,0 -1,0l0 -1c0,1 1,1 1,1 0,0 0,0 0,0 0,-1 0,0 0,-1 0,0 0,0 0,0z"/>
    <path class="fil42" d="M19 54l0 0c0,0 0,0 0,0 0,0 0,0 0,0 0,0 -1,0 -1,0 0,0 0,0 0,0 0,0 0,0 0,0 0,0 0,0 1,0 0,0 0,0 0,0zm-6 0c0,0 0,0 0,0 0,0 0,0 1,0 0,0 0,0 0,0 1,0 0,0 0,0l1 0c0,0 0,0 0,1l0 0c0,-1 0,-1 0,-1 1,0 0,1 1,0l0 0c1,0 1,0 1,0 0,0 0,0 0,0 0,0 0,0 0,0 1,0 0,0 0,0 1,0 1,0 1,0 0,0 1,0 1,0 1,0 0,0 1,0 0,0 0,0 0,0l0 0c0,0 0,0 0,0 0,0 0,0 0,0 0,0 0,0 1,0 0,0 0,0 0,0 0,0 0,0 0,0 0,0 0,0 0,-1l1 1c-1,0 -1,0 -1,0 1,0 1,0 1,0 -1,0 0,0 -1,0 1,0 1,0 1,0l0 0c1,0 1,0 1,0 0,0 0,0 0,0 1,0 1,0 2,0 0,0 0,0 0,0l0 0c0,0 0,0 0,0 0,-1 0,0 0,0 1,0 0,0 1,0l0 0 0 0c0,0 1,0 1,0l0 0 0 0c0,0 0,0 1,0 0,1 0,1 0,1 0,0 0,0 0,0 0,0 0,-1 0,-1 -1,0 -1,0 -1,0 0,0 0,0 -1,0 0,0 0,0 0,0l0 0c0,-1 -1,0 -1,-1 -1,1 -1,0 -1,1l0 0c0,0 -1,0 -1,0l0 0c-1,0 0,0 -2,-1 0,0 0,0 0,0 -1,1 -1,1 -1,0 -1,0 -1,1 -1,1 -1,0 -1,0 -1,0 0,0 0,0 0,-1 -1,1 0,0 -1,1 0,0 0,0 0,0 -1,-1 -1,0 -1,0 -1,0 0,0 -2,0 0,0 0,0 0,0 0,0 0,0 0,0 0,0 0,0 -1,0 0,0 0,0 0,0z"/>
    <path class="fil42" d="M13 41c0,1 -2,0 -2,0l0 0 0 0 0 0 0 1 0 0 0 0c1,0 1,0 1,0l0 0 2 0c1,0 1,0 1,0 0,0 0,-1 1,-1 0,1 0,0 0,1 0,0 -1,0 -1,0l0 0c1,0 3,0 3,0 1,0 1,0 1,0l2 0c0,0 0,0 0,0 0,0 -1,0 -1,0 0,0 0,0 -1,0 0,0 0,0 0,0 0,0 0,0 -1,0 1,-1 1,0 2,-1 -1,0 -2,0 -2,0 0,0 0,0 -1,0 0,0 0,0 -1,0 0,0 0,0 0,0 -1,0 -1,0 -1,0 -1,0 0,0 -1,0 0,0 0,0 -1,0z"/>
    <path class="fil42" d="M29 56c0,1 0,2 0,4 0,1 0,1 0,2 0,0 0,2 0,2l0 1c0,0 0,0 0,-1 0,0 0,0 0,0 0,0 0,-1 0,-1 0,0 0,0 0,0 0,-1 0,-1 0,-1 0,0 0,0 0,0 0,0 0,0 0,1 0,0 0,0 0,0 1,0 0,0 1,0l0 0c0,0 0,0 0,0 0,0 0,0 0,-1 0,0 -1,0 0,0l-1 -1c0,0 0,0 0,0l1 0c0,0 0,0 0,0 0,0 0,0 0,0 0,0 0,0 0,0 0,0 0,0 -1,-1 0,0 1,0 0,0 0,-1 0,-1 1,-1 0,1 0,0 0,1 0,-1 0,-1 0,-1 -1,0 0,0 -1,0 0,-1 0,-1 0,-1l0 0c0,0 1,0 0,0l1 0 0 -1c0,0 0,0 0,0l-1 0c0,-1 0,-1 0,-1 0,-1 1,-1 1,-1 -1,0 -1,-1 -1,-1 0,0 0,0 0,0l0 2c0,0 0,0 0,0z"/>
    <path class="fil42" d="M12 34l0 1 0 0c0,0 0,0 0,0 0,0 1,0 1,0 1,0 1,0 2,0l-1 0c0,0 0,0 0,-1l1 0c0,0 0,0 0,0 0,1 0,1 0,1 0,0 0,0 0,-1 1,1 1,0 1,0 0,0 0,0 0,1 0,0 0,0 0,0 1,0 1,0 1,-1 0,1 0,1 0,0l0 0c0,0 1,0 1,0 0,0 0,0 1,0 0,0 0,0 1,0 0,0 0,0 0,0l1 0c1,0 1,0 1,0 -1,0 -1,0 -2,0 0,0 -1,0 -1,0l0 0c0,0 0,0 0,0 -1,0 -1,0 -2,0 -1,0 -1,0 -2,0l0 0c0,0 -2,0 -2,0 0,1 0,0 0,1l-1 0c0,0 0,0 0,0 0,0 0,-1 0,-1z"/>
    <path class="fil42" d="M26 41c0,0 0,0 0,0l0 0c0,0 0,0 0,0 -1,0 0,0 -1,0 0,0 0,0 0,0 0,0 -1,0 -2,0 0,0 0,0 0,0 0,0 0,0 0,0 -1,0 -1,0 -1,0l-1 0c-1,0 0,0 0,0 0,0 1,0 2,0l0 0c1,0 1,0 1,0 1,0 1,0 1,0 0,1 0,1 0,1 -1,0 -2,0 -3,0 0,0 0,0 0,0 1,0 1,0 2,0 0,0 0,0 1,0 0,0 0,0 1,0 -1,0 -1,0 -1,0 0,0 0,-1 0,-1l0 0c1,0 1,0 1,0z"/>
    <path class="fil42" d="M26 35c1,0 2,0 2,0l0 0 0 0 -1 0 0 0c0,0 0,0 -1,0 0,-1 0,-1 1,-1 -1,0 -1,0 -1,0 1,0 1,0 1,0 0,0 0,0 0,0l0 0c0,0 0,0 0,0 0,0 0,0 0,0l1 0c0,0 0,0 0,0 0,0 0,0 0,0l0 0c0,0 0,0 -1,0 0,0 -1,0 -1,0 0,0 -1,0 -1,0 0,0 0,0 0,0 0,0 0,0 0,0 0,0 0,0 0,0 0,0 0,0 1,0 0,0 0,0 -1,0 0,1 0,0 -1,0 1,0 1,1 1,1 0,0 0,0 1,0 0,0 1,0 1,0 0,0 -1,0 -1,0z"/>
    <path class="fil42" d="M13 40c0,0 0,0 0,0l0 0c-1,0 0,0 0,0 0,0 0,0 0,-1 1,0 1,0 2,0 -1,0 -2,0 -2,0 -1,0 0,0 -1,0 -1,0 -1,0 -1,0l0 0c0,0 0,0 0,0 0,1 0,1 0,0l0 1c0,0 2,0 2,0z"/>
    <path class="fil42" d="M19 46c0,0 0,0 0,0 -1,0 -1,-1 -1,-1 0,0 0,0 0,0 -1,0 0,0 0,1 0,0 0,0 0,0 0,0 0,0 0,0 0,0 2,0 2,0 0,0 0,0 0,0l0 0c0,0 -1,0 -1,0l0 0c0,0 0,0 0,-1l0 0 0 1z"/>
    <path class="fil42" d="M11 46c1,0 1,0 2,0 0,0 0,0 0,0 0,0 0,0 0,0 -1,0 -2,0 -2,0 0,0 -1,0 0,0l0 0z"/>
    <path class="fil42" d="M23 30c0,1 0,0 1,0 0,1 0,1 0,0 0,0 0,0 0,0 0,0 -1,0 -1,0z"/>
    <path class="fil42" d="M15 37l0 0c0,0 0,0 0,0l0 0c0,0 0,0 0,0z"/>
    <path class="fil42" d="M12 55c1,0 0,0 1,0l0 0c0,0 0,0 0,0 0,0 0,0 0,0 0,0 0,0 -1,0z"/>
    <path class="fil42" d="M11 38c0,0 0,0 0,0l0 0 0 0 0 0 0 0z"/>
   </g>
   <g>
    <path class="fil43" d="M11 9l0 0c0,0 0,1 0,0 1,0 0,0 1,0l0 0c0,0 0,0 1,0l0 0c1,-1 1,-1 1,0 0,0 0,0 0,0 1,0 1,0 1,0 0,0 0,0 0,0 0,0 0,0 1,0 0,0 0,0 0,0l0 0 1 0 0 0c0,0 0,0 0,0l0 0c0,0 0,0 0,0 1,0 0,0 1,0 1,0 1,0 1,0 0,0 0,0 1,0l0 0c0,0 2,0 3,0 0,0 -1,0 0,0l0 0c1,0 1,0 2,0 0,0 0,0 0,0 1,1 0,1 1,1 0,0 0,0 0,0 0,-1 0,0 0,0 1,0 0,0 0,0 0,0 0,0 1,0 0,0 0,-1 0,0 0,0 0,0 1,0 0,0 0,0 0,0 0,0 0,0 -1,0l0 0c1,0 1,1 1,1l0 0 0 1 -1 0c0,0 -1,0 -2,0 1,0 1,0 1,0 0,0 0,0 1,0 0,0 1,0 1,0 0,0 0,0 0,-1 0,-1 0,-1 0,-1 -1,-1 0,-1 -1,-1l0 0c0,0 0,0 0,0l-1 0c0,0 0,0 0,0 -1,0 -1,0 -1,0l0 0c0,0 -1,0 -1,0 0,0 0,0 0,0 0,0 0,-1 -1,0 0,0 0,0 0,0l0 0c-1,0 0,0 -1,0 0,0 0,0 0,0l-1 0c0,0 0,0 0,0l-1 -1c0,1 0,0 0,0 -1,0 0,1 -1,1 0,-1 0,-1 0,-1 -1,0 -1,0 -1,0l0 1c0,-1 0,-1 -1,-1 0,0 0,0 -1,0l0 0c0,0 0,0 0,0 -1,0 -1,0 -1,0l0 0c-1,0 -1,0 -1,0 0,0 0,0 0,0 -1,0 -1,0 -2,0l0 1c0,-1 0,-1 0,-1 0,0 0,0 0,0 -1,1 0,1 -1,1 0,0 0,0 0,0z"/>
    <path class="fil43" d="M11 21l0 0 0 0 0 0 0 0 1 0 0 0 7 0c0,-1 0,0 0,-1 0,0 0,0 0,0l0 0 -2 0c0,1 0,0 0,0 0,0 0,0 -1,0 0,0 0,0 0,0 -2,0 -3,0 -4,0l0 0c0,0 0,0 1,0l-1 0c0,0 0,0 0,0l-1 0 0 0 1 0c0,0 -1,0 -1,1 0,0 0,0 0,0z"/>
    <path class="fil43" d="M28 21l0 1c0,0 0,0 0,0 0,0 0,0 0,0 0,0 0,0 0,0l0 0 0 0 -1 0 0 1 0 0 0 0 1 0 0 -1c0,0 0,0 0,0 0,0 0,0 0,-1 0,0 0,0 0,0 0,0 0,0 0,0 0,0 0,0 0,0z"/>
   </g>
   <g>
    <path class="fil44" d="M14 18c0,0 0,0 1,0 0,0 1,0 2,0 0,0 0,0 -1,0 0,0 -1,1 -2,0 0,0 0,0 0,0zm6 0c0,0 0,0 0,0 0,0 1,0 1,0 0,0 0,0 0,0 0,0 0,0 0,0 0,0 0,0 0,0 -1,0 0,0 -1,0l0 0zm-9 0c0,0 1,0 1,0 0,0 0,0 1,0l1 0c0,0 0,0 0,0 0,0 0,0 0,0 0,0 -1,0 -2,0 1,0 0,0 1,0l0 0 1 1c0,0 4,-1 5,-1l3 0c1,0 0,0 1,0 0,0 0,0 0,1 1,-1 1,-1 1,-1 1,0 1,0 1,0 0,0 -1,0 -1,0 0,0 -1,0 0,0 1,0 1,0 1,0 1,0 1,0 2,0 0,0 -1,0 0,0 0,-1 -1,0 -1,0 0,0 0,0 0,0 0,0 0,0 0,0l-8 0 0 0 0 0 0 0c-1,0 0,0 -1,0 0,0 0,0 0,0 -1,0 0,0 0,0 0,0 0,0 0,0 0,0 0,0 -1,0 0,0 0,0 -1,0l0 0c0,0 0,0 -1,0l-3 0z"/>
    <path class="fil44" d="M12 16c0,0 0,0 0,0 0,0 0,0 0,0 0,0 0,0 0,0 0,0 0,0 1,0 0,0 -1,0 1,0 1,0 1,0 1,0 0,0 1,0 1,0 0,0 0,0 0,0l1 0c0,0 0,0 0,0l-2 0c-1,0 -1,0 -1,0l0 0c0,0 0,0 0,0 0,0 0,0 0,0l-2 0z"/>
    <path class="fil44" d="M13 22c0,0 0,0 0,0 1,0 1,0 1,0 0,0 0,0 0,0l0 0c1,0 1,0 1,0 1,0 1,0 1,0l0 0c0,0 0,0 0,0l0 0c0,0 0,0 0,0 0,0 0,0 0,0 0,0 0,0 0,0 0,0 0,0 0,0l-4 0c0,0 0,0 0,0 0,0 1,0 2,0 -1,0 0,0 -1,0z"/>
    <path class="fil44" d="M24 16l0 0 0 0 1 0c0,0 0,0 1,0 0,0 0,0 0,0 0,0 1,0 1,0 0,0 0,0 0,0l0 0c0,0 0,0 0,0 0,0 -1,0 -1,0l0 0 0 0c-1,0 0,0 -1,0 0,0 0,0 0,0 -1,-1 -1,0 -1,0 0,0 1,0 1,0l0 0c-1,0 0,0 -1,0z"/>
    <path class="fil44" d="M27 38c0,0 1,0 1,0l0 0 0 0c0,0 0,-1 0,-1 0,0 0,0 0,0l0 0 -2 0c1,0 0,0 1,0l0 1z"/>
    <path class="fil44" d="M20 50l0 0c1,0 1,0 2,0l4 0c0,0 -1,0 -2,0 0,0 0,0 -1,0 -1,0 -2,0 -3,0l0 0z"/>
   </g>
   <g>
    <path class="fil45" d="M28 42c0,1 0,1 0,1 0,1 0,1 0,2l0 0 0 2c0,0 0,0 0,0 0,1 0,1 0,2 0,0 0,0 0,0l0 2 0 0 0 0 0 3c0,0 0,1 0,2 0,0 0,2 0,3 0,1 0,1 0,1 0,1 0,1 0,2 0,0 0,0 0,0 0,0 0,0 -1,0l0 0c0,0 1,0 0,0l0 -1c0,0 0,0 0,0l-1 0c0,0 0,0 0,0l0 0c0,-1 0,0 0,-1l-1 1c0,0 -1,0 -1,-1 0,0 0,0 0,0 0,0 0,0 0,0 0,0 0,0 0,0 0,0 0,0 -1,0l0 0c0,0 0,0 0,0 0,0 0,0 0,0 0,0 0,0 0,0l-1 0 0 0c0,0 0,0 0,0 0,0 -1,0 -1,0 0,0 0,0 0,0l0 0c0,0 0,0 -1,0 0,0 0,0 0,0 -1,0 -1,0 -1,0l0 0c0,0 0,0 -1,0l0 0c0,0 0,0 0,0 0,0 0,0 0,0 0,0 -1,0 -1,0l0 0 0 0 0 0c0,0 0,0 -1,0 -1,0 0,1 -1,0 0,0 0,1 -1,0 0,0 0,0 0,0l-1 0c0,0 0,1 0,1 0,-1 0,-1 0,-1 0,0 0,0 0,0 0,0 0,0 -1,0 0,0 0,0 0,0l0 0c0,0 0,0 0,0 0,0 0,0 0,0 0,1 0,1 -1,1 1,-1 1,-1 1,-1 0,0 -1,0 -1,0 0,0 0,0 0,0 0,0 0,0 -1,0l0 0c0,0 0,0 0,0l0 1 0 -1c0,1 0,1 0,1 0,0 0,0 0,0 0,1 0,1 0,1 0,-1 0,0 0,-1 0,0 0,0 0,0 0,0 0,1 0,1l0 1c0,0 0,0 0,0l0 -1c0,0 0,0 0,0l0 0c0,0 0,0 0,0 0,-1 0,-1 0,-1l1 0c0,0 0,0 0,1 0,-1 0,-1 0,-1l0 0 0 0 0 0c0,0 1,0 1,0 0,0 0,0 0,0 0,0 0,0 0,0 1,0 0,0 1,0 0,0 -1,0 0,0l0 0c0,0 1,0 1,0 0,0 0,0 0,0 0,0 0,0 1,0 0,0 0,0 1,0l0 0c0,0 0,0 0,0 0,0 0,0 0,0 1,0 0,0 1,0l0 0 1 0c0,0 0,0 0,0l0 0c0,0 0,0 0,0 0,0 0,0 0,0 1,0 1,0 1,0 0,0 0,0 0,0 0,0 0,0 0,0l0 0c0,0 0,0 0,0l0 0c1,0 1,0 1,0 0,0 0,0 1,0l0 0 0 0c0,0 0,0 0,0l0 0c0,0 0,0 0,0 0,-1 0,0 0,0 1,0 0,0 0,0 1,0 1,0 1,0 0,0 0,0 0,0 0,0 0,0 1,0 0,0 0,0 0,0l0 0c1,0 1,0 1,0 1,0 0,0 1,0l0 0c0,0 0,0 0,0 0,0 0,0 0,0 0,0 0,0 0,0l0 1c0,0 0,0 0,0 0,0 1,0 1,0 0,0 0,0 0,0 0,0 0,0 0,0 1,0 0,0 1,0l0 0c0,0 0,0 0,0 0,1 0,1 0,1l1 0c0,-1 0,-1 0,-1l0 0c0,0 0,-1 0,-1 0,-3 0,-4 0,-6 0,-1 0,-1 0,-2 0,0 0,-1 0,-1 0,0 0,-2 0,-3 0,0 0,-1 0,-1 0,-1 0,-2 0,-3 0,-1 0,-1 0,-2 0,0 0,-1 0,-1 0,0 0,0 0,0 0,0 0,0 0,0z"/>
    <path class="fil45" d="M28 26c0,0 0,0 -1,0 0,0 0,0 1,0 0,0 -1,0 0,0 0,0 0,0 0,0 0,1 0,0 -1,0 0,0 0,0 -1,0l-1 1c0,0 0,-1 0,0l3 0c0,-1 0,-1 0,-1 0,0 0,-1 0,-1 0,0 1,0 0,0 0,0 0,0 0,1z"/>
    <path class="fil45" d="M11 19l2 0 1 0 -1 -1 -1 0c0,0 0,0 0,0 0,0 -1,0 -1,0l0 0c0,0 0,0 0,0 0,0 0,0 0,0l0 1z"/>
    <path class="fil45" d="M27 18l1 0 0 -1c0,0 0,0 0,0l0 1c0,0 0,-1 0,0l-1 0c0,0 0,0 0,0z"/>
   </g>
   <g>
    <path class="fil46" d="M20 46c0,0 -2,0 -2,0 0,0 0,0 0,0 0,0 0,0 0,0 0,-1 -1,-1 0,-1 0,0 0,0 0,0 0,0 0,1 1,1 0,0 0,0 0,0l0 -1 0 0c0,1 0,1 0,1l0 0c0,0 1,0 1,0l0 0c0,0 0,0 0,0zm3 -3c0,0 0,0 0,0 0,0 0,0 0,0 0,0 0,0 0,0zm1 -5c0,0 1,0 1,0 1,0 1,0 1,0 0,0 1,0 2,0 -1,0 -1,0 -1,0l0 1 0 -1 -1 1 0 -1c0,0 0,0 0,0 0,0 0,0 0,1 -1,-1 0,-1 -1,-1 0,0 0,0 0,0l-1 0zm-9 -1c0,0 0,0 0,0l0 0c0,0 0,0 0,0l0 0zm-1 0c0,0 0,0 0,0 0,0 0,0 0,0zm2 -4l-4 0 0 0c0,0 0,0 0,1 0,0 0,0 0,0l0 0 0 0 0 0 0 0c0,0 0,1 0,1 0,0 0,0 0,0l1 0c0,-1 0,0 0,-1 0,0 2,0 2,0l0 0c1,0 1,0 2,0 1,0 1,0 2,0 0,0 0,0 0,0l0 0c0,0 1,0 1,0 1,0 1,0 2,0 0,0 0,0 -1,0l-1 0c0,0 0,0 0,0 -1,0 -1,0 -1,0 -1,0 -1,0 -1,0 0,0 -1,0 -1,0l0 0c0,1 0,1 0,0 0,1 0,1 -1,1 0,0 0,0 0,0 0,-1 0,-1 0,-1 0,0 0,1 -1,0 0,1 0,1 0,1 0,0 0,0 0,-1 0,0 0,0 0,0l-1 0c0,1 0,1 0,1l1 0c-1,0 -1,0 -2,0 0,0 -1,0 -1,0 -1,0 0,0 -1,0 1,0 1,0 1,0l0 0c1,0 1,0 2,0 0,0 1,0 1,0l2 0c0,0 0,0 0,0 0,1 0,1 0,1 0,0 0,-1 -1,0 1,0 2,0 2,-1l0 0c0,0 0,0 1,0 1,0 5,0 5,0 0,0 0,0 0,0 -1,0 0,0 -1,0 -1,0 -3,0 -3,0 0,0 0,0 -1,0 0,0 0,0 0,0 0,1 0,1 1,1 0,0 0,0 1,0l2 0c0,0 0,0 0,0 0,0 -3,0 -4,0 0,0 -3,0 -3,0 0,-1 0,0 0,0 0,0 0,0 -1,-1 0,1 0,1 0,1l0 0c0,0 0,0 -1,0 0,0 0,0 -1,0 0,0 -1,0 -2,0 0,0 0,0 0,1l0 0 2 0 1 0c-1,0 -1,1 -1,1 0,0 0,0 0,0 1,0 1,0 1,0l-1 0 -2 0 0 0 0 0 0 0c0,0 0,0 0,0l0 1 0 0c0,0 0,0 1,0 1,0 0,0 1,0 0,0 1,0 2,0 -1,0 -1,0 -2,0 0,1 0,1 0,1 0,0 -1,0 0,0l0 0c0,0 0,0 0,0l-2 0 0 0 0 0c0,1 0,1 0,1l0 0 0 0 0 0 2 0c1,0 1,0 1,0 1,0 0,0 1,0 0,0 0,0 1,0 0,0 0,0 0,0 1,0 1,0 1,0 1,0 1,0 1,0 0,0 1,0 2,0 -1,1 -1,0 -2,1 1,0 1,0 1,0 0,0 0,0 0,0 1,0 1,0 1,0 0,0 1,0 1,0 0,0 0,0 0,0l-2 0c0,0 0,0 -1,0 0,0 -2,0 -3,0l0 0c0,0 1,0 1,0 0,-1 0,0 0,-1 -1,0 -1,1 -1,1 0,0 0,0 -1,0l-2 0 0 0c0,0 0,0 -1,0l0 0 0 0 0 0c0,1 -1,1 0,1 1,0 1,0 2,0 0,0 1,0 1,0 1,0 0,0 1,0 0,1 0,0 0,1 0,0 0,0 0,0 1,0 0,0 1,0l0 0c0,0 0,0 0,0l0 -1 1 0c0,1 0,0 -1,1 0,0 0,0 1,0 0,0 0,0 0,-1l1 0c0,1 0,0 0,1l1 0c0,0 0,0 0,-1l0 0 1 1c-1,0 -1,0 -1,0 1,0 2,0 2,0 0,0 0,0 0,0 -1,0 -1,0 -2,0 -1,0 -1,0 -2,0l-4 0c0,0 0,0 0,0 0,0 0,0 0,0 -1,0 0,0 -1,0 0,0 0,0 -1,0 0,0 0,0 0,0 0,0 0,0 0,0 -1,0 -1,1 -1,1 1,0 1,1 2,0 0,0 1,0 1,1 1,0 1,-1 2,-1 0,1 0,1 -1,1 0,0 0,0 0,0l1 0 0 0c0,0 0,0 0,-1 0,1 2,0 2,0 0,1 0,1 -1,1 0,0 0,0 0,0 0,0 0,-1 0,0 0,0 0,0 0,0 1,0 1,0 1,0 0,0 1,0 0,0l-2 0c-1,0 -1,0 -1,0 -1,0 -1,0 -1,0 0,0 0,0 0,0 -1,0 -1,0 -2,0 0,0 0,0 0,0 -1,0 -1,0 -1,0 0,1 0,1 0,1l0 0 1 1 1 0c0,-1 0,0 1,0 0,0 1,0 1,0 0,0 0,0 1,0 0,0 0,0 0,0 0,0 0,0 0,0 1,0 1,-1 1,-1 1,1 1,0 2,0 0,1 1,0 2,0 0,0 0,0 1,0 0,0 0,0 0,0 0,0 0,0 0,0 0,0 0,0 0,0l1 0c0,0 0,0 0,0 0,1 0,0 0,1 0,0 0,0 0,0 0,0 -1,0 -1,-1l0 1c0,0 1,0 1,0 1,0 1,0 1,0 1,0 2,0 3,0 1,0 1,0 1,-1 0,0 0,0 0,0 -1,0 0,0 -1,0l0 0 0 1c0,0 -1,0 -1,-1 0,0 0,0 1,0 0,0 0,0 0,0 1,0 1,0 2,0 0,0 0,0 0,0l0 0 0 -1c-1,0 -2,0 -3,0l-4 0c0,0 0,0 0,0l3 0c1,0 1,0 1,0 1,0 1,0 1,0 1,0 1,0 1,0 0,0 0,0 0,-1 -1,0 -1,0 -1,0 0,0 0,0 0,0 0,0 0,0 0,0l0 0c0,0 0,0 0,0 1,0 1,0 2,0 0,0 0,0 0,0l0 0 0 -1 -1 0 0 0c-1,0 -1,0 -2,0 -1,0 -2,0 -3,0 -1,0 0,0 -1,0 1,0 2,0 2,0 1,0 2,0 2,0 1,-1 0,0 0,-1 1,0 1,0 1,0 1,0 1,0 2,0 0,0 0,0 0,0 0,0 0,0 0,0 0,0 0,0 0,-1 0,0 0,0 0,0 0,0 0,0 0,0 0,0 0,0 0,0 -1,0 -1,0 -2,0 0,-1 0,0 0,-1 0,0 0,0 -1,0l0 0c0,0 0,1 0,1 0,0 0,0 1,0 -1,0 -1,0 -1,0 -1,0 -1,0 -1,0 -1,0 -1,0 -2,0 0,0 0,0 0,0 1,0 2,0 3,0 0,0 0,0 0,-1 0,0 0,0 -1,0 0,0 0,0 -1,0l0 0c-1,0 -2,0 -2,0 0,0 -1,0 0,0l1 0c0,0 0,0 1,0 0,0 0,0 0,0 0,0 0,0 0,0 1,0 2,0 2,0 0,0 0,0 0,0 1,0 0,0 1,0 0,0 0,0 0,0 1,0 1,0 2,0 0,0 0,0 0,0l0 0c0,0 0,0 0,-1 0,0 0,0 0,0 0,0 0,0 0,0 0,0 -1,0 -2,0 0,0 -1,0 -1,0 -1,0 -2,0 -3,0l-2 0c-2,0 -1,0 -2,0 -1,0 -2,0 -2,0 0,0 -1,0 -1,0 0,0 0,0 0,0 0,0 0,0 0,0 0,0 0,0 1,0l0 -1c0,0 0,0 0,1 0,-1 0,0 0,-1l2 0 1 0 -1 1c0,0 0,0 0,0 1,0 1,0 3,0 0,0 0,0 0,0 0,0 1,0 1,0 0,0 4,0 4,-1 0,0 0,0 -1,0 1,0 1,0 2,0l1 0c0,0 0,0 0,-1l0 0c0,0 0,0 0,0 0,0 -1,0 -1,0 -1,0 -1,0 -2,0 -1,0 -1,0 -2,0l-4 0c0,0 0,0 -1,0l-3 0c0,0 0,0 0,0 0,0 0,0 0,0 1,0 1,0 1,0 0,0 0,-1 0,-1 0,0 1,0 2,0l0 0c0,0 2,0 3,0l0 0c0,0 0,0 0,0l-1 0c0,1 0,1 0,1l1 0c1,-1 3,0 3,0 1,-1 1,-1 1,-1 -1,0 -1,0 -1,0 0,0 -1,0 -1,0 0,0 0,0 0,0l2 0 2 0 0 0c1,0 0,0 1,0l0 0c0,0 0,-1 0,-1 0,0 0,0 0,0l-1 0c0,0 -3,0 -3,0l2 -1c0,0 -1,1 -1,0 0,0 1,0 1,0 0,0 1,0 1,0 0,0 -1,0 -1,0 -1,0 -1,0 -1,0 0,0 0,-1 -1,-1 1,0 1,1 1,0 1,0 1,0 1,0 -1,0 -1,0 -1,0 0,0 0,0 0,0 0,0 0,0 0,0 0,0 0,0 0,0 0,0 1,0 1,0 0,0 1,0 1,0 1,0 1,0 1,0l0 0 0 -1c0,0 -5,0 -6,0l-6 0z"/>
    <path class="fil46" d="M16 49c1,0 1,0 1,0l-1 0c0,0 0,0 0,0l0 0zm1 -1c0,0 0,0 0,0 0,0 0,0 -1,0 0,0 0,0 -1,0 -1,0 -1,0 -2,0l0 0c0,0 0,0 0,0 0,0 -1,1 -1,1 0,0 0,0 0,0l0 0c-1,0 0,0 -1,0 0,0 0,-1 0,0l-1 0 0 0c0,1 1,1 1,1l1 0 2 0 0 0c0,0 0,0 0,0 1,-1 1,0 1,0 1,0 1,0 1,0l0 0c1,-1 1,0 3,0 1,-1 3,0 4,-1l0 0c0,0 0,0 0,0 0,0 1,0 1,0 0,0 0,0 0,0 0,0 0,0 0,0l0 1c0,0 1,-1 1,-1 0,1 0,0 0,1 0,0 0,0 0,0 0,0 0,0 -1,0 0,0 -1,0 -2,0 0,0 0,0 -1,0 1,0 0,0 1,0 1,0 2,0 3,0 0,0 0,0 0,0l1 0c1,0 1,0 1,0 -1,0 -1,0 -1,0 0,0 0,0 -1,0l0 -1c1,0 1,1 2,0 0,0 1,0 1,0 0,0 0,0 0,0 0,-1 0,0 0,-1 -1,0 -1,0 -2,0l-3 0c-1,0 -1,0 -1,0l-3 0c-1,0 -1,0 -2,0z"/>
    <path class="fil46" d="M12 12c0,0 0,0 -1,0 0,0 0,0 0,1l0 0c0,0 0,0 0,0 0,0 0,0 1,0 0,0 0,0 1,0l1 0 4 0c0,0 0,0 0,0 1,0 1,0 1,0l2 0 2 0 3 0 1 0 1 0c0,0 0,0 0,0l0 -1 0 0c-1,0 -3,0 -4,0 -1,0 -1,0 -2,0 -1,0 -9,0 -10,0z"/>
    <path class="fil46" d="M14 19l-1 0c0,0 -1,0 -1,0 -1,0 -1,0 -1,0l0 0 0 1 1 0c0,0 1,0 1,0 1,0 2,0 3,0 0,0 0,0 0,0 0,0 0,0 0,0 0,0 1,0 1,0 0,0 0,0 1,0 0,0 0,0 0,0l9 0c1,0 1,0 1,-1l0 0 0 -1 0 0 -1 0 -2 0c0,0 0,0 -1,0 0,0 0,0 -1,1 0,-1 0,-1 0,-1 -1,0 0,0 -1,0l-3 0c-1,0 -5,1 -5,1z"/>
    <path class="fil46" d="M16 14l-2 0 -1 0c0,0 -1,1 -1,1 0,0 -1,0 -1,0 0,0 0,0 0,0l0 0c0,0 0,1 0,1 1,0 1,0 1,0l2 0c0,0 0,0 0,0 0,0 0,0 0,0l0 0c0,0 0,0 1,0l2 0 2 0 4 0 3 0 0 0c1,0 2,0 2,-1 0,0 0,0 0,0 0,0 0,0 0,-1 0,0 -1,0 -1,0 -1,0 -1,0 -2,0 -2,0 -2,0 -4,0 -1,0 -2,0 -2,0 0,0 0,0 -1,0l-2 0z"/>
    <path class="fil46" d="M19 29l-6 0 -1 0c0,0 0,0 0,0l0 0 0 0 0 0 0 1c0,0 0,0 0,0l0 0 0 0c0,0 0,0 0,0l1 0 0 0 2 0c1,0 1,0 2,0 0,0 1,0 1,0 1,0 0,0 1,0 1,0 1,0 2,0l3 0c1,0 0,0 1,0 1,0 0,0 1,0l2 0c0,0 0,0 0,0 0,0 0,0 0,0l0 -1 0 0c0,0 0,0 0,0l-3 0c0,0 -1,0 -2,0 0,0 0,0 -1,0 0,0 0,0 -1,0 0,0 -2,0 -2,0z"/>
    <path class="fil46" d="M12 17l-1 0c0,0 0,0 0,0 0,0 0,0 0,0l0 0 0 1 0 0 3 0c1,0 1,0 1,0l0 0c1,0 1,0 1,0 1,0 1,0 1,0l1 0 8 0c1,0 2,0 2,-1l0 0 0 0c0,0 0,0 0,0l0 -1c0,0 -1,0 -1,0 -1,0 -2,0 -2,0 -1,0 -1,0 -2,0 0,0 -1,0 -2,0l-9 1z"/>
    <path class="fil46" d="M18 31l-5 0 0 0 0 0c0,0 0,0 0,0 0,0 0,0 -1,0 0,0 0,0 0,0 0,0 0,0 0,0 0,1 0,0 0,1 0,0 0,0 0,0 0,0 0,0 0,0l0 0 3 0 1 0c0,0 1,0 1,0 0,0 1,0 1,0l1 0c2,0 3,0 5,0 1,0 3,0 4,0l0 0c0,0 0,-1 0,-1l0 0c-2,0 -9,0 -10,0z"/>
    <path class="fil46" d="M19 21l-7 0c0,0 0,0 0,0 0,0 0,0 0,0 0,0 0,0 -1,0l0 1c0,0 0,0 0,0l0 0 1 0 4 0 3 0c2,0 2,0 4,0l5 0c0,0 0,0 0,-1 0,0 0,0 0,0 0,0 0,0 0,0 0,0 0,0 0,0 0,0 0,0 0,0 -1,0 -1,0 -2,-1 0,0 -1,1 -1,0 0,0 -1,0 -1,0 0,1 0,1 -1,1l0 -1c-1,1 -1,1 -1,0 -1,0 -1,1 -1,1 -1,0 -1,-1 -1,0 -1,0 -1,0 -1,0z"/>
    <path class="fil46" d="M21 25c-1,0 -2,0 -3,0 -1,0 -2,0 -3,0 0,0 -2,0 -2,0 0,0 0,0 0,0l-1 0c0,0 0,0 0,1 0,0 1,0 2,0 1,0 1,0 2,0 2,0 3,0 5,0l0 0 4 0c1,0 3,0 3,0 0,-1 0,-1 0,-1l-1 0c-1,0 -1,0 -2,0 0,0 0,0 -1,0 -1,0 -1,0 -2,0 0,0 -1,0 -1,0z"/>
    <path class="fil46" d="M20 27c-2,0 -4,0 -6,0l-1 0c0,0 0,0 0,0l0 0c0,0 0,0 0,0 0,0 -1,0 -1,0l0 0c0,0 0,0 0,0 0,0 0,0 0,1 0,0 0,0 0,0l0 0 0 0 3 0 3 0c1,0 4,0 6,0l2 0c0,0 0,0 0,0 0,0 0,0 1,0l1 0c0,0 0,0 0,0l0 -1 0 0c0,0 0,0 0,0l0 0 0 0 0 0 -3 0c0,0 0,0 0,0 -1,0 0,0 -1,0 0,0 -2,0 -2,0l-2 0z"/>
    <path class="fil46" d="M12 23c0,0 0,0 0,0 0,0 0,0 0,0 -1,1 0,0 0,1l0 0 0 0 3 0c0,0 0,0 0,0 1,0 1,0 1,0l0 0c1,0 1,0 1,0 0,0 1,0 1,0l4 0 4 0 1 0 1 0 0 0 0 -1c0,0 0,0 -1,0l0 0 0 0c0,0 0,0 0,0 0,0 0,0 -1,0 0,0 0,0 0,0 0,0 -1,0 -1,0 -1,0 -1,0 -1,0 -1,0 -1,0 -1,0 -1,0 -1,0 -1,0 -2,0 0,-1 -2,0 -2,0 -3,0 -4,0 -1,0 -1,0 -2,0 0,0 -1,0 -2,0z"/>
    <path class="fil46" d="M24 52l0 1c-1,0 -4,0 -4,0 -1,0 -1,0 -1,0 -1,0 0,0 -1,0 0,0 0,0 -1,0 0,0 -1,0 -1,0 0,0 -1,0 -2,0 -1,0 -1,0 -1,0 0,0 0,0 0,0 0,0 0,0 0,0 -1,0 -1,0 -1,0 0,0 0,0 0,0l-2 0 0 1 0 0c0,0 0,0 1,0 0,0 0,0 0,0 1,0 1,0 1,0l0 0c0,0 0,0 0,0l1 0c0,0 0,0 0,0 1,0 1,0 1,0 0,0 0,0 0,0 0,0 0,0 0,0 2,0 1,0 2,0 0,0 0,-1 1,0 0,0 0,0 0,0 1,-1 0,0 1,-1 0,1 0,1 0,1 0,0 0,0 1,0 0,0 0,-1 1,-1 0,1 0,1 1,0 0,0 0,0 0,0 2,1 1,1 2,1l0 0c0,0 1,0 1,0l0 0c0,-1 0,0 1,-1 0,1 1,0 1,1l0 0c0,0 0,0 0,0 1,0 1,0 1,0 0,0 0,0 1,0 0,-1 0,-1 0,-2 -1,0 -1,0 -1,0 0,0 0,0 0,0 -1,0 -3,0 -3,0z"/>
    <path class="fil46" d="M27 54l0 1c0,0 -4,-1 -4,0 -1,0 -1,0 -1,0 -1,0 -1,0 -1,0 0,0 -1,0 -1,0 -1,0 -1,0 -1,0 -1,0 -1,0 -2,0 1,0 0,0 1,0 0,0 0,0 0,0 0,0 0,0 0,0 0,0 0,0 1,0 -1,0 -1,0 -2,0 -2,0 -7,1 -7,0l0 1c0,0 0,0 0,0 1,0 0,0 1,0 0,0 1,0 2,0 0,0 3,0 3,0 1,0 0,0 1,0 0,0 1,0 2,0 0,0 0,0 0,1 -1,-1 -1,0 -1,-1 0,0 0,1 1,0 -1,0 0,0 -1,0l0 0c0,0 0,0 -1,1 1,0 0,0 1,0 1,0 2,0 2,0 0,-1 0,0 -1,-1 0,0 0,0 0,0 0,0 0,0 0,0 0,0 1,0 1,0 0,0 0,0 0,0 0,0 0,0 0,0l1 0c0,0 0,0 0,0 0,0 -1,0 -1,0l3 0 0 0c0,0 0,0 1,0 0,0 0,0 1,0 0,0 0,0 1,0 0,0 0,0 0,0 0,0 1,0 1,0 0,0 0,0 1,0l0 0c0,0 0,-1 0,-1 0,0 0,0 0,0 0,0 0,0 0,-1 -1,0 -1,0 -1,0z"/>
    <path class="fil46" d="M11 11l0 0 0 0 0 0 0 0c1,0 1,0 2,0 1,0 1,0 2,0 1,0 1,0 2,0 0,0 0,0 1,0 0,0 2,0 2,0 1,0 2,0 2,0 1,0 1,0 1,0 0,0 1,0 1,0 0,0 1,0 1,0 1,0 0,0 1,0 0,0 0,0 0,0 1,0 1,0 1,0 1,0 1,0 1,0l-1 -1c0,0 -2,0 -3,0l-2 0c0,0 -7,0 -8,0l-1 1c-1,0 -2,-1 -2,0z"/>
    <path class="fil46" d="M15 56c0,0 0,0 0,0 1,1 1,1 1,1 0,0 0,0 0,0 1,0 1,0 1,0 0,-1 0,0 -1,0 0,0 0,-1 -1,-1z"/>
    <path class="fil46" d="M17 44c1,0 1,0 1,0 0,0 0,0 0,0 0,-1 0,-1 0,-1 0,1 -1,1 -1,1z"/>
    <path class="fil46" d="M27 50l1 0c0,0 0,0 0,0 -1,-1 -1,-1 -1,-1l0 1z"/>
   </g>
   <path class="fil47" d="M30 68c0,0 0,0 0,0 0,0 0,0 0,0 -1,0 0,0 0,0zm-1 -2l0 -2c0,0 0,0 0,0 1,2 1,0 1,2 0,0 0,0 0,-1l-1 1zm-17 -11c1,0 1,0 1,0 0,0 0,0 0,0 0,0 0,0 0,0l0 0c-1,0 0,0 -1,0zm18 -16c-1,0 0,0 -1,1 0,-1 0,-1 0,-1 0,0 0,0 0,0 1,0 0,0 1,0zm-4 -33l0 0 0 0c1,0 1,0 1,0 0,0 0,0 0,0 0,0 0,0 0,0 0,0 0,0 0,0l1 0c0,0 0,0 0,0l0 0c0,-1 1,-1 1,0l0 0 0 0c0,0 0,0 0,1l0 0c0,0 0,0 0,1 0,0 0,0 0,0 0,0 0,0 1,0 0,0 -1,0 -1,0l0 1c0,0 0,0 0,0l0 -1 0 0c0,0 0,0 0,0l0 0c0,1 0,3 0,3 0,0 0,0 0,0l0 0c0,0 0,0 0,0 0,0 0,0 0,0 0,-1 0,-1 0,-1l0 0c0,0 0,-1 0,-1 0,0 0,0 0,0l0 0 1 0c0,0 0,0 0,0l-1 2c0,0 0,1 0,1 0,0 1,0 0,0l0 0c0,1 0,0 0,1 0,0 0,0 0,0 0,0 0,0 0,0 0,0 0,0 0,1l0 0c0,1 0,0 1,1l-1 0c0,0 0,0 0,0 0,1 1,1 0,1 0,0 0,0 0,0 1,1 0,1 0,1 1,0 0,1 0,1 0,1 1,0 1,1 0,1 0,2 -1,3 1,0 1,0 1,0l0 0c0,0 0,1 0,1 0,0 0,0 0,1 0,0 0,0 0,0l0 0c-1,1 0,1 0,2 0,0 0,0 0,0 0,1 0,1 0,2 0,0 0,0 0,0 0,1 0,1 0,1 0,1 0,0 0,1 -1,0 0,0 -1,0 0,0 0,0 1,0 0,0 -1,0 -1,0l0 0 0 0c1,0 1,0 1,1 0,0 0,0 0,1 0,0 0,0 -1,0l0 0c1,0 1,0 1,0l0 1c-1,0 -1,0 -1,0l0 0 0 1 0 0c0,0 0,0 0,0 0,0 0,1 0,0 0,0 0,0 1,0l-1 0 0 0c0,-1 1,0 0,-1l1 1 -1 0 1 0c0,0 0,1 0,1l0 0c0,0 0,0 0,0 0,0 0,3 0,3 -1,0 0,0 -1,0 0,1 1,0 0,1 0,-1 0,-1 0,-1 0,0 0,0 0,0l0 2c0,0 0,0 0,0 1,0 1,0 1,1 0,-1 0,-1 -1,-1 0,1 0,1 0,1 0,0 0,0 0,0l0 -1c0,1 0,1 0,1 0,1 0,1 0,1 0,0 0,1 0,1 0,1 0,2 0,2 0,0 0,1 0,1l0 5c0,1 0,3 0,3 0,1 0,1 0,2 0,0 0,0 0,0l0 -2c0,0 0,0 0,0 0,0 0,1 1,1 0,0 -1,0 -1,1 0,0 0,0 0,1l1 0c0,0 0,0 0,0l0 1 -1 0c1,0 0,0 0,0l0 0c0,0 0,0 0,1 1,0 0,0 1,0 0,0 0,0 0,1 0,-1 0,0 0,-1 -1,0 -1,0 -1,1 1,0 0,0 0,0 1,1 1,1 1,1 0,0 0,0 0,0 0,0 0,0 0,0 0,0 0,0 0,0l-1 0c0,0 0,0 0,0l1 1c-1,0 0,0 0,0 0,1 0,1 0,1 0,0 0,0 0,0l0 0c-1,0 0,0 -1,0 0,0 0,0 0,0 0,-1 0,-1 0,-1 0,0 0,0 0,0 0,0 0,0 0,1 0,0 0,0 0,0 0,0 0,1 0,1 0,0 0,0 0,0 0,1 0,1 0,1l0 0c0,0 0,0 0,0 0,1 0,1 0,1 0,0 0,0 0,0 0,0 0,0 0,0 0,0 0,0 0,0 0,0 0,0 0,1 0,-1 0,0 0,-1 1,0 0,0 0,0l1 0 0 0c0,0 0,0 0,0 0,1 0,0 0,1 0,0 0,0 0,0 -1,0 0,0 -1,0 0,0 0,0 0,0l0 0c1,0 0,0 1,0 0,0 0,1 0,1 0,0 -1,0 -1,0 0,0 0,0 -1,0 0,0 0,0 1,0 0,0 0,0 0,0 0,0 0,0 0,0 0,-1 -1,-1 -2,0l0 -1c0,1 0,1 -1,1 0,0 0,-1 -1,0 0,0 0,0 0,0 0,0 0,0 1,0 0,0 0,0 0,0 1,0 1,0 2,0 0,0 0,0 0,0l-1 0c0,0 -1,0 -1,0 0,0 0,0 -1,0 0,0 0,0 -1,0l1 0c0,0 -1,0 -1,0 0,0 0,0 0,0l-1 0 0 0c0,0 0,0 -1,0 1,0 0,0 1,0 1,0 0,0 1,0 0,0 0,0 0,0 0,0 0,0 0,0 -1,0 0,0 -1,0 0,0 0,0 0,0 -1,0 -1,0 -1,0 0,0 0,0 0,0 0,0 -1,0 -1,0l0 0c0,0 0,0 -1,0 0,0 0,0 -1,0 1,1 0,0 1,0 -1,0 -1,0 -1,0l0 0c0,0 0,0 0,0 0,0 0,0 -1,0 0,0 0,0 0,0 0,0 0,0 0,0 0,0 0,0 0,0 0,0 -1,0 -1,0 0,0 0,0 0,0 0,0 0,0 0,0l-3 0c0,0 0,0 0,0 0,0 0,0 0,0 0,0 0,0 0,0 -1,0 0,0 -1,1 0,-1 0,-1 0,-1l0 0c0,0 0,0 0,0 -1,0 0,0 -1,0 0,0 0,0 -1,0l1 0c0,0 0,0 0,0 0,0 0,0 0,0 0,0 -1,-1 -1,-1 0,0 0,0 0,0 0,0 0,0 0,0l0 0c0,0 0,0 0,0 0,0 0,-1 0,-1 0,0 0,0 0,0 -1,-1 -1,-1 -1,-2 0,0 0,0 0,0 0,0 0,-1 0,-1 0,0 0,0 0,0l0 -1c0,0 0,-1 0,-1 0,0 0,0 0,0 -1,0 0,-1 0,-1l0 -1 0 0c0,0 0,-1 0,-1 0,0 0,0 0,0 0,0 0,0 0,0l0 0c0,0 0,0 0,0 0,0 1,0 1,0 0,0 0,0 0,0 1,-1 2,0 2,0 0,0 -1,0 -1,0 0,0 2,0 2,0 0,0 0,0 0,-1 1,1 1,0 1,1 0,0 0,0 0,0l1 0c0,0 0,0 1,0 0,0 0,0 0,0 0,0 0,0 0,0l0 -1c0,0 -1,0 1,0 0,0 0,1 1,0 0,0 0,0 0,0 0,1 0,1 0,1 0,0 0,0 0,0 0,0 1,0 1,0l0 -1 1 0c0,0 0,0 0,0 -1,1 0,0 -1,1 0,0 1,0 1,0 0,0 0,0 1,0 0,0 2,0 3,-1 0,0 0,0 1,0 0,0 0,0 0,1 0,0 1,0 2,0 0,-1 0,-1 0,-1 0,0 0,0 0,-1 0,0 0,0 0,0 0,0 0,0 -1,0 0,0 1,0 0,1 0,0 0,0 0,0 -1,0 -1,0 -1,0 0,0 0,0 0,0 0,0 0,0 0,0 0,-1 0,-1 0,-1 -1,1 0,0 -1,1 0,0 0,-1 -1,-1l0 1c1,0 1,0 1,0l0 0c-1,0 -1,0 -2,0l-4 0c-1,0 -1,0 -2,0 0,0 0,0 0,0 -1,0 -1,0 -1,0 -1,0 -1,0 -2,0l2 0c-1,0 0,0 -1,0 0,0 0,0 0,0 -1,0 -1,0 -1,0 -1,0 -1,0 -1,0 -1,0 -1,0 -1,0 0,0 0,0 1,0 0,0 0,0 1,0 0,0 0,0 -1,0l-1 0c-1,0 -1,0 -1,0 -1,0 -1,0 -1,0 0,0 0,0 0,0l0 -1 0 -1c0,1 5,0 7,0 1,0 1,0 2,0 -1,0 -1,0 -1,0 0,0 0,0 0,0 0,0 0,0 0,0 -1,0 0,0 -1,0 1,0 1,0 2,0 0,0 0,0 1,0 0,0 1,0 1,0 0,0 0,0 1,0 0,0 0,0 1,0 0,-1 4,0 4,0l0 -1 0 0c-2,0 -4,1 -6,0 -1,0 -2,1 -3,1 0,-1 -1,-1 -1,0l-2 0 0 0 -3 0c0,0 0,-1 -1,-1 0,0 0,1 -1,0l0 0 0 0 0 0 0 -1 2 0c0,0 0,0 0,0 0,0 0,0 1,0 0,0 0,0 0,0 0,0 0,0 0,0 0,0 0,0 1,0 1,0 2,0 2,0 0,0 1,0 1,0 1,0 1,0 1,0 1,0 0,0 1,0 0,0 0,0 1,0 0,0 3,0 4,0l0 -1 -6 0c0,0 0,0 -1,0 0,0 -1,0 -1,0 0,0 -1,0 -1,0 -1,0 -1,0 -2,0 0,0 0,0 -1,0 0,0 0,0 0,0 -1,0 -2,0 -2,1 0,-1 0,0 0,-1 0,0 0,0 0,0l0 0 0 0 0 0c0,0 1,0 2,0 0,0 0,0 0,0 1,0 1,0 1,0 0,0 0,0 1,0 0,0 1,0 1,0 0,0 0,0 0,0 1,-1 1,0 1,0 0,0 1,-1 1,-1 1,0 1,1 1,0 1,0 1,0 1,1 0,0 0,-1 0,0l0 -1 1 1 0 0c1,-1 1,0 1,0 0,0 0,0 0,0 1,-1 0,0 0,-1 1,0 1,1 1,0 1,0 1,1 2,1 0,0 0,0 0,0 0,0 0,0 0,0 0,0 0,0 1,0 0,0 0,0 0,0l0 0c1,-1 1,-1 1,0l0 0c0,0 1,0 1,0 0,0 0,0 0,-1l1 1c0,0 0,0 0,0 0,0 0,0 0,-1l0 0 0 0 0 0 0 0c0,-1 0,-1 0,-1 0,0 -2,0 -2,0l-4 0c-1,0 -1,0 -2,0l0 0c0,0 0,0 -1,0 0,0 -4,0 -4,0 0,0 0,0 -1,0 0,0 -1,0 -1,0 -1,0 -1,0 -1,0 -1,0 -1,0 -2,1l0 -1c0,-1 0,-1 0,-1l1 0c0,-1 0,0 0,0 1,0 0,0 1,0l0 0c0,0 1,-1 1,-1 0,0 0,0 0,0l0 0c-1,0 -2,0 -3,0l0 0c0,0 0,-1 0,-2 0,0 0,-1 0,-1 0,-1 0,-4 0,-4l1 -1c0,-1 0,-2 0,-2 0,-1 0,-2 0,-2 0,-1 0,-1 0,-1 0,-1 0,-4 0,-5 0,0 0,-1 0,-2 0,-1 0,-3 0,-5 0,0 0,-1 0,-2l0 -5c0,-2 -1,-3 -1,-4 0,0 0,-3 1,-3 0,-1 0,-1 0,-1 0,0 0,0 0,0 0,0 0,0 0,0 0,-1 0,-1 0,-1l0 0c0,0 0,0 0,0 0,0 0,0 0,0 0,0 0,0 0,-1 0,0 0,0 0,0 0,0 0,0 1,0l-1 0 1 0c0,0 0,0 0,0 0,0 0,0 0,0 0,0 0,0 0,0 1,0 2,0 3,0 0,-1 0,0 0,0 1,0 1,0 1,0 1,0 2,0 2,0 0,0 0,0 0,-1 0,0 1,1 1,1 1,0 0,0 1,0 0,0 0,-1 0,-1 0,1 0,1 0,1l0 0c0,0 0,0 0,0 1,-1 2,0 3,0 0,-1 2,0 2,0 0,0 0,0 0,0l0 0c0,0 0,0 0,0 1,-1 0,-1 1,-1 -1,0 0,0 -1,1l1 0zm-26 69l40 0 0 -75 -40 0 0 75z"/>
   <path class="fil48" d="M11 7l0 0 0 0c1,0 0,-1 2,0l2 0c1,0 2,0 3,0 0,0 0,0 0,0l7 0c1,0 2,0 3,0 0,0 0,0 0,1 0,0 0,0 0,0 0,1 0,1 0,2 0,0 0,1 0,2l1 9c0,0 0,0 0,0l0 3c0,1 0,1 0,2 0,0 0,1 0,1l0 5c0,0 0,0 0,1l0 1c0,2 0,4 0,6 0,1 0,4 0,4 0,1 0,1 0,2l0 0c0,0 0,0 0,0 0,0 0,0 0,0 0,-1 0,-1 0,-1 0,0 0,-1 0,-2 0,-3 0,-5 0,-7 0,-1 0,-2 0,-3l0 0c0,0 0,0 0,0l0 -1 0 0 0 0 0 0 0 -1c0,0 0,0 0,0l0 -1 0 0 0 0c0,0 0,-1 0,-2 0,0 0,0 0,-1 0,0 0,0 0,-1l0 -1c0,-1 0,-1 0,-2 0,-1 0,-4 0,-4 0,-1 0,-1 0,-2 0,0 0,-1 0,-1 0,-1 0,-3 0,-4l0 -1c0,0 0,-2 0,-3 0,0 0,0 0,0 0,0 0,-1 -1,-1l0 1c1,0 0,-1 0,-1l-1 0c-1,0 -1,0 -2,0l-2 0c-1,0 -1,0 -1,0 -1,-1 -1,-1 -2,-1l-7 0c-1,0 0,0 -1,0 0,0 0,0 0,0 -1,0 -1,1 0,0 -1,0 -1,0 -1,0 0,0 0,0 0,0 0,1 0,1 0,1z"/>
   <path class="fil49" d="M29 37c0,2 -1,7 -1,8l0 3c0,0 0,5 0,6l0 5c0,2 0,3 0,4 0,0 0,0 0,1 0,0 0,0 0,0l0 1c1,0 1,1 1,1 -1,0 -1,0 -2,0 0,0 0,0 -1,0 0,0 -1,0 -1,0 -1,0 -1,0 -2,0 -1,0 -1,0 -1,0 -1,0 -1,0 -1,0 -1,0 -1,0 -1,0 0,0 -1,0 -1,0 0,0 0,0 -1,0l-1 0c-1,0 -1,0 -1,0 -1,0 -2,0 -3,0 0,0 0,0 0,1 -1,0 0,-1 -1,0 -1,0 -1,-1 -1,-1l0 0c0,0 0,-1 0,0 0,0 0,0 0,0 0,0 0,1 0,1 0,0 0,0 0,0l0 0c0,0 0,0 0,0l0 0c1,0 1,0 2,0 0,0 1,0 1,0l0 -1c0,1 1,0 1,0 0,0 1,1 1,0 1,0 2,0 2,0l2 0c1,0 2,0 3,0 1,0 2,0 2,0l2 0c1,0 1,0 1,0 1,0 1,0 1,-1 0,-1 -1,-3 -1,-4l0 -12c1,-1 1,-2 1,-3 0,-1 0,-1 0,-2 0,0 0,-3 0,-4 0,-2 0,-4 0,-6l0 -1c0,-1 0,-1 0,-1l0 -5c0,0 0,-1 0,-1 0,-1 0,-1 0,-2l0 -3c0,0 0,0 0,0 -1,1 0,3 0,4 0,1 0,3 0,4 0,0 0,7 0,8z"/>
   <path class="fil50" d="M19 61l0 0c-1,0 0,0 -1,0 0,0 0,0 0,0l0 0c0,0 0,0 0,0l-1 0 0 1c0,0 0,-1 -1,0 0,0 0,0 0,0 0,0 0,0 -1,0l0 -1c0,1 0,1 0,0 -1,0 -1,0 -1,0 0,1 0,1 0,1 0,0 -1,0 -1,0l0 -1 0 0 0 0c0,1 -1,0 -1,0l0 1c0,0 0,0 0,0 0,0 0,0 0,0 0,0 -1,0 -1,0 0,0 0,0 0,0 0,0 0,0 0,0 0,0 0,0 0,0l-1 0c1,0 1,0 1,0 0,0 -1,0 -1,1 0,0 0,0 1,0 0,0 0,0 0,0 0,0 0,0 0,0l0 -1c1,0 1,1 1,1l0 0 0 0c0,-1 0,0 0,-1 0,0 0,0 0,0l1 0c1,0 1,0 1,0 0,0 0,0 0,0l0 0c0,0 0,0 0,0l0 0c1,0 1,0 1,0 0,0 0,0 0,0 0,0 0,0 0,0 0,0 0,0 0,0l1 0c0,0 0,0 0,0 0,0 0,0 1,0 0,0 0,0 0,0l0 0c0,0 1,0 1,0 0,0 0,0 0,0 0,0 0,0 0,0 0,0 0,0 0,0 0,0 0,0 0,0 0,0 0,0 0,0 0,0 0,0 0,0 0,0 0,0 0,0l1 0c0,0 0,0 0,0l0 0c0,0 0,0 0,0l0 0c0,0 0,0 1,0 0,0 0,0 0,0l0 0c0,0 0,0 0,0 0,0 0,0 0,0 0,0 0,0 0,0 0,0 1,0 0,0 0,0 0,0 0,0 1,0 0,0 1,0l0 0c0,0 0,0 1,0l0 0c0,0 0,0 0,0 0,0 0,0 1,0l1 0 0 0c0,0 0,0 0,0l0 0c0,0 0,0 0,0l0 0c0,0 0,0 0,0l0 1c0,-1 0,-1 0,-1l1 0c0,0 1,1 1,1 0,0 0,0 0,0 0,0 0,0 0,0l0 0c1,0 0,0 1,0 0,0 0,0 0,0l0 0c0,0 0,0 0,0l0 1c1,0 1,0 1,-1l0 0c0,0 0,0 0,0 -1,0 -1,0 -1,-1 0,1 0,1 0,1 0,0 0,0 0,0 0,0 0,0 0,0 0,-1 0,0 0,-1l0 0c-1,0 0,0 -1,0 0,0 0,0 0,0l-1 0c0,0 0,0 0,0l0 0c0,0 0,0 0,0l0 0c0,0 -1,-1 -1,0l0 -1 0 0c-1,0 -1,0 -1,0 0,0 -1,0 -1,0 0,0 0,0 0,0l-1 0 0 0c0,0 0,0 0,0l0 0c0,0 0,0 0,0l0 0 0 0c-1,0 -1,0 -1,0 0,0 0,0 -1,0l0 0z"/>
   <path class="fil51" d="M28 52c0,1 0,1 0,2 0,1 0,4 0,5 0,1 0,2 0,3 0,0 0,2 0,3 0,-1 0,0 0,-1l0 1c0,0 -1,-1 -1,-1 0,0 0,0 -1,0 0,0 0,0 0,0 0,0 0,0 0,0 -1,0 0,0 -1,0l-1 0c0,-1 0,0 0,-1 0,1 0,1 -1,0 0,0 0,0 0,0 0,0 0,0 0,0 0,0 0,0 0,0 0,0 0,0 0,0l0 0 -1 0c0,0 -1,1 -1,1 0,-1 0,-1 0,-1 0,1 0,1 -1,1l0 -1c0,0 0,0 0,0l0 0c0,0 0,0 0,0 0,0 0,0 0,0 0,0 0,0 0,1 0,0 0,0 0,0 -1,0 -1,0 -1,0l0 0 -1 0c0,0 0,0 0,0 0,0 0,0 -1,0l0 0 0 0c-1,0 0,0 0,0 -1,0 0,0 -1,0 0,0 0,0 0,0 0,0 0,0 0,0l-1 0c0,0 0,0 0,0 0,0 0,0 0,0 0,0 0,0 -1,0 0,0 0,0 0,0 0,0 0,0 0,1 0,0 0,0 0,0 0,0 0,0 0,0 0,0 0,0 0,-1l1 1c0,0 0,0 0,0l2 -1c1,0 0,0 1,0 0,0 0,0 0,0l0 0c0,0 0,0 1,0 0,0 0,0 0,0 0,0 0,0 0,0 0,0 0,0 0,0 0,0 0,0 0,0 0,0 0,0 0,0 0,0 0,0 0,0 2,0 1,0 2,0l0 0c1,0 0,0 1,0 0,0 0,0 0,0 0,0 0,0 0,0 0,0 0,0 0,0l0 0c1,0 2,0 3,0 0,0 0,0 0,1 0,-1 1,-1 1,0l1 0c0,0 0,0 0,0 0,0 0,0 0,0 0,0 0,0 0,0 1,0 1,0 1,0 0,0 0,0 0,0 0,0 0,0 0,0 0,-1 0,-1 0,-2 0,-1 0,-2 0,-4l0 -5c0,-1 0,-6 0,-6 0,0 0,1 0,1 0,1 0,3 0,3z"/>
   <path class="fil52" d="M29 46c0,1 0,2 -1,3l0 12c0,1 1,3 1,4 0,0 0,1 0,2 -1,0 -1,0 -1,0 -1,0 -1,0 -1,0 0,0 -1,-1 -1,-1 -1,1 -1,0 -1,1 -1,0 -1,0 -1,0 -1,0 -1,0 -2,0 0,0 0,0 -1,-1 0,0 0,0 0,1 -1,0 -1,0 -1,0 0,0 0,0 -1,0 -2,0 -1,0 -2,0 -1,0 -1,0 -1,0 1,0 2,0 3,0 0,0 0,0 1,0 1,0 1,0 1,0 1,0 1,0 2,0l2 0c0,0 0,0 1,0 0,0 0,0 0,0 1,0 1,0 2,0 0,0 0,0 0,0 1,0 1,0 1,0 -1,0 0,0 -1,0 0,0 0,0 0,0l1 0c0,0 0,0 0,-1 0,0 0,0 0,-1 0,0 0,0 0,0l0 0 0 -1c0,0 0,0 0,-1l0 -6c0,-1 0,-1 0,-2l0 -3c0,0 0,-1 0,-2 0,-1 0,-4 0,-4 0,0 0,0 0,0 0,0 0,0 0,0l0 0z"/>
   <path class="fil53" d="M14 65l-1 0c0,0 0,0 -1,0 0,0 1,0 0,0 0,1 0,1 0,1 0,0 0,0 0,0l-1 0c0,0 1,0 1,0 0,0 0,0 0,0 1,0 1,0 1,0 0,0 1,0 1,0 0,0 1,0 1,0 0,0 0,0 0,0l-1 0c0,0 0,0 0,0l0 0c0,0 0,0 0,0 -1,0 0,0 -1,-1l2 0c0,0 0,0 0,0 0,0 0,0 1,0 0,0 0,0 0,0 0,0 0,0 0,0 0,0 0,0 0,0 0,0 1,0 1,0 0,0 1,0 1,0 0,0 0,0 0,0 0,0 0,0 0,0l2 0 0 0 0 0c0,0 0,0 0,0 0,0 1,0 1,0 1,0 1,0 1,0 0,0 0,0 1,0l0 0c0,0 1,0 1,0l0 0c0,0 0,0 0,0 1,0 0,0 1,0 0,0 0,0 0,0 0,0 1,0 1,0 0,0 0,0 0,0l0 0c0,0 0,0 1,0l1 1c0,0 0,0 0,0 0,0 0,0 0,-1 0,0 0,0 0,-1 0,0 0,0 0,0 0,-1 0,-1 0,-1 0,1 0,1 0,2 0,0 0,0 0,0 0,0 0,0 0,0 0,0 0,0 -1,0 0,0 0,0 0,0 0,0 0,0 0,0 0,0 0,0 0,0l-1 0c0,-1 -1,-1 -1,0 0,-1 0,-1 0,-1 -1,0 -2,0 -3,0l0 0c0,0 0,0 0,0 0,0 0,0 0,0 0,0 0,0 0,0 -1,0 0,0 -1,0l0 0c-1,0 0,0 -2,0 0,0 0,0 0,0 0,0 0,0 0,0 0,0 0,0 0,0 0,0 0,0 0,0 0,0 0,0 0,0 0,0 0,0 0,0 -1,0 -1,0 -1,0l0 0c0,0 0,0 0,0 -1,0 0,0 -1,0l-2 1c0,0 0,0 0,0l-1 -1c0,1 0,1 0,1 0,0 0,0 0,0 0,0 0,0 0,0z"/>
   <path class="fil54" d="M13 66c1,0 1,0 2,0 1,0 0,0 1,0 0,0 0,0 0,-1l0 1c1,0 0,-1 1,-1l0 1c1,-1 0,0 1,-1 0,0 0,0 0,1 0,-1 0,-1 0,-1 0,0 0,0 0,0 0,0 0,0 0,0 1,0 1,0 1,0 0,1 1,1 2,1 0,-1 0,0 0,-1l0 0c0,0 0,1 1,0 0,0 0,0 0,1l0 -1c1,0 1,0 1,0 0,0 1,0 1,1 0,-1 0,-1 0,-1 1,0 1,0 1,0 0,0 0,0 0,1 0,0 2,0 2,0 0,0 0,0 0,0 1,0 0,0 1,0 0,0 0,0 0,0 0,0 0,0 0,-1l0 -1c0,1 0,1 0,1 0,1 0,1 0,1 0,0 0,0 0,0l-1 -1c-1,0 -1,0 -1,0l0 0c0,0 0,0 0,0 0,0 -1,0 -1,0 0,0 0,0 0,0 -1,0 0,0 -1,0 0,0 0,0 0,0l0 0c0,0 -1,0 -1,0l0 0c-1,0 -1,0 -1,0 0,0 0,0 -1,0 0,0 -1,0 -1,0 0,0 0,0 0,0l0 0 0 0 -2 0c0,0 0,0 0,0 0,0 0,0 0,0 0,0 -1,0 -1,0 0,0 -1,0 -1,0 0,0 0,0 0,0 0,0 0,0 0,0 0,0 0,0 0,0 -1,0 -1,0 -1,0 0,0 0,0 0,0l-2 0c1,1 0,1 1,1 0,0 0,0 0,0l0 0c0,0 0,0 0,0l1 0c0,0 0,0 0,0 0,0 -1,0 -1,0 0,0 -1,0 -1,0z"/>
   <path class="fil55" d="M11 65c0,0 0,0 0,0 0,0 0,0 0,0l0 0c1,0 1,0 1,0l0 0 0 0c0,0 0,0 0,-1 0,1 0,1 0,1 1,0 0,0 1,0 0,-1 0,0 0,-1 0,0 0,0 0,0 0,0 0,0 0,0l0 0c0,0 0,0 0,0 0,0 1,0 1,0 0,0 0,0 0,0 0,0 0,0 0,0 0,0 0,0 0,0 1,0 0,0 0,0 1,0 1,0 1,0 1,0 0,-1 1,-1 0,0 0,1 0,1l0 0 1 0c0,0 0,0 0,0l0 -1c0,1 1,0 1,0 1,1 1,1 1,1l0 0c0,0 0,0 1,0 0,0 0,0 0,0 0,-1 0,-1 0,-1 0,0 0,0 0,0 0,0 0,0 0,0l0 0c0,0 0,0 0,0l0 1c1,0 1,0 1,-1 0,0 0,0 0,1 0,0 1,-1 1,-1l1 0c0,0 -1,0 -1,0 0,0 0,0 0,0 0,0 0,0 0,0l0 0c-1,0 -1,0 -1,0l-1 0 0 0c0,0 0,0 0,0l0 0 0 0c-1,0 -1,0 -1,0 0,0 0,0 0,0l0 0c-1,0 -1,0 -1,0 0,0 0,0 0,0l0 0c-1,0 -1,0 -1,0 0,0 0,0 0,0 0,0 -1,-1 -1,0 0,0 -1,0 -1,0 0,0 0,0 0,0 0,0 0,0 -1,0 0,0 1,0 1,0l-1 0c0,0 0,0 0,0 -1,0 -1,0 -1,0l0 0c0,1 0,1 0,1 -1,0 -1,0 -1,0 0,0 0,0 0,0 0,0 0,0 0,1 -1,0 -1,0 -1,0z"/>
   <path class="fil56" d="M11 67c1,0 1,0 1,0 0,0 0,1 -1,0 0,0 1,1 1,1 0,0 0,0 0,0 0,0 0,0 0,0l0 0c0,-1 1,0 1,-1l0 0c0,0 0,0 1,0 0,0 0,0 0,0 1,0 1,0 1,0 0,0 0,0 1,0 0,0 0,0 0,0 0,0 0,0 1,0 1,0 0,0 2,0 1,0 1,0 1,0 0,0 0,0 1,0 0,-1 0,-1 0,-1 1,1 1,1 1,1 1,0 1,0 2,0 0,0 0,0 1,0 0,-1 0,0 1,-1 0,0 1,1 1,1 0,0 0,0 1,0 0,0 0,0 1,0 0,-1 0,-2 0,-2 0,1 0,1 -1,1 0,0 0,0 -1,0l-2 0c0,0 -1,0 -2,0 -1,0 -2,0 -3,0l-2 0c0,0 -1,0 -2,0 0,1 -1,0 -1,0 0,0 -1,1 -1,0l0 1c0,0 -1,0 -1,0 -1,0 -1,0 -2,0z"/>
   <path class="fil57" d="M16 67c0,0 0,0 0,0 -1,0 -1,0 -1,0 0,0 0,0 -1,0 0,0 0,0 0,0 -1,0 -1,0 -1,0l0 0c0,1 -1,0 -1,1 0,0 1,0 2,0 1,0 2,0 2,0 0,-1 2,-1 2,-1l6 0c0,0 0,0 0,0 1,0 2,0 2,0 1,0 1,0 1,0l1 0c0,0 0,0 0,0 1,0 0,0 1,0 0,0 0,0 -1,0 0,0 0,0 0,0 -1,0 -1,0 -2,0 0,0 0,0 0,0 -1,0 -1,0 -1,0l-2 0c-1,0 -1,0 -2,0 0,0 0,0 -1,0 -1,0 -1,0 -1,0 -1,0 -2,0 -3,0z"/>
   <path class="fil58" d="M15 6l-2 0c-1,0 -1,0 -1,0l-1 0 1 0c-1,1 -1,0 0,0 0,0 0,0 0,0 1,0 0,0 1,0l7 0c1,0 1,0 2,1 0,0 0,0 1,0l2 0c1,0 1,0 2,0l1 0c0,0 1,1 0,1l0 -1 1 0c-1,0 -1,0 -1,0 0,0 0,0 0,0l0 0c0,0 0,0 -1,0 0,-1 1,-1 0,-1 0,1 0,1 0,1 0,0 0,0 0,-1 -2,0 -3,0 -5,0 -1,0 -2,0 -2,0 -1,0 -1,0 -2,0 0,0 -1,0 -1,0l0 0c-1,0 -2,0 -2,0l0 0 0 0z"/>
   <path class="fil59" d="M13 66c0,0 0,0 -1,0 0,0 0,0 0,0 0,0 -1,0 -1,0 0,0 0,0 0,0l0 0c0,0 0,0 0,0 0,0 0,1 1,1 1,-1 0,0 1,0 0,-1 0,-1 0,-1 1,0 2,0 3,0 0,0 0,0 1,0l1 0c1,0 1,0 1,0 0,0 1,0 1,0 0,0 0,0 1,0 0,0 0,0 1,0 0,0 0,0 1,0 1,0 1,0 2,0 0,0 1,0 1,0 1,0 1,0 1,0 1,0 1,0 2,0 0,0 0,-1 -1,-1 0,1 0,1 0,1 0,0 0,0 0,0 -1,0 0,0 -1,0 0,0 0,0 0,0 0,0 -2,0 -2,0 0,-1 0,-1 0,-1 0,0 0,0 -1,0 0,0 0,0 0,1 0,-1 -1,-1 -1,-1 0,0 0,0 -1,0l0 1c0,-1 0,-1 0,-1 -1,1 -1,0 -1,0l0 0c0,1 0,0 0,1 -1,0 -2,0 -2,-1 0,0 0,0 -1,0 0,0 0,0 0,0 0,0 0,0 0,0 0,0 0,0 0,1 0,-1 0,-1 0,-1 -1,1 0,0 -1,1l0 -1c-1,0 0,1 -1,1l0 -1c0,1 0,1 0,1 -1,0 0,0 -1,0 -1,0 -1,0 -2,0z"/>
   <path class="fil60" d="M11 9c-1,0 -1,3 -1,3 0,1 1,2 1,4l0 5c0,1 0,2 0,2 0,0 0,0 0,0 0,0 0,-1 0,-1 0,0 0,-1 0,-1l0 0 0 0c0,-1 0,-1 0,-1 0,-1 0,-1 0,-1 0,-1 0,-1 0,-1 0,0 0,0 0,-1 0,0 0,0 0,0l0 -1 0 -1 0 0c0,0 0,0 0,0 0,-1 0,-1 0,-1 0,0 0,-1 0,-1l0 0 0 0c0,0 0,1 0,1l-1 -2c1,0 0,1 1,1 0,-1 0,-2 0,-2 0,-1 0,-1 0,-2l0 -1c0,1 0,1 0,1l0 0z"/>
   <path class="fil61" d="M11 7l0 0 0 0 0 1c0,0 0,0 0,0 0,0 0,-1 1,-1 1,0 1,0 1,0 1,0 1,0 2,0 1,0 3,0 4,0 0,0 0,0 1,0 1,0 1,0 1,0 1,0 1,0 2,0 0,0 0,0 1,0 0,0 1,0 1,0 1,0 0,0 1,0 0,0 1,0 1,0 0,0 0,0 0,0 1,1 1,1 1,1 0,-1 0,-1 0,-1 -1,0 -2,0 -3,0l-7 0c0,0 0,0 0,0 -1,0 -2,0 -3,0l-2 0c-2,-1 -1,0 -2,0l0 0z"/>
   <path class="fil62" d="M11 32l0 -1 1 0 0 0c0,0 0,0 0,0 -1,0 0,0 0,0l-1 0c0,-1 1,0 0,0l1 -1c-1,0 -1,0 -1,0 0,0 0,-1 0,-1 0,0 0,0 1,0l0 0c0,-1 0,-1 -1,-1 0,0 0,0 0,-1l0 0c1,0 1,0 1,0l1 0 1 0c0,0 0,0 0,0 1,0 0,0 1,0 0,0 0,0 0,0l-3 0c0,-1 0,-1 0,-1l0 0c0,0 0,0 0,0 0,0 0,0 0,0l0 0c-1,0 -1,0 -1,-1l0 0c0,3 0,2 0,2 0,0 0,1 0,2 0,1 0,0 0,1 0,1 0,1 0,2z"/>
   <path class="fil63" d="M11 21c0,0 0,1 0,1 0,0 0,1 0,1 0,0 0,0 0,0 0,2 0,4 0,5 0,0 0,-3 0,-3 0,0 0,0 1,0 0,-1 0,0 0,-1 -1,0 0,0 -1,0l0 -1 0 0 1 0 0 0 0 0c0,0 0,0 0,0l0 0c0,0 1,0 1,0 -1,0 -1,0 -1,-1 0,0 0,0 0,0l-1 0 0 0 0 0 0 0 0 -1 0 0z"/>
   <path class="fil64" d="M13 61l0 1c0,0 1,0 1,0 0,0 0,0 0,-1 0,0 0,0 1,0 0,1 0,1 0,0l0 1c1,0 1,0 1,0 0,0 0,0 0,0 1,-1 1,0 1,0l0 -1 1 0c0,0 0,0 0,0l0 0c0,0 0,0 0,0l-1 0 0 0c-1,0 0,0 -1,0 0,0 0,0 0,0 0,0 0,0 0,0l0 0c-1,0 -1,0 -1,0 -1,0 -1,0 -1,0 0,0 0,0 0,0 0,0 -1,0 -1,0z"/>
   <path class="fil65" d="M21 8l1 0c1,0 1,0 1,0l0 0c1,0 1,0 1,0 0,0 0,0 0,1 0,-1 0,-1 1,-1l0 1c0,-1 0,-1 1,0l0 0c0,0 0,0 0,0 0,0 0,0 0,0l1 0c0,0 0,0 0,0l0 0c1,0 0,0 1,1 0,0 0,0 0,1 0,1 0,1 0,1l0 0 0 0 0 0c0,0 0,-2 0,-3 0,0 0,0 0,0 -1,0 -1,0 -1,0 0,0 0,0 0,0 0,0 0,0 0,-1 -1,1 0,1 -1,0 0,0 0,0 0,0 0,0 0,0 0,0 -1,0 0,0 -1,0l-1 0c0,0 -1,0 -2,0 0,0 0,0 0,0 -1,0 -1,0 -1,0z"/>
   <path class="fil66" d="M11 28c0,1 0,2 0,2 0,1 0,4 0,5 0,0 0,0 0,1l0 1c0,0 0,-1 0,-1 0,-1 0,-2 0,-2 0,-1 0,-1 0,-1 0,-1 0,-1 0,-1 0,-1 0,-1 0,-2 0,-1 0,0 0,-1 0,-1 0,-2 0,-2 0,0 0,1 0,-2l0 0c0,0 0,3 0,3z"/>
   <path class="fil67" d="M11 36c0,0 0,1 0,1l0 -1c0,0 0,1 0,2 0,0 0,1 0,2 0,0 0,0 0,0l0 0 0 -1 0 0 0 0 0 -1 0 0c0,0 0,-1 0,-1 0,-1 0,-1 0,-1 0,0 0,0 0,0 0,0 1,0 1,0l-1 0c1,-1 1,-1 1,-1l0 0 0 0 -1 0c0,0 0,0 0,-1 1,0 1,0 1,0l0 0c0,0 0,0 0,0l-1 0c0,-1 0,-1 0,-1 0,0 0,0 0,0 0,1 0,1 0,1 0,1 0,2 0,2z"/>
   <path class="fil68" d="M27 6c0,0 0,1 -1,0 -1,0 -1,0 -2,0 0,0 0,0 -1,0 0,0 0,0 0,0 -1,0 -1,0 -1,0 -1,0 -1,0 -1,0l-1 0c0,0 0,0 0,0l0 0 -3 0c0,0 1,0 1,0 1,0 1,0 2,0 0,0 1,0 2,0 2,0 3,0 5,0 0,1 0,1 0,1 0,0 0,0 0,-1z"/>
   <path class="fil69" d="M26 6c-1,0 -2,0 -3,0 0,0 -1,0 -1,0 0,0 -1,0 -1,0 0,0 0,0 1,0 0,0 0,0 1,0 0,0 0,0 0,0 1,0 1,0 1,0 1,0 1,0 2,0 1,1 1,0 1,0 1,0 0,0 0,1 1,0 1,0 1,0 0,0 0,0 0,0l0 0c0,0 0,0 0,0 1,0 0,0 1,0 -1,0 0,0 -1,0 0,-1 0,0 0,-1l-1 0c0,0 0,0 -1,0l0 0 0 0z"/>
   <path class="fil70" d="M23 63l0 0c0,0 0,0 0,0 0,0 0,0 0,0 0,0 0,0 0,0 0,0 0,0 0,0 1,1 1,1 1,0 0,1 0,0 0,1l1 0c1,0 0,0 1,0 0,-1 0,0 -1,-1 0,0 0,0 0,1l0 -1 -1 0 0 0c0,0 0,0 0,0l0 0 0 0 -1 0 0 0c0,0 0,0 0,0 0,0 0,0 0,0 0,0 0,0 0,0l0 0z"/>
   <path class="fil71" d="M16 68c0,0 -1,0 -2,0 -1,0 -2,0 -2,0 0,0 0,0 0,0l2 0c0,0 3,0 3,0 1,0 0,0 2,0l0 0c0,0 0,0 0,0 0,-1 -1,-1 -1,-1 0,0 -1,1 -1,1 0,0 0,0 -1,0z"/>
   <path class="fil72" d="M11 16c0,0 0,0 0,0 0,0 0,0 0,0l0 0c0,0 0,0 0,0l1 0c-1,0 -1,0 -1,1 0,0 0,0 0,0l0 0 0 0 0 0c0,0 0,0 0,0l1 0 0 -1c0,0 0,0 -1,0 0,0 0,0 1,0 0,0 0,0 0,0 0,0 0,0 0,0 0,0 0,0 -1,0 0,0 0,-1 0,-1l0 1z"/>
   <path class="fil73" d="M29 19c0,0 0,0 0,0l0 0c0,1 0,0 0,1l0 -1c0,0 1,0 0,0 0,-1 0,0 0,0l0 -1 0 0 0 0c0,0 0,0 0,0 0,0 0,-1 0,-1l0 0c0,1 0,1 0,2z"/>
   <path class="fil74" d="M28 39c0,0 0,0 0,0 0,1 0,0 0,1 0,0 0,-1 0,0 0,1 0,1 0,1 0,0 0,0 0,0 0,0 0,0 0,0 0,-2 1,-2 0,-3 0,1 0,1 0,1z"/>
   <path class="fil75" d="M14 14l2 0c0,0 0,0 0,0 0,0 0,0 0,0l0 0 -2 0 0 0 -1 0c0,0 0,0 1,0z"/>
   <path class="fil76" d="M13 18l0 0c-1,0 0,0 -1,0 1,0 2,0 2,0 0,0 0,0 0,0 0,0 0,0 0,0l-1 0c-1,0 -1,0 -1,0 0,0 0,0 0,0l1 0z"/>
   <path class="fil77" d="M11 21c0,0 0,0 0,0 0,-1 1,-1 1,-1l-1 0 0 0 0 -1c0,0 0,0 0,0 0,0 0,0 0,0l0 0c0,0 0,0 0,1 0,0 0,0 0,1z"/>
   <path class="fil78" d="M14 18c0,0 0,0 0,0 1,1 2,0 2,0 1,0 1,0 1,0 -1,0 -2,0 -2,0 -1,0 -1,0 -1,0z"/>
   <path class="fil79" d="M11 9l0 0c0,0 0,0 0,-1l0 0 0 0 0 0c0,0 0,0 0,0 0,0 0,0 0,0 0,0 0,0 0,1z"/>
   <path class="fil80" d="M15 6l0 0 0 0c0,0 1,0 2,0 0,0 0,0 -1,0 0,0 0,0 -1,0l0 0 0 0z"/>
   <path class="fil81" d="M29 32l0 0 0 0c0,-1 0,0 0,-1 0,0 0,0 0,0 1,0 0,0 1,0 0,0 -1,0 0,0 0,0 -1,0 -1,0l0 0 0 0 0 0c0,0 0,0 0,0l0 1z"/>
   <path class="fil82" d="M11 13l0 0c-1,0 0,-1 -1,-1l1 2c0,0 0,-1 0,-1z"/>
   <path class="fil83" d="M23 68l1 0c0,0 1,0 1,-1 0,0 -1,0 -1,0 0,0 0,0 -1,0 0,0 0,0 0,1z"/>
   <path class="fil84" d="M11 67l0 0 0 0c0,0 0,0 0,0 1,1 1,0 1,0 0,0 0,0 -1,0l0 0c0,0 0,0 0,0l0 0z"/>
   <path class="fil85" d="M24 30c0,0 1,0 1,0 0,0 0,0 0,0 0,0 0,0 0,0 0,0 0,0 -1,0z"/>
   <path class="fil86" d="M12 6c0,0 0,0 1,0 0,0 -1,0 -1,0 0,0 0,0 0,0z"/>
   <path class="fil87" d="M29 32l0 0 0 0 0 0 0 0 0 0 1 0c0,0 0,0 -1,0 0,0 1,0 0,0z"/>
   <path class="fil88" d="M29 33l0 0 0 0 0 0 0 0 0 0c0,0 1,0 1,0 0,-1 0,0 -1,-1l0 1z"/>
   <path class="fil89" d="M30 25c0,0 -1,0 -1,0 0,1 0,0 1,0 0,0 0,0 0,0z"/>
   <path class="fil90" d="M29 7l0 0c-1,0 0,0 -1,0 0,0 0,0 0,0 0,0 0,0 0,0 0,0 0,0 1,0z"/>
   <path class="fil91" d="M11 7l0 0 0 0c0,0 0,0 0,0 0,0 0,0 0,0z"/>
   <polygon class="fil92" points="29,31 29,31 29,31 29,31 "/>
   <path class="fil93" d="M11 67l0 0c0,0 0,0 0,0z"/>
   <path class="fil94" d="M29 33l0 0c0,0 0,0 0,0z"/>
  </g>
 </g>
</svg>
