<?xml version="1.0" encoding="UTF-8"?>
<!DOCTYPE svg PUBLIC "-//W3C//DTD SVG 1.1//EN" "http://www.w3.org/Graphics/SVG/1.1/DTD/svg11.dtd">
<!-- Creator: CorelDRAW X6 -->
<svg xmlns="http://www.w3.org/2000/svg" xml:space="preserve" width="0.885606in" height="0.860512in" version="1.1" style="shape-rendering:geometricPrecision; text-rendering:geometricPrecision; image-rendering:optimizeQuality; fill-rule:evenodd; clip-rule:evenodd"
viewBox="0 0 1416 1376"
 xmlns:xlink="http://www.w3.org/1999/xlink">
 <defs>
  <style type="text/css">
   <![CDATA[
    .fil11 {fill:#1B1B1B}
    .fil49 {fill:#292627}
    .fil43 {fill:#2C2B2B}
    .fil28 {fill:#312D2D}
    .fil51 {fill:#393536}
    .fil35 {fill:#3B3739}
    .fil42 {fill:#3D3B3B}
    .fil55 {fill:#423D3D}
    .fil12 {fill:#464546}
    .fil26 {fill:#4C4C4B}
    .fil39 {fill:#4D494A}
    .fil22 {fill:#4F4D4E}
    .fil9 {fill:#524E51}
    .fil25 {fill:#535151}
    .fil21 {fill:#555255}
    .fil30 {fill:#565152}
    .fil36 {fill:#565354}
    .fil15 {fill:#575455}
    .fil27 {fill:#59555C}
    .fil19 {fill:#5B5859}
    .fil10 {fill:#5D595A}
    .fil60 {fill:#615D5E}
    .fil13 {fill:#625C64}
    .fil8 {fill:#62615E}
    .fil29 {fill:#62626B}
    .fil23 {fill:#646364}
    .fil24 {fill:#656162}
    .fil64 {fill:#676673}
    .fil6 {fill:#6D6B6A}
    .fil41 {fill:#736876}
    .fil52 {fill:#736B6C}
    .fil58 {fill:#747585}
    .fil0 {fill:#757273}
    .fil57 {fill:#7B7475}
    .fil65 {fill:#84817D}
    .fil62 {fill:#85878A}
    .fil37 {fill:#86897D}
    .fil68 {fill:#8A8483}
    .fil56 {fill:#8D8B8A}
    .fil53 {fill:#8E939D}
    .fil45 {fill:#928B8B}
    .fil70 {fill:#949292}
    .fil67 {fill:#9A9CA5}
    .fil2 {fill:#9B9697}
    .fil66 {fill:#9C9B9C}
    .fil44 {fill:#9CA2AC}
    .fil69 {fill:#A09F9E}
    .fil38 {fill:#A4A3A3}
    .fil48 {fill:#A9A6A7}
    .fil59 {fill:#B2B2AE}
    .fil5 {fill:#B8B5B6}
    .fil1 {fill:#BDC2C5}
    .fil61 {fill:#C3BBBC}
    .fil3 {fill:#C9CCD4}
    .fil7 {fill:#CBC4C4}
    .fil47 {fill:#CCD1CA}
    .fil40 {fill:#CCD5D9}
    .fil54 {fill:#D3DBDD}
    .fil4 {fill:#D5CBD5}
    .fil33 {fill:#D5D4CD}
    .fil50 {fill:#DCE1DA}
    .fil63 {fill:#DDDCDA}
    .fil46 {fill:#E2D8D7}
    .fil32 {fill:#EBE4E4}
    .fil31 {fill:#F2EAE5}
    .fil20 {fill:#F3F2EE}
    .fil18 {fill:#FAFBFB}
    .fil34 {fill:#FCFCF4}
    .fil17 {fill:#FEFDF9}
    .fil16 {fill:#FEFEFE}
    .fil14 {fill:#FFFEFC}
   ]]>
  </style>
 </defs>
 <g id="Layer_x0020_1">
  <metadata id="CorelCorpID_0Corel-Layer"/>
  <g id="_2474947488">
   <g>
    <polygon class="fil0" points="543,560 565,562 564,546 536,542 "/>
    <path class="fil0" d="M1302 1029c10,-4 8,8 8,-10l-8 10z"/>
   </g>
   <g>
    <path class="fil1" d="M398 64c72,-31 94,-31 120,-41l13 -7 -115 29c-14,6 -8,4 -12,8 -22,0 -4,-2 -6,11z"/>
    <path class="fil1" d="M627 842c10,22 2,16 18,27l-9 -40 18 -1 0 -8 -23 2 -2 -1 -2 21z"/>
   </g>
   <g>
    <path class="fil2" d="M314 1248c-1,-2 -6,-10 -6,-11 -23,-3 -4,-7 -19,-24l-10 -8c-30,-5 -33,-15 -52,-31 -18,-14 -31,-29 -47,-42 7,25 35,49 56,65 14,10 24,16 36,28 17,18 14,17 42,23z"/>
    <path class="fil2" d="M423 1303l-35 -15c7,9 -2,3 9,9 12,7 2,2 12,4 7,9 -2,3 14,2z"/>
   </g>
   <g>
    <path class="fil3" d="M816 805c-4,49 -32,82 -84,84 11,7 -13,3 18,6 83,10 101,-160 66,-155 1,9 10,65 0,65z"/>
    <path class="fil3" d="M350 88c11,-4 15,-7 24,-12 4,-2 6,-2 11,-4 1,-1 6,-3 7,-4l6 -4c-24,-8 -11,-6 -16,0 -12,3 -7,0 -18,8 -14,10 -6,3 -14,16z"/>
   </g>
   <g>
    <path class="fil4" d="M447 629c1,-1 2,-5 3,-4l15 -13 5 1c-2,-10 -4,-3 1,-13 4,-9 2,-4 8,-10 1,-13 1,-10 6,-23 0,0 5,-10 5,-11 10,-16 3,-5 12,-13 4,-40 75,-84 87,-96 12,-11 7,-5 13,-18 -56,11 -154,147 -155,200z"/>
    <path class="fil4" d="M768 664l-7 -8 -56 1c-2,-31 -10,-64 8,-90l52 0c-9,-13 -45,-6 -61,-4 -12,25 -12,71 -6,102l70 -1z"/>
   </g>
   <g>
    <path class="fil5" d="M447 629l1 2c-9,58 -16,99 -4,162 5,22 13,43 21,63 10,24 13,39 34,51l0 -15 3 0c-7,-6 -8,7 -11,-17 -39,-28 -50,-196 -34,-238 5,-13 2,-6 8,-12l0 -13 -15 13c-1,-1 -2,3 -3,4z"/>
    <polygon class="fil5" points="1021,542 1017,527 1005,525 1007,535 "/>
   </g>
   <g>
    <path class="fil6" d="M491 875c-6,-41 -14,-30 -14,-49 1,-33 -3,4 3,-12 12,-26 15,-15 11,-51 -9,-12 -8,-13 -10,-27l-20 -11 -2 -59 6 -41c-6,6 -3,-1 -8,12 -16,42 -5,210 34,238z"/>
    <path class="fil6" d="M913 976l16 5c0,-22 7,-18 18,-36l-10 11c0,-1 -2,2 -4,4l-22 2c7,12 3,-5 2,14z"/>
   </g>
   <g>
    <path class="fil7" d="M1329 468c1,1 4,0 5,2 1,3 3,3 4,3 1,1 7,6 8,7l-5 -21c-6,-36 -59,-128 -86,-159l-53 -69c-7,-9 -21,-22 -29,-30 -22,-19 -25,-21 -42,-25l31 31c52,56 28,22 85,101 16,23 80,135 82,160z"/>
    <path class="fil7" d="M507 989c0,29 -30,31 -39,65 15,-3 5,0 21,-7l48 -18c10,-8 20,-14 27,-23l31 -1c-5,-7 5,-8 -15,-6l-22 -1 -12 10 -10 9c-1,0 -3,1 -4,2l-39 16c9,-19 18,-24 27,-38 8,-12 3,-3 9,-18l-22 10z"/>
   </g>
   <g>
    <path class="fil8" d="M1346 480c20,41 37,147 37,201l22 7c10,-11 9,-4 11,-21 -10,-26 -27,-90 -30,-114 -5,-34 1,-29 -14,-55 -9,-17 -16,-30 -31,-39l5 21z"/>
    <path class="fil8" d="M1267 1082c17,-11 22,-15 27,-38 -8,6 -8,5 -16,17 -4,7 -6,13 -11,21z"/>
   </g>
   <g>
    <path class="fil9" d="M747 800l16 1c-1,-37 6,1 7,-45 -39,-9 6,7 -36,4 -6,-14 10,-7 -4,-15 -4,-2 -28,-7 -36,-7l4 35c-29,-20 4,-10 -33,-16 -27,21 -31,13 -27,30 5,21 21,13 35,6 5,-2 -1,-10 33,0l6 3c0,0 8,7 11,9 8,-3 6,3 16,-17 10,7 7,-10 8,12z"/>
    <path class="fil9" d="M574 546l3 17c24,-15 19,-18 24,-37 5,-19 16,-17 32,-33 20,7 6,12 19,9 6,-2 -5,-16 -6,-19 -13,0 -23,-6 -41,-6 -2,4 -4,1 -3,12 1,1 4,12 4,13 -41,18 -18,21 -32,44z"/>
   </g>
   <g>
    <path class="fil10" d="M786 963c-12,-3 -19,-1 -32,-7 -21,-7 -13,19 -14,-16 -21,4 -9,6 -33,12 -3,-9 10,-20 -12,-18 -13,1 -18,8 -35,-7 -17,-15 -10,-31 -43,-48l-15 -47c0,-2 -1,-3 -1,-4 4,-2 4,-3 16,-6 4,-1 6,-1 12,-1l2 1 -44 -1c-12,20 -4,2 -15,21 5,14 5,12 11,22l-20 10c19,11 24,13 8,28l35 4c0,45 15,33 38,33 23,0 31,22 61,24l6 0c1,0 2,1 2,1l73 -1z"/>
    <path class="fil10" d="M491 763c1,-11 2,-55 0,-65 -3,-20 -17,-28 -32,-32l2 59 20 11c2,14 1,15 10,27z"/>
   </g>
   <g>
    <path class="fil11" d="M602 429c-6,13 -1,7 -13,18 -12,12 -83,56 -87,96l26 -7 5 1c8,-15 3,-7 15,-20 5,-6 6,-7 12,-14 12,-16 12,-22 32,-30 37,-17 66,-25 115,-28l54 2c-4,-3 -9,-6 -15,-12 -3,-3 -5,-7 -7,-10l-117 -1c-13,2 1,-1 -11,2 -10,3 2,0 -9,3z"/>
    <path class="fil11" d="M863 457c34,6 58,26 84,37 15,-1 12,2 3,-14l-63 -45c-26,-2 -43,-11 -65,2l41 20z"/>
   </g>
   <g>
    <path class="fil12" d="M592 473c-1,1 -2,3 -3,4 -20,30 -13,52 -56,60l-5 -1c-7,23 -17,33 -30,58 -9,16 2,9 -14,15 -9,-12 -7,4 -5,-19 -6,6 -4,1 -8,10 -5,10 -3,3 -1,13 -1,2 -2,12 -1,15l3 15c4,14 -2,8 6,23l24 1c7,-18 4,-27 17,-57 0,-1 9,5 -1,-15 -19,-36 5,20 -7,-12 19,0 17,4 24,-1l18 -11c-13,-6 -4,-2 -10,-11l-7 -18 28 4 10 0c14,-23 -9,-26 32,-44 0,-1 -3,-12 -4,-13 -1,-11 1,-8 3,-12 18,0 28,6 41,6 12,-17 -3,0 16,-12 3,-3 12,-7 15,-9 3,-1 20,-5 30,-6l0 -11c-49,3 -78,11 -115,28z"/>
    <path class="fil12" d="M631 418c62,-7 194,-3 252,12 -2,-3 -5,-12 -7,-15 -58,-20 -116,-34 -192,-21 -21,4 -40,9 -53,24z"/>
   </g>
   <g>
    <path class="fil13" d="M656 712l5 -6 -7 -5c-16,-26 -13,-117 -8,-147 6,-34 -1,-7 8,-20l3 -8c33,-1 60,0 93,0 31,1 61,-5 81,8 19,5 19,4 19,25 -19,13 -58,10 -85,8l-52 0c-18,26 -10,59 -8,90l56 -1c-13,-18 10,-1 -17,-16 -4,-2 -14,-6 -24,-8l0 -19c9,-17 9,0 23,-4 16,-5 3,-2 0,-5 -5,-6 -3,7 -6,-4 0,-2 -2,-2 -3,-3 48,0 12,-10 36,-12 35,-2 5,8 28,17l-2 -22 69 2c9,1 8,2 15,-1 -10,-15 2,-7 -28,-11 3,-1 34,-13 7,-49l-16 -11c-16,-7 -20,2 -40,-1 -43,-7 30,-11 -74,-23 -17,27 11,-6 0,20 -41,-29 -59,-4 -69,2l-17 9c-10,4 -11,8 -25,13 -2,50 3,33 -18,51 12,17 4,3 20,16l-1 99c-1,15 3,10 -6,18l43 -2z"/>
    <path class="fil13" d="M688 823c-8,-11 0,-3 -13,-13l-21 10 0 8c44,9 21,50 78,61 52,-2 80,-35 84,-84l-24 -1 -1 -34c-6,4 -6,3 -11,6l9 55c-5,51 -24,19 -40,16 -14,-2 -28,6 -36,11 -1,-1 -2,-3 -2,-3 -20,-45 -13,8 -23,-32z"/>
   </g>
   <g>
    <path class="fil14" d="M1022 906l-13 21c-10,23 -15,22 -19,34l-13 26c-6,12 -6,13 -13,21 -4,4 -1,-1 -8,8l-7 10c-9,12 7,8 -28,9 0,2 2,3 2,5l4 9c0,0 1,2 1,3l-14 30c-9,14 -7,10 -28,18l-47 20c8,24 6,4 10,27l-93 35c-29,9 -53,9 -86,8 -8,-1 -27,-4 -38,-5 -36,-4 -76,-12 -104,-26 -63,-32 -15,15 -86,-50l-2 10c0,5 -5,8 9,25 1,1 2,2 3,3 0,0 1,2 2,2 15,14 21,9 47,12 0,31 -6,14 23,23 24,7 13,7 35,14 1,0 6,2 8,2 21,4 19,0 34,1 25,0 30,4 37,31 -2,1 -16,5 -16,5 -14,7 -9,-3 -13,11 24,14 2,-11 43,17 13,10 12,3 30,13 11,7 -1,8 15,11 58,-1 81,-13 119,-31 66,-31 21,-13 55,-54 12,-14 7,-11 7,-36l27 0c0,-37 -6,-46 32,-53 72,-12 3,-12 49,-17 3,-43 -8,-27 20,-42l-19 -22c1,-1 3,-5 4,-3l15 -13c-4,4 8,11 -9,2 -11,-6 -7,5 -9,-12 -4,-34 -4,-16 19,-22 -8,-11 -9,-4 -11,-18 18,-1 23,9 32,-2 9,-11 1,-23 13,-44 1,-1 1,-3 2,-4 36,-54 11,-9 24,-60l3 -9c29,-77 11,-150 11,-225 -17,-4 -6,1 -18,-5 3,29 11,48 13,79 6,87 -4,92 -23,150 -7,22 -15,44 -31,58z"/>
    <path class="fil14" d="M553 1029c1,21 -4,15 -11,21 -1,1 -2,2 -3,3l-6 6c21,6 20,-5 30,7l15 31c-15,-7 -4,-12 -38,-18 4,22 11,30 27,42 1,0 3,1 4,2 0,0 22,16 46,20 48,9 75,1 128,1l10 -21 15 12c0,1 1,3 1,4 29,-4 9,6 22,-12l1 10c8,13 -9,2 12,12 13,-19 6,-1 11,-27 -1,-1 -10,-5 -11,-6 -9,-3 -8,-2 -13,-4 -16,-6 -11,-4 -22,-17l-23 16c-10,-18 4,-21 -15,-30 -23,-10 -20,8 -26,20 -16,-17 -13,-5 -24,-16 -22,-22 16,-8 -22,-28 -14,-7 -35,-2 -42,-17l-2 -11c-36,-4 -9,-12 -30,-9 -11,1 -9,8 -34,9z"/>
   </g>
   <g>
    <path class="fil15" d="M646 483c1,3 12,17 6,19 -13,3 1,-2 -19,-9 -16,16 -27,14 -32,33 -5,19 0,22 -24,37l-3 -17 -10 0 1 16 -22 -2c6,9 -3,5 10,11l20 1c-6,14 10,-3 -13,11l-8 4c9,9 12,12 31,18 -13,3 -13,-1 -22,7l-15 25c15,20 16,4 18,19 -4,-9 -22,-17 -32,-16 -25,4 -20,30 -15,48l89 28c32,16 11,5 42,5 11,-5 9,0 8,-9l-43 2c9,-8 5,-3 6,-18l1 -99c-16,-13 -8,1 -20,-16 21,-18 16,-1 18,-51 14,-5 15,-9 25,-13l17 -9c10,-6 28,-31 69,-2 11,-26 -17,7 0,-20 104,12 31,16 74,23 20,3 24,-6 40,1l16 11c27,36 -4,48 -7,49 30,4 18,-4 28,11 -7,3 -6,2 -15,1l-69 -2 2 22c-23,-9 7,-19 -28,-17 -24,2 12,12 -36,12 1,1 3,1 3,3 3,11 1,-2 6,4 3,3 16,0 0,5 -14,4 -14,-13 -23,4 1,1 3,1 4,3 0,2 6,5 6,5l25 12c1,1 3,2 4,2 1,1 5,3 7,4l24 9c21,6 5,-9 22,10 -3,-26 5,-22 20,-18 35,10 -11,18 35,11 0,-2 -2,-6 -3,-5 -1,1 -3,-3 -3,-4 -18,-17 -9,-1 -24,-22 1,0 4,-2 4,-1l18 -4c1,-1 8,-1 12,-1 19,2 10,9 20,0l2 -3c0,0 1,-1 1,-2l53 4c-4,18 0,-2 -16,7 -22,11 -12,-19 -15,23 27,12 40,-6 59,-14 20,-8 51,1 54,11 -2,23 2,2 -9,13l-13 16c-9,13 -12,19 -8,32 1,1 2,3 2,4 1,1 2,3 3,4 -14,9 -27,9 -19,43 14,-1 22,-10 26,-12l3 12c23,-18 -1,-23 -4,-59 5,-4 1,-3 13,-9 11,-6 0,-3 17,-8 0,-1 -2,-6 0,-15 2,-17 -1,-3 7,-22l2 -31c-2,-10 -1,-9 -5,-17 -5,-12 2,1 -4,-7 -6,-10 -2,-5 -8,-11l1 35c-20,-12 -17,-11 -27,-38 -16,-41 -14,-10 -27,-41 -14,-8 -24,-20 -32,-35 -26,-11 -50,-31 -84,-37 -51,-7 -103,1 -156,-1 -10,1 -27,5 -30,6 -3,2 -12,6 -15,9 -19,12 -4,-5 -16,12z"/>
    <path class="fil15" d="M905 917c17,-8 20,-7 31,5 -30,26 -25,4 -31,-5zm-347 13l3 7c1,0 2,2 2,3l13 17c11,15 9,14 24,25 14,-10 -15,-7 28,5l73 15c0,0 16,4 16,4 17,3 -1,1 15,-1 19,-2 13,1 31,0 37,0 6,-21 54,1 19,9 11,5 37,4l21 -4 21 -8c6,-19 -4,-9 17,-22 1,-19 5,-2 -2,-14l22 -2c2,-2 4,-5 4,-4l10 -11c17,-7 15,-9 23,-25 -32,14 -6,5 -17,-3l15 -24c2,-2 11,-12 11,-13 -40,-2 -34,-30 -35,-33 -9,-31 5,1 -5,-11 -11,-12 -12,2 -14,-5 -21,21 18,-20 -7,8l-8 9c-14,-5 -9,-1 -17,-10 -1,2 -3,10 -4,11 0,1 -1,2 -2,3 -17,30 -12,2 -5,33 -16,10 -14,-1 -24,12 -11,13 -3,6 -2,12 0,1 1,3 1,4l-12 29c-18,11 -17,1 -59,21l-73 1c0,0 -1,-1 -2,-1l-6 0c-30,-2 -38,-24 -61,-24 -23,0 -38,12 -38,-33l-35 -4c16,-15 11,-17 -8,-28l20 -10c-6,-10 -6,-8 -11,-22 11,-19 3,-1 15,-21l-15 -15c0,-1 -10,-3 -11,-4 34,1 22,-9 54,-2 -15,-39 -17,-42 -65,-43 18,-14 11,-17 11,-37 -27,-4 8,-2 -19,11 -6,-17 0,-10 -1,-13 -1,-9 3,-1 -3,-11 -9,-17 -4,-15 -19,-11 -15,21 -5,-9 -7,47 -2,26 15,20 -2,55 12,27 19,3 13,27 -8,30 -11,-9 -13,18 -3,25 3,3 15,17 12,12 5,10 12,25 11,4 -9,6 5,-1l8 -5c1,-2 4,-2 5,-3 -9,27 -2,5 -8,19 -2,4 -1,-3 -5,12 20,9 11,-8 16,23z"/>
   </g>
   <path class="fil16" d="M448 631l-1 -2c1,-53 99,-189 155,-200 11,-3 -1,0 9,-3 12,-3 -2,0 11,-2 4,-9 -4,-9 9,-6 13,-15 32,-20 53,-24 76,-13 134,1 192,21 46,13 111,64 128,107l1 3 12 2 4 15 11 31c6,6 2,1 8,11 6,8 -1,-5 4,7 4,8 3,7 5,17 2,1 4,3 5,4 1,0 3,2 4,3 1,0 4,2 5,4 12,6 1,1 18,5 0,75 18,148 -11,225l-3 9c-13,51 12,6 -24,60 -1,1 -1,3 -2,4 -12,21 -4,33 -13,44 -9,11 -14,1 -32,2 2,14 3,7 11,18 -23,6 -23,-12 -19,22 2,17 -2,6 9,12 17,9 5,2 9,-2l-15 13c-1,-2 -3,2 -4,3l19 22c-28,15 -17,-1 -20,42 -46,5 23,5 -49,17 -38,7 -32,16 -32,53l-27 0c0,25 5,22 -7,36 -34,41 11,23 -55,54 -38,18 -61,30 -119,31 -16,-3 -4,-4 -15,-11 -18,-10 -17,-3 -30,-13 -41,-28 -19,-3 -43,-17 4,-14 -1,-4 13,-11 0,0 14,-4 16,-5 -7,-27 -12,-31 -37,-31 -15,-1 -13,3 -34,-1 -2,0 -7,-2 -8,-2 -22,-7 -11,-7 -35,-14 -29,-9 -23,8 -23,-23 -26,-3 -32,2 -47,-12 -1,0 -2,-2 -2,-2 -1,-1 -2,-2 -3,-3 -14,-17 -9,-20 -9,-25l2 -10c-15,4 -23,1 -43,4 -20,2 -22,7 -43,12l17 -48 -11 -11c-6,-12 -2,-33 -2,-48 14,0 66,5 74,-3l12 -12c12,-9 -1,1 11,-6l7 -3c21,-11 14,-12 30,-10l9 4 4 1c3,-21 5,-8 15,-29 -77,-99 -102,-151 -92,-288 4,-50 6,-37 18,-41zm83 -615l-13 7c-26,10 -48,10 -120,41l-6 4c-1,1 -6,3 -7,4 -5,2 -7,2 -11,4 -9,5 -13,8 -24,12l0 -3c-18,20 -31,25 -51,39 -20,14 -30,29 -50,38 -31,14 -20,19 -45,39 -52,41 -80,88 -111,149 -72,141 -54,112 -86,261 -21,95 11,172 20,229 10,65 19,75 48,129 7,13 9,13 16,26 36,65 30,45 53,81 14,24 14,38 36,56 16,13 29,28 47,42 19,16 22,26 52,31 31,5 27,9 29,32 0,1 5,9 6,11l47 25c7,3 5,2 11,6 1,1 3,4 4,3 0,-1 2,2 3,3 1,6 -8,8 9,3l35 15 72 28 148 34c27,6 46,6 80,5l102 -5c46,18 142,-37 184,-61l104 -58 -15 -4c5,-10 84,-72 100,-90 1,-1 6,-9 7,-10 11,-17 12,-26 22,-42 9,-16 15,-14 33,-36 12,-15 17,-21 28,-41 46,-84 50,-105 66,-206 8,-46 15,-59 15,-118 0,-57 -9,-125 -26,-176 -7,-21 -12,-34 -14,-55 -2,-25 -66,-137 -82,-160 -57,-79 -33,-45 -85,-101l-31 -31c0,-1 -1,-4 -1,-3l-8 -12c-8,-9 -95,-68 -116,-73 -5,-2 -8,-3 -13,-6 -5,-3 -7,-5 -10,-7 -8,-5 -41,-19 -52,-21l-22 -11c-14,-4 -27,-7 -41,-12 -91,-33 -148,-31 -240,-31l-89 12c-19,6 -1,-6 -8,4z"/>
   <path class="fil17" d="M533 1059l6 -6c1,-1 2,-2 3,-3 7,-6 12,0 11,-21 25,-1 23,-8 34,-9 21,-3 -6,5 30,9l2 11c7,15 28,10 42,17 38,20 0,6 22,28 11,11 8,-1 24,16 6,-12 3,-30 26,-20 19,9 5,12 15,30l23 -16c11,13 6,11 22,17 5,2 4,1 13,4 1,1 10,5 11,6 -5,26 2,8 -11,27 -21,-10 -4,1 -12,-12l-1 -10c-13,18 7,8 -22,12 0,-1 -1,-3 -1,-4l-15 -12 -10 21c-53,0 -80,8 -128,-1 -24,-4 -46,-20 -46,-20 -1,-1 -3,-2 -4,-2 -16,-12 -23,-20 -27,-42 34,6 23,11 38,18l-15 -31c-10,-12 -9,-1 -30,-7zm409 -68c-18,12 -17,8 -37,18 -6,4 -9,7 -15,11 -20,13 -1,4 -23,10l-26 8 -31 3c-38,5 -134,15 -166,-20 -25,-2 -27,-13 -49,-16l-31 1c-7,9 -17,15 -27,23l-17 13 7 84c-6,1 -30,-2 -41,-4 -17,-4 -25,-9 -37,-23 -29,2 -47,6 -75,9 7,-23 44,-50 57,-61 19,-17 42,-40 62,-49l10 -10 -9 -4c-16,-2 -9,-1 -30,10l-7 3c-12,7 1,-3 -11,6l-12 12c-8,8 -60,3 -74,3 0,15 -4,36 2,48l11 11 -17 48c21,-5 23,-10 43,-12 20,-3 28,0 43,-4 71,65 23,18 86,50 28,14 68,22 104,26 11,1 30,4 38,5 33,1 57,1 86,-8l93 -35c-4,-23 -2,-3 -10,-27l47 -20c21,-8 19,-4 28,-18l14 -30c0,-1 -1,-3 -1,-3l-4 -9c0,-2 -2,-3 -2,-5 35,-1 19,3 28,-9l7 -10c7,-9 4,-4 8,-8 7,-8 7,-9 13,-21l13 -26c-19,8 -11,6 -24,17 -14,12 -7,7 -24,13z"/>
   <path class="fil18" d="M661 706l-5 6c15,1 4,-5 16,5 38,6 46,-20 84,-20 35,0 50,18 60,43 35,-5 17,165 -66,155 -31,-3 -7,1 -18,-6 -57,-11 -34,-52 -78,-61l-18 1 9 40 0 6c35,29 97,97 183,30 27,-22 29,-45 38,-52 5,-42 9,-72 -1,-112 -15,-20 -11,-26 -35,-48 -18,-17 -35,-29 -62,-29l-70 1c-6,-31 -6,-77 6,-102 16,-2 52,-9 61,4 27,2 66,5 85,-8 0,-21 0,-20 -19,-25 -35,-2 -139,-11 -162,4 -19,32 -2,125 -8,168z"/>
   <path class="fil19" d="M932 731c1,0 3,-1 4,1l10 5c9,8 2,-13 10,15 -7,5 9,8 -25,8 -7,0 -21,-4 -22,-11l0 -23c-1,-4 -4,4 -3,-14 -25,2 -26,10 -48,-3 14,-11 27,-4 43,-10l36 -12c4,-1 8,-3 12,-3l11 2c1,1 3,1 4,2l-21 32c-7,10 6,5 -11,11zm-171 -75l7 8c27,0 44,12 62,29 24,22 20,28 35,48l19 6c4,8 14,21 15,31 0,8 -8,25 -10,44l4 16c8,9 3,5 17,10l8 -9c25,-28 -14,13 7,-8 4,-10 -11,-9 12,-8 24,5 9,12 31,3 -4,-13 4,-2 -8,-8l-7 -2c0,-23 -1,-14 6,-32 11,5 3,5 12,14l29 18c3,1 13,6 15,-6 4,-24 -17,16 -3,-29 44,0 12,-11 34,23 1,-1 3,-4 3,-3 0,1 2,-3 2,-4 0,0 28,-68 6,-138l-10 -20c-8,19 -5,5 -7,22 -2,9 0,14 0,15 -1,18 9,40 15,55 -14,15 -8,-8 -14,16 -1,6 1,14 -3,28l-24 -23 -3 -12c-4,2 -12,11 -26,12 -8,-34 5,-34 19,-43 -1,-1 -2,-3 -3,-4 0,-1 -1,-3 -2,-4 -4,-13 -1,-19 8,-32l13 -16c11,-11 7,10 9,-13 -3,-10 -34,-19 -54,-11 -19,8 -32,26 -59,14 -4,29 1,-5 -13,21 0,1 -1,3 -2,4 -9,19 3,9 -24,32l-5 -18c-4,-23 13,-14 -10,-22 -25,-9 -12,9 -50,-2 -17,-19 -1,-4 -22,-10l-24 -9c-2,-1 -6,-3 -7,-4 -1,0 -3,-1 -4,-2l-25 -12c0,0 -6,-3 -6,-5 -1,-2 -3,-2 -4,-3l0 19c10,2 20,6 24,8 27,15 4,-2 17,16z"/>
   <path class="fil20" d="M1113 1246c50,-25 91,-69 120,-117 5,-9 2,-1 5,-9l13 -17c14,-8 11,-2 16,-21 5,-8 7,-14 11,-21 8,-12 8,-11 16,-17 1,-1 2,-3 2,-2 1,0 2,-2 3,-3 4,-9 1,-1 3,-10l8 -10c40,-133 81,-170 73,-338 0,-54 -17,-160 -37,-201 -1,-1 -7,-6 -8,-7 -1,0 -3,0 -4,-3 -1,-2 -4,-1 -5,-2 2,21 7,34 14,55 17,51 26,119 26,176 0,59 -7,72 -15,118 -16,101 -20,122 -66,206 -11,20 -16,26 -28,41 -18,22 -24,20 -33,36 -10,16 -11,25 -22,42 -1,1 -6,9 -7,10 -16,18 -95,80 -100,90l15 4z"/>
   <path class="fil21" d="M519 696c15,-4 10,-6 19,11 6,10 2,2 3,11 1,3 -5,-4 1,13 27,-13 -8,-15 19,-11 0,20 7,23 -11,37 48,1 50,4 65,43 -32,-7 -20,3 -54,2 1,1 11,3 11,4l15 15 44 1 23 -2 21 -10c13,10 5,2 13,13 20,-4 10,6 20,-12l21 18c1,0 2,-3 3,-2l21 -8c-4,-20 1,-7 -6,-19 -1,-22 2,-5 -8,-12 -10,20 -8,14 -16,17 -3,-2 -11,-9 -11,-9l-6 -3c-34,-10 -28,-2 -33,0 -14,7 -30,15 -35,-6 -4,-17 0,-9 27,-30 37,6 4,-4 33,16l-4 -35c-23,3 -8,6 -27,1 -3,-1 -9,-4 -10,-6 -7,-5 -5,-2 -9,-12 -31,0 -10,11 -42,-5l-89 -28 2 8z"/>
   <path class="fil22" d="M470 613l-5 -1 0 13 -6 41c15,4 29,12 32,32 2,10 1,54 0,65 4,36 1,25 -11,51 -6,16 -2,-21 -3,12 0,19 8,8 14,49 3,24 4,11 11,17l-1 -28c25,20 11,45 57,66 -5,-31 4,-14 -16,-23 4,-15 3,-8 5,-12 6,-14 -1,8 8,-19 -1,1 -4,1 -5,3l-8 5c-14,7 6,5 -5,1 -7,-15 0,-13 -12,-25 -12,-14 -18,8 -15,-17 2,-27 5,12 13,-18 6,-24 -1,0 -13,-27 17,-35 0,-29 2,-55 2,-56 -8,-26 7,-47l-2 -8c-5,-18 -10,-44 15,-48 10,-1 28,7 32,16 -2,-15 -3,1 -18,-19l15 -25c9,-8 9,-4 22,-7 -19,-6 -22,-9 -31,-18l8 -4c23,-14 7,3 13,-11l-20 -1 -18 11c-7,5 -5,1 -24,1 12,32 -12,-24 7,12 10,20 1,14 1,15 -13,30 -10,39 -17,57l-24 -1c-8,-15 -2,-9 -6,-23l-3 -15c-1,-3 0,-13 1,-15z"/>
   <path class="fil23" d="M866 853c-9,7 -11,30 -38,52 -86,67 -148,-1 -183,-30l-22 3 -8 -30c7,-10 -11,-11 12,-6l2 -21c-6,0 -8,0 -12,1 -12,3 -12,4 -16,6 0,1 1,2 1,4l15 47c33,17 26,33 43,48 17,15 22,8 35,7 22,-2 9,9 12,18 24,-6 12,-8 33,-12 1,35 -7,9 14,16 13,6 20,4 32,7 42,-20 41,-10 59,-21l12 -29c0,-1 -1,-3 -1,-4 -1,-6 -9,1 2,-12 10,-13 8,-2 24,-12 -7,-31 -12,-3 5,-33 1,-1 2,-2 2,-3 1,-1 3,-9 4,-11l-4 -16c0,1 -1,3 -1,3l-4 7c0,1 -1,2 -1,4l-17 17z"/>
   <path class="fil24" d="M644 1021c32,35 128,25 166,20 11,-12 23,-17 39,-23l5 -8c-26,1 -18,5 -37,-4 -48,-22 -17,-1 -54,-1 -18,1 -12,-2 -31,0 -16,2 2,4 -15,1 0,0 -16,-4 -16,-4l-73 -15c-43,-12 -14,-15 -28,-5 22,18 30,28 57,38l-13 1z"/>
   <path class="fil25" d="M925 831c2,7 3,-7 14,5 10,12 -4,-20 5,11 1,3 -5,31 35,33 0,1 -9,11 -11,13l-15 24c11,8 -15,17 17,3 11,-3 -1,4 9,-4 4,-2 8,-6 11,-10 12,-14 1,-8 16,-18l25 -45c-20,-2 -7,5 -18,-6 3,-6 7,-18 10,-24 13,-24 -2,-7 18,-15l-4 28 8 0 1 -22c-22,-34 10,-23 -34,-23 -14,45 7,5 3,29 -2,12 -12,7 -15,6l-29 -18c-9,-9 -1,-9 -12,-14 -7,18 -6,9 -6,32l7 2c12,6 4,-5 8,8 -22,9 -7,2 -31,-3 -23,-1 -8,-2 -12,8z"/>
   <path class="fil26" d="M1383 681c8,168 -33,205 -73,338 15,-11 15,-11 25,-29 63,-119 33,-58 62,-172l19 -151c-2,17 -1,10 -11,21l-22 -7z"/>
   <path class="fil27" d="M648 721c4,10 2,7 9,12 1,2 7,5 10,6 19,5 4,2 27,-1 8,0 32,5 36,7 14,8 -2,1 4,15 42,3 -3,-13 36,-4 -1,46 -8,8 -7,45l-16 -1c7,12 2,-1 6,19l-21 8c-1,-1 -2,2 -3,2l-21 -18c-10,18 0,8 -20,12 10,40 3,-13 23,32 0,0 1,2 2,3 8,-5 22,-13 36,-11 16,3 35,35 40,-16l-9 -55c5,-3 5,-2 11,-6 -1,-4 -5,-13 -6,-14 -7,-23 5,6 7,-25 -51,-5 -7,-15 -75,-3 -2,0 -3,0 -4,0 -2,1 -3,1 -5,1l-24 0c-14,3 -11,7 -23,2l11 -14c-12,-10 -1,-4 -16,-5 1,9 3,4 -8,9z"/>
   <path class="fil28" d="M707 445l0 11c53,2 105,-6 156,1l-41 -20c22,-13 39,-4 65,-2l-4 -5c-58,-15 -190,-19 -252,-12 -13,-3 -5,-3 -9,6l117 1c2,3 4,7 7,10 6,6 11,9 15,12l-54 -2z"/>
   <path class="fil29" d="M672 717l-11 14c12,5 9,1 23,-2l24 0c2,0 3,0 5,-1 1,0 2,0 4,0 68,-12 24,-2 75,3 -2,31 -14,2 -7,25 1,1 5,10 6,14l1 34 24 1c10,0 1,-56 0,-65 -10,-25 -25,-43 -60,-43 -38,0 -46,26 -84,20z"/>
   <path class="fil30" d="M812 658c38,11 25,-7 50,2 23,8 6,-1 10,22l5 18c27,-23 15,-13 24,-32 1,-1 2,-3 2,-4 14,-26 9,8 13,-21 3,-42 -7,-12 15,-23 16,-9 12,11 16,-7l-53 -4c0,1 -1,2 -1,2l-2 3c-10,9 -1,2 -20,0 -4,0 -11,0 -12,1l-18 4c0,-1 -3,1 -4,1 15,21 6,5 24,22 0,1 2,5 3,4 1,-1 3,3 3,5 -46,7 0,-1 -35,-11 -15,-4 -23,-8 -20,18z"/>
   <path class="fil31" d="M449 1099c4,-18 -6,-2 13,-18 7,-5 12,-6 21,-11 24,-15 6,-14 37,-28l17 -13 -48 18c-6,9 0,5 -12,13l-41 11c4,-28 -2,1 28,-35 22,-27 22,-18 29,-38 -20,9 -43,32 -62,49 -13,11 -50,38 -57,61 28,-3 46,-7 75,-9z"/>
   <path class="fil32" d="M507 989l22 -10 15 -21c-19,-14 -7,-5 -13,-19l-4 2c-14,-2 -11,10 -11,-4 -12,-13 -14,-11 -17,-30 -21,-12 -24,-27 -34,-51 -8,-20 -16,-41 -21,-63 -12,-63 -5,-104 4,-162 -12,4 -14,-9 -18,41 -10,137 15,189 92,288 -10,21 -12,8 -15,29z"/>
   <path class="fil33" d="M1047 639l10 20c22,70 -6,138 -6,138 0,1 -2,5 -2,4 0,-1 -2,2 -3,3l-1 22 -15 52 -8 28c16,-14 24,-36 31,-58 19,-58 29,-63 23,-150 -2,-31 -10,-50 -13,-79 -1,-2 -4,-4 -5,-4 -1,-1 -3,-3 -4,-3 -1,-1 -3,-3 -5,-4l-2 31z"/>
   <path class="fil34" d="M449 1099c12,14 20,19 37,23 11,2 35,5 41,4l-7 -84c-31,14 -13,13 -37,28 -9,5 -14,6 -21,11 -19,16 -9,0 -13,18z"/>
   <path class="fil35" d="M502 892l-3 0c16,10 11,5 19,26l9 23 4 -2c16,14 8,3 13,19l10 8c13,11 11,9 17,27l9 6c20,-2 10,-1 15,6 22,3 24,14 49,16l13 -1c-27,-10 -35,-20 -57,-38 -15,-11 -13,-10 -24,-25l-13 -17c0,-1 -1,-3 -2,-3l-3 -7c-46,-21 -32,-46 -57,-66l1 28z"/>
   <path class="fil36" d="M932 731c17,-6 4,-1 11,-11l21 -32c-1,-1 -3,-1 -4,-2l-11 -2c-4,0 -8,2 -12,3l-36 12c-16,6 -29,-1 -43,10 22,13 23,5 48,3 -1,18 2,10 3,14l0 23c1,7 15,11 22,11 34,0 18,-3 25,-8 -8,-28 -1,-7 -10,-15l-10 -5c-1,-2 -3,-1 -4,-1z"/>
   <path class="fil37" d="M1006 888c-15,10 -4,4 -16,18 -3,4 -7,8 -11,10 -10,8 2,1 -9,4 -8,16 -6,18 -23,25 -11,18 -18,14 -18,36l-16 -5c-21,13 -11,3 -17,22 32,-6 33,-18 60,-28 7,-8 12,-11 23,-21 5,-4 11,-10 14,-13 12,-9 3,-3 16,-9l13 -21 8 -28c-21,4 -4,-7 -24,10z"/>
   <path class="fil38" d="M883 430l4 5 63 45c19,7 36,19 43,42l11 0c-17,-43 -82,-94 -128,-107 2,3 5,12 7,15z"/>
   <path class="fil39" d="M1014 752l24 23c4,-14 2,-22 3,-28 6,-24 0,-1 14,-16 -6,-15 -16,-37 -15,-55 -17,5 -6,2 -17,8 -12,6 -8,5 -13,9 3,36 27,41 4,59z"/>
   <path class="fil40" d="M654 534l0 167 7 5c6,-43 -11,-136 8,-168 23,-15 127,-6 162,-4 -20,-13 -50,-7 -81,-8 -33,0 -60,-1 -93,0l-3 8z"/>
   <path class="fil41" d="M866 853l17 -17c0,-2 1,-3 1,-4l4 -7c0,0 1,-2 1,-3 2,-19 10,-36 10,-44 -1,-10 -11,-23 -15,-31l-19 -6c10,40 6,70 1,112z"/>
   <path class="fil42" d="M979 529c13,31 11,0 27,41 10,27 7,26 27,38l-1 -35 -11 -31 -14 -7 -2 -10 -1 -3 -11 0 1 11 -15 -4z"/>
   <path class="fil43" d="M502 543c-9,8 -2,-3 -12,13 0,1 -5,11 -5,11 -5,13 -5,10 -6,23 -2,23 -4,7 5,19 16,-6 5,1 14,-15 13,-25 23,-35 30,-58l-26 7z"/>
   <path class="fil44" d="M654 701l0 -167c-9,13 -2,-14 -8,20 -5,30 -8,121 8,147z"/>
   <path class="fil45" d="M643 1365l-148 -34 26 18c11,5 24,7 37,11 28,7 50,5 85,5z"/>
   <path class="fil46" d="M493 998c-7,20 -7,11 -29,38 -30,36 -24,7 -28,35l41 -11c12,-8 6,-4 12,-13 -16,7 -6,4 -21,7 9,-34 39,-36 39,-65l-4 -1 -10 10z"/>
   <path class="fil47" d="M896 998l-21 8c-1,1 -2,2 -3,4l-5 20c22,-6 3,3 23,-10 6,-4 9,-7 15,-11 20,-10 19,-6 37,-18l14 -21c-27,10 -28,22 -60,28z"/>
   <path class="fil48" d="M529 979c-6,15 -1,6 -9,18 -9,14 -18,19 -27,38l39 -16c1,-1 3,-2 4,-2l10 -9 -22 2c7,-21 -2,-7 14,-23 8,-9 5,-7 16,-13l0 -8 -10 -8 -15 21z"/>
   <path class="fil49" d="M947 494c8,15 18,27 32,35l15 4 -1 -11c-7,-23 -24,-35 -43,-42 9,16 12,13 -3,14z"/>
   <path class="fil50" d="M956 970l-14 21c17,-6 10,-1 24,-13 13,-11 5,-9 24,-17 4,-12 9,-11 19,-34 -13,6 -4,0 -16,9 -3,3 -9,9 -14,13 -11,10 -16,13 -23,21z"/>
   <path class="fil51" d="M533 537c43,-8 36,-30 56,-60 1,-1 2,-3 3,-4 -20,8 -20,14 -32,30 -6,7 -7,8 -12,14 -12,13 -7,5 -15,20z"/>
   <path class="fil52" d="M825 1365l-102 5c8,9 2,5 21,6l54 0c38,-1 19,1 27,-11z"/>
   <path class="fil53" d="M546 1008l12 -10 22 1 -9 -6 -18 -3 1 -16c-11,6 -8,4 -16,13 -16,16 -7,2 -14,23l22 -2z"/>
   <path class="fil54" d="M249 162c20,-9 30,-24 50,-38 20,-14 33,-19 51,-39l-82 51c-17,13 -14,3 -19,26z"/>
   <path class="fil55" d="M1031 843l6 -17 4 -28c-20,8 -5,-9 -18,15 -3,6 -7,18 -10,24 11,11 -2,4 18,6z"/>
   <path class="fil56" d="M495 1331l-72 -28c1,11 -4,6 2,14 23,5 43,17 70,14z"/>
   <path class="fil57" d="M1031 843l-25 45c20,-17 3,-6 24,-10l15 -52 -8 0 -6 17z"/>
   <path class="fil58" d="M645 875l0 -6c-16,-11 -8,-5 -18,-27 -23,-5 -5,-4 -12,6l8 30 22 -3z"/>
   <path class="fil59" d="M854 1010l-5 8c-3,12 -3,10 -8,20l26 -8 5 -20c1,-2 2,-3 3,-4l-21 4z"/>
   <path class="fil60" d="M936 922c-11,-12 -14,-13 -31,-5 6,9 1,31 31,5z"/>
   <path class="fil61" d="M527 941l-9 -23c-1,-1 -3,-2 -4,-3 -1,0 -3,-2 -4,-2l-8 -4c0,-2 -2,-2 -3,-2 3,19 5,17 17,30 0,14 -3,2 11,4z"/>
   <path class="fil62" d="M810 1041l31 -3c5,-10 5,-8 8,-20 -16,6 -28,11 -39,23z"/>
   <path class="fil63" d="M308 1237c-2,-23 2,-27 -29,-32l10 8c15,17 -4,21 19,24z"/>
   <path class="fil64" d="M554 974l-1 16 18 3c-6,-18 -4,-16 -17,-27l0 8z"/>
   <path class="fil65" d="M499 907c1,0 3,0 3,2l8 4c1,0 3,2 4,2 1,1 3,2 4,3 -8,-21 -3,-16 -19,-26l0 15z"/>
   <path class="fil66" d="M1006 88c-6,-10 9,-8 -11,-8 -6,-7 1,-2 -12,-5 3,2 5,4 10,7 5,3 8,4 13,6z"/>
   <polygon class="fil67" points="931,54 926,43 909,43 "/>
   <path class="fil68" d="M544 958c-5,-16 3,-5 -13,-19 6,14 -6,5 13,19z"/>
   <path class="fil69" d="M379 1285c-1,-1 -3,-4 -3,-3 -1,1 -3,-2 -4,-3 -6,-4 -4,-3 -11,-6l5 12 13 0z"/>
   <path class="fil70" d="M1238 1120c15,-8 9,1 13,-17l-13 17z"/>
  </g>
 </g>
</svg>
