<?xml version="1.0" encoding="UTF-8"?>
<!DOCTYPE svg PUBLIC "-//W3C//DTD SVG 1.1//EN" "http://www.w3.org/Graphics/SVG/1.1/DTD/svg11.dtd">
<!-- Creator: CorelDRAW X6 -->
<svg xmlns="http://www.w3.org/2000/svg" xml:space="preserve" width="0.912291in" height="1.28032in" version="1.1" style="shape-rendering:geometricPrecision; text-rendering:geometricPrecision; image-rendering:optimizeQuality; fill-rule:evenodd; clip-rule:evenodd"
viewBox="0 0 982 1378"
 xmlns:xlink="http://www.w3.org/1999/xlink">
 <defs>
  <style type="text/css">
   <![CDATA[
    .fil103 {fill:#39261B}
    .fil57 {fill:#3D2B23}
    .fil114 {fill:#3D3124}
    .fil36 {fill:#422D24}
    .fil58 {fill:#433325}
    .fil54 {fill:#442A1B}
    .fil74 {fill:#493828}
    .fil121 {fill:#4A362A}
    .fil144 {fill:#4B3425}
    .fil81 {fill:#4C3B2C}
    .fil165 {fill:#4D4236}
    .fil64 {fill:#533D33}
    .fil49 {fill:#543B25}
    .fil115 {fill:#54422D}
    .fil12 {fill:#552B2C}
    .fil126 {fill:#554935}
    .fil174 {fill:#583A27}
    .fil156 {fill:#584F4A}
    .fil34 {fill:#594938}
    .fil142 {fill:#594A45}
    .fil112 {fill:#5B4327}
    .fil70 {fill:#5B4532}
    .fil71 {fill:#62452B}
    .fil56 {fill:#644B2D}
    .fil31 {fill:#644B33}
    .fil35 {fill:#664736}
    .fil16 {fill:#675847}
    .fil137 {fill:#68492B}
    .fil160 {fill:#685539}
    .fil53 {fill:#6A352A}
    .fil117 {fill:#6A4E31}
    .fil130 {fill:#6C3634}
    .fil84 {fill:#6C5333}
    .fil128 {fill:#6C5450}
    .fil127 {fill:#6D2D26}
    .fil76 {fill:#725535}
    .fil75 {fill:#73332B}
    .fil1 {fill:#746B57}
    .fil20 {fill:#763935}
    .fil11 {fill:#775A37}
    .fil135 {fill:#78352C}
    .fil38 {fill:#784538}
    .fil15 {fill:#785A45}
    .fil136 {fill:#786648}
    .fil10 {fill:#786959}
    .fil46 {fill:#7C6339}
    .fil22 {fill:#85573D}
    .fil99 {fill:#85693B}
    .fil21 {fill:#864B45}
    .fil40 {fill:#86675A}
    .fil45 {fill:#867659}
    .fil92 {fill:#88342D}
    .fil78 {fill:#883932}
    .fil102 {fill:#886945}
    .fil89 {fill:#892925}
    .fil157 {fill:#8A5956}
    .fil172 {fill:#8A6868}
    .fil106 {fill:#8B7648}
    .fil166 {fill:#8B7864}
    .fil44 {fill:#8C723D}
    .fil107 {fill:#8C7444}
    .fil29 {fill:#8C8568}
    .fil63 {fill:#927A46}
    .fil109 {fill:#937747}
    .fil42 {fill:#947D4A}
    .fil25 {fill:#95342D}
    .fil111 {fill:#955B57}
    .fil129 {fill:#956656}
    .fil173 {fill:#957A55}
    .fil43 {fill:#962824}
    .fil118 {fill:#963B34}
    .fil143 {fill:#96564A}
    .fil5 {fill:#96786A}
    .fil158 {fill:#974A46}
    .fil161 {fill:#976968}
    .fil123 {fill:#98814D}
    .fil94 {fill:#9A231E}
    .fil113 {fill:#9A433A}
    .fil87 {fill:#9B8453}
    .fil139 {fill:#9B8859}
    .fil133 {fill:#A18958}
    .fil101 {fill:#A28D63}
    .fil13 {fill:#A3463D}
    .fil51 {fill:#A5867A}
    .fil32 {fill:#A74B43}
    .fil55 {fill:#A77876}
    .fil17 {fill:#A7957B}
    .fil90 {fill:#A8231D}
    .fil65 {fill:#A82924}
    .fil152 {fill:#A8322D}
    .fil27 {fill:#A83835}
    .fil37 {fill:#A88685}
    .fil171 {fill:#A88F69}
    .fil175 {fill:#A9A779}
    .fil48 {fill:#AA5449}
    .fil3 {fill:#AB9784}
    .fil167 {fill:#AEAAAD}
    .fil155 {fill:#AF98AA}
    .fil176 {fill:#AFAC8F}
    .fil0 {fill:#B29989}
    .fil120 {fill:#B38991}
    .fil132 {fill:#B4574C}
    .fil6 {fill:#B5AAA6}
    .fil153 {fill:#B66F6F}
    .fil18 {fill:#B6AA97}
    .fil62 {fill:#B7251E}
    .fil97 {fill:#B75A55}
    .fil124 {fill:#B83934}
    .fil146 {fill:#B84B46}
    .fil104 {fill:#B86767}
    .fil69 {fill:#B9322B}
    .fil168 {fill:#B96458}
    .fil14 {fill:#B9B8A7}
    .fil91 {fill:#BC2A23}
    .fil149 {fill:#C42A22}
    .fil68 {fill:#C5281F}
    .fil24 {fill:#C65757}
    .fil145 {fill:#C66E6F}
    .fil164 {fill:#C8524C}
    .fil59 {fill:#C9332B}
    .fil39 {fill:#C93933}
    .fil116 {fill:#C94A46}
    .fil154 {fill:#C98C7A}
    .fil88 {fill:#CA281F}
    .fil19 {fill:#CA918A}
    .fil122 {fill:#CB2B23}
    .fil159 {fill:#CB433A}
    .fil4 {fill:#CDB2AE}
    .fil82 {fill:#CE2A21}
    .fil93 {fill:#D1271E}
    .fil119 {fill:#D22A21}
    .fil73 {fill:#D32C24}
    .fil98 {fill:#D52A22}
    .fil30 {fill:#D5352A}
    .fil125 {fill:#D62D25}
    .fil134 {fill:#D6534E}
    .fil60 {fill:#D73B33}
    .fil86 {fill:#D82B24}
    .fil105 {fill:#D84B45}
    .fil41 {fill:#D9453B}
    .fil162 {fill:#DA2B23}
    .fil61 {fill:#DA2D25}
    .fil52 {fill:#DB3126}
    .fil83 {fill:#DC392D}
    .fil85 {fill:#DD2D25}
    .fil79 {fill:#E32E25}
    .fil72 {fill:#E42F27}
    .fil163 {fill:#E4342A}
    .fil80 {fill:#E4392D}
    .fil148 {fill:#E53832}
    .fil66 {fill:#E8453A}
    .fil141 {fill:#E84C45}
    .fil100 {fill:#EA3226}
    .fil77 {fill:#EA352A}
    .fil147 {fill:#EB392D}
    .fil26 {fill:#EB3C32}
    .fil131 {fill:#EC514B}
    .fil151 {fill:#EDC8BA}
    .fil2 {fill:#EDE2DC}
    .fil95 {fill:#F1382D}
    .fil96 {fill:#F23B32}
    .fil150 {fill:#F2B9C4}
    .fil7 {fill:#F4CDCB}
    .fil67 {fill:#F7463A}
    .fil110 {fill:#F74B45}
    .fil33 {fill:#F8A599}
    .fil28 {fill:#F9B2B0}
    .fil8 {fill:#FA5855}
    .fil47 {fill:#FB5547}
    .fil108 {fill:#FC503E}
    .fil50 {fill:#FC6759}
    .fil138 {fill:#FC7668}
    .fil170 {fill:#FC7675}
    .fil9 {fill:#FC938B}
    .fil140 {fill:#FD8877}
    .fil23 {fill:#FD8E77}
    .fil169 {fill:#FEF9FB}
   ]]>
  </style>
 </defs>
 <g id="Layer_x0020_1">
  <metadata id="CorelCorpID_0Corel-Layer"/>
  <g id="_2559455248">
   <g>
    <path class="fil0" d="M108 832l14 4c0,-8 0,-11 -2,-19 -3,-14 -2,-6 -6,-10 -10,5 -3,-3 -6,7 0,3 0,16 0,18z"/>
    <path class="fil0" d="M833 234c5,12 7,13 18,18 -4,-17 -10,-25 -22,-33l4 15z"/>
    <path class="fil0" d="M819 541c-2,-7 0,-12 -8,-9l8 9z"/>
   </g>
   <g>
    <path class="fil1" d="M664 112c-1,-12 2,-9 10,-13 1,-9 -1,-11 -4,-18l17 4 -4 -10 -11 -9 -4 9c-19,1 -8,-2 -25,-7 -5,21 8,12 17,27 3,5 3,8 4,17z"/>
    <path class="fil1" d="M152 127c6,-5 6,-5 12,-10 6,-4 3,0 7,-4 6,-6 3,-1 6,-11 -18,8 -16,10 -25,25z"/>
   </g>
   <g>
    <path class="fil2" d="M362 1352c24,0 28,6 47,8l-1 -14c-11,-7 -27,-15 -45,-15l-1 21z"/>
    <path class="fil2" d="M627 1362l-1 16c9,0 18,0 27,0 3,0 13,0 15,0 15,-2 6,0 9,-4l-9 -16 -36 4 -5 0z"/>
    <path class="fil2" d="M750 1352c11,-4 17,-5 30,-13l4 -3c9,-7 -1,1 6,-5 -27,-1 -39,-7 -40,21z"/>
    <path class="fil2" d="M450 1367c10,6 29,3 45,3 -5,-3 1,-2 -12,-6l-33 3z"/>
    <path class="fil2" d="M761 119c-6,-11 -1,-8 -16,-11 5,9 1,7 16,11z"/>
   </g>
   <g>
    <path class="fil3" d="M28 578c-3,-19 -4,-17 -9,-30 -5,-13 -2,-19 -7,-32 -7,-14 -8,-13 -7,-32 1,-6 3,-11 4,-15 2,-15 1,-13 -5,-19 -6,12 -4,19 -4,34 0,15 -1,25 2,38l19 50c6,7 -2,-1 7,6z"/>
    <path class="fil3" d="M890 1231l14 4c6,-26 6,-2 21,-34 14,-32 15,-20 15,-37 -15,18 -26,30 -21,49 -21,-2 -19,5 -29,18z"/>
    <path class="fil3" d="M137 124l1 3 14 0c9,-15 7,-17 25,-25l10 -9c-12,1 -18,4 -26,10 -11,9 -7,8 -24,12l0 9z"/>
   </g>
   <g>
    <path class="fil4" d="M790 552c3,2 6,3 9,6 9,9 2,0 7,10 3,3 1,3 5,6 7,7 2,3 8,6 -2,-48 -37,-29 -24,-53l9 4c0,8 -1,0 7,1 -5,-11 -9,-14 -17,-19l-10 -2c1,4 2,8 2,10l-3 4c0,0 -1,2 -2,2l9 25z"/>
    <path class="fil4" d="M969 918l1 54 10 5c0,-16 -3,-12 -4,-26 -1,-11 0,-26 0,-37l-9 2 2 2z"/>
   </g>
   <g>
    <path class="fil5" d="M967 916l9 -2c-6,-24 2,-45 -16,-83 -1,-1 -2,-4 -2,-5 -1,-1 -2,-2 -2,-2 0,0 -1,-1 -1,-2l-2 -2c-4,28 11,70 14,96z"/>
    <path class="fil5" d="M69 649c-10,-18 -3,-15 -8,-29 -1,-1 -7,-11 -8,-12 -10,-11 -5,-4 -13,-9 0,19 -2,10 6,23 18,29 11,28 23,27z"/>
    <path class="fil5" d="M83 675l15 3 -3 -12 -5 -2c-8,-4 -7,4 -7,-4 -3,-3 -8,-7 -14,-11 -4,8 -7,8 0,8 6,12 3,9 14,18z"/>
    <path class="fil5" d="M919 735c0,-14 -4,-13 -12,-18l0 16 12 2z"/>
   </g>
   <g>
    <path class="fil6" d="M877 563l0 7c-1,14 -2,22 -12,33 -8,-9 -11,-17 -16,-24l10 37 14 0 3 0c2,-10 19,-66 18,-78 -1,-14 -1,-6 -4,-11 -2,8 -3,13 -4,21 -1,1 -3,8 -3,9 -3,7 -1,2 -6,6z"/>
    <path class="fil6" d="M835 610l1 6c8,6 6,1 14,13l22 40c2,3 2,3 5,9 1,3 0,3 2,8 3,8 3,6 7,16l15 1c-5,-8 -7,-7 -12,-16 -5,-9 -6,-16 -10,-24 -11,-8 -11,-14 -17,-27 -11,-11 -20,-37 -43,-56 3,18 9,12 16,30z"/>
    <path class="fil6" d="M810 183l3 7c16,0 5,1 9,-3l-7 -11 -5 7z"/>
    <polygon class="fil6" points="865,273 865,276 869,273 "/>
    <polygon class="fil6" points="887,337 887,341 "/>
   </g>
   <g>
    <path class="fil7" d="M288 997l10 3 12 1c9,-11 6,-6 24,-8l2 -8 -2 -2 -16 -1c-27,-8 -9,-17 -36,-12 -1,9 -2,5 0,15 2,8 -1,-3 4,7l2 5z"/>
    <path class="fil7" d="M589 1374c-8,-7 -9,-6 -22,-6 -4,0 -10,0 -14,1 -8,2 -4,0 -8,5 8,8 28,0 44,0z"/>
   </g>
   <g>
    <path class="fil8" d="M271 948c29,-10 23,-4 37,4l32 18c9,6 14,9 28,12 5,-22 0,1 -6,-12 -10,-8 -11,-5 -21,-12 0,0 -45,-36 -63,-25 -9,6 -6,7 -7,15z"/>
    <path class="fil8" d="M312 1046l0 -9 -5 2c-22,2 -14,-3 -23,-14 -9,-11 -11,3 -12,-26 -7,-25 -8,-24 -1,-50 -17,4 -16,2 -14,17 2,15 0,20 -3,31 16,17 7,9 15,26 6,14 15,16 22,25l21 -2z"/>
    <path class="fil8" d="M564 1078c-7,14 -5,27 -3,47l6 5c18,0 35,6 48,-3 -12,2 -47,6 -52,-15 -1,-8 -1,-3 1,-10 3,-15 -1,-1 5,-8 5,-8 11,-11 18,-18l1 -28 -17 3c0,8 0,9 -2,17 0,0 -3,7 -3,7l-2 3z"/>
   </g>
   <g>
    <path class="fil9" d="M271 948l2 5 18 0 4 -2 3 6 36 26 2 2 3 0c18,3 19,15 41,13 0,-1 -1,-3 -1,-3 -3,6 -2,-6 -3,-7 -9,2 -8,-3 -8,-6 -14,-3 -19,-6 -28,-12l-32 -18c-14,-8 -8,-14 -37,-4z"/>
    <path class="fil9" d="M416 1064c13,-6 9,-6 25,-9 38,-7 18,-34 -17,-39 9,15 13,9 14,28 -13,9 -12,3 -22,20z"/>
   </g>
   <g>
    <path class="fil10" d="M556 44l8 4c12,2 30,0 39,3 4,1 4,5 18,5 7,0 9,-2 17,-4l0 -6c-12,0 -38,-15 -57,-19 -5,8 -10,3 -23,7 -3,6 -5,-9 -2,10z"/>
    <path class="fil10" d="M815 265c10,4 5,0 12,9 13,10 20,15 31,6l0 -11 -4 4 -9 -1 -9 -13 -22 1 -3 -5c2,6 1,6 4,10z"/>
    <path class="fil10" d="M869 576c-6,9 8,4 -8,8l-12 -13 0 8c5,7 8,15 16,24 10,-11 11,-19 12,-33l-7 0 -1 6z"/>
    <path class="fil10" d="M54 246c8,0 5,6 4,14 3,-4 3,-2 6,-6 3,-4 3,-4 5,-10 2,-8 4,-13 6,-21 -10,6 -1,-2 -8,5 -3,4 -1,2 -4,7 -5,6 -3,5 -9,11z"/>
   </g>
   <g>
    <path class="fil11" d="M671 372c8,1 7,-1 5,6 8,8 3,13 4,24 2,12 4,10 8,22l-5 2c2,2 0,3 4,6 7,6 1,3 11,4l-3 -20c9,-11 8,-9 6,-18 -4,-15 -8,-28 -16,-38l-19 -31c-9,-14 7,1 -9,-6l3 18c9,5 12,24 11,31z"/>
    <path class="fil11" d="M523 65l0 4c13,-3 10,2 12,4 21,-1 57,8 69,22 12,0 8,2 20,4l14 1c-9,-11 -24,-21 -46,-17l0 -21c-31,-7 -22,-4 -28,-14l-8 -4c10,2 2,2 7,6 -10,6 -13,5 -17,18l-23 -3z"/>
   </g>
   <g>
    <path class="fil12" d="M79 649l11 15 5 2 3 12c5,0 2,-3 4,3l8 5c19,-1 20,-2 23,-23 1,-8 0,-11 3,-19 5,-14 3,-2 6,-17l-12 2c-10,17 -3,6 -16,15 10,4 6,3 5,17 -13,-4 -27,-6 -26,-21l-14 9z"/>
    <path class="fil12" d="M101 902l9 0c8,-19 5,-26 4,-47l-6 -6c-7,-4 -2,1 -5,11 -1,6 -2,6 -1,14 3,21 -1,10 -1,28z"/>
   </g>
   <g>
    <path class="fil13" d="M298 589l34 -2 1 -12c-8,3 -3,1 -8,3 -34,12 -19,-19 -57,-21l0 -3c-19,11 -9,20 0,35 9,14 -8,-9 3,5 10,14 9,4 13,12 10,-20 3,-11 14,-17z"/>
    <path class="fil13" d="M302 471l-6 -5c6,-7 -10,-9 18,-9l-1 15c-11,0 -2,1 -11,-1zm-38 15c16,-1 15,11 31,13l0 21 12 1 -3 -24c12,-4 -1,0 13,-6 0,-14 3,-21 5,-30 -4,-2 -8,-6 -13,-9 -19,7 -28,22 -32,25 -7,6 -4,-1 -13,9z"/>
   </g>
   <g>
    <path class="fil14" d="M536 17l1 0 44 10c19,4 45,19 57,19l19 1c0,-10 -13,-12 -20,-16 -9,-4 -15,-8 -24,-12 -20,-7 -35,-12 -60,-12l-1 3 -16 7z"/>
    <path class="fil14" d="M720 93l19 22 4 3c3,1 6,2 10,4 14,9 4,0 10,10 12,12 19,26 37,36l4 4 7 0c-10,-14 -31,-50 -50,-53 -15,-4 -11,-2 -16,-11 -2,-5 1,-2 -3,-7 0,0 -7,-7 -7,-7 -7,-6 -8,-6 -18,-8l3 7z"/>
    <path class="fil14" d="M869 294c4,0 3,-1 3,4l0 3 7 4c-2,-12 -3,-17 -10,-25l0 14z"/>
   </g>
   <g>
    <path class="fil15" d="M298 411l-3 4c-18,0 -23,2 -32,15l15 0c1,9 -3,17 -6,29 9,-4 10,-7 18,-12 6,-5 11,-7 17,-13 6,-2 4,0 8,-4l3 -4c9,-11 12,-9 15,-27 -20,-1 -18,-3 -31,8l-4 4z"/>
    <path class="fil15" d="M953 820l2 2 -33 -87c-5,4 -4,-7 -4,11 1,14 27,64 35,74z"/>
   </g>
   <g>
    <path class="fil16" d="M482 40c30,1 27,7 35,16 14,0 9,1 14,-4l7 -7c0,-1 0,-2 1,-3 9,5 4,3 17,2 -3,-19 -1,-4 2,-10 13,-4 18,1 23,-7l-44 -10c2,2 5,7 7,8l-64 3 2 12z"/>
    <path class="fil16" d="M380 19l26 -3c-5,13 -7,9 -9,9 -1,2 -4,3 -6,4 3,-3 -5,-10 7,3l-10 15 3 1 18 2c13,-6 -1,1 8,-5 10,-7 8,-4 12,-13 -3,-2 -2,-2 -8,-4 -2,-1 -5,-2 -8,-3l12 -16c-9,1 -17,2 -24,3 -4,1 -9,1 -13,2 -15,4 -1,0 -8,5z"/>
   </g>
   <g>
    <path class="fil17" d="M781 543c-12,-31 -29,-13 -21,-49 15,4 11,6 26,12 -12,-21 -32,-29 -54,-37l-12 -1 -2 19c23,25 41,44 63,56z"/>
    <path class="fil17" d="M8 370l17 1c4,-19 -4,-8 -2,-26 0,-11 6,-14 8,-28 2,-2 5,-3 7,-4 1,-13 4,-18 8,-27 6,-15 1,-16 12,-26 1,-8 4,-14 -4,-14 -4,12 -6,17 -12,29 -5,10 -10,18 -14,29 -8,19 -20,42 -20,66z"/>
    <path class="fil17" d="M4 414l5 2c0,1 0,11 0,11 4,11 1,5 7,12l-1 -62 -11 -2 0 39z"/>
   </g>
   <g>
    <path class="fil18" d="M298 36l4 2 7 -1c0,-6 -1,-6 4,-2l7 -2c2,-5 -5,-5 7,-3 16,-4 37,-13 53,-11 7,-5 -7,-1 8,-5 4,-1 9,-1 13,-2 7,-1 15,-2 24,-3 28,0 85,0 111,8l16 -7 1 -3c1,-9 11,1 -29,-4 -47,-5 -55,-4 -105,3 -24,4 -44,3 -66,9 -28,8 -37,5 -55,21z"/>
    <path class="fil18" d="M112 797l10 4 9 -22c5,-36 -4,-37 -34,-68 4,14 10,22 15,39 4,15 6,32 0,47z"/>
    <path class="fil18" d="M638 46l0 6 34 14 11 9c16,6 23,13 37,18l-3 -7c-6,-11 -5,-8 -16,-16 -5,-4 -3,-3 -8,-6 -11,-8 -21,-10 -29,-21l-7 4 -19 -1z"/>
    <path class="fil18" d="M781 543l9 9 -9 -25c1,0 2,-2 2,-2l3 -4c0,-2 -1,-6 -2,-10l10 2 -2 -6 -6 -1c-15,-6 -11,-8 -26,-12 -8,36 9,18 21,49z"/>
   </g>
   <g>
    <path class="fil19" d="M148 635l-3 62c12,-2 12,0 17,-8 3,-5 -2,-5 9,-14l0 -3c5,-19 2,-12 11,-26l2 -7c-10,-16 -5,-16 -11,-26 -18,9 -4,10 -25,22z"/>
    <path class="fil19" d="M137 1063c16,-6 7,-39 3,-51 -3,-12 -4,-6 -9,-17 -4,-9 -1,-10 -6,-18l-10 -2c1,14 7,33 10,45 3,9 3,10 5,20 2,12 4,10 7,23z"/>
    <path class="fil19" d="M176 579l-2 23 16 -1 2 -13 -12 -1c0,-1 -1,-2 -2,-2 6,-13 -9,-7 13,-8l-5 -3c-7,-4 2,-1 -7,-1l-3 6z"/>
   </g>
   <g>
    <path class="fil20" d="M757 587c-10,2 29,18 30,18 11,5 2,1 13,6 7,3 0,1 7,3l6 -1c-3,-14 1,-9 -7,-19 -10,-11 -3,-8 -18,-9 5,-32 -43,-22 -63,-23 10,19 21,2 32,25z"/>
    <path class="fil20" d="M641 480l-3 -5c-4,-3 -3,-2 -7,-5 -5,-5 -3,-3 -7,-8 -1,0 -3,0 -3,1l-13 -1c-11,-5 -7,-5 -11,-14l16 -8c11,-11 -16,-25 8,-34l-16 -2 -2 7c-11,-1 -6,-1 -18,-2 -2,55 7,30 7,60 35,0 28,7 49,11z"/>
   </g>
   <g>
    <path class="fil21" d="M742 602c-13,-14 -4,4 -31,-18 -28,-22 -18,5 -33,-20 25,1 25,6 42,10 -7,-16 -9,-7 -24,-16 -9,0 -38,-15 -86,-20 3,12 -1,14 13,20 2,1 29,6 52,16 37,15 46,25 67,28z"/>
    <path class="fil21" d="M664 488l20 10c5,3 9,6 15,9 10,5 11,2 12,8l14 1c4,-7 7,-6 -1,-6 -12,-9 -13,-11 -31,-19 -13,-6 -17,-15 -18,-33l-6 1c-17,-2 -18,-10 -18,-29 -13,12 -5,6 -10,20 -1,1 -1,2 -2,2 -12,25 4,-13 -3,7l22 21c0,-1 1,1 2,1 6,0 4,-1 4,7z"/>
    <path class="fil21" d="M784 626c5,9 0,3 7,11l45 33c0,-12 -12,-10 -16,-23l14 0 -1 -8c-12,-6 -19,-13 -26,-25 -7,-2 0,0 -7,-3 -11,-5 -2,-1 -13,-6 15,20 14,5 20,30 -20,-3 -8,1 -23,-9z"/>
    <path class="fil21" d="M101 902l0 5c10,3 6,3 17,3l3 -20c2,-13 4,-25 3,-35 -11,-4 -6,-3 -16,-12l0 6 6 6c1,21 4,28 -4,47l-9 0z"/>
   </g>
   <g>
    <path class="fil22" d="M683 426c-7,1 -11,2 -17,3 -5,0 -9,0 -15,1 0,19 1,27 18,29l31 -16 6 13c24,-1 11,0 26,6l9 -1c-18,-21 -17,-20 -31,-27 -2,-28 4,-16 -9,-36 2,9 3,7 -6,18l3 20c-10,-1 -4,2 -11,-4 -4,-3 -2,-4 -4,-6z"/>
    <path class="fil22" d="M241 456l0 12 0 15 8 -2c13,-2 6,0 12,-6 10,-10 0,0 5,-10l-19 1 5 -11 -1 -9c-3,4 -6,8 -10,10z"/>
   </g>
   <g>
    <path class="fil23" d="M611 1022c-3,8 -1,5 -7,12 -1,1 -4,3 -6,5 -4,4 -2,2 -6,5 1,1 1,2 1,4l3 25 22 5c0,0 2,-2 2,-2 0,1 2,-1 2,-1 1,-1 4,-3 5,-4 7,-7 2,-2 6,-8l11 -19 -7 -18c-3,-7 -2,-5 -5,-9 -10,1 -14,2 -21,5z"/>
    <path class="fil23" d="M572 1095c0,29 13,26 40,22l1 -32c-22,-1 -26,4 -41,10z"/>
   </g>
   <g>
    <path class="fil24" d="M190 1177l10 8c56,53 30,45 120,109 17,12 11,2 21,19l12 1 12 0c-12,-15 -8,-7 -21,-15 -8,-5 -11,-10 -20,-15 -28,-17 -52,-39 -74,-62 -13,-13 -25,-16 -34,-36 -17,-10 -11,-10 -25,-18l-1 9z"/>
    <path class="fil24" d="M762 1293c-10,10 -5,2 -8,13 11,0 3,5 28,-11 10,-6 17,-10 25,-15 3,-2 7,-5 10,-7 16,-13 25,-16 29,-33 -14,4 -7,4 -19,14 -5,5 -13,10 -20,15 -19,13 -25,15 -45,24z"/>
   </g>
   <g>
    <path class="fil25" d="M409 547l-24 1c-6,-17 0,-17 -15,-21 0,-15 3,-21 8,-32 -10,4 -9,7 -15,15l-12 -8c5,-1 6,-2 12,-3 -5,-20 1,-8 2,-21 1,-5 3,-4 -2,-4l-30 13c5,13 -3,4 6,10l-5 16c1,1 1,2 2,2l7 9c-1,1 -2,1 -3,2l-3 9c12,6 10,1 19,0l1 18 52 -6z"/>
    <path class="fil25" d="M829 728l25 1c2,7 2,6 7,10l-3 8 12 2c3,18 6,7 20,22l10 11c1,-30 -11,-28 -28,-43 -13,-11 7,-20 -36,-44 -1,0 -7,1 -8,1 -19,2 2,-2 -17,-2 2,16 3,10 14,16l4 18z"/>
   </g>
   <g>
    <path class="fil26" d="M632 966l-5 -1c-1,1 -3,3 -3,3l-3 3c-4,2 1,3 -7,0 -1,13 0,11 -5,20 68,-18 31,-1 63,23l9 29c15,-1 11,-2 15,7 11,-6 8,-4 13,-13 -15,-11 -2,-4 -23,-7 -2,-11 1,-3 3,-18 -9,-10 -5,-11 -20,-12 18,-11 -2,-4 8,-28 -16,-7 -7,1 -19,-11l-26 5z"/>
    <path class="fil26" d="M260 925c5,8 -11,10 9,6 7,-7 7,-5 11,-13l13 -2 -2 -8c0,-1 2,-5 2,-6 4,-7 0,3 4,-9l-2 -7 -18 1 -2 21c-1,0 -2,1 -2,2l-13 15z"/>
   </g>
   <g>
    <path class="fil27" d="M936 912c-4,6 5,0 -5,8l10 1c1,25 5,45 2,67 -1,11 -4,60 2,66l-5 10 -4 29c8,-11 2,-7 5,-20 3,-12 5,0 7,-22l5 4c14,-39 0,-117 2,-166l-7 0 0 20 -12 3z"/>
    <path class="fil27" d="M314 607c-8,12 -6,7 -17,16 -6,6 -9,10 -17,16l2 11c-10,-3 0,-4 -19,7l-6 3c-3,12 -4,-5 -5,11l30 -11 15 -4 -2 -6c27,-9 22,-10 28,-19 19,-1 21,1 21,-18l-20 4c0,-2 2,-6 3,-7l11 -12c-12,5 -11,8 -24,9z"/>
   </g>
   <g>
    <path class="fil28" d="M298 1000l-10 -3 6 12c25,25 52,26 70,34 37,16 13,17 44,13 7,-13 3,-10 4,-26 -35,-28 -3,9 -15,-17 -6,-5 -17,-4 -17,-15 -22,2 -23,-10 -41,-13l2 8c13,4 22,12 33,19 10,6 19,14 21,29 -18,-1 -51,-17 -70,-27l-27 -14z"/>
    <path class="fil28" d="M288 997l-2 -5c-5,-10 -2,1 -4,-7 -2,-10 -1,-6 0,-15 27,-5 9,4 36,12 -7,-25 -8,-5 -20,-25l-3 -6 -4 2c-10,10 -20,19 -14,34l11 10z"/>
   </g>
   <g>
    <path class="fil29" d="M746 177l0 2c13,3 9,3 11,12 13,4 3,3 15,14 15,-6 0,-2 14,-8 16,15 12,27 29,40l18 -3 -4 -15 0 -15c-8,-4 -11,-6 -18,-10 -4,3 2,12 -18,-15 -6,-8 -10,-14 -15,-24l-13 -3 -11 9c3,10 3,8 10,14l-18 2z"/>
    <path class="fil29" d="M129 129l3 15c10,-6 11,-9 20,-17l-14 0 -1 -3c-8,1 0,-7 -8,5z"/>
   </g>
   <g>
    <path class="fil30" d="M670 1243l-6 -1 4 25 21 -4c1,-1 1,-2 2,-3 4,-7 -4,1 5,-8 2,11 -1,7 8,18 15,-4 10,-3 21,-10l-9 19c0,1 -1,3 -1,4l14 1 10 -1c6,-7 4,6 7,-14l7 -1c9,-11 3,5 9,-7 8,-12 -1,-15 -1,-16l-14 10 -12 -5c-19,-8 -1,-4 -26,-3 -5,-14 0,-6 -12,-14 -12,-8 -8,0 -10,-11l-7 -1c0,10 1,21 -10,22z"/>
    <path class="fil30" d="M190 855c1,-10 -1,-1 8,-5l8 11c4,3 1,2 6,4l-1 1 2 -19c19,-8 17,-1 31,6 -3,-25 -4,-19 6,-21l1 -8 14 2 -4 -18 -23 1c-19,9 -6,7 -34,9l0 23c-6,-9 -3,-5 -14,-9l0 23z"/>
   </g>
   <g>
    <path class="fil31" d="M516 369c20,1 11,5 33,6 -10,4 4,-2 4,-2 17,4 34,7 46,9 23,4 24,8 41,15l-4 -2 -1 -10 0 -11c-22,-4 6,-4 -35,-9 -2,-3 -3,-7 -7,-11l-10 -7c0,-2 -1,-2 -2,-3l-6 2 -15 2c-4,-4 -6,-2 -7,-11 -8,15 8,10 -18,10 -3,13 -4,11 -17,13l-2 9z"/>
    <path class="fil31" d="M625 325c-19,19 -12,33 15,35 1,-14 0,-40 -15,-35z"/>
   </g>
   <g>
    <path class="fil32" d="M229 599c-4,6 3,4 -5,7l7 25c8,-1 5,-1 12,-4 37,-21 17,-14 51,-16 -4,14 -2,13 -15,20l-20 20 -2 9 6 -3c19,-11 9,-10 19,-7l-2 -11c8,-6 11,-10 17,-16 11,-9 9,-4 17,-16 -10,1 -11,6 -18,-2 -7,-8 -1,-10 2,-16 -11,6 -4,-3 -14,17 -4,-8 -3,2 -13,-12 -11,-14 6,9 -3,-5 -9,-15 -19,-24 0,-35l-2 -5c-15,6 -1,5 -18,10 -3,15 -3,11 -11,21 -10,12 -3,4 -8,19z"/>
    <path class="fil32" d="M176 549c0,16 -5,16 -11,30l5 1c3,-6 1,-3 5,-7 1,-3 2,-3 4,-5 12,-32 18,-18 36,-35l30 -30c5,-6 2,-2 7,-7 6,4 8,4 14,9l12 12c-5,14 -11,9 -12,32 16,-10 15,-1 31,-14 -17,-7 -5,2 -11,-13l9 -2 0 -21c-16,-2 -15,-14 -31,-13 -4,0 -6,0 -9,-1 -1,-1 -2,-2 -3,-2 -1,0 -2,-1 -3,-2l-8 2c-5,12 -11,22 -19,29 -14,13 -6,13 -29,22 -3,11 -5,17 -17,15z"/>
   </g>
   <g>
    <path class="fil33" d="M272 999l35 40 5 -2c16,4 37,9 53,15 27,11 14,12 51,12 10,-17 9,-11 22,-20 -1,-19 -5,-13 -14,-28l-27 -3c12,26 -20,-11 15,17 -1,16 3,13 -4,26 -31,4 -7,3 -44,-13 -18,-8 -45,-9 -70,-34l-6 -12 -11 -10c-6,-15 4,-24 14,-34l-18 0 -2 -4c-7,26 -6,25 1,50z"/>
    <path class="fil33" d="M318 982l16 1 -36 -26c12,20 13,0 20,25z"/>
    <path class="fil33" d="M192 588l-1 -11c-22,1 -7,-5 -13,8 1,0 2,1 2,2l12 1z"/>
   </g>
   <g>
    <path class="fil34" d="M409 50c16,0 6,2 15,3l39 -6c14,-2 4,-3 19,-7l-2 -12 64 -3c-2,-1 -5,-6 -7,-8l-1 0c-26,-8 -83,-8 -111,-8l-12 16c3,1 6,2 8,3 6,2 5,2 8,4 -4,9 -2,6 -12,13 -9,6 5,-1 -8,5z"/>
    <polygon class="fil34" points="419,342 430,342 431,324 413,323 412,337 "/>
   </g>
   <g>
    <path class="fil35" d="M461 376c13,-1 43,1 59,4 58,10 62,-1 65,16 0,0 1,0 1,0l19 8 16 2c11,5 15,12 27,14 14,3 23,-5 35,6l5 -2c-4,-12 -6,-10 -8,-22 -1,-11 4,-16 -4,-24l0 13c-16,5 -12,-6 -12,15l-18 -1c-2,-3 -2,-3 -6,-8 -17,-7 -18,-11 -41,-15 -12,-2 -29,-5 -46,-9 0,0 -14,6 -4,2 -22,-1 -13,-5 -33,-6l-31 -5c-11,5 -17,2 -24,12z"/>
    <path class="fil35" d="M318 426l-3 4c19,-6 13,-9 27,-16l9 -11 27 -4 0 -6c-6,-6 4,-10 -26,-2l-7 -8c-7,11 -4,17 -11,26 -2,5 -11,12 -16,17z"/>
   </g>
   <g>
    <path class="fil36" d="M60 567c4,-3 6,-1 9,-4 -16,-22 -3,-14 0,-17 6,6 2,1 6,7l3 8c0,1 1,2 1,3 27,7 6,-3 18,-2 10,0 6,13 6,24 23,3 4,7 28,14 -10,-30 -20,-56 -40,-83l-16 -3 -6 -34c-5,5 -7,9 -8,20l-17 -3c0,20 1,10 -1,27 16,15 13,13 31,6 0,14 0,6 -15,14l1 23z"/>
    <path class="fil36" d="M99 281c9,-12 12,-9 11,-32l-31 2c-6,27 -12,30 20,30z"/>
   </g>
   <g>
    <path class="fil37" d="M284 1295c0,-11 3,-6 15,-3l-14 -12c-26,-14 -52,-45 -70,-67 -9,-12 -22,-20 -25,-36l1 -9c-8,-2 -2,2 -8,-6 0,0 -4,-9 -5,-9 -3,-6 -6,-12 -10,-18 -1,-2 -5,-7 -6,-8l-13 -16c-3,-5 -3,-4 -5,-7 0,23 -1,18 5,35 2,3 2,7 3,8 5,9 8,4 12,18 8,32 14,13 34,48l12 19c20,25 17,13 31,24 9,7 5,17 18,25 10,7 19,4 25,14z"/>
    <path class="fil37" d="M844 1267c-11,3 -22,13 -35,22 -20,13 -9,15 -41,22 -9,12 -8,8 -22,16 -45,27 -79,21 -95,27 30,-3 57,12 85,-8 6,-4 10,-13 13,-19 20,-6 31,1 42,-9 17,0 -1,-2 7,6 31,-19 38,-27 61,-53l25 -22c13,-13 9,-4 6,-18 -9,4 -17,8 -23,17 -7,9 -7,20 -23,19z"/>
   </g>
   <g>
    <path class="fil38" d="M696 558c15,9 17,0 24,16 11,1 15,3 23,11l14 2c-11,-23 -22,-6 -32,-25 20,1 68,-9 63,23 15,1 8,-2 18,9 8,10 4,5 7,19l-6 1c7,12 14,19 26,25l1 8 15 0c-2,-17 -4,-17 -13,-31l-1 -6c-9,-5 -4,1 -15,-13 -6,-8 -5,-6 -12,-12 -22,-19 -55,-64 -83,-69l-2 19 14 7 -17 13c-7,5 -13,2 -24,3z"/>
    <path class="fil38" d="M641 480c10,3 11,5 23,8 0,-8 2,-7 -4,-7 -1,0 -2,-2 -2,-1l-22 -21c7,-20 -9,18 3,-7 1,0 1,-1 2,-2 5,-14 -3,-8 10,-20 6,-1 10,-1 15,-1 6,-1 10,-2 17,-3 -12,-11 -21,-3 -35,-6 -12,-2 -16,-9 -27,-14 -24,9 3,23 -8,34l-16 8c4,9 0,9 11,14l13 1c0,-1 2,-1 3,-1 4,5 2,3 7,8 4,3 3,2 7,5l3 5z"/>
    <path class="fil38" d="M142 627l0 0c-3,15 -1,3 -6,17 -3,8 -2,11 -3,19 -3,21 -4,22 -23,23 4,6 2,3 7,9 1,2 4,5 5,7 2,-1 11,-4 12,-5l9 -55c2,-5 4,-7 5,-7 -1,-20 12,-40 17,-56 6,-14 11,-14 11,-30 -21,8 0,7 -30,25 -1,14 1,17 1,29 0,10 -3,14 -5,24z"/>
    <path class="fil38" d="M217 491l0 1c-1,1 -2,1 -2,3 -1,2 -3,5 -4,6 -32,52 -36,18 -35,48 12,2 14,-4 17,-15 23,-9 15,-9 29,-22 8,-7 14,-17 19,-29l0 -15c-1,1 -2,2 -2,3 -10,13 -7,18 -22,20z"/>
   </g>
   <g>
    <path class="fil39" d="M843 1221l-7 3c-11,6 -10,3 -19,13 -20,22 -19,11 -32,18 -5,2 1,7 -32,13l-7 1c-3,20 -1,7 -7,14l-10 1 -1 10c-2,19 -2,5 4,10 16,-5 1,0 14,-6 7,-4 8,-3 16,-5 20,-9 26,-11 45,-24 7,-5 15,-10 20,-15 12,-10 5,-10 19,-14 1,-7 -7,-6 1,-6 1,-1 2,-2 3,-3l7 -8c1,-1 7,-6 8,-7 13,-13 32,-33 37,-50l-12 4c-16,36 -18,10 -25,34 0,1 0,3 0,5 -17,5 -4,5 -22,12z"/>
    <path class="fil39" d="M381 685c17,-1 35,-13 54,4 -5,10 -10,7 -18,18l-26 7c-4,-6 -9,-10 -15,-15l5 -14zm0 0c-9,2 -12,5 -23,6l-3 12 -3 17c32,8 -7,-5 43,3 4,-4 4,-2 7,-9l17 6c8,-13 14,-13 21,-24l5 -19c-13,-2 -28,-10 -40,-11 -21,-3 -22,13 -24,19z"/>
   </g>
   <g>
    <path class="fil40" d="M4 375l11 2 1 62c-6,-7 -3,-1 -7,-12 0,0 0,-10 0,-11l-5 -2 0 36c6,6 7,4 5,19 -1,4 -3,9 -4,15 -1,19 0,18 7,32 5,13 2,19 7,32 5,13 6,11 9,30 1,5 0,1 3,8 15,33 -1,10 9,13 8,5 3,-2 13,9 1,1 7,11 8,12 5,14 -2,11 8,29 6,4 11,8 14,11 0,8 -1,0 7,4l-11 -15c2,-19 -16,-28 -19,-47l-8 -6 0 -4 -7 -4c2,-37 -18,-39 -15,-74 -5,-4 -2,0 -6,-6 -2,-3 -3,-6 -3,-8 -6,-20 2,-32 -7,-52 15,-28 -1,-54 11,-77l-17 -1c-5,2 -4,-5 -4,5z"/>
    <path class="fil40" d="M763 132l-5 5 5 -5zm-89 -33l0 10c21,0 -4,0 18,-10 0,-1 7,-3 12,-3 17,2 6,6 20,34 32,6 17,15 41,17l0 5 13 3c5,10 9,16 15,24 20,27 14,18 18,15l2 -4 -3 -7 -6 -11c-5,0 -4,1 -4,-4 -18,-10 -25,-24 -37,-36 -6,-10 4,-1 -10,-10 -4,-2 -7,-3 -10,-4l-4 -3 -19 -22c-14,-5 -21,-12 -37,-18l4 10 -17 -4c3,7 5,9 4,18z"/>
    <path class="fil40" d="M134 697c-1,1 -10,4 -12,5 -1,-2 -4,-5 -5,-7 -5,-6 -3,-3 -7,-9l-8 -5c9,12 14,22 28,26l4 -10z"/>
   </g>
   <g>
    <path class="fil41" d="M295 1233c-5,-23 -6,-24 -24,-26 0,-15 4,-17 -6,-22l-12 -3c-5,-15 -16,-29 -26,-38l-13 -32 -11 -3 8 -11 -24 -14 1 -21 -11 -2c-5,5 8,4 -8,5 13,17 1,11 16,19l0 31 15 8c3,17 -2,31 15,29l0 18c11,-4 8,-4 18,-4 5,12 8,5 -1,24l6 6c1,1 7,6 8,6l5 3c0,1 1,1 2,1 1,1 4,2 5,2l37 24z"/>
    <path class="fil41" d="M187 897c10,0 4,0 11,1 7,1 10,2 12,10 0,0 0,7 0,9 9,4 6,5 16,8l-7 -32c8,-9 8,-5 10,-15 -5,-1 -2,1 -6,-2 -7,-5 -1,-7 -12,-10l1 -1c0,1 -1,2 -2,2 -1,1 -2,2 -3,3 -20,11 17,-8 -6,2 -4,2 -11,-10 -14,25z"/>
    <path class="fil41" d="M146 961l29 -7 -2 -23 -11 -2c-1,12 5,7 -16,9 2,14 3,12 0,23z"/>
   </g>
   <g>
    <path class="fil42" d="M487 151l7 1c6,-14 -10,-3 -14,-23 -2,-10 1,-15 7,-28 0,0 1,-1 1,-2l25 -1c-1,-11 -1,-1 4,-5 10,2 10,3 20,5 8,1 12,-1 19,4 4,-9 3,-5 8,-11l25 4 15 0c-12,-14 -48,-23 -69,-22 -13,1 -27,-4 -40,0 17,6 5,0 10,6 -13,5 -27,-5 -41,12 2,12 4,5 3,14l-18 3c6,11 6,10 16,17l2 22 20 4z"/>
    <path class="fil42" d="M696 311c3,11 2,16 10,23 8,8 10,2 10,17 26,-2 12,-2 24,5 10,6 5,0 12,5 7,6 6,18 5,30l17 -1 16 -2c4,-10 7,-16 10,-26l-3 -6c-6,-18 2,-10 -2,-24 -3,-13 -3,2 -3,-11 1,-6 2,-12 2,-21 -1,-1 -4,-2 -5,-2l-6 -4 5 18c-1,2 -3,9 -5,11 -7,10 -18,13 -26,22l-3 4c-13,-6 -7,-7 -21,-12 -7,-3 -15,-4 -22,-8 -6,-10 -1,-18 -15,-18z"/>
   </g>
   <g>
    <path class="fil43" d="M397 580c-3,7 -1,1 -3,11 -29,1 2,4 -43,8l4 8c11,2 12,4 19,9l61 5c3,-4 0,-4 3,0 22,1 17,5 24,-11 -18,-12 -5,0 -26,2 -4,-16 5,-18 -16,-20 6,8 23,8 36,6 18,-4 25,1 39,0 0,-1 -1,-3 -2,-3 0,1 -1,-1 -4,-4 -7,-9 0,4 -7,-10 -22,4 -25,-1 -41,-3 -15,-2 -26,3 -44,2z"/>
    <path class="fil43" d="M851 761l0 8 11 13c1,0 1,1 2,2 5,5 0,1 5,5 6,4 19,6 29,7l-1 7 7 0 1 -7 -5 -14 -10 -11c-14,-15 -17,-4 -20,-22l-12 -2c-10,-4 -2,-3 -19,-3l12 17z"/>
   </g>
   <g>
    <path class="fil44" d="M384 163c6,7 -9,6 8,6 6,4 0,3 14,3 -2,9 -4,7 0,14 9,-2 6,-2 11,-10l22 -2c-5,29 -3,5 -28,22 -5,4 -8,6 -13,10 -4,3 -7,2 1,2l96 -3c7,-11 16,-11 33,-11 3,8 2,5 3,18 4,2 3,1 6,3l9 -2c8,-3 4,-1 10,-5 -7,-19 -11,-15 -34,-17 -14,-1 -22,-8 -36,-10 0,-24 1,-13 8,-29l-7 -1 -1 9c-13,7 -13,12 -14,11 0,-1 -1,2 -2,3l-26 -3c-47,0 -23,0 -45,-20 -4,5 -6,-5 -3,14l-12 -2z"/>
    <path class="fil44" d="M629 285l-1 4c12,9 8,11 17,14l21 18c0,1 1,2 1,2l4 3c3,19 -2,7 12,27l13 16c15,15 11,-4 13,20l13 0c-2,-8 -1,-7 -5,-12l4 -6 -5 -20 -28 -23c3,-9 0,-3 3,-10 -11,5 -3,2 -11,0 -11,-25 -7,-22 -30,-27 -12,-14 -2,-9 -7,-22l-22 -2c3,14 1,11 11,18l-3 0z"/>
    <path class="fil44" d="M351 151c2,-6 -1,-5 3,-7 -7,-5 -11,-6 -11,-16 -12,4 -13,5 -24,-2 1,-1 1,-2 2,-3 6,-12 6,-8 3,-15 1,-1 1,-1 2,-2 0,0 1,-1 2,-1l-1 -7c-12,2 -11,7 -16,26l-8 5c2,17 2,19 20,32 11,-4 6,0 13,-11l15 1z"/>
   </g>
   <g>
    <path class="fil45" d="M674 99c-8,4 -11,1 -10,13 -19,1 -9,-1 -20,-5 -4,-1 -10,-3 -15,-4 3,3 1,2 7,5 19,10 9,3 19,19l21 1c14,23 19,1 33,24 8,12 11,16 37,25l18 -2c-7,-6 -7,-4 -10,-14l11 -9 0 -5c-24,-2 -9,-11 -41,-17 -14,-28 -3,-32 -20,-34 -5,0 -12,2 -12,3 -22,10 3,10 -18,10l0 -10z"/>
    <path class="fil45" d="M746 199c22,4 12,4 19,21 9,9 13,19 16,33 1,-29 -1,-10 8,-17 13,11 -3,13 22,19l3 5 22 -1 9 13 9 1 0 -15 -3 -6c-11,-5 -13,-6 -18,-18l-18 3c-17,-13 -13,-25 -29,-40 -14,6 1,2 -14,8 -12,-11 -2,-10 -15,-14 -9,0 -8,3 -11,8z"/>
    <path class="fil45" d="M251 446l1 9 19 -7c-1,17 1,6 -5,17l6 -6c3,-12 7,-20 6,-29l-15 0c-8,10 -1,7 -12,16z"/>
   </g>
   <g>
    <path class="fil46" d="M339 196l-8 1c0,-11 0,-7 -4,-13 -45,1 -22,-8 -50,-12 -9,10 -7,-12 -8,11l-11 0 -1 -13c2,-1 6,-2 9,-5 6,-5 1,0 6,-7 -9,-12 -9,-6 -10,-18 13,-5 8,2 20,-7 -1,-11 0,-7 -7,-13l-4 -2c11,-6 3,0 15,-5 22,-8 33,-13 34,-26 -20,10 -18,17 -43,17l-41 45c-12,15 -10,0 -14,20 1,0 2,0 3,1 0,2 2,2 2,2l14 17c11,-6 2,1 5,-4 -4,9 -8,10 3,15 8,4 12,-2 17,-8 31,12 32,13 40,3 5,7 14,8 21,7 12,-2 6,4 12,-6z"/>
    <path class="fil46" d="M346 192c0,28 -8,-6 -4,22l14 2 2 4c14,0 17,2 27,-6l-8 0c7,-4 5,-1 8,-10 -21,-19 -2,-14 -39,-12z"/>
   </g>
   <g>
    <path class="fil47" d="M368 982c0,3 -1,8 8,6 12,0 49,8 60,13 39,17 20,5 58,8 7,15 12,47 -14,59 -14,7 -5,0 -17,12 -22,4 -47,0 -69,-2 -2,10 26,7 34,8 14,2 12,8 32,11 2,8 2,8 8,14 27,25 29,-11 29,-13 2,-8 -3,-2 8,-15 -4,-11 -1,-4 -6,-14 11,-4 2,0 10,-15 1,-3 1,-2 4,-6 -1,-2 -4,-9 -4,-11 0,-13 -2,-6 7,-12 -3,-12 -4,-5 -14,-16l-4 -5c-1,-5 -33,-3 -46,-4 -10,-1 -3,1 -6,-6 -5,-5 -15,-5 -21,-6l-36 -4c-2,-1 -8,-2 -9,-2 -10,-3 -7,-3 -18,-12 6,13 11,-10 6,12z"/>
    <path class="fil47" d="M615 1127c7,9 0,2 10,6 8,-5 2,1 10,-7 15,-13 -2,-7 30,-20l4 -8c6,-32 -2,-49 -6,-72 -3,-25 -7,-19 -13,-21 14,58 14,59 -15,99l-20 23z"/>
   </g>
   <g>
    <path class="fil48" d="M215 606c-16,18 -7,18 -16,33 -7,11 -8,2 -18,22 -6,13 0,11 -10,11l0 3 -3 22c-5,10 -6,9 -9,17 -10,21 -19,43 -16,68 5,-3 4,6 8,-11 2,-10 -3,-5 3,-18 7,-14 9,-10 13,-29 5,-19 6,-12 25,-41 6,-9 -5,-5 14,-7 1,-22 2,-12 28,-34 9,-7 15,-4 23,-9 19,-11 -8,-11 20,-14 4,6 4,-3 2,12 13,-7 11,-6 15,-20 -34,2 -14,-5 -51,16 -7,3 -4,3 -12,4l-7 -25c8,-3 1,-1 5,-7 -13,9 -1,2 -14,7z"/>
    <path class="fil48" d="M333 575l-1 12 -34 2c-3,6 -9,8 -2,16 7,8 8,3 18,2 13,-1 12,-4 24,-9 9,-6 16,-13 22,-17l-2 -10 -25 4z"/>
    <path class="fil48" d="M408 427c4,7 -2,9 12,10 17,0 10,-5 12,-10 -5,-4 10,-5 -12,-6 -20,-1 -8,3 -12,6z"/>
    <path class="fil48" d="M296 466l6 5c9,2 0,1 11,1l1 -15c-28,0 -12,2 -18,9z"/>
   </g>
   <g>
    <path class="fil49" d="M272 282l-6 15 -22 4c2,2 4,5 5,6 12,19 -2,11 -13,26l-9 -2c-6,11 -2,4 -6,10 2,1 3,-5 6,4 3,14 -1,10 -8,15 -20,-7 -6,-7 -11,-10 -4,35 -6,36 -3,67 1,13 -2,9 -4,25 4,3 5,3 11,6 -3,11 -5,25 -14,29l19 14c15,-2 12,-7 22,-20 0,-1 1,-2 2,-3l0 -12c-20,0 -7,8 -22,8 11,-31 -4,-32 2,-49 1,-1 1,-3 2,-4l2 -9c-7,-3 3,-2 -14,-4l22 -29c7,-4 12,-39 21,-50l5 -4c1,0 2,-1 3,-2 7,-3 10,-14 27,-31 8,-8 6,-5 12,-14 -24,5 -16,7 -29,14z"/>
    <path class="fil49" d="M650 369l9 3c3,10 1,15 13,16l-1 -16c1,-7 -2,-26 -11,-31l-3 -18c-5,-7 -8,-12 -12,-20 -9,-3 -5,-5 -17,-14 -7,8 9,9 -9,7 -6,-8 -4,-9 -16,-13 3,12 2,10 14,17 1,0 2,1 3,1 0,1 1,1 2,1 7,4 5,8 9,16 0,1 1,2 1,3 24,51 10,23 18,48z"/>
   </g>
   <g>
    <path class="fil50" d="M380 998l100 32 4 18c-7,5 2,0 -12,7 -3,2 -1,1 -7,3 -9,3 -11,2 -22,4 -9,2 -25,11 -34,12 -14,1 -59,-18 -78,-23 0,1 4,13 4,13l-1 2c34,0 22,2 27,10 5,-6 27,1 33,2 22,2 47,6 69,2 12,-12 3,-5 17,-12 26,-12 21,-44 14,-59 -38,-3 -19,9 -58,-8 -11,-5 -48,-13 -60,-13 1,1 0,13 3,7 0,0 1,2 1,3z"/>
    <path class="fil50" d="M592 1044c4,-3 2,-1 6,-5 2,-2 5,-4 6,-5 6,-7 4,-4 7,-12 -1,-14 -5,-8 9,-13 24,-9 31,11 32,31 0,7 0,12 -1,18 -3,18 -16,23 -24,35 -8,14 -2,13 -13,28 -5,3 -43,7 -47,-12l2 -15c-6,7 -2,-7 -5,8 -2,7 -2,2 -1,10 5,21 40,17 52,15l20 -23c29,-40 29,-41 15,-99l-2 -6c-22,-1 -29,0 -42,12 -9,8 -18,19 -14,33z"/>
   </g>
   <g>
    <path class="fil51" d="M940 1133c-3,14 -30,60 -40,71 -9,12 -14,20 -28,30 -11,9 -21,18 -28,33 16,1 16,-10 23,-19 6,-9 14,-13 23,-17 10,-13 8,-20 29,-18 -5,-19 6,-31 21,-49 22,-34 24,-28 18,-52l18 -18c0,-35 5,-34 5,-42 0,-17 2,-65 -1,-75l-10 -5 -1 -54c-7,8 -6,-9 -8,18 0,2 1,12 2,15 6,52 10,3 6,89 -3,55 -21,56 -29,93z"/>
    <path class="fil51" d="M806 568c-5,-10 2,-1 -7,-10 -3,-3 -6,-4 -9,-6 4,11 4,11 16,16z"/>
    <polygon class="fil51" points="833,556 830,546 830,547 822,543 826,551 "/>
   </g>
   <g>
    <path class="fil52" d="M693 1164l14 1 3 8c10,-10 6,-6 21,-3l1 -22c12,-10 -2,16 15,-19 8,2 5,1 11,4 11,8 -5,2 8,6l2 -23c-30,-16 -20,-3 -26,-20 6,0 8,1 14,-1l12 -3 13 11 -1 -26c-20,0 -1,2 -25,8l4 -21 -5 -6c-7,5 -10,3 -5,7l0 -16 -13 0c-7,12 1,4 -12,12l8 12c-11,10 -8,2 -12,13 -3,8 -2,14 1,23l-10 7c10,20 -2,8 -4,32 -28,1 -4,-1 -14,7l0 9z"/>
    <path class="fil52" d="M622 1198c-17,12 -4,7 -24,16 -1,13 2,16 6,25 -7,4 -4,1 -8,9l4 15c-11,10 -9,3 -28,14 -2,14 -4,8 2,18 14,-4 3,5 11,-11 12,1 10,1 18,-7 9,-9 6,-4 11,-18l11 11c17,-10 25,7 25,-31l14 3 6 1c-1,-11 2,-10 -21,-12 -4,-5 -2,-4 -6,-7l-9 -6c-1,-1 -2,-1 -3,-2 6,-9 3,-2 8,-15l9 -2c-1,-4 0,-6 -4,-10 -17,4 -3,1 -12,6 -4,1 1,1 -10,3z"/>
   </g>
   <g>
    <path class="fil53" d="M590 513c22,-1 23,2 35,-7 10,4 12,8 40,2l0 24c42,-2 9,3 31,-8 1,1 11,6 3,15 10,-2 11,-13 12,-24 -1,-6 -2,-3 -12,-8 -6,-3 -10,-6 -15,-9 -21,1 -16,2 -25,-6 0,0 -1,-1 -2,-1l-22 -12c-7,5 -4,1 -10,8l-9 -8c0,0 -3,-6 -5,-9 -25,0 -24,-4 -46,-10 -7,-3 -7,-4 -18,-3 0,19 -2,1 6,9l4 7c1,0 1,1 2,2 2,1 2,2 4,3 4,2 7,1 13,1 0,7 -2,19 2,24 6,8 1,-9 12,10z"/>
    <path class="fil53" d="M378 393l0 6 -27 4c22,-1 105,-11 119,-6 1,17 -5,9 8,16l-4 37c1,-10 0,-1 9,-5l17 -5 1 -17c-14,-3 -11,-6 -15,-21 19,2 19,1 24,8 6,-4 -4,2 6,-3 9,-4 1,0 6,-3 5,-4 -4,-5 14,-8 16,-3 28,3 49,0 -3,-17 -7,-6 -65,-16 -16,-3 -46,-5 -59,-4 -20,2 -26,7 -43,10 -14,3 -26,3 -40,7z"/>
   </g>
   <g>
    <path class="fil54" d="M397 214c-1,1 -2,1 -3,3 0,1 -1,2 -2,2 -1,1 -3,4 -4,5l18 -6c-2,21 4,17 -33,30l-4 10 12 0c4,-4 5,4 4,-14 17,7 3,2 24,-2 1,0 17,0 17,0l2 -4c33,0 55,-1 85,4 1,0 2,-2 2,-1 0,0 1,-2 1,-2l3 -4c0,-1 1,-2 2,-3 19,2 6,0 24,10l12 6c1,1 2,1 3,1l10 7c10,7 7,5 19,9 5,-8 4,4 0,-10 -7,-16 -41,-19 -50,-33 -21,-2 -17,-9 -33,-11 -10,-1 -27,0 -39,-1 -27,-2 -45,6 -70,4z"/>
    <path class="fil54" d="M596 276c5,3 5,3 7,7 12,4 10,5 16,13 18,2 2,1 9,-7l1 -4 -25 -20c-11,3 -8,-6 -8,11z"/>
   </g>
   <g>
    <path class="fil55" d="M134 697l-4 10c-14,-4 -19,-14 -28,-26 -2,-6 1,-3 -4,-3l-15 -3 14 36c30,31 39,32 34,68l-9 22 -10 -4 2 10c4,4 3,-4 6,10 2,8 2,11 2,19l-14 -4 0 11c10,9 5,8 16,12l11 -3c4,-7 9,-29 11,-38 -4,-14 -1,2 -6,-13 -2,-4 -2,-10 -2,-15 -1,-18 5,-47 10,-62 3,-9 2,-24 20,-27l3 -22c-11,9 -6,9 -9,14 -5,8 -5,6 -17,8l3 -62c-1,0 -3,2 -5,7l-9 55z"/>
    <path class="fil55" d="M849 579l0 -8c-11,-9 -2,-9 -16,-15 3,13 8,16 16,23z"/>
   </g>
   <g>
    <path class="fil56" d="M167 363c1,4 -6,18 -3,30 2,9 1,-7 3,9l5 33c-8,3 -2,15 0,21 0,0 -2,0 -2,1l1 23c11,-14 6,-8 22,-17 -11,-9 -12,-2 -16,-10 9,-3 4,0 9,-8 -15,-15 -3,-1 -5,-41 0,-1 5,-28 6,-35l12 -10 -3 -26 22 0 -3 -29c14,-11 8,-6 19,-19 10,4 -3,-3 10,10l28 -13c13,-7 5,-9 29,-14l-7 -6c-1,0 -2,-1 -2,-1l-8 -9c-1,1 -2,2 -3,3l-4 4c-8,9 -8,7 -11,19 -18,-2 -9,-9 -34,-1 -26,8 -11,2 -20,20l-14 -1c-13,16 -22,10 -27,34 7,10 -1,2 10,9 8,5 6,2 11,11l-26 -2 1 15z"/>
    <path class="fil56" d="M186 166c-10,16 3,-8 -10,9 -3,3 -6,12 -6,13 -7,16 -12,33 -30,38 -4,32 -6,2 -17,36 -3,9 -3,6 -6,12 -5,11 -7,14 -12,24l-7 22c-1,1 -2,2 -2,3 0,1 -1,2 -1,3l9 -2c2,-7 4,-4 4,-19 11,-2 13,-6 18,-12l20 0 -3 -14c13,-3 9,-4 25,-4l0 -12c-16,7 4,5 -10,6 -8,1 -5,0 -10,-7 6,-10 14,-12 23,-16 1,-1 3,-1 5,-2l5 16c-1,-13 -2,-15 -9,-22 -1,0 -2,-1 -2,-1l-10 -7c0,-1 1,-4 2,-3l31 -47c5,-8 9,-9 13,-24 -11,4 -2,0 -12,5 0,0 -6,4 -8,5z"/>
   </g>
   <g>
    <path class="fil57" d="M60 567l1 12c7,3 8,6 12,13 -9,6 12,5 -12,4l-1 6c3,19 21,28 19,47l14 -9c-1,15 13,17 26,21 1,-14 5,-13 -5,-17 13,-9 6,2 16,-15l12 -2 0 0 1 -17c-6,-3 -2,-1 -7,-5l-5 -5c-24,-7 -5,-11 -28,-14 0,-11 4,-24 -6,-24 -12,-1 9,9 -18,2 0,-1 -1,-2 -1,-3l-3 -8c-4,-6 0,-1 -6,-7 -3,3 -16,-5 0,17 -3,3 -5,1 -9,4z"/>
    <path class="fil57" d="M822 516l4 12 -2 2c12,2 14,9 22,15l1 11c2,1 7,2 8,2l3 -2c0,-34 14,-18 1,-43 7,-4 4,-2 8,-7l-14 -20 -2 17c-1,-7 -6,-7 -17,-7l-4 22c-16,6 -2,1 -8,-2z"/>
   </g>
   <g>
    <path class="fil58" d="M822 516c6,3 -8,8 8,2l4 -22c11,0 16,0 17,7l2 -17 14 20c-4,5 -1,3 -8,7 13,25 -1,9 -1,43l-3 2c5,5 -9,4 10,5l-3 14 7 -1 1 -6 -8 -7c3,-26 6,-21 7,-24 1,-3 2,-14 3,-18 13,-87 10,-28 4,-131 -18,4 -9,2 -22,-4 0,0 -17,4 -5,28l-9 5c-1,18 1,38 -4,55 -3,8 -6,14 -8,21 -2,12 3,17 -6,21z"/>
    <path class="fil58" d="M173 139c-15,4 -8,-4 -20,2 -1,1 -6,5 -6,6 -5,7 1,-3 -4,9l18 -2c-7,18 1,-6 -13,17 -12,-8 -1,-4 -16,-7l-10 18c-7,-3 -5,-1 -12,-6l-2 5 -3 9c11,-6 4,-5 15,-2 0,31 -6,4 -10,29l-19 -2 6 11c4,5 5,5 7,8 20,-7 5,-8 34,-11l15 -31c6,-6 9,-4 17,-4 0,-1 3,-10 6,-13 13,-17 0,7 10,-9 -2,-16 -1,-4 -4,-19l13 -7c-8,-5 9,-4 -12,-4 -5,0 -3,1 -10,3z"/>
   </g>
   <g>
    <path class="fil59" d="M355 703c-15,8 -12,1 -21,1 -15,0 -12,14 -57,10l-7 10 -15 -6c-6,3 0,2 -11,9l12 0c4,18 6,6 12,29 -22,-3 -3,0 -18,-5 -11,26 -9,24 -20,24l7 -1c10,6 0,-4 7,7 4,7 0,2 8,4l5 -8c0,0 1,-1 2,-2 15,5 11,-3 16,9 9,-6 21,-8 29,-14 8,-6 6,-7 9,-12 6,-8 6,-7 17,-11l12 -15 10 5c11,-22 23,-17 72,-19 0,5 -1,3 3,1 15,-5 11,3 15,-6 1,-2 2,-2 4,-3l-6 -14c-7,11 -13,11 -21,24l-17 -6c-3,7 -3,5 -7,9 -50,-8 -11,5 -43,-3l3 -17z"/>
    <path class="fil59" d="M190 765l-6 6c2,42 -6,15 -11,61 -3,19 -2,2 -8,19l10 8c7,-3 5,-2 15,-4l0 -23c11,4 8,0 14,9l0 -23c28,-2 15,0 34,-9 2,-8 3,-6 3,-9 3,-9 2,-10 3,-19 -7,-11 3,-1 -7,-7l-7 1c11,0 9,2 20,-24 15,5 -4,2 18,5 -6,-23 -8,-11 -12,-29l-12 0c-1,1 -1,2 -2,2 -18,35 -11,11 -27,27 -4,4 -19,22 -19,35 -8,-10 -5,-10 -6,-26z"/>
    <path class="fil59" d="M867 1186l-16 2c-15,19 -4,16 -8,33 18,-7 5,-7 22,-12 0,-2 0,-4 0,-5 7,-24 9,2 25,-34l12 -4c8,-8 31,-59 34,-73l4 -29 -13 -3c0,0 -1,-2 -1,-2 -5,-6 1,-1 -6,-5 -4,33 -23,69 -28,98 -13,7 -5,1 -14,12 -8,10 -6,5 -7,20l-4 2z"/>
   </g>
   <g>
    <path class="fil60" d="M728 1294c-21,3 -7,3 -17,7l-68 9c-5,19 -13,21 -29,21 -2,-13 -1,-4 -7,-11l-26 5c-1,0 -2,2 -3,1l-5 4c-12,16 -13,6 -15,5 -12,-7 -25,-4 -52,-4 -1,11 3,7 -13,4l-35 -4c10,9 3,3 9,11 20,0 30,5 46,7l87 1c19,-3 4,-2 21,-8 13,-4 41,-4 54,-3 11,-14 22,-13 37,-21 14,-6 23,-14 42,-12 3,-11 -2,-3 8,-13 -8,2 -9,1 -16,5 -13,6 2,1 -14,6 -6,-5 -6,9 -4,-10z"/>
    <path class="fil60" d="M190 855c-10,2 -8,1 -15,4 -1,15 -4,13 -2,29 0,3 0,10 0,10l-3 7c-6,8 0,20 3,26l16 -2c6,-23 -3,-12 -2,-32 3,-35 10,-23 14,-25 23,-10 -14,9 6,-2 1,-1 2,-2 3,-3 1,0 2,-1 2,-2 -5,-2 -2,-1 -6,-4l-8 -11c-9,4 -7,-5 -8,5z"/>
   </g>
   <g>
    <path class="fil61" d="M706 896l-17 -3c-4,2 -6,2 -7,4 0,-6 1,-4 -8,-4 2,16 2,13 10,25 -2,-5 -2,-2 9,-7 13,10 8,8 14,22 17,2 11,-1 23,-4l5 16 -18 2c-2,17 2,12 -9,18 5,14 8,4 5,19 15,-8 0,-2 19,-8 0,1 -3,7 -3,8 0,1 -1,2 -1,3 -1,10 12,4 7,26 -3,12 0,0 -4,8 -7,14 5,-15 5,28l13 0 0 16c-5,-4 -2,-2 5,-7l5 6c4,-1 6,2 12,-4 3,-4 4,-2 2,-9 -2,-4 2,-7 -18,-5 -7,-23 -6,-2 -9,-16 13,-2 13,4 13,-14 0,-9 -6,-16 -7,-17 -5,-9 -3,-18 -3,-32 1,-29 -16,-15 -7,-43 30,-1 2,2 33,13 2,-7 0,-15 11,-14l-11 -5 0 -10 -18 3c-8,-12 3,3 3,-18 -9,3 -8,4 -21,3l-3 11c0,0 -3,-6 -4,-6l-3 -6c-8,5 -14,5 -23,1z"/>
    <path class="fil61" d="M265 826l-14 -2 -1 8c5,10 0,4 9,11 -5,7 -7,8 -7,21l14 0 5 -7c4,-7 4,-8 3,-20 1,1 3,1 4,2 0,1 5,6 12,2 0,0 5,-4 6,-5l6 -1c1,0 2,0 3,0 1,0 3,1 4,1 5,-10 5,-8 18,-11 9,11 7,-14 7,14 12,0 16,-1 26,-4 12,-5 14,-6 31,-6 3,-16 -2,-2 10,-13l-11 3 0 -17c-31,6 -13,4 -23,-4 -19,-15 16,4 -4,-2 0,33 1,9 -7,17l-7 -14c-17,-3 -14,-6 -28,0 -2,16 -2,12 6,22 -4,-4 0,-3 -9,4 5,-14 5,-10 -9,-14l-7 17c-34,-5 -23,-1 -36,2l-1 -4z"/>
    <path class="fil61" d="M648 1199l-9 2c-5,13 -2,6 -8,15 1,1 2,1 3,2l9 6c4,3 2,2 6,7 23,2 20,1 21,12 11,-1 10,-12 10,-22l7 1c-2,-14 -2,-4 2,-21 -9,-6 -6,-7 -19,-9 1,-1 3,-2 3,-2 0,1 2,-1 3,-1l17 -16c8,0 0,1 3,-8 -29,-2 -6,-20 -36,-11l8 16c-11,10 -12,7 -12,28l-8 1z"/>
   </g>
   <g>
    <path class="fil62" d="M487 673c-5,5 -6,-11 -4,11 10,7 2,3 12,6 1,0 1,0 1,1 0,0 0,1 0,1l0 4c0,1 1,2 1,2l4 10c12,-3 14,-4 20,-13 6,11 11,14 28,15l5 -6c1,0 2,-4 2,-5 9,18 -8,0 7,6 12,4 1,-3 13,4 11,7 -13,1 10,7l14 -4c-2,1 -4,-4 0,11 22,4 52,4 70,10 14,4 17,1 40,11 16,7 6,9 27,8l-1 -27c-11,-4 -17,-3 -27,-6 -11,-4 -12,-7 -18,-14 -11,15 -2,-9 -27,9l-25 -5c-7,-13 2,-7 -12,-12 -8,-2 -19,-1 -27,-2 -1,1 -2,1 -3,2 0,1 -1,2 -2,2 0,0 -2,2 -3,3 -14,-14 -21,-20 -46,-13l-11 -8c-9,3 -5,2 -14,4 -10,-10 -7,-8 -26,-7l-1 -7c-4,3 0,1 -7,2z"/>
    <path class="fil62" d="M738 752c11,13 -12,8 17,8l3 22c10,-2 4,0 12,-2 1,-1 1,-1 2,-2 0,0 0,0 1,-1l2 13c16,2 24,10 28,26l22 -1c4,7 6,13 6,25 23,1 16,3 21,5 8,4 10,2 18,0 0,12 5,30 7,39 34,17 9,-12 31,30l14 0c-18,-14 -14,-26 -22,-42l-4 -20c-17,-5 -13,-4 -20,-16 -9,-17 -4,-11 -20,-20 -4,-2 -32,-25 -33,-32 0,0 1,-7 1,-8l-20 -7 -12 0c-2,-8 -3,-9 -7,-15l-17 0 -7 -11c-10,3 -23,-1 -23,9z"/>
   </g>
   <g>
    <path class="fil63" d="M537 215l2 7c9,14 43,17 50,33 15,5 7,1 15,10l25 20 3 0c-10,-7 -8,-4 -11,-18l22 2c5,13 -5,8 7,22 23,5 19,2 30,27 8,2 0,5 11,0 -3,7 0,1 -3,10l28 23c0,-15 -2,-9 -10,-17 -8,-7 -7,-12 -10,-23l-5 -15 -14 0c-10,-16 2,-11 -20,-20l-1 -17 -14 0 1 -9c-6,-2 -17,-3 -21,-4 -13,-5 -26,-21 -28,-37l-5 0c-25,-7 -27,4 -31,-25l-39 -11c-14,-5 -20,-18 -25,-21 -7,16 -8,5 -8,29 14,2 22,9 36,10 23,2 27,-2 34,17 -6,4 -2,2 -10,5l-9 2z"/>
    <path class="fil63" d="M721 371l8 0c0,0 4,7 4,8 7,14 2,-8 1,6 0,4 -1,8 0,12 8,19 -4,5 14,10 8,-13 4,-8 6,-24 4,14 -1,5 11,12l9 -5 -17 1c1,-12 2,-24 -5,-30 -7,-5 -2,1 -12,-5 -12,-7 2,-7 -24,-5l5 20z"/>
   </g>
   <g>
    <path class="fil64" d="M819 521c1,10 -2,3 7,7l-4 -12c9,-4 4,-9 6,-21 2,-7 5,-13 8,-21 5,-17 3,-37 4,-55l9 -5c-12,-24 5,-28 5,-28 13,6 4,8 22,4 6,103 9,44 -4,131 -1,4 -2,15 -3,18 -1,3 -4,-2 -7,24l8 7 7 0 0 -7c-2,-19 13,-61 13,-97l-6 -96c-10,-22 2,17 -11,-22 0,-1 -1,-2 -1,-3l-12 -27c-13,1 -8,-1 -17,5 -7,-9 -2,-10 -16,-10 -1,16 2,12 5,25 6,21 1,120 -5,134 -6,15 -6,31 -8,49z"/>
    <path class="fil64" d="M308 54c-24,6 -21,10 -24,17 -15,0 -14,-4 -20,6 -13,-15 0,-8 -9,-17l-14 4c-5,3 -10,4 -16,7 -13,6 -14,11 -31,15 -2,3 -3,9 -3,11l18 4c5,7 2,4 10,8l20 0 -2 15c16,-4 24,-14 30,-26 19,-1 29,-8 46,-16 15,-8 30,-6 43,-14l22 -23c-6,-16 -47,3 -48,3l-7 10 -15 -4z"/>
   </g>
   <g>
    <path class="fil65" d="M344 613c0,19 -2,17 -21,18 -6,9 -1,10 -28,19l2 6c13,0 10,-1 12,7l12 -7c2,1 -4,6 13,4 13,-2 -4,0 7,-3 9,-2 -4,-5 3,0 27,-1 51,-1 73,-1 21,1 13,5 28,11 18,9 27,-5 42,6 7,-1 3,1 7,-2 -1,-17 4,-15 6,-29 -22,10 -35,-1 -53,-1l0 -10 -12 0 0 -10 -61 -5c-7,-5 -8,-7 -19,-9l0 6 -11 0z"/>
    <path class="fil65" d="M804 769l20 7c0,1 -1,8 -1,8 1,7 29,30 33,32 16,9 11,3 20,20 7,12 3,11 20,16l4 20c8,16 4,28 22,42l14 -2c-2,-27 -8,-15 -17,-52l-13 -37c-3,-7 0,-3 -9,-8l0 -12 1 -7c-10,-1 -23,-3 -29,-7 -5,-4 0,0 -5,-5 -1,-1 -1,-2 -2,-2l-11 -13 -14 5c-17,-3 -15,-5 -18,-14 0,-1 -2,-4 -3,-5 0,-2 -1,-2 -1,-3 -11,6 -8,3 -11,17z"/>
   </g>
   <g>
    <path class="fil66" d="M237 1016c-10,9 -7,15 -6,32 -15,2 -21,-1 -23,10l-19 -1 -1 6 -1 21 24 14 -8 11 11 3 13 32c10,9 21,23 26,38l12 3 6 -3c0,-1 -1,-5 -1,-4l-2 -4c-14,-10 -6,-10 -12,-20 -8,-14 -9,2 -12,-24l6 -3c-3,-9 -4,-9 -5,-18l7 -6c-5,-10 1,-2 -9,-9 3,-24 2,-19 10,-31l6 -8c12,7 3,1 24,6 -4,-20 -6,-26 -22,-34l-2 -16c0,0 -1,0 -1,0l-17 -3c0,15 1,4 -4,8z"/>
    <path class="fil66" d="M173 931l2 23c26,1 -1,0 16,8l6 -5c0,0 2,-1 2,-2 1,0 2,-1 2,-2 5,6 5,2 5,18l9 0 5 -5c-8,-25 -17,-12 24,-11 1,-1 1,-3 2,-3l11 -11c5,-3 4,-2 7,-5l-4 -12 -34 1c-10,-3 -7,-4 -16,-8 0,-2 0,-9 0,-9 -2,-8 -5,-9 -12,-10 -7,-1 -1,-1 -11,-1 -1,20 8,9 2,32l-16 2z"/>
    <path class="fil66" d="M669 1098l-4 8c-4,7 2,1 -4,6 -1,0 -2,1 -2,1l-5 3c-5,3 -6,8 -6,15l-16 12 23 -1c10,-20 15,-3 17,-30l14 0 8 -21c1,-3 2,-3 5,-9 4,-8 3,-6 6,-13l-6 -10c-2,-4 -2,-3 -3,-9 -4,-9 0,-8 -15,-7 2,3 2,6 4,8 -3,9 -3,14 -6,23l-10 24z"/>
   </g>
   <g>
    <path class="fil67" d="M609 991l-9 2c-1,12 -2,11 -13,15 -1,1 -2,1 -2,1 -9,4 -8,6 -15,16 -12,-9 -8,13 -10,-14l-8 2c10,7 4,-6 8,16 -36,-5 -15,-9 -31,-29l-6 -7c-1,-2 -2,-2 -2,-3l-54 -3c-1,0 -2,1 -3,2l-7 5c-1,0 -9,0 -11,0 3,7 -4,5 6,6 13,1 45,-1 46,4l4 5c10,11 11,4 14,16l0 12c12,5 5,3 10,7 -1,22 0,10 9,44 2,-8 2,-10 5,-17 31,0 7,1 24,7l2 -3c0,0 3,-7 3,-7 2,-8 2,-9 2,-17l17 -3 4 -4c-4,-14 5,-25 14,-33 13,-12 20,-13 42,-12l2 6c6,2 10,-4 13,21 4,23 12,40 6,72l10 -24c3,-9 3,-14 6,-23 -2,-2 -2,-5 -4,-8l-9 -29c-32,-24 5,-41 -63,-23z"/>
    <path class="fil67" d="M615 1127c-13,9 -30,3 -48,3l-6 -5 -8 0c0,1 1,2 2,2l3 7c2,5 1,9 0,15 41,3 49,10 74,-6l16 -12c0,-7 1,-12 6,-15l5 -3c0,0 1,-1 2,-1 6,-5 0,1 4,-6 -32,13 -15,7 -30,20 -8,8 -2,2 -10,7 -10,-4 -3,3 -10,-6z"/>
   </g>
   <g>
    <path class="fil68" d="M886 1116c0,12 2,12 4,24 -11,2 -9,-1 -17,9 0,1 -1,1 -1,2 -5,7 -9,11 -5,35l4 -2c1,-15 -1,-10 7,-20 9,-11 1,-5 14,-12 5,-29 24,-65 28,-98l-2 -37c-3,-21 -3,-11 -8,-25 -8,-20 -1,-31 -19,-57 0,0 -1,-1 -1,-2 -3,-4 -2,-6 -2,-12 -15,1 -9,4 -10,-2l-12 -16c-7,-9 -8,-8 -19,-9 0,-20 8,-10 -9,-20 6,-7 4,-4 6,-13l-16 -1 5 7c-5,14 -3,3 -7,16l11 10c-1,0 7,13 -12,5 10,5 0,-4 10,8 0,0 1,1 1,2l15 17c1,0 2,1 2,2l9 17c1,3 2,5 5,8 3,2 6,2 10,5 20,13 0,30 -1,55 14,-3 6,-5 18,4 -4,16 -2,2 -5,14 6,2 4,1 6,4l6 12c1,0 11,0 4,-2 0,15 3,14 -7,22 4,19 2,7 -1,25l-5 12c0,1 -1,2 -1,2 -3,5 -2,-3 -2,14l-3 -3z"/>
    <path class="fil68" d="M708 768c-7,-17 4,-2 -8,-9 -1,0 -31,-14 -39,-23 -18,-1 -20,-2 -33,-5l-15 9 -2 -11c-21,1 -82,-1 -109,-5 -11,13 -15,-3 -5,22 14,5 14,-10 39,3l8 6c0,-1 1,1 2,2 13,-7 12,-2 25,-8 4,4 5,5 11,8 10,-6 23,-5 30,0l6 -5c32,12 24,0 27,-2 21,15 14,27 17,20 1,-1 1,1 2,3l22 -1c0,1 1,2 1,2 0,0 1,2 1,2l8 8c6,-7 6,-5 6,-17l6 1z"/>
   </g>
   <g>
    <path class="fil69" d="M297 656l-15 4c-6,18 -17,15 -21,22 -3,21 8,9 -5,18l-1 18 15 6 7 -10c45,4 42,-10 57,-10 9,0 6,7 21,-1l3 -12c11,-1 14,-4 23,-6 2,-6 3,-22 24,-19 12,1 27,9 40,11 4,0 7,0 10,2l12 8c14,-5 2,-4 16,-3 -2,-22 -1,-6 4,-11 -15,-11 -24,3 -42,-6 -15,-6 -7,-10 -28,-11 -22,0 -46,0 -73,1 -7,-5 6,-2 -3,0 -11,3 6,1 -7,3 -17,2 -11,-3 -13,-4l-12 7c-2,-8 1,-7 -12,-7z"/>
    <path class="fil69" d="M922 914c1,22 7,34 4,54 -2,24 3,38 3,58l-4 -6c-5,-4 2,-1 -7,-3l2 37c7,4 1,-1 6,5 0,0 1,2 1,2l13 3 5 -10c-6,-6 -3,-55 -2,-66 3,-22 -1,-42 -2,-67l-10 -1c10,-8 1,-2 5,-8l-14 2z"/>
   </g>
   <g>
    <path class="fil70" d="M419 342c-1,7 4,6 -9,8 -6,1 -14,1 -19,1l-1 18c-2,-2 -7,-4 -7,-4l-15 0 -1 18c-10,-2 -11,-3 -23,-3l1 3 7 8c30,-8 20,-4 26,2 14,-4 26,-4 40,-7 17,-3 23,-8 43,-10 7,-10 13,-7 24,-12l31 5 2 -9c13,-2 14,0 17,-13 26,0 10,5 18,-10 1,9 3,7 7,11l15 -2c-1,0 -2,-1 -3,-2l-8 -4c-4,-2 -2,0 -6,-3l-4 -13 -55 1c-2,4 -3,8 -6,13 -27,1 -10,-2 -21,-5 -13,-5 -22,4 -22,-7l-19 -2 -1 18 -11 0z"/>
    <path class="fil70" d="M556 292c8,5 12,8 15,16l11 3 7 2 8 5c11,7 11,8 28,7l2 -16c-27,-13 -16,-30 -45,-33 -38,-4 -27,12 -26,16z"/>
    <path class="fil70" d="M356 68l39 -8 -4 -12 -3 -1 -5 4c-1,-13 1,0 -5,-6l-22 23z"/>
   </g>
   <g>
    <path class="fil71" d="M79 451c7,5 4,19 4,30 0,33 7,9 8,36 20,27 30,53 40,83l5 5c5,4 1,2 7,5l-1 17c2,-10 5,-14 5,-24 0,-12 -2,-15 -1,-29 30,-18 9,-17 30,-25 -1,-30 3,4 35,-48 1,-1 3,-4 4,-6 0,-2 1,-2 2,-3l-19 0 -3 22c-5,-5 -13,-9 -21,-12 7,-12 2,6 6,-18l-17 1c3,13 4,10 6,24 -3,2 -45,35 -52,-8 -15,-3 -9,-2 -23,-10 2,-11 -2,0 9,-10 -4,-11 3,-4 -9,-11 -3,-16 1,-10 -6,-22l9 -17 -6 -11c0,-2 -1,-3 -2,-4l-1 -14 3 -45c-5,4 -5,1 -9,9l-3 85z"/>
    <path class="fil71" d="M635 385l1 10 4 2c4,5 4,5 6,8l18 1c0,-21 -4,-10 12,-15l0 -13c2,-7 3,-5 -5,-6l1 16c-12,-1 -10,-6 -13,-16l-9 -3 3 8c-1,0 -2,1 -2,1l-8 12c-5,-9 -1,0 -8,-5z"/>
    <path class="fil71" d="M833 556c14,6 5,6 16,15l12 13c16,-4 2,1 8,-8l-7 1 3 -14c-19,-1 -5,0 -10,-5 -1,0 -6,-1 -8,-2l-17 -10 3 10z"/>
   </g>
   <g>
    <path class="fil72" d="M460 907l2 12c5,0 6,0 11,1 9,2 -2,-1 6,3 8,4 0,-1 7,4 -2,11 -4,2 -2,10l19 7 14 -9c9,4 2,-6 9,7 0,-16 -2,-7 9,-11 1,1 2,2 2,3l16 22c17,2 17,1 29,10l-5 17 16 0c-1,-9 -4,-15 -4,-16 -1,-19 -2,-6 8,-10 1,3 3,11 4,13l9 -1 6 -11c8,7 2,3 11,7l5 1 25 -18 29 5c-20,-28 -26,4 -58,-30 -15,1 -10,-1 -21,6l-4 -3c-1,-1 -2,-2 -2,-2 -1,0 -3,-1 -4,-2 3,-11 5,-5 8,-13 -24,8 -15,4 -43,1 0,13 -4,20 -7,28 -7,-10 -3,-8 -4,-25 -12,5 -11,3 -20,11 -9,-8 -12,-10 -27,-9 -8,-27 -9,-3 -13,-18 18,-7 18,11 16,-19 -17,4 -16,10 -39,9l-8 20z"/>
    <path class="fil72" d="M374 883c4,8 6,8 7,17 14,-6 2,-9 16,-21 7,7 5,-9 6,10 0,0 -2,7 -3,10 22,-1 16,-11 42,11 9,-4 8,-4 20,-6l0 -14c-8,-4 2,4 -1,-2l-5 -9c-10,4 -7,2 -12,8 -13,-11 -1,-11 -25,-10 5,-8 5,-11 2,-18 -6,-17 -2,-11 -22,-12 1,15 -4,16 11,21 -6,8 -15,3 -32,5 0,6 -1,6 0,10l3 7c0,-13 1,-4 -7,-7z"/>
   </g>
   <g>
    <path class="fil73" d="M731 1170l1 11c16,-4 15,-2 17,16 -1,0 -3,-3 -4,-2 -7,11 1,-7 -15,-3l5 26c-10,-8 -13,-1 -17,2 15,22 25,6 18,9 14,2 10,-1 16,7 -9,4 -7,2 -20,2l3 12 12 5 14 -10c0,1 9,4 1,16 -6,12 0,-4 -9,7 33,-6 27,-11 32,-13 13,-7 12,4 32,-18 9,-10 8,-7 19,-13 -16,-9 -16,0 -44,-5 -2,8 1,2 -2,9 -3,7 1,4 -8,6 -1,-11 3,-6 -8,-16l-8 -7 28 -5c0,-19 2,-13 0,-29l16 -4c-1,-5 -2,1 3,3 0,0 2,1 3,1 1,0 3,1 4,1l-3 -16 -16 4c-10,7 2,-1 -8,4 -14,7 -5,6 -29,3l1 -6c15,-2 16,0 17,-16 16,2 15,5 31,6 -4,-17 -4,-8 -12,-20 6,-10 0,-2 10,-11l-12 -11c-1,8 1,7 -6,11 -10,15 -5,9 -15,12 0,-14 -4,-16 -8,-26l11 -9 -13 -11 -12 3c-6,2 -8,1 -14,1 6,17 -4,4 26,20l-2 23c-13,-4 3,2 -8,-6 -6,-3 -3,-2 -11,-4 -17,35 -3,9 -15,19l-1 22z"/>
    <path class="fil73" d="M244 781c-1,9 0,10 -3,19 0,3 -1,1 -3,9l23 -1 4 18c14,-9 6,0 20,-15 -4,-6 7,-8 -5,-4 3,0 8,-3 9,-3l12 5 4 -25c12,7 5,4 22,5 -2,-15 1,-9 -4,-18 3,-13 -1,-7 8,-14l-1 -10c-11,4 -11,3 -17,11 -3,5 -1,6 -9,12 -8,6 -20,8 -29,14 -5,-12 -1,-4 -16,-9 -1,1 -2,2 -2,2l-5 8c-8,-2 -4,3 -8,-4z"/>
   </g>
   <g>
    <path class="fil74" d="M369 258c-22,3 -19,3 -31,15 -13,12 -13,11 -22,28 25,-9 -5,-3 35,-23l13 -10c14,-13 7,-11 24,-3 -6,27 -1,2 -11,16 -4,7 -4,18 -4,27 -14,1 -5,0 -19,4l0 27 12 3c-1,-3 -9,-1 2,-12 2,-2 7,-5 10,-5 19,-4 4,-3 10,4 0,-1 0,-3 0,-2l7 -14c8,12 4,10 18,10l18 1 2 -25c-19,1 -18,-3 -20,12 -24,-10 -3,7 -38,-9 3,-12 8,-12 22,-13 0,-29 31,-20 52,-24 0,1 1,1 1,2l2 14 58 7c9,3 11,3 18,6l-1 23c-17,3 -21,2 -35,-3l-6 15 -15 -4c-9,0 -12,0 -21,1 0,11 9,2 22,7 11,3 -6,6 21,5 3,-5 4,-9 6,-13l55 -1 4 13 20 0c-2,-18 -4,-13 -7,-29 -3,-8 -7,-11 -15,-16 -18,-6 -16,-7 -35,-8 -23,-2 -8,-10 -40,-9 -4,-5 -3,-1 -6,-9 0,0 -1,-4 -1,-5l-32 -5 -1 -12c49,2 52,-4 65,10 6,-7 -4,-8 18,-4 14,2 8,3 25,1 12,20 17,5 47,25 0,-17 -3,-8 8,-11 -8,-9 0,-5 -15,-10 4,14 5,2 0,10 -12,-4 -9,-2 -19,-9l-10 -7c-1,0 -2,0 -3,-1l-12 -6c-18,-10 -5,-8 -24,-10 -1,1 -2,2 -2,3l-3 4c0,0 -1,2 -1,2 0,-1 -1,1 -2,1 -30,-5 -52,-4 -85,-4l-2 4c0,0 -16,0 -17,0 -21,4 -7,9 -24,2 1,18 0,10 -4,14l-12 0z"/>
    <path class="fil74" d="M173 139c7,-2 5,-3 10,-3 21,0 4,-1 12,4l-13 7c3,15 2,3 4,19 2,-1 8,-5 8,-5 10,-5 1,-1 12,-5 10,-17 15,-14 31,-32l2 -15 -20 0 -12 -1c-2,0 -8,-3 -9,-4 0,13 4,4 -3,12l-22 23z"/>
   </g>
   <g>
    <path class="fil75" d="M351 403l-9 11 17 2c12,-5 1,-1 13,-8 7,-2 39,-6 46,-5 32,5 14,12 40,14l1 14 0 32 -12 8 4 20c6,3 2,1 5,5 23,10 19,1 33,15 17,0 14,1 27,-4 1,0 5,5 5,6 9,8 1,1 10,7 7,-8 7,-17 21,-10 2,0 7,6 8,8l2 3c1,1 1,2 2,3 12,0 15,3 22,-4 7,-4 1,1 4,-7 -11,-19 -6,-2 -12,-10 -4,-5 -2,-17 -2,-24 -6,0 -9,1 -13,-1 -2,-1 -2,-2 -4,-3 -1,-1 -1,-2 -2,-2l-4 -7c-8,-8 -6,10 -6,-9 11,-1 11,0 18,3l-4 -9c9,-19 3,-13 2,-34 -12,-2 -8,2 -23,-15 14,-1 21,2 32,3 -1,15 -8,-4 -1,12 12,-2 9,7 12,-11 1,-8 -4,-1 2,-10 -21,3 -33,-3 -49,0 -18,3 -9,4 -14,8 -5,3 3,-1 -6,3 -10,5 0,-1 -6,3 -5,-7 -5,-6 -24,-8 4,15 1,18 15,21l-1 17 10 2c11,-11 0,-4 11,-6 14,21 0,32 24,34 -9,6 -6,2 -13,11 6,13 7,4 9,17 -16,1 -9,-1 -24,-4 -4,4 -5,5 -11,8 -7,-7 -5,-4 -10,-7 -4,-3 -2,-1 -6,-5 -10,-10 -27,2 -25,-24 1,-23 -3,-9 9,-16l4 -37c-13,-7 -7,1 -8,-16 -14,-5 -97,5 -119,6z"/>
    <path class="fil75" d="M565 460c22,6 21,10 46,10 2,3 5,9 5,9l9 8c6,-7 3,-3 10,-8l22 12c1,0 2,1 2,1 9,8 4,7 25,6l-20 -10c-12,-3 -13,-5 -23,-8 -21,-4 -14,-11 -49,-11 0,-30 -9,-5 -7,-60 12,1 7,1 18,2l2 -7 -19 -8c0,0 -1,0 -1,0 -6,9 -1,2 -2,10 -3,18 0,9 -12,11 -7,-16 0,3 1,-12 -11,-1 -18,-4 -32,-3 15,17 11,13 23,15 1,21 7,15 -2,34l4 9z"/>
   </g>
   <g>
    <path class="fil76" d="M409 50l-18 -2 4 12 -39 8c-13,8 -28,6 -43,14 -17,8 -27,15 -46,16 -6,12 -14,22 -30,26 -16,18 -21,15 -31,32 -4,15 -8,16 -13,24l-5 33 28 2 0 11c18,0 25,3 43,4 3,-6 -7,-4 14,-1l14 -21c7,12 10,11 22,14 3,-7 1,1 4,-10 5,-1 2,0 7,-1l14 -3c1,30 -4,11 11,18 14,-5 4,2 11,-10l-14 -2c-4,-28 4,6 4,-22l-7 4c-6,10 0,4 -12,6 -7,1 -16,0 -21,-7 -8,10 -9,9 -40,-3 -5,6 -9,12 -17,8 -11,-5 -7,-6 -3,-15 -3,5 6,-2 -5,4l-14 -17c0,0 -2,0 -2,-2 -1,-1 -2,-1 -3,-1 4,-20 2,-5 14,-20l41 -45c25,0 23,-7 43,-17 30,-8 59,-17 91,-23 34,-6 77,0 112,1l23 3c4,-13 7,-12 17,-18 -5,-4 3,-4 -7,-6 -13,1 -8,3 -17,-2 -1,1 -1,2 -1,3l-7 7c-5,5 0,4 -14,4 -8,-9 -5,-15 -35,-16 -15,4 -5,5 -19,7l-39 6c-9,-1 1,-3 -15,-3z"/>
    <path class="fil76" d="M88 402l1 14c7,4 8,5 15,9l11 8c10,-8 5,-7 18,-10 3,-19 0,-13 8,-18l-7 -8c0,-2 -1,-2 -2,-2l7 -24c-21,0 -35,-2 -39,20l16 7c-4,3 0,4 -8,5 -17,3 -2,-6 -20,-1z"/>
   </g>
   <g>
    <path class="fil77" d="M301 865l3 18c-6,5 7,5 -9,3l2 7c-4,12 0,2 -4,9 0,1 -2,5 -2,6l2 8 20 -30 21 4 3 18 -14 3c3,8 6,11 15,13 5,-12 7,-14 21,-13l4 14 14 0 2 15c32,-9 4,-3 41,4 4,11 4,13 14,17 -3,-17 -6,-6 -8,-25 19,4 22,8 33,23 25,-7 11,-2 35,1l4 -11c17,7 -12,-8 8,6l34 16c-1,4 -1,4 -2,6l-2 8c0,1 0,3 -1,4 13,2 25,7 32,7 18,0 8,-7 32,-7l2 -19c-1,-2 -3,-10 -4,-13 -10,4 -9,-9 -8,10 0,1 3,7 4,16l-16 0 5 -17c-12,-9 -12,-8 -29,-10l-16 -22c0,-1 -1,-2 -2,-3 -11,4 -9,-5 -9,11 -7,-13 0,-3 -9,-7l-14 9 -19 -7c-2,-8 0,1 2,-10 -7,-5 1,0 -7,-4 -8,-4 3,-1 -6,-3 -5,-1 -6,-1 -11,-1l-2 -12 2 -3c-12,2 -11,2 -20,6 -26,-22 -20,-12 -42,-11 1,-3 3,-10 3,-10 -1,-19 1,-3 -6,-10 -14,12 -2,15 -16,21 -1,-9 -3,-9 -7,-17l-29 -9c-2,-4 -4,-10 -6,-15 -47,7 -5,1 -39,0l1 6z"/>
    <path class="fil77" d="M387 1229l13 13c0,0 1,1 2,2 1,0 3,-2 3,-2 2,3 3,-4 12,-6 4,0 20,0 25,0 7,9 3,10 18,12 -3,10 -3,6 0,10l14 1c3,-4 7,-8 10,-11 47,10 16,4 43,4 2,-9 2,-9 5,-14 -17,-4 -12,-6 -15,-14l-4 -6c-11,8 -3,0 -11,12l-9 -4c15,-5 10,1 10,-16 -23,-2 -15,12 -36,12 0,-1 -1,-6 -2,-7 -3,-8 -2,-3 -5,-9l-18 1c-4,4 -5,2 -8,10l-22 3 -4 -20c-24,6 -21,12 -21,29z"/>
    <path class="fil77" d="M289 1092c-10,2 -5,1 -8,16 -2,12 -3,13 -4,24l-14 4c6,17 3,16 21,12 -3,24 3,-3 9,25 1,0 2,-3 2,-2 1,1 2,-2 3,-2 1,-1 3,-5 4,-6 6,3 3,7 15,-1 -10,-20 -1,-7 -18,-14 7,-7 2,-6 14,-5 -1,-16 1,-3 7,-17 14,5 9,0 25,-2 3,5 -5,6 20,8 -2,-8 -2,-9 -3,-14l6 1 -16 -15c0,0 0,-2 -1,-2l1 -5c-10,5 13,4 -6,2 -18,-2 -19,-11 -19,-12 -1,1 -1,2 -2,3l-5 4c-7,-3 -5,-2 -9,-5 0,-1 -3,-4 -6,-6 -3,7 -3,1 -1,8l6 9c0,-1 1,3 1,4l-21 -2c-5,-13 -1,0 -1,-10z"/>
   </g>
   <g>
    <path class="fil78" d="M528 576c35,-5 30,15 49,-4 9,20 34,-2 50,0 3,0 18,2 18,2 5,2 5,4 19,4l6 10c11,1 21,1 30,4 2,1 21,11 23,13l17 14c16,12 -3,4 24,13 17,6 29,17 39,29 32,37 22,12 33,34 43,24 23,33 36,44 17,15 29,13 28,43l5 14c9,10 6,8 9,26l5 2c-4,-24 -9,-20 -14,-36 -2,-6 -3,-15 -3,-21 -2,-11 -4,-13 -7,-25l-26 -38c-13,-9 -8,-12 -14,-20 -4,-6 -2,-3 -9,-8 -9,-5 1,-1 -10,-6l-45 -33c-7,-8 -2,-2 -7,-11l-8 0 -34 -24c-21,-3 -30,-13 -67,-28 -23,-10 -50,-15 -52,-16 -14,-6 -10,-8 -13,-20 48,5 77,20 86,20 -15,-4 -8,-2 -18,-14 -23,-3 -33,0 -49,-8 -19,-3 -50,-4 -69,-4 -25,0 -35,-4 -63,-4 -13,9 -11,-5 -20,10 -6,-8 2,-6 -10,-6 -18,0 -8,3 -11,6 -1,2 -11,-2 4,15 0,0 3,1 7,7l36 -8c-1,8 -8,4 -5,19 20,12 21,-1 30,5z"/>
    <path class="fil78" d="M408 427c4,-3 -8,-7 12,-6 22,1 7,2 12,6 -2,5 5,10 -12,10 -14,-1 -8,-3 -12,-10zm-36 -19c-9,8 -4,0 -6,15l18 4c0,0 -6,3 0,21 0,1 1,2 2,3 21,6 11,5 16,-9l18 3 -1 10 30 8 5 -29 5 -3 -1 -14c-26,-2 -8,-9 -40,-14 -7,-1 -39,3 -46,5z"/>
   </g>
   <g>
    <path class="fil79" d="M313 1143c-12,-1 -7,-2 -14,5 17,7 8,-6 18,14 -12,8 -9,4 -15,1 -1,1 -3,5 -4,6 -1,0 -2,3 -3,2 0,-1 -1,2 -2,2l15 7c1,20 -1,14 6,29 7,-1 10,-2 14,-2 2,2 3,3 5,8 0,1 1,5 1,6 17,-2 14,2 25,-9l22 22 6 -5c0,-17 -3,-23 21,-29l4 20 22 -3c3,-8 4,-6 8,-10l18 -1c3,6 2,1 5,9 1,1 2,6 2,7 21,0 13,-14 36,-12 0,17 5,11 -10,16l9 4c8,-12 0,-4 11,-12l4 6c3,8 -2,10 15,14 6,9 6,5 13,8 11,7 12,16 12,29 -28,-4 3,-6 -25,-8l1 9 5 -6c1,1 3,3 4,4 6,6 13,3 30,3 19,-11 17,-4 28,-14l-4 -15 -11 -9c-1,1 -2,1 -2,3l-5 -11 -32 5c-7,-5 -11,-9 -22,-9 30,-5 21,0 28,-18l-31 0 2 -12c16,3 9,6 24,3 7,-2 6,-12 2,2 26,0 21,0 25,-11 15,5 11,5 26,0 0,-34 1,-8 -7,-16l-8 3c-5,-12 0,-9 -13,-13l-1 6c-1,0 -2,0 -2,2l-13 14 -18 -7c-13,-4 -9,0 -17,-11 -5,11 -7,5 -8,5 24,-2 11,4 11,10 -3,11 11,5 -21,7 -12,0 -6,2 -18,7 -18,-7 -3,1 -15,-10l-28 3c-1,-5 -7,0 -25,0 5,-19 0,-5 3,-13 3,-8 3,-6 4,-8 -16,-4 -13,-6 -15,-11 -3,6 -9,10 -17,10 -26,3 -10,-3 -22,-8 -1,1 -6,6 -7,8 -8,16 6,3 -9,17 -6,-11 -2,-6 -6,-17 -10,3 -1,3 -18,10 -8,-13 -2,-4 -4,-14 -3,-12 -8,7 -1,-16 0,0 2,-2 2,-2 1,1 3,-1 3,-1 1,0 7,-1 8,-2 -8,4 -3,-9 -2,-12l-23 11z"/>
    <path class="fil79" d="M596 1248c4,-8 1,-5 8,-9 -4,-9 -7,-12 -6,-25 20,-9 7,-4 24,-16 -6,-11 -12,-10 -6,-24l-23 1c8,8 7,-18 7,16 -15,5 -11,5 -26,0 -4,11 1,11 -25,11 4,-14 5,-4 -2,-2 -15,3 -8,0 -24,-3l-2 12 31 0c-7,18 2,13 -28,18 11,0 15,4 22,9l32 -5 5 11c0,-2 1,-2 2,-3l11 9z"/>
   </g>
   <g>
    <path class="fil80" d="M268 1174l26 42c7,7 19,8 20,23 24,-7 17,6 21,14l21 1c-1,12 -4,13 2,17 2,2 3,1 7,4 0,0 8,5 9,6 4,-1 9,1 11,-8l6 2c8,2 1,1 9,1 7,23 5,2 20,19 4,-3 6,-4 11,-6 2,5 2,6 5,10l16 -8c7,6 5,2 7,12 10,0 33,0 43,-1 18,-3 17,-2 36,-1l1 -14c-17,0 -9,3 -17,2 -2,0 -10,-2 -18,-2 4,-14 5,-4 16,-5 22,-1 5,3 13,-6l-1 -9c28,2 -3,4 25,8 0,-13 -1,-22 -12,-29 -7,-3 -7,1 -13,-8 -3,5 -3,5 -5,14 -27,0 4,6 -43,-4 -3,3 -7,7 -10,11l-14 -1c-3,-4 -3,0 0,-10 -15,-2 -11,-3 -18,-12 -5,0 -21,0 -25,0 -9,2 -10,9 -12,6 0,0 -2,2 -3,2 -1,-1 -2,-2 -2,-2l-13 -13 -6 5 -22 -22c-11,11 -8,7 -25,9 0,-1 -1,-5 -1,-6 -2,-5 -3,-6 -5,-8 -4,0 -7,1 -14,2 -7,-15 -5,-9 -6,-29l-15 -7c-6,-28 -12,-1 -9,-25 -18,4 -15,5 -21,-12 -13,-4 -5,-3 -19,-6 3,26 4,10 12,24 6,10 -2,10 12,20z"/>
    <path class="fil80" d="M632 966l26 -5c12,12 3,4 19,11 -10,24 10,17 -8,28 15,1 11,2 20,12 -2,15 -5,7 -3,18 21,3 8,-4 23,7 -5,9 -2,7 -13,13 1,6 1,5 3,9l6 10c-3,7 -2,5 -6,13 -3,6 -4,6 -5,9l-8 21 -14 0c-2,27 -7,10 -17,30l-23 1c1,13 2,13 -7,26 -17,-3 -14,-7 -18,-14 -9,5 -6,-6 -6,12 -35,3 -14,-4 -32,-10l3 8c13,4 8,1 13,13l8 -3 23 -1c-6,14 0,13 6,24 11,-2 6,-2 10,-3 9,-5 -5,-2 12,-6 4,4 3,6 4,10l8 -1c0,-21 1,-18 12,-28l-8 -16c30,-9 7,9 36,11l-3 -1 0 -9c10,-8 -14,-6 14,-7 2,-24 14,-12 4,-32l10 -7c-3,-9 -4,-15 -1,-23 4,-11 1,-3 12,-13l-8 -12c13,-8 5,0 12,-12 -3,-2 1,2 -5,-4 -11,-10 -6,-7 -10,-15 -3,-8 -6,-14 -7,-28l-24 2c-3,-53 0,-18 11,-44l-15 -7 -29 -5 -25 18z"/>
   </g>
   <g>
    <path class="fil81" d="M99 281c-32,0 -26,-3 -20,-30l31 -2c1,23 -2,20 -11,32zm-24 -58c-2,8 -4,13 -6,21 -2,6 -2,6 -5,10 -3,4 -3,2 -6,6 -11,10 -6,11 -12,26 -4,9 -7,14 -8,27 -3,24 6,44 -10,63l3 14c-7,15 -9,82 -7,92 4,15 6,12 6,32 -3,35 17,37 15,74l7 4 6 0c-2,-12 -1,-11 -4,-20l-19 -37c6,-33 0,-16 2,-31 1,-14 4,-10 6,-16 -28,0 -4,1 -14,-7 2,-29 9,-6 2,-29 7,-2 9,5 13,-11 0,-1 1,-14 2,-19l19 5c2,24 4,-3 6,23l8 1 3 -85c4,-8 4,-5 9,-9l4 -31c0,-1 1,-2 1,-3 0,-1 1,-2 2,-3l7 -22c5,-10 7,-13 12,-24 3,-6 3,-3 6,-12 11,-34 13,-4 17,-36 18,-5 23,-22 30,-38 -8,0 -11,-2 -17,4l-15 31c-29,3 -14,4 -34,11 -2,-3 -3,-3 -7,-8l-6 -11 19 2c4,-25 10,2 10,-29 -11,-3 -4,-4 -15,2l3 -9c-13,9 -4,2 -12,12 -3,4 -4,5 -8,9 -4,4 -11,15 -13,21z"/>
    <path class="fil81" d="M316 301c-18,2 -25,31 -32,44 -12,21 -9,3 -12,21 -1,12 -7,20 -8,34 19,-9 18,-24 33,-42 9,-10 1,-8 17,-8 -8,-19 0,-11 2,-15 16,2 9,-1 20,7l11 8c0,0 1,1 2,1 0,1 2,1 2,2l3 4c0,1 1,1 1,2 -1,7 0,1 -2,6 9,0 10,-2 14,-3 12,-2 9,-2 16,3 0,0 5,2 7,4l1 -18c5,0 13,0 19,-1 13,-2 8,-1 9,-8l-7 -5 1 -14c-14,0 -10,2 -18,-10l-7 14c0,-1 0,1 0,2 -6,-7 9,-8 -10,-4 -3,0 -8,3 -10,5 -11,11 -3,9 -2,12l-12 -3 0 -27c14,-4 5,-3 19,-4 0,-9 0,-20 4,-27 10,-14 5,11 11,-16 -17,-8 -10,-10 -24,3l-13 10c-40,20 -10,14 -35,23z"/>
    <path class="fil81" d="M177 102c-3,10 0,5 -6,11 -4,4 -1,0 -7,4 -6,5 -6,5 -12,10 -9,8 -10,11 -20,17l-3 3c-5,8 0,3 -5,8 -5,5 -1,0 -6,6 -8,8 -5,5 -8,15 7,5 5,3 12,6l10 -18c15,3 4,-1 16,7 14,-23 6,1 13,-17l-18 2c5,-12 -1,-2 4,-9 0,-1 5,-5 6,-6 12,-6 5,2 20,-2l22 -23c7,-8 3,1 3,-12 1,1 7,4 9,4l12 1c-8,-4 -5,-1 -10,-8l-18 -4 -4 -4 -10 9z"/>
    <path class="fil81" d="M558 337c4,3 2,1 6,3l8 4c1,1 2,2 3,2l6 -2 25 3c-2,-10 1,-5 -7,-13 -3,-3 -7,-6 -10,-8l0 -13 -7 -2 -11 -3c3,16 5,11 7,29l-20 0z"/>
   </g>
   <g>
    <path class="fil82" d="M655 833l13 3c17,-14 7,-14 32,-12 4,-18 0,-4 7,-13l-1 30 25 3c3,15 4,8 -1,16l20 1 0 15c10,0 29,3 40,5 9,-12 -1,-5 10,-7l4 12 -21 6c-9,2 -9,2 -12,8 9,1 0,-1 4,8l0 10 11 5 3 1c7,0 4,-15 7,-24 4,2 -2,0 5,3 6,4 3,3 12,6 0,-7 1,-22 1,-23 -1,-8 -3,-4 -6,-19l-18 -3c-7,-14 -7,-6 -7,-24l-22 1 -28 -27c-14,-15 -7,-13 -40,-21 -20,16 -6,13 -43,11l-4 -11c-1,-1 -2,-1 -3,-1l-9 -3c-6,-2 1,0 -8,-3 -11,-4 -7,4 -5,-8l-18 4 -7 -12c-8,3 -6,3 -15,6l-21 8c12,-12 5,4 12,-14l-33 -2 -3 12c-8,-9 -2,-10 -20,-12l-4 -14c-27,3 -12,2 -31,7 -10,-12 -1,-8 -14,-15 -13,6 -11,-11 -11,18 -2,-5 -9,-12 -12,-16l-30 1c0,14 4,15 15,18 2,0 12,1 12,2l49 4 7 8c9,-4 -1,-2 8,-4 11,-3 6,-1 11,5l-14 7c11,9 10,7 27,7 -2,13 1,23 -13,20 0,4 0,6 -1,11 18,-4 5,-13 36,-15 4,11 7,18 8,33 4,2 7,4 12,7 8,-15 7,-1 12,-14 -20,1 11,4 -22,7 4,-20 4,-25 28,-25l4 4c6,9 6,11 14,13 4,-13 -8,1 3,-18 1,0 3,0 3,1 1,2 3,1 3,2 11,6 6,5 19,3 0,12 0,8 -3,17 16,-3 13,-11 23,-9z"/>
    <path class="fil82" d="M848 1142c-12,3 -8,-1 -14,8 -3,5 -3,9 -4,13l-13 -1 3 16c-1,0 -3,-1 -4,-1 -1,0 -3,-1 -3,-1 -5,-2 -4,-8 -3,-3l-16 4c2,16 0,10 0,29l-28 5 8 7c11,10 7,5 8,16 9,-2 5,1 8,-6 3,-7 0,-1 2,-9 28,5 28,-4 44,5l7 -3c4,-17 -7,-14 8,-33l16 -2c-4,-24 0,-28 5,-35 0,-1 1,-1 1,-2 8,-10 6,-7 17,-9 -2,-12 -4,-12 -4,-24 -7,2 -11,-6 -16,14 0,1 2,8 2,8l-24 4z"/>
   </g>
   <g>
    <path class="fil83" d="M265 1185c10,5 6,7 6,22 18,2 19,3 24,26l7 1c0,1 1,2 1,2 1,1 1,2 2,3 9,14 7,8 15,13 13,8 2,4 18,18 13,11 23,23 32,35 59,-2 0,2 88,26l35 4c16,3 12,7 13,-4 27,0 40,-3 52,4 2,1 3,11 15,-5l5 -4c1,1 2,-1 3,-1l26 -5c6,7 5,-2 7,11 16,0 24,-2 29,-21l68 -9c10,-4 -4,-4 17,-7l1 -10 -14 -1c0,-1 1,-3 1,-4l9 -19c-11,7 -6,6 -21,10 -9,-11 -6,-7 -8,-18 -9,9 -1,1 -5,8 -1,1 -1,2 -2,3l-21 4 -4 -25 -14 -3c0,38 -8,21 -25,31l-11 -11c-5,14 -2,9 -11,18 -8,8 -6,8 -18,7 -8,16 3,7 -11,11 -6,-10 -4,-4 -2,-18 -17,0 -24,3 -30,-3 -1,-1 -3,-3 -4,-4l-5 6c-8,9 9,5 -13,6 -11,1 -12,-9 -16,5 8,0 16,2 18,2 8,1 0,-2 17,-2l-1 14c-19,-1 -18,-2 -36,1 -10,1 -33,1 -43,1 -2,-10 0,-6 -7,-12l-16 8c-3,-4 -3,-5 -5,-10 -5,2 -7,3 -11,6 -15,-17 -13,4 -20,-19 -8,0 -1,1 -9,-1l-6 -2c-2,9 -7,7 -11,8 -1,-1 -9,-6 -9,-6 -4,-3 -5,-2 -7,-4 -6,-4 -3,-5 -2,-17l-21 -1c-4,-8 3,-21 -21,-14 -1,-15 -13,-16 -20,-23l-26 -42 2 4c0,-1 1,3 1,4l-6 3z"/>
    <path class="fil83" d="M211 866c11,3 5,5 12,10 4,3 1,1 6,2 19,3 4,0 19,8l7 -4 11 -18 -14 0c0,-13 2,-14 7,-21 -9,-7 -4,-1 -9,-11 -10,2 -9,-4 -6,21 -14,-7 -12,-14 -31,-6l-2 19z"/>
   </g>
   <g>
    <path class="fil84" d="M95 326l-4 31 -3 45c18,-5 3,4 20,1 8,-1 4,-2 8,-5l-16 -7c4,-22 18,-20 39,-20l-7 24c1,0 2,0 2,2l7 8c-8,5 -5,-1 -8,18 -13,3 -8,2 -18,10l-11 -8c-7,-4 -8,-5 -15,-9 1,1 2,2 2,4l6 11 -9 17 14 0c-4,9 -3,6 -6,15l13 10 0 18c3,-1 11,-2 11,3 1,1 2,3 3,4 12,22 -2,14 20,17 -2,-9 -3,-11 -6,-16 -7,-10 -1,4 -8,-11 0,-1 1,-3 2,-2l23 -23 -3 -24 21 -4 -5 -33c-2,-16 -1,0 -3,-9 -3,-12 4,-26 3,-30l-11 -2c2,-10 3,-5 5,-17l-10 -7c6,-12 -1,-1 9,-11 -4,-3 -3,-3 -7,-9 9,-11 3,-18 1,-32 14,4 4,1 13,5 6,-14 4,-9 9,-13l5 -5c1,-1 4,-3 4,-5 0,-2 1,-2 2,-3l25 -2c4,-21 -1,-5 7,-14l18 21c0,-34 -1,-12 10,-21 9,12 5,-2 8,14 7,-5 40,-2 26,-29 16,-3 9,-9 24,-9 1,0 3,3 3,2 1,-2 3,1 4,2 1,22 -5,7 -17,27 7,3 -10,7 11,2 25,-3 49,-34 82,-33 1,-1 3,-4 4,-5 1,0 2,-1 2,-2 1,-2 2,-2 3,-3l-12 0c-10,8 -13,6 -27,6l-2 -4c-7,12 3,5 -11,10 -15,-7 -10,12 -11,-18l-14 3c-5,1 -2,0 -7,1 -3,11 -1,3 -4,10 -12,-3 -15,-2 -22,-14l-14 21c-21,-3 -11,-5 -14,1 -18,-1 -25,-4 -43,-4l0 -11 -28 -2 5 -33 -31 47c-1,-1 -2,2 -2,3l10 7c0,0 1,1 2,1 7,7 8,9 9,22l-5 -16c-2,1 -4,1 -5,2 -9,4 -17,6 -23,16 5,7 2,8 10,7 14,-1 -6,1 10,-6l0 12c-16,0 -12,1 -25,4l3 14 -20 0c-5,6 -7,10 -18,12 0,15 -2,12 -4,19l-9 2z"/>
    <path class="fil84" d="M819 521c2,-18 2,-34 8,-49 6,-14 11,-113 5,-134 -3,-13 -6,-9 -5,-25 14,0 9,1 16,10 9,-6 4,-4 17,-5 -4,-18 -1,-8 -8,-15 -4,-4 -4,-4 -9,-9 -10,-8 -10,-5 -16,-20 -7,-9 -2,-5 -12,-9 -14,-1 -13,8 3,18 -8,25 11,110 3,147 -4,20 -5,-4 -9,45 -4,2 -9,4 -13,6 10,13 2,7 7,20l13 20z"/>
   </g>
   <path class="fil85" d="M401 816c-12,11 -7,-3 -10,13 -17,0 -19,1 -31,6 -10,3 -14,4 -26,4 0,-28 2,-3 -7,-14 -13,3 -13,1 -18,11 -1,0 -3,-1 -4,-1 -1,0 -2,0 -3,0l-6 1c-1,1 -6,5 -6,5 -7,4 -12,-1 -12,-2 -1,-1 -3,-1 -4,-2 1,12 1,13 -3,20l10 0 10 8 10 0 -1 -6c34,1 -8,7 39,0 2,5 4,11 6,15l29 9c8,3 7,-6 7,7l-3 -7c-1,-4 0,-4 0,-10 17,-2 26,3 32,-5 -15,-5 -10,-6 -11,-21 20,1 16,-5 22,12 3,7 3,10 -2,18 24,-1 12,-1 25,10 5,-6 2,-4 12,-8l5 9c3,6 -7,-2 1,2l0 14 -2 3 8 -20c23,1 22,-5 39,-9 2,30 2,12 -16,19 4,15 5,-9 13,18 15,-1 18,1 27,9 9,-8 8,-6 20,-11 1,17 -3,15 4,25 3,-8 7,-15 7,-28 28,3 19,7 43,-1 -3,8 -5,2 -8,13 1,1 3,2 4,2 0,0 1,1 2,2l4 3c11,-7 6,-5 21,-6 32,34 38,2 58,30l15 7c-11,26 -14,-9 -11,44l24 -2c1,14 4,20 7,28 4,8 -1,5 10,15 6,6 2,2 5,4 0,-43 -12,-14 -5,-28 4,-8 1,4 4,-8 5,-22 -8,-16 -7,-26 0,-1 1,-2 1,-3 0,-1 3,-7 3,-8 -19,6 -4,0 -19,8 3,-15 0,-5 -5,-19 11,-6 7,-1 9,-18l18 -2 -5 -16c-12,3 -6,6 -23,4 -6,-14 -1,-12 -14,-22 -11,5 -11,2 -9,7 -8,-12 -8,-9 -10,-25 -6,5 2,2 -10,3 -3,-16 -3,-8 -7,-13 -12,7 -4,-7 -11,12 -10,-9 -21,-12 -36,-12l4 -14c-21,-3 -12,3 -25,3 -9,0 -9,-4 -25,-3 -5,7 -9,11 -15,16 -4,-2 -6,-5 -10,-7 -6,-4 -7,-2 -12,-6 -14,-9 3,-15 -23,-8 -3,-8 1,-4 -4,-7 -5,-1 -11,-7 -16,4 -6,13 8,12 -3,14 -1,-10 -10,-29 -14,-39l-10 -8c-10,-9 0,5 -6,-9l-23 3c-5,-11 -15,-10 -27,-6z"/>
   <path class="fil86" d="M323 771c5,9 2,3 4,18 -17,-1 -10,2 -22,-5l-4 25 -12 -5c-1,0 -6,3 -9,3 12,-4 1,-2 5,4 -14,15 -6,6 -20,15l1 4c13,-3 2,-7 36,-2l7 -17c14,4 14,0 9,14 9,-7 5,-8 9,-4 -8,-10 -8,-6 -6,-22 14,-6 11,-3 28,0l7 14c8,-8 7,16 7,-17 20,6 -15,-13 4,2 10,8 -8,10 23,4l0 17 11 -3c12,-4 22,-5 27,6l23 -3c6,14 -4,0 6,9l10 8 0 -4c7,-3 10,-4 18,-7l5 6c0,1 1,2 1,2 1,1 2,1 2,2 13,9 15,1 24,19 -2,1 8,16 -17,3 5,3 1,-1 4,7 26,-7 9,-1 23,8 5,4 6,2 12,6 4,2 6,5 10,7 6,-5 10,-9 15,-16 16,-1 16,3 25,3 13,0 4,-6 25,-3l-4 14c15,0 26,3 36,12 7,-19 -1,-5 11,-12 4,5 4,-3 7,13 12,-1 4,2 10,-3 9,0 8,-2 8,4 1,-2 3,-2 7,-4l17 3 -15 -10c9,-4 5,-1 14,0 1,0 -4,4 9,1 12,-3 6,-4 8,-8 -5,-2 -10,-1 -18,-7 2,-15 14,-7 1,-13 -11,-6 -11,0 -16,6 -1,-1 -4,-3 -5,-3l-9 2c-6,5 -1,1 -7,5 -9,-13 -4,-15 2,-26l-15 -10c-10,-2 -7,6 -23,9 3,-9 3,-5 3,-17 -13,2 -8,3 -19,-3 0,-1 -2,0 -3,-2 0,-1 -2,-1 -3,-1 -11,19 1,5 -3,18 -8,-2 -8,-4 -14,-13l-4 -4c-24,0 -24,5 -28,25 33,-3 2,-6 22,-7 -5,13 -4,-1 -12,14 -5,-3 -8,-5 -12,-7 -1,-15 -4,-22 -8,-33 -31,2 -18,11 -36,15 1,-5 1,-7 1,-11 14,3 11,-7 13,-20 -17,0 -16,2 -27,-7l14 -7c-5,-6 0,-8 -11,-5 -9,2 1,0 -8,4l-7 -8 -49 -4c0,-1 -10,-2 -12,-2 -11,-3 -15,-4 -15,-18 -27,1 -34,-2 -41,10l-5 10c0,0 -1,2 -2,3 -41,-5 -25,1 -43,-1z"/>
   <path class="fil87" d="M513 98l8 5c-2,8 -3,9 -6,17l-5 6c-3,5 0,-1 -2,7 26,21 18,4 21,24 6,-12 -5,-5 13,-8l39 30c2,15 6,10 -5,16l13 14 5 0c2,16 15,32 28,37 4,1 15,2 21,4l-1 9 14 0 1 17c22,9 10,4 20,20l14 0 5 15c14,0 9,8 15,18 7,4 15,5 22,8 14,5 8,6 21,12l3 -4c8,-9 19,-12 26,-22 2,-2 4,-9 5,-11l-5 -18c-3,-14 -2,-2 -5,-12 -3,-9 0,-15 -1,-24 -1,-14 -8,-21 -12,-38 -7,-17 3,-17 -19,-21 1,1 2,1 2,3l4 8c2,6 1,9 3,15 4,14 6,10 11,25l2 19c-10,2 -2,2 2,4l-4 23c10,4 5,0 9,9 -5,10 -9,12 -22,14 1,-11 6,-12 1,-20 -11,8 -3,7 -11,19 -6,-3 -3,-1 -8,-5l-22 -28c-27,-8 -8,-11 -35,-13 -5,-17 -9,-10 -12,-26 -15,-6 -10,-3 -27,-6l3 -14c-9,4 -4,3 -15,2 2,-15 1,-6 4,-13 1,-3 1,1 3,-10l-11 1c-2,-5 -5,-11 -7,-16l12 -11c-5,-29 -3,-19 3,-24l13 2 7 5c7,9 6,-14 6,14 11,-7 4,-5 19,-5 12,-3 10,-11 20,-9 13,4 2,0 7,14 2,6 2,4 4,7 9,-2 15,-5 22,-9l17 5 0 -2c-26,-9 -29,-13 -37,-25 -14,-23 -19,-1 -33,-24l-21 -1c-10,-16 0,-9 -19,-19 -6,-3 -4,-2 -7,-5 -6,0 -5,2 -5,-4 -12,-2 -8,-4 -20,-4l-15 0 -25 -4c-5,6 -4,2 -8,11 -7,-5 -11,-3 -19,-4 -10,-2 -10,-3 -20,-5 -5,4 -5,-6 -4,5z"/>
   <path class="fil88" d="M454 728l2 19 -13 -3 1 4c3,4 10,11 12,16 0,-29 -2,-12 11,-18 13,7 4,3 14,15 19,-5 4,-4 31,-7l4 14c18,2 12,3 20,12l3 -12 33 2c-7,18 0,2 -12,14l21 -8c9,-3 7,-3 15,-6l7 12 18 -4c-2,12 -6,4 5,8 9,3 2,1 8,3l9 3c1,0 2,0 3,1l4 11c37,2 23,5 43,-11 33,8 26,6 40,21l28 27 22 -1c0,18 0,10 7,24l18 3c3,15 5,11 6,19 0,1 -1,16 -1,23 9,3 -2,2 8,14 0,1 1,1 2,2l13 15c2,4 -1,6 10,11l6 19c1,1 2,2 2,2 -20,21 -17,5 -23,18 5,2 16,6 23,7l-2 15 18 8c-3,8 -3,3 -9,13 4,12 5,17 13,22 -4,24 -3,23 -1,48 -16,4 -11,8 -29,34l4 5 24 -4c0,0 -2,-7 -2,-8 5,-20 9,-12 16,-14l3 3c0,-17 -1,-9 2,-14 0,0 1,-1 1,-2l5 -12c3,-18 5,-6 1,-25 10,-8 7,-7 7,-22 7,2 -3,2 -4,2l-6 -12c-2,-3 0,-2 -6,-4 3,-12 1,2 5,-14 -12,-9 -4,-7 -18,-4 1,-25 21,-42 1,-55 -4,-3 -7,-3 -10,-5 -3,-3 -4,-5 -5,-8l-9 -17c0,-1 -1,-2 -2,-2l-15 -17c0,-1 -1,-2 -1,-2 -10,-12 0,-3 -10,-8 19,8 11,-5 12,-5l-11 -10c4,-13 2,-2 7,-16l-5 -7 -18 -1c-3,-4 -10,-18 -18,-11 -1,-13 -6,-20 -17,-27l-8 -5c-1,-1 -1,-2 -2,-2l-2 -5c-5,-10 5,-13 -26,-14l-1 -17c-14,-2 -5,-5 -28,-10l-6 -1c0,12 0,10 -6,17l-8 -8c0,0 -1,-2 -1,-2 0,0 -1,-1 -1,-2l-22 1c-1,-2 -1,-4 -2,-3 -3,7 4,-5 -17,-20 -3,2 5,14 -27,2l-6 5c-7,-5 -20,-6 -30,0 -6,-3 -7,-4 -11,-8 -13,6 -12,1 -25,8 -1,-1 -2,-3 -2,-2l-8 -6c-25,-13 -25,2 -39,-3 -10,-25 -6,-9 5,-22 -4,1 -14,1 -15,1 0,0 0,0 -7,2 -12,3 -14,2 -26,1z"/>
   <path class="fil89" d="M528 576c-9,7 -33,1 -46,5 7,14 0,1 7,10 3,3 4,5 4,4 1,0 2,2 2,3l7 -1c-5,7 -11,11 -16,16 9,4 13,-1 20,-4 28,5 35,2 62,0l17 17c17,-5 -12,6 6,-3 20,-9 35,-3 66,-3 11,16 43,21 55,42 2,-7 2,-2 7,-6 10,13 2,2 13,8 11,6 10,9 13,12 6,4 9,6 15,10 10,6 3,4 19,5 1,1 1,1 2,3l33 24c6,5 7,7 10,12 -1,-6 -1,0 5,-2l-4 -18c-11,-6 -12,0 -14,-16 19,0 -2,4 17,2 1,0 7,-1 8,-1 -11,-22 -1,3 -33,-34 -10,-12 -22,-23 -39,-29 -27,-9 -8,-1 -24,-13l-17 -14c-2,-2 -21,-12 -23,-13 -9,-3 -19,-3 -30,-4l-6 -10c-14,0 -14,-2 -19,-4 0,0 -15,-2 -18,-2 -16,-2 -41,20 -50,0 -19,19 -14,-1 -49,4z"/>
   <path class="fil90" d="M494 671l1 7c19,-1 16,-3 26,7 9,-2 5,-1 14,-4l11 8c25,-7 32,-1 46,13 1,-1 3,-3 3,-3 1,0 2,-1 2,-2 1,-1 2,-1 3,-2 8,1 19,0 27,2 14,5 5,-1 12,12l25 5c25,-18 16,6 27,-9 6,7 7,10 18,14 10,3 16,2 27,6l1 27 1 0c0,-10 13,-6 23,-9l7 11 17 0c4,6 5,7 7,15l12 0c3,-14 0,-11 11,-17 0,1 1,1 1,3 1,1 3,4 3,5 3,9 1,11 18,14l14 -5 0 -8 -12 0c-9,-18 -9,-3 -20,-20 -16,-24 -23,-17 -34,-20 -27,-7 9,-5 -30,-16 -10,-22 6,-2 -20,-23 -9,-8 -19,-16 -53,-10l-18 -18c-8,8 -7,6 -25,3 -16,-3 -74,-9 -86,-6l-5 -4c0,-1 -1,-2 -2,-2 0,0 -1,-1 -2,-1l-13 -3c-14,-1 -46,-9 -59,-8 -19,2 -10,0 -25,-2l0 10c18,0 31,11 53,1 -2,14 -7,12 -6,29z"/>
   <path class="fil91" d="M467 687c4,10 -5,9 4,9l28 17c6,9 8,-4 3,11 27,4 88,6 109,5l2 11 15 -9c13,3 15,4 33,5 8,9 38,23 39,23 12,7 1,-8 8,9 23,5 14,8 28,10l1 17c31,1 21,4 26,14l2 5c1,0 1,1 2,2l8 5c11,7 16,14 17,27 8,-7 15,7 18,11l18 1 16 1c-2,9 0,6 -6,13 17,10 9,0 9,20 11,1 12,0 19,9l12 16c1,6 -5,3 10,2 0,6 -1,8 2,12 0,1 1,2 1,2 18,26 11,37 19,57 5,14 5,4 8,25 9,2 2,-1 7,3l4 6c0,-20 -5,-34 -3,-58 3,-20 -3,-32 -4,-54l-14 0c-22,-42 3,-13 -31,-30 -2,-9 -7,-27 -7,-39 -8,2 -10,4 -18,0 -5,-2 2,-4 -21,-5 0,-12 -2,-18 -6,-25l-22 1c-4,-16 -12,-24 -28,-26l-2 -13c-1,1 -1,1 -1,1 -1,1 -1,1 -2,2 -8,2 -2,0 -12,2l-3 -22c-29,0 -6,5 -17,-8l-1 0c-21,1 -11,-1 -27,-8 -23,-10 -26,-7 -40,-11 -18,-6 -48,-6 -70,-10 -4,-15 -2,-10 0,-11l-14 4c-23,-6 1,0 -10,-7 -12,-7 -1,0 -13,-4 -15,-6 2,12 -7,-6 0,1 -1,5 -2,5l-5 6c-17,-1 -22,-4 -28,-15 -6,9 -8,10 -20,13l-4 -10c0,0 -1,-1 -1,-2l0 -4c0,0 0,-1 0,-1 0,-1 0,-1 -1,-1 -10,-3 -2,1 -12,-6 -14,-1 -2,-2 -16,3z"/>
   <path class="fil92" d="M342 414c-14,7 -8,10 -27,16 -4,4 -2,2 -8,4 5,10 6,6 12,12l10 -3c0,0 1,-1 1,-2l26 0c11,5 5,-5 7,14 0,5 0,12 0,19 5,0 3,-1 2,4 -1,13 -7,1 -2,21 -6,1 -7,2 -12,3l12 8c6,-8 5,-11 15,-15 -5,11 -8,17 -8,32 15,4 9,4 15,21l24 -1c13,9 11,-13 11,12l-20 20c-1,-1 -2,1 -3,1 18,1 29,-4 44,-2 16,2 19,7 41,3 13,-4 37,2 46,-5 -9,-6 -10,7 -30,-5 -3,-15 4,-11 5,-19l-36 8c-4,-6 -7,-7 -7,-7 -15,-17 -5,-13 -4,-15 3,-3 -7,-6 11,-6 12,0 4,-2 10,6 9,-15 7,-1 20,-10l-56 -29c-1,0 -2,-1 -2,-2l-1 -23 14 -15c-4,-18 -6,-18 2,-25l-5 29 -30 -8 1 -10 -18 -3c-5,14 5,15 -16,9 -1,-1 -2,-2 -2,-3 -6,-18 0,-21 0,-21l-18 -4c2,-15 -3,-7 6,-15 -12,7 -1,3 -13,8l-17 -2z"/>
   <path class="fil93" d="M789 924c-4,7 -2,3 -5,12 6,11 8,11 18,17 -1,12 -5,2 0,13 1,1 2,5 3,5 0,1 1,2 1,3l9 5c-20,14 9,0 -20,22 22,32 5,10 2,36 11,1 4,4 12,-1l5 -7c0,-1 0,-1 1,-2 5,14 9,21 8,37l13 5 7 25 -17 -2c-4,11 -1,12 -5,22 -18,-5 -5,-1 -11,-5 -1,0 -3,-2 -4,-3l2 -6c-2,1 -2,10 -15,0 -2,5 -4,10 -5,15 -3,16 -2,8 5,11 7,-4 5,-3 6,-11l12 11c-10,9 -4,1 -10,11 8,12 8,3 12,20 -16,-1 -15,-4 -31,-6 -1,16 -2,14 -17,16l-1 6c24,3 15,4 29,-3 10,-5 -2,3 8,-4l16 -4 13 1c1,-4 1,-8 4,-13 6,-9 2,-5 14,-8l-4 -5c18,-26 13,-30 29,-34 -2,-25 -3,-24 1,-48 -8,-5 -9,-10 -13,-22 6,-10 6,-5 9,-13l-18 -8 2 -15c-7,-1 -18,-5 -23,-7 6,-13 3,3 23,-18 0,0 -1,-1 -2,-2l-6 -19c-11,-5 -8,-7 -10,-11l-13 -15c-1,-1 -2,-1 -2,-2 -10,-12 1,-11 -8,-14 -9,-3 -6,-2 -12,-6 -7,-3 -1,-1 -5,-3 -3,9 0,24 -7,24z"/>
   <path class="fil94" d="M435 621l0 10 12 0c15,2 6,4 25,2 13,-1 45,7 59,8l13 3c1,0 2,1 2,1 1,0 2,1 2,2l5 4c12,-3 70,3 86,6 18,3 17,5 25,-3l18 18c34,-6 44,2 53,10 26,21 10,1 20,23 39,11 3,9 30,16 11,3 18,-4 34,20 11,17 11,2 20,20l12 0 -12 -17c17,0 9,-1 19,3l3 -8c-5,-4 -5,-3 -7,-10l-25 -1c-6,2 -6,-4 -5,2 -3,-5 -4,-7 -10,-12l-33 -24c-1,-2 -1,-2 -2,-3 -16,-1 -9,1 -19,-5 -6,-4 -9,-6 -15,-10 -3,-3 -2,-6 -13,-12 -11,-6 -3,5 -13,-8 -5,4 -5,-1 -7,6 -12,-21 -44,-26 -55,-42 -31,0 -46,-6 -66,3 -18,9 11,-2 -6,3l-17 -17c-27,2 -34,5 -62,0 -7,3 -11,8 -20,4 5,-5 11,-9 16,-16l-7 1c-14,1 -21,-4 -39,0 -13,2 -30,2 -36,-6 21,2 12,4 16,20 21,-2 8,-14 26,-2 -7,16 -2,12 -24,11 -3,-4 0,-4 -3,0z"/>
   <path class="fil95" d="M252 1103c-1,-13 1,-9 3,-16 -11,-5 -6,11 -7,-22 17,5 13,-1 18,14l24 -2 -1 15c0,10 -4,-3 1,10l21 2c0,-1 -1,-5 -1,-4l-6 -9c-2,-7 -2,-1 1,-8 3,2 6,5 6,6 4,3 2,2 9,5l5 -4c1,-1 1,-2 2,-3 0,1 1,10 19,12 19,2 -4,3 6,-2l-1 5c1,0 1,2 1,2l16 15c9,9 -10,-11 4,5l6 6c1,0 2,1 3,1 13,-10 6,-11 18,-15l3 32c25,-1 0,-6 30,-8 8,22 -5,22 24,26 10,-12 0,-3 11,-10l5 4c3,2 4,3 6,5 15,-7 20,-4 39,-1l7 -11c10,5 -3,-4 11,11 20,-3 19,-18 24,7l12 0 1 -6 -3 -8c18,6 -3,13 32,10 0,-18 -3,-7 6,-12 4,7 1,11 18,14 9,-13 8,-13 7,-26 -25,16 -33,9 -74,6 1,-6 2,-10 0,-15l-3 -7c-1,0 -2,-1 -2,-2l-11 6c-16,-2 -26,1 -42,-2 -14,-2 -25,-3 -40,-3 -4,-15 -7,-11 -12,-24l-21 2 4 -13c-29,-1 -60,-2 -86,-11 -11,-4 -11,-4 -26,-4l-6 -11c-21,2 -13,2 -30,-4 -21,-5 -12,1 -24,-6l-6 8c-8,12 -7,7 -10,31 10,7 4,-1 9,9z"/>
   <path class="fil96" d="M293 916l-13 2c-4,8 -4,6 -11,13 -20,4 -4,2 -9,-6l0 -1 4 12 14 -10c1,-1 2,-1 2,-2 54,3 56,21 72,27 17,6 10,-1 18,13 12,-4 5,-10 16,-4 11,6 2,2 5,8 1,1 0,12 3,6 0,-1 1,1 1,3l18 -5c8,7 8,5 12,16 6,1 16,1 21,6 2,0 10,0 11,0l7 -5c1,-1 2,-2 3,-2l54 3c0,1 1,1 2,3l6 7c16,20 -5,24 31,29 -4,-22 2,-9 -8,-16l8 -2c2,27 -2,5 10,14 7,-10 6,-12 15,-16 0,0 1,0 2,-1 11,-4 12,-3 13,-15l9 -2c5,-9 4,-7 5,-20 8,3 3,2 7,0l3 -3c0,0 2,-2 3,-3 -9,-4 -3,0 -11,-7l-6 11 -9 1 -2 19c-24,0 -14,7 -32,7 -7,0 -19,-5 -32,-7 1,-1 1,-3 1,-4l2 -8c1,-2 1,-2 2,-6l-34 -16c-20,-14 9,1 -8,-6l-4 11c-24,-3 -10,-8 -35,-1 -11,-15 -14,-19 -33,-23 2,19 5,8 8,25 -10,-4 -10,-6 -14,-17 -37,-7 -9,-13 -41,-4l-2 -15 -14 0 -4 -14c-14,-1 -16,1 -21,13 -9,-2 -12,-5 -15,-13l14 -3 -3 -18 -21 -4 -20 30z"/>
   <path class="fil97" d="M168 697c-18,3 -17,18 -20,27 -5,15 -11,44 -10,62 0,5 0,11 2,15 5,15 2,-1 6,13 -2,9 -7,31 -11,38l-11 3c1,10 -1,22 -3,35l4 87c5,8 2,9 6,18 5,11 6,5 9,17 4,12 13,45 -3,51 8,13 7,21 7,41 2,3 2,2 5,7l13 16c1,1 5,6 6,8 4,6 7,12 10,18 1,0 5,9 5,9 6,8 0,4 8,6 1,-23 -37,-56 -38,-119l-3 11c-4,-27 -2,-48 -11,-70 -10,-22 -4,-116 9,-144 23,-52 4,-37 17,-64 24,-48 -2,4 24,-37 4,-7 7,-8 12,-11 8,-17 37,-64 56,-74l2 -9 20 -20c2,-15 2,-6 -2,-12 -28,3 -1,3 -20,14 -8,5 -14,2 -23,9 -26,22 -27,12 -28,34 -19,2 -8,-2 -14,7 -19,29 -20,22 -25,41 -4,19 -6,15 -13,29 -6,13 -1,8 -3,18 -4,17 -3,8 -8,11 -3,-25 6,-47 16,-68 3,-8 4,-7 9,-17z"/>
   <path class="fil98" d="M759 1064l-4 21c24,-6 5,-8 25,-8l1 26 -11 9c4,10 8,12 8,26 10,-3 5,3 15,-12 -7,-3 -8,5 -5,-11 1,-5 3,-10 5,-15 13,10 13,1 15,0l-2 6c1,1 3,3 4,3 6,4 -7,0 11,5 4,-10 1,-11 5,-22l17 2 -7 -25 -13 -5c1,-16 -3,-23 -8,-37 -1,1 -1,1 -1,2l-5 7c-8,5 -1,2 -12,1 3,-26 20,-4 -2,-36 29,-22 0,-8 20,-22l-9 -5c0,-1 -1,-2 -1,-3 -1,0 -2,-4 -3,-5 -5,-11 -1,-1 0,-13 -10,-6 -12,-6 -18,-17 3,-9 1,-5 5,-12l-3 -1c-11,-1 -9,7 -11,14 -31,-11 -3,-14 -33,-13 -9,28 8,14 7,43 0,14 -2,23 3,32 1,1 7,8 7,17 0,18 0,12 -13,14 3,14 2,-7 9,16 20,-2 16,1 18,5 2,7 1,5 -2,9 -6,6 -8,3 -12,4z"/>
   <path class="fil99" d="M320 87c-1,13 -12,18 -34,26 -12,5 -4,-1 -15,5l4 2c7,6 6,2 7,13 -12,9 -7,2 -20,7 1,12 1,6 10,18 -5,7 0,2 -6,7 -3,3 -7,4 -9,5l1 13 11 0c1,-23 -1,-1 8,-11 28,4 5,13 50,12 4,6 4,2 4,13l8 -1 7 -4c37,-2 18,-7 39,12 -3,9 -1,6 -8,10l8 0 12 0c25,2 43,-6 70,-4 12,1 29,0 39,1 16,2 12,9 33,11l-2 -7c-3,-2 -2,-1 -6,-3 -1,-13 0,-10 -3,-18 -17,0 -26,0 -33,11l-96 3c-8,0 -5,1 -1,-2 5,-4 8,-6 13,-10 25,-17 23,7 28,-22l-22 2c-5,8 -2,8 -11,10 -4,-7 -2,-5 0,-14 -14,0 -8,1 -14,-3 -17,0 -2,1 -8,-6 -4,-7 -8,-7 -14,-11l-19 -1 -15 -1c-7,11 -2,7 -13,11 -18,-13 -18,-15 -20,-32l8 -5c5,-19 4,-24 16,-26l0 -4c24,-1 16,0 41,-13 24,-13 40,1 53,-8 1,-1 3,-3 4,-3 16,-9 91,-2 98,-1l0 -4c-35,-1 -78,-7 -112,-1 -32,6 -61,15 -91,23z"/>
   <path class="fil100" d="M313 1143l23 -11c-1,3 -6,16 2,12 -1,1 -7,2 -8,2 0,0 -2,2 -3,1 0,0 -2,2 -2,2 -7,23 -2,4 1,16 2,10 -4,1 4,14 17,-7 8,-7 18,-10 4,11 0,6 6,17 15,-14 1,-1 9,-17 1,-2 6,-7 7,-8 12,5 -4,11 22,8 8,0 14,-4 17,-10 2,5 -1,7 15,11 -1,2 -1,0 -4,8 -3,8 2,-6 -3,13 18,0 24,-5 25,0l28 -3c12,11 -3,3 15,10 12,-5 6,-7 18,-7 32,-2 18,4 21,-7 0,-6 13,-12 -11,-10 1,0 3,6 8,-5 8,11 4,7 17,11l18 7 13 -14c0,-2 1,-2 2,-2l-12 0c-5,-25 -4,-10 -24,-7 -14,-15 -1,-6 -11,-11l-7 11c-19,-3 -24,-6 -39,1 -2,-2 -3,-3 -6,-5l-5 -4c-11,7 -1,-2 -11,10 -29,-4 -16,-4 -24,-26 -30,2 -5,7 -30,8l-3 -32c-12,4 -5,5 -18,15 -1,0 -2,-1 -3,-1l-6 -6c-14,-16 5,4 -4,-5l-6 -1c1,5 1,6 3,14 -25,-2 -17,-3 -20,-8 -16,2 -11,7 -25,2 -6,14 -8,1 -7,17z"/>
   <path class="fil101" d="M676 171l15 16 -31 17c4,16 2,7 11,19l-5 23 13 -2c0,11 1,11 6,19 35,7 5,15 62,21 1,-33 8,-10 10,-33l9 -1c-5,-15 -7,-11 -11,-25 -2,-6 -1,-9 -3,-15l-4 -8c0,-2 -1,-2 -2,-3 3,-5 2,-8 11,-8 -2,-9 2,-9 -11,-12l-17 -5c-7,4 -13,7 -22,9 -2,-3 -2,-1 -4,-7 -5,-14 6,-10 -7,-14 -10,-2 -8,6 -20,9z"/>
   <path class="fil102" d="M722 389l-13 0c-2,-24 2,-5 -13,-20l-13 -16c-14,-20 -9,-8 -12,-27l-4 -3c0,0 -1,-1 -1,-2l-21 -18c4,8 7,13 12,20 16,7 0,-8 9,6l19 31c8,10 12,23 16,38 13,20 7,8 9,36 14,7 13,6 31,27l-9 1 0 7c22,8 42,16 54,37l6 1 2 6c8,5 12,8 17,19 8,-3 6,2 8,9l3 2 8 4c-2,-6 -4,-10 -6,-17l2 -2c-9,-4 -6,3 -7,-7l-13 -20c-5,-13 3,-7 -7,-20 4,-2 9,-4 13,-6 4,-49 5,-25 9,-45 8,-37 -11,-122 -3,-147 -16,-10 -17,-19 -3,-18 -3,-4 -2,-4 -4,-10 -25,-6 -9,-8 -22,-19l1 40 9 4c4,18 4,21 9,36 6,19 3,20 4,39 1,40 6,60 -17,68 1,14 13,18 3,27 -13,6 -33,1 -52,0l5 -11c4,-6 0,-1 4,-6l-17 0c-2,-12 -1,-11 -11,-15 2,-29 -1,-10 -5,-29z"/>
   <path class="fil103" d="M306 257c-2,4 -4,8 -5,11 -6,9 -4,6 -12,14 -17,17 -20,28 -27,31 -14,38 -33,67 -26,119 11,-3 14,-4 17,-13 2,-5 1,-7 4,-12 3,-7 4,-5 7,-7 1,-14 7,-22 8,-34 3,-18 0,0 12,-21 7,-13 14,-42 32,-44 9,-17 9,-16 22,-28 12,-12 9,-12 31,-15l4 -10c37,-13 31,-9 33,-30l-18 6c-33,-1 -57,30 -82,33z"/>
   <path class="fil104" d="M916 1162c-12,21 -15,28 -30,47 -9,12 -6,8 -18,16 -14,9 -6,11 -22,15 -4,17 -13,20 -29,33 -3,2 -7,5 -10,7 -8,5 -15,9 -25,15 -25,16 -17,11 -28,11 -4,11 -19,19 -30,23 -14,7 -30,10 -49,10 -13,-1 -41,-1 -54,3 -17,6 -2,5 -21,8l-87 -1c-16,-2 -26,-7 -46,-7 -18,0 -42,-5 -56,-12 -13,-7 -30,-16 -46,-16l-12 0c4,4 -1,4 12,9 9,3 21,3 45,14 22,12 31,15 64,18 24,2 44,14 69,9 25,-5 55,0 84,-2l5 0c0,-9 10,-7 19,-8 16,-6 50,0 95,-27 14,-8 13,-4 22,-16 32,-7 21,-9 41,-22 13,-9 24,-19 35,-22 7,-15 17,-24 28,-33 14,-10 19,-18 28,-30 10,-11 37,-57 40,-71 -1,0 -2,1 -2,2 0,0 -1,1 -2,2l-9 13c-3,4 -7,8 -11,12z"/>
   <path class="fil105" d="M216 1186c9,20 21,23 34,36 22,23 46,45 74,62 9,5 12,10 20,15 13,8 9,0 21,15 16,0 33,9 46,16 14,7 38,12 56,12 -6,-8 1,-2 -9,-11 -88,-24 -29,-28 -88,-26 -9,-12 -19,-24 -32,-35 -16,-14 -5,-10 -18,-18 -8,-5 -6,1 -15,-13 -1,-1 -1,-2 -2,-3 0,0 -1,-1 -1,-2l-7 -1 -37 -24c-1,0 -4,-1 -5,-2 -1,0 -2,0 -2,-1l-5 -3c-1,0 -7,-5 -8,-6l-6 -6c9,-19 6,-12 1,-24 -10,0 -7,0 -18,4l0 -18c-17,2 -12,-12 -15,-29l-15 -8 0 -31c-15,-8 -3,-2 -16,-19 16,-1 3,0 8,-5 -5,-5 -3,-4 -11,-6 -3,6 -9,15 -6,21l15 30c18,38 2,37 20,42 6,23 3,22 21,38z"/>
   <path class="fil106" d="M783 294l6 4c1,0 4,1 5,2 0,9 -1,15 -2,21 0,13 0,-2 3,11 4,14 -4,6 2,24l3 6c-3,10 -6,16 -10,26l-16 2 -9 5c-12,-7 -7,2 -11,-12 -2,16 2,11 -6,24 -18,-5 -6,9 -14,-10 -1,-4 0,-8 0,-12 1,-14 6,8 -1,-6 0,-1 -4,-8 -4,-8l-8 0 -4 6c4,5 3,4 5,12 4,19 7,0 5,29 10,4 9,3 11,15l17 0c-4,5 0,0 -4,6l-5 11c19,1 39,6 52,0 10,-9 -2,-13 -3,-27 23,-8 18,-28 17,-68 -1,-19 2,-20 -4,-39 -5,-15 -5,-18 -9,-36l-9 -4 -1 -40c-9,7 -7,-12 -8,17 -3,-14 -7,-24 -16,-33 4,17 11,24 12,38 1,9 -2,15 1,24 3,10 2,-2 5,12z"/>
   <path class="fil107" d="M327 98l1 7c-1,0 -2,1 -2,1 -1,1 -1,1 -2,2 3,7 3,3 -3,15 -1,1 -1,2 -2,3 11,7 12,6 24,2 0,10 4,11 11,16 -4,2 -1,1 -3,7l19 1c6,4 10,4 14,11l12 2c-3,-19 -1,-9 3,-14 22,20 -2,20 45,20l-6 -6c-2,-3 -2,-5 -2,-11 -18,-8 -14,-5 -21,-30 -10,-1 -17,1 -24,3 -5,-10 -8,-20 -9,-32 18,-2 18,2 29,-4l8 -5c11,7 5,0 12,15l7 -1c-3,-1 -4,-1 -8,-4 -12,-9 -4,1 -10,-12 31,-28 46,-10 75,-11 13,-4 27,1 40,0 -2,-2 1,-7 -12,-4 -7,-1 -82,-8 -98,1 -1,0 -3,2 -4,3 -13,9 -29,-5 -53,8 -25,13 -17,12 -41,13l0 4z"/>
   <path class="fil108" d="M394 1078c-6,-1 -28,-8 -33,-2 -9,0 -27,2 -33,-3l-9 -6c-7,-3 -1,-1 -10,-1l-26 -5c17,6 9,6 30,4l6 11c15,0 15,0 26,4 26,9 57,10 86,11l-4 13 21 -2c5,13 8,9 12,24 15,0 26,1 40,3 16,3 26,0 42,2l11 -6 8 0c-2,-20 -4,-33 3,-47 -17,-6 7,-7 -24,-7 -3,7 -3,9 -5,17 -9,-34 -10,-22 -9,-44 -5,-4 2,-2 -10,-7l0 -12c-9,6 -7,-1 -7,12 0,2 3,9 4,11 -3,4 -3,3 -4,6 -8,15 1,11 -10,15 5,10 2,3 6,14 -11,13 -6,7 -8,15 0,2 -2,38 -29,13 -6,-6 -6,-6 -8,-14 -20,-3 -18,-9 -32,-11 -8,-1 -36,2 -34,-8z"/>
   <path class="fil109" d="M444 171l26 3c1,-1 2,-4 2,-3 1,1 1,-4 14,-11l1 -9 -20 -4 -2 -22c-10,-7 -10,-6 -16,-17l18 -3c1,-9 -1,-2 -3,-14 14,-17 28,-7 41,-12 -5,-6 7,0 -10,-6 -29,1 -44,-17 -75,11 6,13 -2,3 10,12 4,3 5,3 8,4l-7 1c-7,-15 -1,-8 -12,-15l-8 5c-11,6 -11,2 -29,4 1,12 4,22 9,32 7,-2 14,-4 24,-3 7,25 3,22 21,30 0,6 0,8 2,11l6 6z"/>
   <path class="fil110" d="M264 936c-3,3 -2,2 -7,5l-11 11c-1,0 -1,2 -2,3 -41,-1 -32,-14 -24,11l-5 5c3,13 4,6 10,21 9,17 -3,5 12,16l0 8c5,-4 4,7 4,-8l17 3c0,0 1,0 1,0l2 16c16,8 18,14 22,34l26 5c9,0 3,-2 10,1l9 6c6,5 24,3 33,3 -5,-8 7,-10 -27,-10l1 -2c0,0 -4,-12 -4,-13l-19 -5 -21 2c-7,-9 -16,-11 -22,-25 -8,-17 1,-9 -15,-26 3,-11 5,-16 3,-31 -2,-15 -3,-13 14,-17l2 4 -2 -5c1,-8 -2,-9 7,-15 18,-11 63,25 63,25 10,7 11,4 21,12 11,9 8,9 18,12 1,0 7,1 9,2l36 4c-4,-11 -4,-9 -12,-16l-18 5c0,-2 -1,-4 -1,-3 -3,6 -2,-5 -3,-6 -3,-6 6,-2 -5,-8 -11,-6 -4,0 -16,4 -8,-14 -1,-7 -18,-13 -16,-6 -18,-24 -72,-27 0,1 -1,1 -2,2l-14 10z"/>
   <path class="fil111" d="M895 742c14,10 15,27 17,45l12 6 1 23c21,14 27,42 30,73 -2,49 12,127 -2,166 1,32 -21,83 -37,107 4,-4 8,-8 11,-12l9 -13c1,-1 2,-2 2,-2 0,-1 1,-2 2,-2 8,-37 26,-38 29,-93 4,-86 0,-37 -6,-89 -1,-3 -2,-13 -2,-15 2,-27 1,-10 8,-18l-2 -2c-3,-26 -18,-68 -14,-96 -8,-10 -34,-60 -35,-74 0,-18 -1,-7 4,-11l-3 0 -12 -2 0 -16c-1,-11 1,-3 -6,-14l-15 -1 -17 -1 0 3 26 38z"/>
   <path class="fil112" d="M171 480l-11 2 3 3 17 -1c-4,24 1,6 -6,18 8,3 16,7 21,12l3 -22 19 0 0 -1 -19 -14c9,-4 11,-18 14,-29 -6,-3 -7,-3 -11,-6 2,-16 5,-12 4,-25 -3,-31 -1,-32 3,-67 5,3 -9,3 11,10 7,-5 11,-1 8,-15 -3,-9 -4,-3 -6,-4 4,-6 0,1 6,-10l9 2c11,-15 25,-7 13,-26 -1,-1 -3,-4 -5,-6l22 -4 6 -15 -28 13c-13,-13 0,-6 -10,-10 -11,13 -5,8 -19,19l3 29 -22 0 3 26 -12 10c-1,7 -6,34 -6,35 2,40 -10,26 5,41 -5,8 0,5 -9,8 4,8 5,1 16,10 -16,9 -11,3 -22,17z"/>
   <path class="fil113" d="M272 459l-6 6c-5,10 5,0 -5,10 -6,6 1,4 -12,6 1,1 2,2 3,2 1,0 2,1 3,2 3,1 5,1 9,1 9,-10 6,-3 13,-9 4,-3 13,-18 32,-25 5,3 9,7 13,9 -2,9 -5,16 -5,30 -14,6 -1,2 -13,6l3 24 -12 -1 -9 2c6,15 -6,6 11,13 -16,13 -15,4 -31,14l2 5 0 3c38,2 23,33 57,21 5,-2 0,0 8,-3l25 -4 2 10c7,-1 18,-3 25,-6l1 -17c-23,5 -18,7 -48,7 -4,-30 3,-6 -17,-23 4,-12 7,-11 6,-16 -18,20 -18,8 -23,5 5,-12 5,-7 13,-14l12 -11c-5,-8 -5,-21 -8,-32 1,-1 2,-2 2,-3l4 -4c10,-8 12,-5 26,-3 1,-11 3,-12 3,-23l-26 0c0,1 -1,2 -1,2l-10 3c-6,-6 -7,-2 -12,-12 -6,6 -11,8 -17,13 -8,5 -9,8 -18,12z"/>
   <path class="fil114" d="M431 324l19 2c9,-1 12,-1 21,-1l15 4 6 -15c14,5 18,6 35,3l1 -23c-7,-3 -9,-3 -18,-6l-58 -7 -2 -14c0,-1 -1,-1 -1,-2 -21,4 -52,-5 -52,24 -14,1 -19,1 -22,13 35,16 14,-1 38,9 2,-15 1,-11 20,-12l-2 25z"/>
   <path class="fil115" d="M625 325c15,-5 16,21 15,35 -27,-2 -34,-16 -15,-35zm-69 -33c-1,-4 -12,-20 26,-16 29,3 18,20 45,33l-2 16c-17,1 -17,0 -28,-7l-8 -5 0 13c3,2 7,5 10,8 8,8 5,3 7,13l-25 -3c1,1 2,1 2,3l10 7c4,4 5,8 7,11 41,5 13,5 35,9l0 11c7,5 3,-4 8,5l8 -12c0,0 1,-1 2,-1l-3 -8c-8,-25 6,3 -18,-48 0,-1 -1,-2 -1,-3 -4,-8 -2,-12 -9,-16 -1,0 -2,0 -2,-1 -1,0 -2,-1 -3,-1 -12,-7 -11,-5 -14,-17 -2,-4 -2,-4 -7,-7 -30,-20 -35,-5 -47,-25 -17,2 -11,1 -25,-1 -22,-4 -12,-3 -18,4 -13,-14 -16,-8 -65,-10l1 12 32 5c0,1 1,5 1,5 3,8 2,4 6,9 32,-1 17,7 40,9 19,1 17,2 35,8z"/>
   <path class="fil116" d="M139 990c7,-4 5,2 4,-13 -1,-16 -3,3 -2,-9 1,-10 -4,-1 5,-8l0 1c3,-11 2,-9 0,-23 21,-2 15,3 16,-9l11 2c-3,-6 -9,-18 -3,-26l3 -7c0,0 0,-7 0,-10 -2,-16 1,-14 2,-29l-10 -8c6,-17 5,0 8,-19 5,-46 13,-19 11,-61l6 -6c3,-19 7,-14 11,-31 -5,3 -8,4 -12,11 -26,41 0,-11 -24,37 -13,27 6,12 -17,64 -13,28 -19,122 -9,144z"/>
   <path class="fil117" d="M167 363l-1 -15 26 2c-5,-9 -3,-6 -11,-11 -11,-7 -3,1 -10,-9 5,-24 14,-18 27,-34l14 1c9,-18 -6,-12 20,-20 25,-8 16,-1 34,1 3,-12 3,-10 11,-19l4 -4c1,-1 2,-2 3,-3l8 9c0,0 1,1 2,1l7 6c1,-3 3,-7 5,-11 -21,5 -4,1 -11,-2 12,-20 18,-5 17,-27 -1,-1 -3,-4 -4,-2 0,1 -2,-2 -3,-2 -15,0 -8,6 -24,9 14,27 -19,24 -26,29 -3,-16 1,-2 -8,-14 -11,9 -10,-13 -10,21l-18 -21c-8,9 -3,-7 -7,14l-25 2c-1,1 -2,1 -2,3 0,2 -3,4 -4,5l-5 5c-5,4 -3,-1 -9,13 -9,-4 1,-1 -13,-5 2,14 8,21 -1,32 4,6 3,6 7,9 -10,10 -3,-1 -9,11l10 7c-2,12 -3,7 -5,17l11 2z"/>
   <path class="fil118" d="M360 581c-6,4 -13,11 -22,17l-11 12c-1,1 -3,5 -3,7l20 -4 11 0 0 -6 -4 -8c45,-4 14,-7 43,-8 2,-10 0,-4 3,-11 1,0 2,-2 3,-1l20 -20c0,-25 2,-3 -11,-12l-52 6 -1 -18c-9,1 -7,6 -19,0l3 -9c1,-1 2,-1 3,-2l-7 -9c-1,0 -1,-1 -2,-2l5 -16c-9,-6 -1,3 -6,-10l30 -13c0,-7 0,-14 0,-19 -2,-19 4,-9 -7,-14 0,11 -2,12 -3,23 -14,-2 -16,-5 -26,3l-4 4c0,1 -1,2 -2,3 3,11 3,24 8,32l-12 11c-8,7 -8,2 -13,14 5,3 5,15 23,-5 1,5 -2,4 -6,16 20,17 13,-7 17,23 30,0 25,-2 48,-7l-1 17c-7,3 -18,5 -25,6z"/>
   <path class="fil119" d="M655 833l15 10c-6,11 -11,13 -2,26 6,-4 1,0 7,-5l9 -2c1,0 4,2 5,3 5,-6 5,-12 16,-6 13,6 1,-2 -1,13 8,6 13,5 18,7 -2,4 4,5 -8,8 -13,3 -8,-1 -9,-1 -9,-1 -5,-4 -14,0l15 10c9,4 15,4 23,-1l3 6c1,0 4,6 4,6l3 -11c13,1 12,0 21,-3 0,21 -11,6 -3,18l18 -3c-4,-9 5,-7 -4,-8 3,-6 3,-6 12,-8l21 -6 -4 -12c-11,2 -1,-5 -10,7 -11,-2 -30,-5 -40,-5l0 -15 -20 -1c5,-8 4,-1 1,-16l-25 -3 1 -30c-7,9 -3,-5 -7,13 -25,-2 -15,-2 -32,12l-13 -3z"/>
   <path class="fil120" d="M362 1352l1 -21c18,0 34,8 45,15l1 14c9,4 29,4 41,7l33 -3c13,4 7,3 12,6 0,6 -2,3 7,4 3,0 12,0 15,0 9,0 19,0 28,0 4,-5 0,-3 8,-5 4,-1 10,-1 14,-1 13,0 14,-1 22,6 11,6 20,4 37,4l1 -16c-29,2 -59,-3 -84,2 -25,5 -45,-7 -69,-9 -33,-3 -42,-6 -64,-18 -24,-11 -36,-11 -45,-14 -13,-5 -8,-5 -12,-9l-12 -1c-19,-7 -19,-15 -42,-21 -12,-3 -15,-8 -15,3 16,9 9,10 20,16 11,5 11,3 22,11 13,10 24,21 36,30z"/>
   <path class="fil121" d="M52 592l0 4 8 6 1 -6c24,1 3,2 12,-4 -4,-7 -5,-10 -12,-13l-1 -12 -1 -23c15,-8 15,0 15,-14 -18,7 -15,9 -31,-6 2,-17 1,-7 1,-27l17 3c1,-11 3,-15 8,-20l6 34 16 3c-1,-27 -8,-3 -8,-36 0,-11 3,-25 -4,-30l-8 -1c-2,-26 -4,1 -6,-23l-19 -5c-1,5 -2,18 -2,19 -4,16 -6,9 -13,11 7,23 0,0 -2,29 10,8 -14,7 14,7 -2,6 -5,2 -6,16 -2,15 4,-2 -2,31l19 37c3,9 2,8 4,20l-6 0z"/>
   <path class="fil122" d="M330 747l1 10c-9,7 -5,1 -8,14 18,2 2,-4 43,1 1,-1 2,-3 2,-3l5 -10c7,-12 14,-9 41,-10l30 -1 -1 -4 13 3 -2 -19 -27 -9c-4,2 -3,4 -3,-1 -49,2 -61,-3 -72,19l-10 -5 -12 15z"/>
   <path class="fil123" d="M494 152c5,3 11,16 25,21l39 11c4,29 6,18 31,25l-13 -14c11,-6 7,-1 5,-16l-39 -30c-18,3 -7,-4 -13,8 -3,-20 5,-3 -21,-24 2,-8 -1,-2 2,-7l5 -6c3,-8 4,-9 6,-17l-8 -5 -25 1c0,1 -1,2 -1,2 -6,13 -9,18 -7,28 4,20 20,9 14,23z"/>
   <path class="fil124" d="M201 734c-4,17 -8,12 -11,31 1,16 -2,16 6,26 0,-13 15,-31 19,-35 16,-16 9,8 27,-27 1,0 1,-1 2,-2 11,-7 5,-6 11,-9l1 -18c13,-9 2,3 5,-18 4,-7 15,-4 21,-22l-30 11c1,-16 2,1 5,-11 -19,10 -48,57 -56,74z"/>
   <path class="fil125" d="M687 1222c2,11 -2,3 10,11 12,8 7,0 12,14 25,-1 7,-5 26,3l-3 -12c13,0 11,2 20,-2 -6,-8 -2,-5 -16,-7 7,-3 -3,13 -18,-9 4,-3 7,-10 17,-2l-5 -26c16,-4 8,14 15,3 1,-1 3,2 4,2 -2,-18 -1,-20 -17,-16l-1 -11c-15,-3 -11,-7 -21,3l-3 -8 -14 -1 3 1c-3,9 5,8 -3,8l-17 16c-1,0 -3,2 -3,1 0,0 -2,1 -3,2 13,2 10,3 19,9 -4,17 -4,7 -2,21z"/>
   <path class="fil126" d="M264 400c-4,21 -2,17 -14,29l1 17c11,-9 4,-6 12,-16 9,-13 14,-15 32,-15l3 -4 3 -9c-9,-10 -9,-9 -6,-31l49 9c12,0 13,1 23,3l1 -18 15 0c-7,-5 -4,-5 -16,-3 -4,1 -5,3 -14,3 2,-5 1,1 2,-6 0,-1 -1,-1 -1,-2l-3 -4c0,-1 -2,-1 -2,-2 -1,0 -2,-1 -2,-1l-11 -8c-11,-8 -4,-5 -20,-7 -2,4 -10,-4 -2,15 -16,0 -8,-2 -17,8 -15,18 -14,33 -33,42z"/>
   <path class="fil127" d="M500 440l-17 5c-9,4 -8,-5 -9,5 -12,7 -8,-7 -9,16 -2,26 15,14 25,24 4,4 2,2 6,5 5,3 3,0 10,7 6,-3 7,-4 11,-8 15,3 8,5 24,4 -2,-13 -3,-4 -9,-17 7,-9 4,-5 13,-11 -24,-2 -10,-13 -24,-34 -11,2 0,-5 -11,6l-10 -2z"/>
   <path class="fil128" d="M860 318l12 27c0,1 1,2 1,3 13,39 1,0 11,22l6 96c0,36 -15,78 -13,97 5,-4 3,1 6,-6 0,-1 2,-8 3,-9 1,-8 2,-13 4,-21 4,-15 4,-16 4,-36 5,-1 5,2 6,-6l-3 -69 -1 -14 0 -7 0 -4 -1 -4 -4 -21c-1,-12 -3,-10 3,-14 -6,-16 5,5 -2,-5 -2,-2 -4,-5 -5,-6l0 -4 -5 -6c0,0 -1,0 -1,0 0,-1 -1,-1 -2,-1 0,-26 -1,-11 -7,-29l0 -3 -3 -4 -4 -4c-8,-15 2,-12 -7,-10 -11,9 -18,4 -31,-6 6,15 6,12 16,20 5,5 5,5 9,9 7,7 4,-3 8,15z"/>
   <path class="fil129" d="M669 459l6 -1c1,18 5,27 18,33 18,8 19,10 31,19 8,0 5,-1 1,6 28,5 61,50 83,69 7,6 6,4 12,12 11,14 6,8 15,13 -7,-18 -13,-12 -16,-30 -6,-3 -1,1 -8,-6 -4,-3 -2,-3 -5,-6 -12,-5 -12,-5 -16,-16l-9 -9c-22,-12 -40,-31 -63,-56l2 -19 12 1 0 -7c-15,-6 -2,-7 -26,-6l-6 -13 -31 16z"/>
   <path class="fil130" d="M590 513c-3,8 3,3 -4,7 23,1 9,7 39,7 5,4 4,-6 4,9 16,8 26,5 49,8 10,12 3,10 18,14 11,-1 17,2 24,-3l17 -13 -14 -7 2 -19 -14 -1c-1,11 -2,22 -12,24 8,-9 -2,-14 -3,-15 -22,11 11,6 -31,8l0 -24c-28,6 -30,2 -40,-2 -12,9 -13,6 -35,7z"/>
   <path class="fil131" d="M191 962c-2,14 0,14 4,25 -12,24 -2,8 -1,50 -4,4 0,5 -9,7l4 13 19 1c2,-11 8,-8 23,-10 -1,-17 -4,-23 6,-32l0 -8c-15,-11 -3,1 -12,-16 -6,-15 -7,-8 -10,-21l-9 0c0,-16 0,-12 -5,-18 0,1 -1,2 -2,2 0,1 -2,2 -2,2l-6 5z"/>
   <path class="fil132" d="M265 509l-2 27c-12,-1 -13,-2 -21,-6 0,-21 0,-25 23,-21zm-86 59l11 -3c4,-4 7,-10 11,-15l21 4c2,31 -5,27 -7,52 13,-5 1,2 14,-7 5,-15 -2,-7 8,-19 8,-10 8,-6 11,-21 17,-5 3,-4 18,-10 1,-23 7,-18 12,-32l-12 -12c-6,-5 -8,-5 -14,-9 -5,5 -2,1 -7,7l-30 30c-18,17 -24,3 -36,35z"/>
   <path class="fil133" d="M666 246l5 -23c-9,-12 -7,-3 -11,-19l31 -17 -15 -16c-15,0 -8,-2 -19,5 0,-28 1,-5 -6,-14l0 17 -20 -6 0 -18c-6,5 -8,-5 -3,24l-12 11c2,5 5,11 7,16l11 -1c-2,11 -2,7 -3,10 -3,7 -2,-2 -4,13 11,1 6,2 15,-2l-3 14c17,3 12,0 27,6z"/>
   <path class="fil134" d="M139 990c9,22 7,43 11,70l3 -11c1,63 39,96 38,119 14,8 8,8 25,18 -18,-16 -15,-15 -21,-38 -18,-5 -2,-4 -20,-42l-15 -30c-3,-6 3,-15 6,-21 10,-3 7,-27 6,-36 -1,-16 -3,-25 -3,-43 -9,2 -6,-3 -9,5l-8 -6c0,-1 -1,-1 -2,-1 1,-5 5,-16 -4,-14 -9,7 -4,-2 -5,8 -1,12 1,-7 2,9 1,15 3,9 -4,13z"/>
   <path class="fil135" d="M497 528c28,0 38,4 63,4 19,0 50,1 69,4 0,-15 1,-5 -4,-9 -30,0 -16,-6 -39,-7 -7,7 -10,4 -22,4 -1,-1 -1,-2 -2,-3l-2 -3c-1,-2 -6,-8 -8,-8 -14,-7 -14,2 -21,10 -9,-6 -1,1 -10,-7 0,-1 -4,-6 -5,-6 -13,5 -10,4 -27,4 -14,-14 -10,-5 -33,-15 -3,-4 1,-2 -5,-5l-4 -20 12 -8 0 -32 -5 3c-8,7 -6,7 -2,25l-14 15 1 23c0,1 1,2 2,2l56 29z"/>
   <path class="fil136" d="M624 99c0,6 -1,4 5,4 5,1 11,3 15,4 11,4 1,6 20,5 -1,-9 -1,-12 -4,-17 -9,-15 -22,-6 -17,-27 17,5 6,8 25,7l4 -9 -34 -14c-8,2 -10,4 -17,4 -14,0 -14,-4 -18,-5 -9,-3 -27,-1 -39,-3 6,10 -3,7 28,14l0 21c22,-4 37,6 46,17l-14 -1z"/>
   <path class="fil137" d="M88 448c7,12 3,6 6,22 12,7 5,0 9,11 -11,10 -7,-1 -9,10 14,8 8,7 23,10 7,43 49,10 52,8 -2,-14 -3,-11 -6,-24l-3 -3 11 -2 -1 -23c0,-1 2,-1 2,-1 -2,-6 -8,-18 0,-21l-21 4 3 24 -23 23c-1,-1 -2,1 -2,2 7,15 1,1 8,11 3,5 4,7 6,16 -22,-3 -8,5 -20,-17 -1,-1 -2,-3 -3,-4 0,-5 -8,-4 -11,-3l0 -18 -13 -10c3,-9 2,-6 6,-15l-14 0z"/>
   <path class="fil138" d="M572 1095c15,-6 19,-11 41,-10l-1 32c-27,4 -40,7 -40,-22zm39 -73c7,-3 11,-4 21,-5 3,4 2,2 5,9l7 18 -11 19c-4,6 1,1 -6,8 -1,1 -4,3 -5,4 0,0 -2,2 -2,1 0,0 -2,2 -2,2l-22 -5 -3 -25c0,-2 0,-3 -1,-4l-4 4 -1 28c-7,7 -13,10 -18,18l-2 15c4,19 42,15 47,12 11,-15 5,-14 13,-28 8,-12 21,-17 24,-35 1,-6 1,-11 1,-18 -1,-20 -8,-40 -32,-31 -14,5 -10,-1 -9,13z"/>
   <path class="fil139" d="M766 250l-9 1c-2,23 -9,0 -10,33 -57,-6 -27,-14 -62,-21 -5,-8 -6,-8 -6,-19l-13 2c3,16 7,9 12,26 27,2 8,5 35,13l22 28c5,4 2,2 8,5 8,-12 0,-11 11,-19 5,8 0,9 -1,20 13,-2 17,-4 22,-14 -4,-9 1,-5 -9,-9l4 -23c-4,-2 -12,-2 -2,-4l-2 -19z"/>
   <path class="fil140" d="M397 1013l27 3c35,5 55,32 17,39 -16,3 -12,3 -25,9 -37,0 -24,-1 -51,-12 -16,-6 -37,-11 -53,-15l0 9 19 5c19,5 64,24 78,23 9,-1 25,-10 34,-12 11,-2 13,-1 22,-4 6,-2 4,-1 7,-3 14,-7 5,-2 12,-7l-4 -18 -100 -32c0,11 11,10 17,15z"/>
   <path class="fil141" d="M146 961l0 -1c9,-2 5,9 4,14 1,0 2,0 2,1l8 6c3,-8 0,-3 9,-5 0,18 2,27 3,43 1,9 4,33 -6,36 8,2 6,1 11,6l11 2 1 -6 -4 -13c9,-2 5,-3 9,-7 -1,-42 -11,-26 1,-50 -4,-11 -6,-11 -4,-25 -17,-8 10,-7 -16,-8l-29 7z"/>
   <path class="fil142" d="M327 30l-7 3 -7 2 -4 2 -7 1c-4,3 -2,2 -4,-2 -3,2 -5,1 -7,3 -10,7 -1,-8 -7,8l24 7 15 4 7 -10c1,0 42,-19 48,-3 6,6 4,-7 5,6l5 -4 10 -15c-12,-13 -4,-6 -7,-3 2,-1 5,-2 6,-4 2,0 4,4 9,-9l-26 3c-16,-2 -37,7 -53,11z"/>
   <path class="fil143" d="M742 602l34 24 8 0c15,10 3,6 23,9 -6,-25 -5,-10 -20,-30 -1,0 -40,-16 -30,-18l-14 -2c-8,-8 -12,-10 -23,-11 -17,-4 -17,-9 -42,-10 15,25 5,-2 33,20 27,22 18,4 31,18z"/>
   <path class="fil144" d="M241 456c4,-2 7,-6 10,-10l-1 -17c12,-12 10,-8 14,-29 -3,2 -4,0 -7,7 -3,5 -2,7 -4,12 -3,9 -6,10 -17,13 -7,-52 12,-81 26,-119 -1,1 -2,2 -3,2l-5 4c-9,11 -14,46 -21,50l-22 29c17,2 7,1 14,4l-2 9c-1,1 -1,3 -2,4 -6,17 9,18 -2,49 15,0 2,-8 22,-8z"/>
   <path class="fil145" d="M179 568c-2,2 -3,2 -4,5 -4,4 -2,1 -5,7l6 -1 3 -6c9,0 0,-3 7,1l5 3c6,2 4,-3 8,2 4,12 0,26 -7,34l3 25c-2,1 -5,3 -5,4 -6,3 -1,0 -8,4 -9,14 -6,7 -11,26 10,0 4,2 10,-11 10,-20 11,-11 18,-22 9,-15 0,-15 16,-33 2,-25 9,-21 7,-52l-21 -4c-4,5 -7,11 -11,15l-11 3z"/>
   <path class="fil146" d="M936 1093c-3,14 -26,65 -34,73 -5,17 -24,37 -37,50 -1,1 -7,6 -8,7l-7 8c-1,1 -2,2 -3,3 -8,0 0,-1 -1,6 16,-4 8,-6 22,-15 12,-8 9,-4 18,-16 15,-19 18,-26 30,-47 16,-24 38,-75 37,-107l-5 -4c-2,22 -4,10 -7,22 -3,13 3,9 -5,20z"/>
   <path class="fil147" d="M252 1103l-7 6c1,9 2,9 5,18l-6 3c14,3 6,2 19,6l14 -4c1,-11 2,-12 4,-24 3,-15 -2,-14 8,-16l1 -15 -24 2c-5,-15 -1,-9 -18,-14 1,33 -4,17 7,22 -2,7 -4,3 -3,16z"/>
   <path class="fil148" d="M226 925l34 -1 0 1 13 -15c0,-1 1,-2 2,-2l2 -21 -11 2c-6,-2 -7,-3 -11,-7l-7 4c-15,-8 0,-5 -19,-8 -2,10 -2,6 -10,15l7 32z"/>
   <path class="fil149" d="M440 696l6 14c-2,1 -3,1 -4,3 -4,9 0,1 -15,6l27 9c12,1 14,2 26,-1 7,-2 7,-2 7,-2 1,0 11,0 15,-1 5,-15 3,-2 -3,-11l-28 -17c-9,0 0,1 -4,-9l-12 -8c-3,-2 -6,-2 -10,-2l-5 19z"/>
   <path class="fil150" d="M298 1000l27 14c19,10 52,26 70,27 -2,-15 -11,-23 -21,-29 -11,-7 -20,-15 -33,-19l-2 -8 -3 0 -2 8c-18,2 -15,-3 -24,8l-12 -1z"/>
   <path class="fil151" d="M819 580c23,19 32,45 43,56l-2 -13c15,-2 7,1 13,-7l-14 0 -10 -37c-8,-7 -13,-10 -16,-23l-7 -5 -4 -8 -3 -2 -8 -9c-8,-1 -7,7 -7,-1l-9 -4c-13,24 22,5 24,53z"/>
   <path class="fil152" d="M897 803l0 12c9,5 6,1 9,8l13 37c9,37 15,25 17,52l12 -3 0 -20c0,-16 -2,-26 -10,-36 -9,-10 -7,-2 -11,-14 -5,-13 3,-4 -8,-15l-5 -2c-3,-18 0,-16 -9,-26l-1 7 -7 0z"/>
   <path class="fil153" d="M299 1292c23,6 23,14 42,21 -10,-17 -4,-7 -21,-19 -90,-64 -64,-56 -120,-109l-10 -8c3,16 16,24 25,36 18,22 44,53 70,67l14 12z"/>
   <path class="fil154" d="M148 635c21,-12 7,-13 25,-22 6,10 1,10 11,26l-2 7c7,-4 2,-1 8,-4 0,-1 3,-3 5,-4l-3 -25c7,-8 11,-22 7,-34 -4,-5 -2,0 -8,-2l1 11 -2 13 -16 1 2 -23 -6 1 -5 -1c-5,16 -18,36 -17,56z"/>
   <path class="fil155" d="M651 1354c-9,1 -19,-1 -19,8l36 -4 9 16c29,-2 49,-16 73,-22 1,-28 13,-22 40,-21l7 0 1 -7c-8,-8 10,-6 -7,-6 -11,10 -22,3 -42,9 -3,6 -7,15 -13,19 -28,20 -55,5 -85,8z"/>
   <path class="fil156" d="M25 371c-12,23 4,49 -11,77 9,20 1,32 7,52 0,2 1,5 3,8 4,6 1,2 6,6 0,-20 -2,-17 -6,-32 -2,-10 0,-77 7,-92l-3 -14c16,-19 7,-39 10,-63 -2,1 -5,2 -7,4 -2,14 -8,17 -8,28 -2,18 6,7 2,26z"/>
   <path class="fil157" d="M834 647l-14 0c4,13 16,11 16,23 11,5 1,1 10,6 7,5 5,2 9,8 6,8 1,11 14,20l0 -3 -3 -18c6,-7 5,-2 6,-14l-22 -40c-8,-12 -6,-7 -14,-13 9,14 11,14 13,31l-15 0z"/>
   <path class="fil158" d="M919 824c11,11 3,2 8,15 4,12 2,4 11,14 8,10 10,20 10,36l7 0c-3,-31 -9,-59 -30,-73l-1 -23 -12 -6c-2,-18 -3,-35 -17,-45 3,12 5,14 7,25 0,6 1,15 3,21 5,16 10,12 14,36z"/>
   <path class="fil159" d="M381 685l-5 14c6,5 11,9 15,15l26 -7c8,-11 13,-8 18,-18 -19,-17 -37,-5 -54,-4z"/>
   <path class="fil160" d="M298 411l4 -4c13,-11 11,-9 31,-8 -3,18 -6,16 -15,27 5,-5 14,-12 16,-17 7,-9 4,-15 11,-26l-1 -3 -49 -9c-3,22 -3,21 6,31l-3 9z"/>
   <path class="fil161" d="M101 907c0,16 9,58 14,68l10 2 -4 -87 -3 20c-11,0 -7,0 -17,-3z"/>
   <path class="fil162" d="M467 836c4,10 13,29 14,39 11,-2 -3,-1 3,-14 5,-11 11,-5 16,-4 25,13 15,-2 17,-3 -9,-18 -11,-10 -24,-19 0,-1 -1,-1 -2,-2 0,0 -1,-1 -1,-2l-5 -6c-8,3 -11,4 -18,7l0 4z"/>
   <path class="fil163" d="M266 864l-11 18c4,4 5,5 11,7l11 -2 18 -1c16,2 3,2 9,-3l-3 -18 -10 0 -10 -8 -10 0 -5 7z"/>
   <path class="fil164" d="M675 1339c19,0 35,-3 49,-10 11,-4 26,-12 30,-23 -19,-2 -28,6 -42,12 -15,8 -26,7 -37,21z"/>
   <path class="fil165" d="M255 60c9,9 -4,2 9,17 6,-10 5,-6 20,-6 3,-7 0,-11 24,-17l-24 -7 -29 13z"/>
   <path class="fil166" d="M75 223c2,-6 9,-17 13,-21 4,-4 5,-5 8,-9 8,-10 -1,-3 12,-12l2 -5c3,-10 0,-7 8,-15 5,-6 1,-1 6,-6 5,-5 0,0 5,-8 -6,3 -11,9 -11,0 -19,14 -30,53 -46,65l3 11z"/>
   <path class="fil167" d="M891 366l4 21 1 4 0 4c14,0 3,5 0,7l1 14c7,0 4,17 4,25l3 0c0,-21 2,-54 -2,-72 -5,-19 -5,-13 -8,-17 0,2 0,5 -1,7 -1,8 -1,4 -2,7z"/>
   <path class="fil168" d="M242 530c8,4 9,5 21,6l2 -27c-23,-4 -23,0 -23,21z"/>
   <path class="fil169" d="M862 636c6,13 6,19 17,27 -4,-17 -3,-25 -3,-47l-3 0c-6,8 2,5 -13,7l2 13z"/>
   <path class="fil170" d="M307 1039l-35 -40c1,29 3,15 12,26 9,11 1,16 23,14z"/>
   <polygon class="fil171" points="651,162 644,157 631,155 631,173 651,179 "/>
   <path class="fil172" d="M869 701l17 1c-4,-10 -4,-8 -7,-16 -2,-5 -1,-5 -2,-8 -3,-6 -3,-6 -5,-9 -1,12 0,7 -6,14l3 18z"/>
   <path class="fil173" d="M252 455l-5 11 19 -1c6,-11 4,0 5,-17l-19 7z"/>
   <path class="fil174" d="M830 547l0 -1 17 10 -1 -11c-8,-6 -10,-13 -22,-15 2,7 4,11 6,17z"/>
   <path class="fil175" d="M118 147c0,9 5,3 11,0l3 -3 -3 -15 -5 9c-5,7 -1,-2 -6,9z"/>
   <path class="fil176" d="M858 269l7 4c-1,-17 4,-7 -7,-15l0 11z"/>
  </g>
 </g>
</svg>
